%TF.GenerationSoftware,KiCad,Pcbnew,7.0.9*%
%TF.CreationDate,2024-02-28T20:27:22+01:00*%
%TF.ProjectId,logger_pcb_kicad,6c6f6767-6572-45f7-9063-625f6b696361,rev?*%
%TF.SameCoordinates,Original*%
%TF.FileFunction,Soldermask,Top*%
%TF.FilePolarity,Negative*%
%FSLAX46Y46*%
G04 Gerber Fmt 4.6, Leading zero omitted, Abs format (unit mm)*
G04 Created by KiCad (PCBNEW 7.0.9) date 2024-02-28 20:27:22*
%MOMM*%
%LPD*%
G01*
G04 APERTURE LIST*
G04 Aperture macros list*
%AMRoundRect*
0 Rectangle with rounded corners*
0 $1 Rounding radius*
0 $2 $3 $4 $5 $6 $7 $8 $9 X,Y pos of 4 corners*
0 Add a 4 corners polygon primitive as box body*
4,1,4,$2,$3,$4,$5,$6,$7,$8,$9,$2,$3,0*
0 Add four circle primitives for the rounded corners*
1,1,$1+$1,$2,$3*
1,1,$1+$1,$4,$5*
1,1,$1+$1,$6,$7*
1,1,$1+$1,$8,$9*
0 Add four rect primitives between the rounded corners*
20,1,$1+$1,$2,$3,$4,$5,0*
20,1,$1+$1,$4,$5,$6,$7,0*
20,1,$1+$1,$6,$7,$8,$9,0*
20,1,$1+$1,$8,$9,$2,$3,0*%
%AMFreePoly0*
4,1,9,3.862500,-0.866500,0.737500,-0.866500,0.737500,-0.450000,-0.737500,-0.450000,-0.737500,0.450000,0.737500,0.450000,0.737500,0.866500,3.862500,0.866500,3.862500,-0.866500,3.862500,-0.866500,$1*%
G04 Aperture macros list end*
%ADD10C,1.200000*%
%ADD11O,1.600000X2.300000*%
%ADD12O,2.500000X1.600000*%
%ADD13O,1.600000X2.500000*%
%ADD14RoundRect,0.250000X-0.312500X-0.625000X0.312500X-0.625000X0.312500X0.625000X-0.312500X0.625000X0*%
%ADD15RoundRect,0.250000X0.625000X-0.312500X0.625000X0.312500X-0.625000X0.312500X-0.625000X-0.312500X0*%
%ADD16O,1.600000X2.000000*%
%ADD17O,3.048000X1.850000*%
%ADD18RoundRect,0.250000X-0.250000X-0.475000X0.250000X-0.475000X0.250000X0.475000X-0.250000X0.475000X0*%
%ADD19R,2.100000X2.100000*%
%ADD20C,2.400000*%
%ADD21RoundRect,0.250000X0.250000X0.475000X-0.250000X0.475000X-0.250000X-0.475000X0.250000X-0.475000X0*%
%ADD22R,3.500000X3.500000*%
%ADD23C,4.000000*%
%ADD24C,1.600000*%
%ADD25O,1.600000X1.600000*%
%ADD26R,2.800000X2.800000*%
%ADD27R,0.900000X1.300000*%
%ADD28FreePoly0,270.000000*%
%ADD29RoundRect,0.250000X0.750000X-0.600000X0.750000X0.600000X-0.750000X0.600000X-0.750000X-0.600000X0*%
%ADD30O,2.000000X1.700000*%
%ADD31R,1.600000X1.600000*%
%ADD32R,0.250000X1.100000*%
%ADD33R,1.980000X3.960000*%
%ADD34O,1.980000X3.960000*%
%ADD35R,2.000000X2.000000*%
%ADD36C,2.000000*%
%ADD37R,1.400000X1.400000*%
%ADD38C,1.400000*%
%ADD39C,0.900000*%
%ADD40R,1.600000X0.700000*%
%ADD41R,2.200000X1.200000*%
%ADD42R,1.400000X1.600000*%
%ADD43R,1.400000X1.200000*%
%ADD44R,1.800000X1.800000*%
%ADD45C,1.800000*%
%ADD46R,1.700000X1.700000*%
%ADD47O,1.700000X1.700000*%
%ADD48RoundRect,0.102000X-0.765000X0.765000X-0.765000X-0.765000X0.765000X-0.765000X0.765000X0.765000X0*%
%ADD49C,1.734000*%
%ADD50C,1.000000*%
G04 APERTURE END LIST*
D10*
%TO.C,J4*%
X125850000Y-132000000D03*
X125850000Y-134500000D03*
X130850000Y-127000000D03*
X135850000Y-132000000D03*
X135850000Y-134500000D03*
D11*
X125770000Y-127020000D03*
X128350000Y-127000000D03*
D12*
X130810000Y-132030000D03*
D13*
X135930000Y-127020000D03*
X133350000Y-127000000D03*
%TD*%
D14*
%TO.C,R13*%
X173289500Y-102362000D03*
X176214500Y-102362000D03*
%TD*%
D15*
%TO.C,R1*%
X192024000Y-87568500D03*
X192024000Y-84643500D03*
%TD*%
%TO.C,R7*%
X139192000Y-114046000D03*
X139192000Y-111121000D03*
%TD*%
D16*
%TO.C,J2*%
X145796000Y-49530000D03*
X148336000Y-49530000D03*
X150876000Y-49530000D03*
X153416000Y-49530000D03*
%TD*%
D15*
%TO.C,R2*%
X192024000Y-71058500D03*
X192024000Y-68133500D03*
%TD*%
D17*
%TO.C,SW3*%
X175714000Y-83746000D03*
X188214000Y-83746000D03*
X175714000Y-88746000D03*
X188214000Y-88746000D03*
%TD*%
D18*
%TO.C,C4*%
X161610000Y-103632000D03*
X163510000Y-103632000D03*
%TD*%
D19*
%TO.C,BT1*%
X116078000Y-71374000D03*
D20*
X116078000Y-50800000D03*
%TD*%
D15*
%TO.C,R8*%
X144780000Y-114046000D03*
X144780000Y-111121000D03*
%TD*%
D21*
%TO.C,C2*%
X136332000Y-118110000D03*
X134432000Y-118110000D03*
%TD*%
D22*
%TO.C,J1*%
X113593000Y-129231000D03*
D23*
X118618000Y-134256000D03*
X118618000Y-124206000D03*
X108568000Y-134256000D03*
X108568000Y-124206000D03*
%TD*%
D24*
%TO.C,R12*%
X144272000Y-117602000D03*
D25*
X154432000Y-117602000D03*
%TD*%
D26*
%TO.C,U4*%
X191912500Y-131612500D03*
X191912500Y-117412500D03*
X169012500Y-131612500D03*
X169012500Y-117112500D03*
X169012500Y-128112500D03*
X169012500Y-120512500D03*
%TD*%
D27*
%TO.C,U6*%
X164568000Y-111080000D03*
D28*
X163068000Y-111167500D03*
D27*
X161568000Y-111080000D03*
%TD*%
D29*
%TO.C,J5*%
X168148000Y-54316000D03*
D30*
X168148000Y-51816000D03*
%TD*%
D18*
%TO.C,C5*%
X129860000Y-121920000D03*
X131760000Y-121920000D03*
%TD*%
D31*
%TO.C,U2*%
X131572000Y-69850000D03*
D25*
X129032000Y-69850000D03*
X126492000Y-69850000D03*
X123952000Y-69850000D03*
X123952000Y-77470000D03*
X126492000Y-77470000D03*
X129032000Y-77470000D03*
X131572000Y-77470000D03*
%TD*%
D32*
%TO.C,U3*%
X127238000Y-113810000D03*
X126738000Y-113810000D03*
X126238000Y-113810000D03*
X125738000Y-113810000D03*
X125238000Y-113810000D03*
X125238000Y-118110000D03*
X125738000Y-118110000D03*
X126238000Y-118110000D03*
X126738000Y-118110000D03*
X127238000Y-118110000D03*
%TD*%
D14*
%TO.C,R14*%
X173289500Y-105918000D03*
X176214500Y-105918000D03*
%TD*%
D15*
%TO.C,R6*%
X133350000Y-114046000D03*
X133350000Y-111121000D03*
%TD*%
D33*
%TO.C,J6*%
X142800000Y-130600000D03*
D34*
X147800000Y-130600000D03*
%TD*%
D35*
%TO.C,BZ1*%
X167640000Y-91968000D03*
D36*
X167640000Y-99568000D03*
%TD*%
D17*
%TO.C,SW1*%
X175714000Y-50880000D03*
X188214000Y-50880000D03*
X175714000Y-55880000D03*
X188214000Y-55880000D03*
%TD*%
D37*
%TO.C,SW4*%
X157266000Y-134112000D03*
D38*
X159766000Y-134112000D03*
X162266000Y-134112000D03*
%TD*%
D39*
%TO.C,J3*%
X190314600Y-100523200D03*
X190314600Y-108523200D03*
D40*
X179814600Y-101323200D03*
X179814600Y-102423200D03*
X179814600Y-103523200D03*
X179814600Y-104623200D03*
X179814600Y-105723200D03*
X179814600Y-106823200D03*
X179814600Y-107923200D03*
X179814600Y-109023200D03*
X179814600Y-110123200D03*
D41*
X189914600Y-95823200D03*
D42*
X180314600Y-96723200D03*
D41*
X189914600Y-111323200D03*
D43*
X180314600Y-111323200D03*
%TD*%
D21*
%TO.C,C1*%
X186878000Y-113000000D03*
X184978000Y-113000000D03*
%TD*%
D15*
%TO.C,R3*%
X192024000Y-54802500D03*
X192024000Y-51877500D03*
%TD*%
D17*
%TO.C,SW2*%
X175714000Y-67316000D03*
X188214000Y-67316000D03*
X175714000Y-72316000D03*
X188214000Y-72316000D03*
%TD*%
D44*
%TO.C,D3*%
X117358000Y-76708000D03*
D45*
X114818000Y-76708000D03*
X112278000Y-76708000D03*
%TD*%
D24*
%TO.C,R5*%
X108712000Y-114554000D03*
D25*
X118872000Y-114554000D03*
%TD*%
D46*
%TO.C,J7*%
X144267000Y-121920000D03*
D47*
X146807000Y-121920000D03*
%TD*%
D48*
%TO.C,U1*%
X151638000Y-81280000D03*
D49*
X149098000Y-81280000D03*
X146558000Y-81280000D03*
X144018000Y-81280000D03*
X141478000Y-81280000D03*
X138938000Y-81280000D03*
X136398000Y-81280000D03*
X133858000Y-81280000D03*
X131318000Y-81280000D03*
X128778000Y-81280000D03*
X126238000Y-81280000D03*
X123698000Y-81280000D03*
X121158000Y-81280000D03*
X118618000Y-81280000D03*
X116078000Y-81280000D03*
X113538000Y-81280000D03*
X110998000Y-81280000D03*
X108458000Y-81280000D03*
X105918000Y-81280000D03*
X105918000Y-106680000D03*
X108458000Y-106680000D03*
X110998000Y-106680000D03*
X113538000Y-106680000D03*
X116078000Y-106680000D03*
X118618000Y-106680000D03*
X121158000Y-106680000D03*
X123698000Y-106680000D03*
X126238000Y-106680000D03*
X128778000Y-106680000D03*
X131318000Y-106680000D03*
X133858000Y-106680000D03*
X136398000Y-106680000D03*
X138938000Y-106680000D03*
X141478000Y-106680000D03*
X144018000Y-106680000D03*
X146558000Y-106680000D03*
X149098000Y-106680000D03*
X151638000Y-106680000D03*
%TD*%
D24*
%TO.C,R11*%
X154940000Y-121666000D03*
D25*
X165100000Y-121666000D03*
%TD*%
D18*
%TO.C,C3*%
X163134000Y-107188000D03*
X165034000Y-107188000D03*
%TD*%
D50*
%TO.C,Y1*%
X131948000Y-65786000D03*
X130048000Y-65786000D03*
%TD*%
D14*
%TO.C,R15*%
X173289500Y-109474000D03*
X176214500Y-109474000D03*
%TD*%
D24*
%TO.C,R4*%
X108712000Y-118872000D03*
D25*
X118872000Y-118872000D03*
%TD*%
D24*
%TO.C,R10*%
X165100000Y-127762000D03*
D25*
X154940000Y-127762000D03*
%TD*%
M02*
