%TF.GenerationSoftware,KiCad,Pcbnew,7.0.9*%
%TF.CreationDate,2024-02-28T20:27:22+01:00*%
%TF.ProjectId,logger_pcb_kicad,6c6f6767-6572-45f7-9063-625f6b696361,rev?*%
%TF.SameCoordinates,Original*%
%TF.FileFunction,Legend,Top*%
%TF.FilePolarity,Positive*%
%FSLAX46Y46*%
G04 Gerber Fmt 4.6, Leading zero omitted, Abs format (unit mm)*
G04 Created by KiCad (PCBNEW 7.0.9) date 2024-02-28 20:27:22*
%MOMM*%
%LPD*%
G01*
G04 APERTURE LIST*
%ADD10C,0.150000*%
%ADD11C,0.100000*%
%ADD12C,0.120000*%
%ADD13C,0.127000*%
%ADD14C,0.200000*%
G04 APERTURE END LIST*
D10*
G36*
X167760909Y-85523886D02*
G01*
X167793847Y-85531073D01*
X167824931Y-85543051D01*
X167854160Y-85559821D01*
X167881534Y-85581382D01*
X167890247Y-85589634D01*
X167909878Y-85611626D01*
X167929044Y-85639859D01*
X167943418Y-85670101D01*
X167953001Y-85702353D01*
X167957792Y-85736614D01*
X167958391Y-85754498D01*
X167955995Y-85789016D01*
X167948808Y-85821680D01*
X167936830Y-85852489D01*
X167920060Y-85881443D01*
X167898499Y-85908542D01*
X167890247Y-85917163D01*
X167868079Y-85936795D01*
X167839778Y-85955960D01*
X167809621Y-85970334D01*
X167777610Y-85979917D01*
X167743744Y-85984708D01*
X167726116Y-85985307D01*
X167018300Y-85985307D01*
X166983533Y-85982911D01*
X166950672Y-85975724D01*
X166919717Y-85963746D01*
X166890668Y-85946976D01*
X166863526Y-85925415D01*
X166854902Y-85917163D01*
X166835059Y-85895224D01*
X166815688Y-85867198D01*
X166801159Y-85837316D01*
X166791473Y-85805580D01*
X166786631Y-85771989D01*
X166786025Y-85754498D01*
X166787707Y-85724970D01*
X166794164Y-85691379D01*
X166805464Y-85659797D01*
X166821607Y-85630225D01*
X166842593Y-85602662D01*
X166854902Y-85589634D01*
X166876858Y-85570002D01*
X166904954Y-85550837D01*
X166934956Y-85536463D01*
X166966864Y-85526880D01*
X167000678Y-85522089D01*
X167018300Y-85521490D01*
X167726116Y-85521490D01*
X167760909Y-85523886D01*
G37*
G36*
X167834668Y-84848011D02*
G01*
X167870987Y-84849904D01*
X167906882Y-84853060D01*
X167942351Y-84857478D01*
X167977395Y-84863158D01*
X168012015Y-84870100D01*
X168046209Y-84878305D01*
X168079978Y-84887771D01*
X168113322Y-84898500D01*
X168146241Y-84910492D01*
X168167951Y-84919187D01*
X168200014Y-84932990D01*
X168231355Y-84947746D01*
X168261975Y-84963456D01*
X168291874Y-84980118D01*
X168321051Y-84997734D01*
X168349508Y-85016302D01*
X168377243Y-85035824D01*
X168404256Y-85056299D01*
X168430549Y-85077727D01*
X168456120Y-85100108D01*
X168472766Y-85115558D01*
X168497000Y-85139811D01*
X168520242Y-85164760D01*
X168542492Y-85190404D01*
X168563751Y-85216744D01*
X168584017Y-85243779D01*
X168603292Y-85271509D01*
X168621575Y-85299935D01*
X168638867Y-85329057D01*
X168655166Y-85358874D01*
X168670474Y-85389387D01*
X168680128Y-85410115D01*
X168693616Y-85441639D01*
X168705777Y-85473562D01*
X168716611Y-85505884D01*
X168726119Y-85538606D01*
X168734300Y-85571727D01*
X168741154Y-85605247D01*
X168746682Y-85639167D01*
X168750883Y-85673485D01*
X168753757Y-85708203D01*
X168755305Y-85743321D01*
X168755600Y-85766954D01*
X168755600Y-86457184D01*
X168753178Y-86491703D01*
X168745914Y-86524366D01*
X168733807Y-86555175D01*
X168716856Y-86584130D01*
X168695064Y-86611229D01*
X168686723Y-86619850D01*
X168664326Y-86639481D01*
X168635750Y-86658647D01*
X168605319Y-86673021D01*
X168573033Y-86682604D01*
X168538892Y-86687395D01*
X168521126Y-86687994D01*
X166176395Y-86687994D01*
X166146445Y-86686330D01*
X166112442Y-86679942D01*
X166080551Y-86668762D01*
X166050773Y-86652791D01*
X166023107Y-86632028D01*
X166010066Y-86619850D01*
X165990434Y-86597911D01*
X165971269Y-86569884D01*
X165956895Y-86540003D01*
X165947312Y-86508266D01*
X165942521Y-86474675D01*
X165941922Y-86457184D01*
X165941922Y-86226375D01*
X166409403Y-86226375D01*
X168288119Y-86226375D01*
X168288119Y-85766954D01*
X168286882Y-85732646D01*
X168283173Y-85699240D01*
X168276990Y-85666735D01*
X168268335Y-85635132D01*
X168257207Y-85604430D01*
X168243605Y-85574630D01*
X168227531Y-85545732D01*
X168208984Y-85517735D01*
X168187964Y-85490639D01*
X168164471Y-85464446D01*
X168147435Y-85447484D01*
X168120110Y-85422735D01*
X168091716Y-85400421D01*
X168062253Y-85380541D01*
X168031721Y-85363095D01*
X168000120Y-85348083D01*
X167967450Y-85335506D01*
X167933711Y-85325363D01*
X167898902Y-85317654D01*
X167863025Y-85312380D01*
X167826079Y-85309540D01*
X167800854Y-85308999D01*
X166876151Y-85308999D01*
X166840750Y-85310197D01*
X166806264Y-85313790D01*
X166772692Y-85319779D01*
X166740035Y-85328164D01*
X166708292Y-85338945D01*
X166677464Y-85352121D01*
X166647550Y-85367693D01*
X166618551Y-85385660D01*
X166590466Y-85406024D01*
X166563296Y-85428783D01*
X166545690Y-85445286D01*
X166521334Y-85470898D01*
X166499374Y-85497450D01*
X166479809Y-85524942D01*
X166462640Y-85553375D01*
X166447867Y-85582748D01*
X166435489Y-85613061D01*
X166425507Y-85644314D01*
X166417921Y-85676508D01*
X166412730Y-85709642D01*
X166409935Y-85743716D01*
X166409403Y-85766954D01*
X166409403Y-86226375D01*
X165941922Y-86226375D01*
X165941922Y-85766954D01*
X165942559Y-85731571D01*
X165944472Y-85696586D01*
X165947660Y-85662001D01*
X165952123Y-85627816D01*
X165957861Y-85594029D01*
X165964874Y-85560642D01*
X165973162Y-85527654D01*
X165982726Y-85495066D01*
X165993564Y-85462877D01*
X166005678Y-85431087D01*
X166014462Y-85410115D01*
X166028441Y-85379158D01*
X166043451Y-85348935D01*
X166059490Y-85319446D01*
X166076561Y-85290692D01*
X166094661Y-85262671D01*
X166113793Y-85235385D01*
X166133954Y-85208833D01*
X166155146Y-85183015D01*
X166177368Y-85157931D01*
X166200621Y-85133582D01*
X166216695Y-85117757D01*
X166240974Y-85094603D01*
X166266000Y-85072402D01*
X166291773Y-85051154D01*
X166318292Y-85030859D01*
X166345559Y-85011518D01*
X166373573Y-84993130D01*
X166402334Y-84975694D01*
X166431843Y-84959212D01*
X166462098Y-84943683D01*
X166493100Y-84929108D01*
X166514183Y-84919920D01*
X166546125Y-84906956D01*
X166578480Y-84895267D01*
X166611247Y-84884854D01*
X166644425Y-84875716D01*
X166678016Y-84867852D01*
X166712020Y-84861264D01*
X166746435Y-84855951D01*
X166781262Y-84851913D01*
X166816502Y-84849151D01*
X166852154Y-84847663D01*
X166876151Y-84847380D01*
X167797923Y-84847380D01*
X167834668Y-84848011D01*
G37*
G36*
X168755600Y-84320548D02*
G01*
X168753954Y-84350057D01*
X168747634Y-84383580D01*
X168736574Y-84415041D01*
X168720775Y-84444442D01*
X168700236Y-84471782D01*
X168688188Y-84484679D01*
X168661724Y-84507339D01*
X168632890Y-84525311D01*
X168601686Y-84538595D01*
X168568113Y-84547190D01*
X168538324Y-84550771D01*
X168519661Y-84551357D01*
X167598621Y-84551357D01*
X167562282Y-84549136D01*
X167528371Y-84542473D01*
X167496886Y-84531368D01*
X167467829Y-84515820D01*
X167441199Y-84495830D01*
X167416996Y-84471398D01*
X167395220Y-84442524D01*
X167375872Y-84409208D01*
X167202215Y-84085342D01*
X167190033Y-84058597D01*
X167180489Y-84028510D01*
X167175350Y-83998422D01*
X167174371Y-83978364D01*
X167176896Y-83947729D01*
X167184469Y-83917375D01*
X167187560Y-83908754D01*
X167200492Y-83877473D01*
X167217854Y-83849026D01*
X167239647Y-83823412D01*
X167265871Y-83800631D01*
X167291108Y-83783812D01*
X167307728Y-83774665D01*
X167336167Y-83762804D01*
X167364331Y-83754332D01*
X167395688Y-83748851D01*
X167419835Y-83747554D01*
X167449602Y-83749610D01*
X167479370Y-83755777D01*
X167493108Y-83760011D01*
X167520922Y-83769932D01*
X167551559Y-83785662D01*
X167579208Y-83805566D01*
X167603869Y-83829643D01*
X167622137Y-83852895D01*
X167635258Y-83873583D01*
X167751761Y-84089738D01*
X168288119Y-84089738D01*
X168288119Y-83630318D01*
X168286876Y-83595617D01*
X168283147Y-83561856D01*
X168276932Y-83529036D01*
X168268232Y-83497156D01*
X168257046Y-83466216D01*
X168243374Y-83436216D01*
X168227216Y-83407157D01*
X168208572Y-83379037D01*
X168187442Y-83351859D01*
X168163827Y-83325620D01*
X168146702Y-83308650D01*
X168119671Y-83284294D01*
X168091610Y-83262333D01*
X168062518Y-83242769D01*
X168032396Y-83225600D01*
X168001244Y-83210826D01*
X167969061Y-83198449D01*
X167935848Y-83188467D01*
X167901604Y-83180880D01*
X167866330Y-83175690D01*
X167830026Y-83172895D01*
X167805251Y-83172362D01*
X167768105Y-83173579D01*
X167731680Y-83177231D01*
X167695977Y-83183317D01*
X167660995Y-83191837D01*
X167626734Y-83202791D01*
X167593194Y-83216180D01*
X167560376Y-83232003D01*
X167528279Y-83250260D01*
X167496904Y-83270952D01*
X167466249Y-83294078D01*
X167446214Y-83310848D01*
X167420155Y-83336440D01*
X167396660Y-83362935D01*
X167375728Y-83390330D01*
X167357359Y-83418628D01*
X167341553Y-83447827D01*
X167328310Y-83477927D01*
X167317630Y-83508929D01*
X167309514Y-83540833D01*
X167303961Y-83573638D01*
X167300970Y-83607345D01*
X167300401Y-83630318D01*
X167298737Y-83659845D01*
X167292348Y-83693436D01*
X167281169Y-83725018D01*
X167265197Y-83754590D01*
X167244435Y-83782153D01*
X167232257Y-83795181D01*
X167210071Y-83814813D01*
X167181701Y-83833978D01*
X167151424Y-83848352D01*
X167119241Y-83857935D01*
X167085152Y-83862726D01*
X167067393Y-83863325D01*
X167037654Y-83861662D01*
X167003857Y-83855273D01*
X166972121Y-83844093D01*
X166942446Y-83828122D01*
X166914831Y-83807360D01*
X166901796Y-83795181D01*
X166881954Y-83773189D01*
X166862582Y-83744956D01*
X166848054Y-83714714D01*
X166838368Y-83682462D01*
X166833525Y-83648201D01*
X166832920Y-83630318D01*
X166834050Y-83584325D01*
X166837442Y-83539036D01*
X166843095Y-83494451D01*
X166851009Y-83450570D01*
X166861184Y-83407394D01*
X166873621Y-83364921D01*
X166888318Y-83323153D01*
X166905277Y-83282088D01*
X166924497Y-83241728D01*
X166945978Y-83202072D01*
X166969720Y-83163120D01*
X166995723Y-83124872D01*
X167023987Y-83087329D01*
X167054513Y-83050489D01*
X167087300Y-83014353D01*
X167122348Y-82978922D01*
X167147856Y-82955905D01*
X167174099Y-82933842D01*
X167201077Y-82912732D01*
X167228788Y-82892574D01*
X167257233Y-82873370D01*
X167286413Y-82855119D01*
X167316327Y-82837822D01*
X167346975Y-82821477D01*
X167378357Y-82806085D01*
X167410473Y-82791647D01*
X167432292Y-82782551D01*
X167465327Y-82769718D01*
X167498761Y-82758147D01*
X167532595Y-82747839D01*
X167566828Y-82738793D01*
X167601460Y-82731009D01*
X167636491Y-82724488D01*
X167671922Y-82719228D01*
X167707752Y-82715231D01*
X167743981Y-82712496D01*
X167780610Y-82711024D01*
X167805251Y-82710743D01*
X167852182Y-82711799D01*
X167898456Y-82714968D01*
X167944071Y-82720249D01*
X167989028Y-82727642D01*
X168033327Y-82737147D01*
X168076967Y-82748765D01*
X168119949Y-82762495D01*
X168162273Y-82778337D01*
X168203938Y-82796292D01*
X168244945Y-82816359D01*
X168285294Y-82838539D01*
X168324984Y-82862830D01*
X168364016Y-82889234D01*
X168402390Y-82917751D01*
X168440105Y-82948379D01*
X168477163Y-82981120D01*
X168500997Y-83004980D01*
X168523866Y-83029575D01*
X168545768Y-83054903D01*
X168566704Y-83080966D01*
X168586675Y-83107763D01*
X168605679Y-83135294D01*
X168623718Y-83163559D01*
X168640790Y-83192558D01*
X168656897Y-83222292D01*
X168672037Y-83252759D01*
X168681594Y-83273479D01*
X168694820Y-83305003D01*
X168706744Y-83336926D01*
X168717368Y-83369248D01*
X168726691Y-83401970D01*
X168734713Y-83435090D01*
X168741434Y-83468611D01*
X168746855Y-83502530D01*
X168750974Y-83536849D01*
X168753793Y-83571567D01*
X168755310Y-83606684D01*
X168755600Y-83630318D01*
X168755600Y-84320548D01*
G37*
G36*
X166178593Y-82414721D02*
G01*
X166148626Y-82413057D01*
X166114554Y-82406669D01*
X166082543Y-82395489D01*
X166052593Y-82379518D01*
X166024703Y-82358755D01*
X166011531Y-82346577D01*
X165991478Y-82324638D01*
X165971900Y-82296611D01*
X165957217Y-82266730D01*
X165947428Y-82234993D01*
X165942534Y-82201402D01*
X165941922Y-82183911D01*
X165943621Y-82154420D01*
X165950147Y-82120966D01*
X165961567Y-82089625D01*
X165977882Y-82060396D01*
X165999091Y-82033279D01*
X166011531Y-82020513D01*
X166033788Y-82001093D01*
X166062434Y-81982133D01*
X166093191Y-81967914D01*
X166126061Y-81958434D01*
X166155066Y-81954155D01*
X166179326Y-81953102D01*
X166938433Y-81953102D01*
X167239584Y-81380108D01*
X167254843Y-81354735D01*
X167274146Y-81328631D01*
X167294531Y-81307268D01*
X167319681Y-81288334D01*
X167346303Y-81275852D01*
X167350226Y-81274595D01*
X167379581Y-81265940D01*
X167408336Y-81259159D01*
X167439643Y-81254986D01*
X167446214Y-81254812D01*
X167476713Y-81256724D01*
X167507213Y-81262462D01*
X167537713Y-81272026D01*
X167554657Y-81278992D01*
X167580471Y-81294233D01*
X167607055Y-81313467D01*
X167628848Y-81333732D01*
X167648218Y-81358676D01*
X167661065Y-81385023D01*
X167662369Y-81388901D01*
X167671024Y-81418027D01*
X167677805Y-81446852D01*
X167681843Y-81476416D01*
X167682152Y-81485621D01*
X167679505Y-81517893D01*
X167672595Y-81547304D01*
X167661395Y-81577063D01*
X167655041Y-81590401D01*
X167467463Y-81950904D01*
X167802320Y-81950904D01*
X167839848Y-81949712D01*
X167876320Y-81946138D01*
X167911735Y-81940181D01*
X167946095Y-81931841D01*
X167979398Y-81921119D01*
X168011645Y-81908013D01*
X168042836Y-81892525D01*
X168072971Y-81874654D01*
X168102050Y-81854400D01*
X168130073Y-81831764D01*
X168148168Y-81815349D01*
X168173178Y-81789737D01*
X168195729Y-81763185D01*
X168215820Y-81735693D01*
X168233450Y-81707260D01*
X168248621Y-81677887D01*
X168261331Y-81647574D01*
X168271581Y-81616321D01*
X168279372Y-81584127D01*
X168284702Y-81550994D01*
X168287572Y-81516920D01*
X168288119Y-81493681D01*
X168288119Y-80804916D01*
X168289800Y-80775425D01*
X168296257Y-80741971D01*
X168307557Y-80710630D01*
X168323700Y-80681401D01*
X168344686Y-80654284D01*
X168356995Y-80641518D01*
X168379006Y-80622098D01*
X168407307Y-80603138D01*
X168437670Y-80588919D01*
X168470093Y-80579439D01*
X168504577Y-80574699D01*
X168522592Y-80574107D01*
X168551926Y-80575753D01*
X168585380Y-80582072D01*
X168616927Y-80593132D01*
X168646568Y-80608931D01*
X168674303Y-80629471D01*
X168687456Y-80641518D01*
X168710614Y-80667578D01*
X168728981Y-80695751D01*
X168742556Y-80726036D01*
X168751341Y-80758434D01*
X168755333Y-80792944D01*
X168755600Y-80804916D01*
X168755600Y-81493681D01*
X168754936Y-81529327D01*
X168752946Y-81564547D01*
X168749630Y-81599342D01*
X168744986Y-81633712D01*
X168739017Y-81667658D01*
X168731720Y-81701178D01*
X168723097Y-81734273D01*
X168713147Y-81766943D01*
X168701871Y-81799188D01*
X168689268Y-81831008D01*
X168680128Y-81851985D01*
X168665462Y-81882962D01*
X168649766Y-81913243D01*
X168633039Y-81942828D01*
X168615282Y-81971718D01*
X168596494Y-81999912D01*
X168576676Y-82027411D01*
X168555828Y-82054214D01*
X168533949Y-82080322D01*
X168511040Y-82105734D01*
X168487100Y-82130451D01*
X168470568Y-82146542D01*
X168445877Y-82169310D01*
X168420439Y-82191176D01*
X168394254Y-82212140D01*
X168367322Y-82232203D01*
X168339643Y-82251364D01*
X168311217Y-82269623D01*
X168282044Y-82286981D01*
X168252123Y-82303438D01*
X168221456Y-82318993D01*
X168190042Y-82333646D01*
X168168684Y-82342914D01*
X168136048Y-82355746D01*
X168102987Y-82367317D01*
X168069502Y-82377625D01*
X168035591Y-82386671D01*
X168001255Y-82394455D01*
X167966494Y-82400977D01*
X167931308Y-82406236D01*
X167895697Y-82410233D01*
X167859661Y-82412968D01*
X167823200Y-82414440D01*
X167798656Y-82414721D01*
X166178593Y-82414721D01*
G37*
G36*
X168755600Y-80047275D02*
G01*
X168753954Y-80076785D01*
X168747634Y-80110307D01*
X168736574Y-80141768D01*
X168720775Y-80171169D01*
X168700236Y-80198509D01*
X168688188Y-80211406D01*
X168661724Y-80234066D01*
X168632890Y-80252038D01*
X168601686Y-80265322D01*
X168568113Y-80273917D01*
X168538324Y-80277498D01*
X168519661Y-80278084D01*
X167598621Y-80278084D01*
X167562282Y-80275863D01*
X167528371Y-80269200D01*
X167496886Y-80258095D01*
X167467829Y-80242547D01*
X167441199Y-80222557D01*
X167416996Y-80198125D01*
X167395220Y-80169251D01*
X167375872Y-80135935D01*
X167202215Y-79812069D01*
X167190033Y-79785325D01*
X167180489Y-79755237D01*
X167175350Y-79725149D01*
X167174371Y-79705091D01*
X167176896Y-79674456D01*
X167184469Y-79644103D01*
X167187560Y-79635482D01*
X167200492Y-79604200D01*
X167217854Y-79575753D01*
X167239647Y-79550139D01*
X167265871Y-79527358D01*
X167291108Y-79510539D01*
X167307728Y-79501392D01*
X167336167Y-79489531D01*
X167364331Y-79481059D01*
X167395688Y-79475579D01*
X167419835Y-79474281D01*
X167449602Y-79476337D01*
X167479370Y-79482504D01*
X167493108Y-79486738D01*
X167520922Y-79496659D01*
X167551559Y-79512390D01*
X167579208Y-79532293D01*
X167603869Y-79556370D01*
X167622137Y-79579622D01*
X167635258Y-79600311D01*
X167751761Y-79816466D01*
X168288119Y-79816466D01*
X168288119Y-79357045D01*
X168286876Y-79322344D01*
X168283147Y-79288583D01*
X168276932Y-79255763D01*
X168268232Y-79223883D01*
X168257046Y-79192943D01*
X168243374Y-79162943D01*
X168227216Y-79133884D01*
X168208572Y-79105765D01*
X168187442Y-79078586D01*
X168163827Y-79052347D01*
X168146702Y-79035377D01*
X168119671Y-79011021D01*
X168091610Y-78989060D01*
X168062518Y-78969496D01*
X168032396Y-78952327D01*
X168001244Y-78937553D01*
X167969061Y-78925176D01*
X167935848Y-78915194D01*
X167901604Y-78907607D01*
X167866330Y-78902417D01*
X167830026Y-78899622D01*
X167805251Y-78899089D01*
X167768105Y-78900307D01*
X167731680Y-78903958D01*
X167695977Y-78910044D01*
X167660995Y-78918564D01*
X167626734Y-78929518D01*
X167593194Y-78942907D01*
X167560376Y-78958730D01*
X167528279Y-78976988D01*
X167496904Y-78997679D01*
X167466249Y-79020805D01*
X167446214Y-79037575D01*
X167420155Y-79063168D01*
X167396660Y-79089662D01*
X167375728Y-79117058D01*
X167357359Y-79145355D01*
X167341553Y-79174554D01*
X167328310Y-79204654D01*
X167317630Y-79235657D01*
X167309514Y-79267560D01*
X167303961Y-79300366D01*
X167300970Y-79334073D01*
X167300401Y-79357045D01*
X167298737Y-79386572D01*
X167292348Y-79420163D01*
X167281169Y-79451745D01*
X167265197Y-79481317D01*
X167244435Y-79508881D01*
X167232257Y-79521909D01*
X167210071Y-79541540D01*
X167181701Y-79560705D01*
X167151424Y-79575079D01*
X167119241Y-79584662D01*
X167085152Y-79589453D01*
X167067393Y-79590052D01*
X167037654Y-79588389D01*
X167003857Y-79582000D01*
X166972121Y-79570820D01*
X166942446Y-79554849D01*
X166914831Y-79534087D01*
X166901796Y-79521909D01*
X166881954Y-79499916D01*
X166862582Y-79471683D01*
X166848054Y-79441441D01*
X166838368Y-79409189D01*
X166833525Y-79374929D01*
X166832920Y-79357045D01*
X166834050Y-79311052D01*
X166837442Y-79265763D01*
X166843095Y-79221178D01*
X166851009Y-79177297D01*
X166861184Y-79134121D01*
X166873621Y-79091648D01*
X166888318Y-79049880D01*
X166905277Y-79008815D01*
X166924497Y-78968455D01*
X166945978Y-78928799D01*
X166969720Y-78889847D01*
X166995723Y-78851599D01*
X167023987Y-78814056D01*
X167054513Y-78777216D01*
X167087300Y-78741080D01*
X167122348Y-78705649D01*
X167147856Y-78682632D01*
X167174099Y-78660569D01*
X167201077Y-78639459D01*
X167228788Y-78619302D01*
X167257233Y-78600097D01*
X167286413Y-78581847D01*
X167316327Y-78564549D01*
X167346975Y-78548204D01*
X167378357Y-78532812D01*
X167410473Y-78518374D01*
X167432292Y-78509278D01*
X167465327Y-78496445D01*
X167498761Y-78484875D01*
X167532595Y-78474566D01*
X167566828Y-78465520D01*
X167601460Y-78457736D01*
X167636491Y-78451215D01*
X167671922Y-78445955D01*
X167707752Y-78441958D01*
X167743981Y-78439224D01*
X167780610Y-78437751D01*
X167805251Y-78437470D01*
X167852182Y-78438527D01*
X167898456Y-78441695D01*
X167944071Y-78446976D01*
X167989028Y-78454369D01*
X168033327Y-78463874D01*
X168076967Y-78475492D01*
X168119949Y-78489222D01*
X168162273Y-78505065D01*
X168203938Y-78523019D01*
X168244945Y-78543086D01*
X168285294Y-78565266D01*
X168324984Y-78589557D01*
X168364016Y-78615961D01*
X168402390Y-78644478D01*
X168440105Y-78675106D01*
X168477163Y-78707847D01*
X168500997Y-78731707D01*
X168523866Y-78756302D01*
X168545768Y-78781630D01*
X168566704Y-78807693D01*
X168586675Y-78834490D01*
X168605679Y-78862021D01*
X168623718Y-78890286D01*
X168640790Y-78919285D01*
X168656897Y-78949019D01*
X168672037Y-78979486D01*
X168681594Y-79000206D01*
X168694820Y-79031730D01*
X168706744Y-79063653D01*
X168717368Y-79095975D01*
X168726691Y-79128697D01*
X168734713Y-79161818D01*
X168741434Y-79195338D01*
X168746855Y-79229257D01*
X168750974Y-79263576D01*
X168753793Y-79298294D01*
X168755310Y-79333411D01*
X168755600Y-79357045D01*
X168755600Y-80047275D01*
G37*
G36*
X166592585Y-76762453D02*
G01*
X166409403Y-76762453D01*
X166409403Y-77220408D01*
X166410613Y-77255496D01*
X166414246Y-77289591D01*
X166420299Y-77322695D01*
X166428774Y-77354807D01*
X166439671Y-77385927D01*
X166452989Y-77416055D01*
X166468728Y-77445192D01*
X166486889Y-77473337D01*
X166507471Y-77500490D01*
X166530475Y-77526652D01*
X166547156Y-77543542D01*
X166573860Y-77567898D01*
X166601492Y-77589858D01*
X166630051Y-77609423D01*
X166659538Y-77626592D01*
X166689952Y-77641365D01*
X166721293Y-77653743D01*
X166753562Y-77663725D01*
X166786758Y-77671311D01*
X166820881Y-77676502D01*
X166855932Y-77679297D01*
X166879814Y-77679829D01*
X166943562Y-77679829D01*
X167629396Y-76439320D01*
X167648298Y-76406862D01*
X167669467Y-76378732D01*
X167692903Y-76354930D01*
X167718605Y-76335455D01*
X167746575Y-76320309D01*
X167776812Y-76309489D01*
X167809315Y-76302998D01*
X167844085Y-76300834D01*
X168521859Y-76300834D01*
X168551193Y-76302498D01*
X168584647Y-76308886D01*
X168616194Y-76320066D01*
X168645835Y-76336037D01*
X168673570Y-76356800D01*
X168686723Y-76368978D01*
X168706565Y-76390917D01*
X168725937Y-76418944D01*
X168740466Y-76448825D01*
X168750151Y-76480561D01*
X168754994Y-76514152D01*
X168755600Y-76531643D01*
X168755600Y-77220408D01*
X168754943Y-77256054D01*
X168752972Y-77291274D01*
X168749688Y-77326069D01*
X168745089Y-77360440D01*
X168739178Y-77394385D01*
X168731952Y-77427905D01*
X168723412Y-77461000D01*
X168713559Y-77493670D01*
X168702392Y-77525915D01*
X168689912Y-77557735D01*
X168680861Y-77578713D01*
X168666214Y-77609689D01*
X168650576Y-77639970D01*
X168633946Y-77669555D01*
X168616324Y-77698445D01*
X168597710Y-77726639D01*
X168578105Y-77754138D01*
X168557507Y-77780941D01*
X168535918Y-77807049D01*
X168513338Y-77832461D01*
X168489765Y-77857178D01*
X168473499Y-77873269D01*
X168448415Y-77896417D01*
X168422623Y-77918598D01*
X168396122Y-77939814D01*
X168368913Y-77960063D01*
X168340996Y-77979347D01*
X168312370Y-77997664D01*
X168283036Y-78015016D01*
X168252994Y-78031401D01*
X168222243Y-78046821D01*
X168190783Y-78061274D01*
X168169417Y-78070373D01*
X168136787Y-78083075D01*
X168103746Y-78094528D01*
X168070292Y-78104731D01*
X168036426Y-78113685D01*
X168002148Y-78121389D01*
X167967458Y-78127844D01*
X167932356Y-78133050D01*
X167896842Y-78137006D01*
X167860915Y-78139713D01*
X167824576Y-78141170D01*
X167800121Y-78141448D01*
X167770576Y-78139784D01*
X167736916Y-78133396D01*
X167705215Y-78122216D01*
X167675470Y-78106245D01*
X167647684Y-78085482D01*
X167634525Y-78073304D01*
X167614682Y-78051365D01*
X167595311Y-78023339D01*
X167580782Y-77993457D01*
X167571097Y-77961721D01*
X167566254Y-77928130D01*
X167565648Y-77910639D01*
X167567348Y-77881147D01*
X167573874Y-77847693D01*
X167585294Y-77816352D01*
X167601609Y-77787123D01*
X167622818Y-77760006D01*
X167635258Y-77747240D01*
X167657461Y-77727820D01*
X167685900Y-77708861D01*
X167716297Y-77694641D01*
X167748652Y-77685161D01*
X167782964Y-77680422D01*
X167800854Y-77679829D01*
X167838513Y-77678618D01*
X167875103Y-77674986D01*
X167910624Y-77668933D01*
X167945076Y-77660458D01*
X167978459Y-77649561D01*
X168010772Y-77636243D01*
X168042017Y-77620504D01*
X168072193Y-77602343D01*
X168101299Y-77581761D01*
X168129337Y-77558757D01*
X168147435Y-77542076D01*
X168172577Y-77516464D01*
X168195245Y-77489912D01*
X168215441Y-77462420D01*
X168233164Y-77433987D01*
X168248414Y-77404614D01*
X168261191Y-77374301D01*
X168271495Y-77343048D01*
X168279326Y-77310854D01*
X168284684Y-77277721D01*
X168287569Y-77243647D01*
X168288119Y-77220408D01*
X168288119Y-76762453D01*
X167984769Y-76762453D01*
X167293806Y-78003695D01*
X167275396Y-78035981D01*
X167254605Y-78063962D01*
X167231433Y-78087638D01*
X167205879Y-78107010D01*
X167177943Y-78122077D01*
X167147627Y-78132839D01*
X167114929Y-78139296D01*
X167079849Y-78141448D01*
X166878349Y-78141448D01*
X166842285Y-78140817D01*
X166806633Y-78138924D01*
X166771394Y-78135768D01*
X166736566Y-78131350D01*
X166702151Y-78125670D01*
X166668147Y-78118728D01*
X166634556Y-78110523D01*
X166601378Y-78101056D01*
X166568611Y-78090327D01*
X166536256Y-78078336D01*
X166514916Y-78069641D01*
X166483409Y-78055576D01*
X166452637Y-78040583D01*
X166422598Y-78024664D01*
X166393294Y-78007817D01*
X166364724Y-77990042D01*
X166336888Y-77971341D01*
X166309787Y-77951711D01*
X166283419Y-77931155D01*
X166257786Y-77909671D01*
X166232887Y-77887260D01*
X166216695Y-77871804D01*
X166192880Y-77847813D01*
X166170070Y-77823100D01*
X166148264Y-77797667D01*
X166127463Y-77771512D01*
X166107666Y-77744635D01*
X166088874Y-77717038D01*
X166071087Y-77688719D01*
X166054304Y-77659679D01*
X166038526Y-77629918D01*
X166023753Y-77599435D01*
X166014462Y-77578713D01*
X166001498Y-77547176D01*
X165989810Y-77515214D01*
X165979396Y-77482827D01*
X165970258Y-77450016D01*
X165962395Y-77416779D01*
X165955807Y-77383117D01*
X165950494Y-77349030D01*
X165946456Y-77314518D01*
X165943693Y-77279581D01*
X165942205Y-77244219D01*
X165941922Y-77220408D01*
X165941922Y-76531643D01*
X165944318Y-76497125D01*
X165951505Y-76464461D01*
X165963483Y-76433652D01*
X165980253Y-76404698D01*
X166001814Y-76377599D01*
X166010066Y-76368978D01*
X166032094Y-76349346D01*
X166060464Y-76330181D01*
X166090947Y-76315807D01*
X166123542Y-76306224D01*
X166158249Y-76301433D01*
X166176395Y-76300834D01*
X166593318Y-76300834D01*
X166622670Y-76302498D01*
X166656192Y-76308886D01*
X166687860Y-76320066D01*
X166717672Y-76336037D01*
X166745631Y-76356800D01*
X166758914Y-76368978D01*
X166778757Y-76390917D01*
X166798128Y-76418944D01*
X166812657Y-76448825D01*
X166822342Y-76480561D01*
X166827185Y-76514152D01*
X166827791Y-76531643D01*
X166826109Y-76561346D01*
X166819652Y-76595006D01*
X166808352Y-76626502D01*
X166792209Y-76655834D01*
X166771223Y-76683002D01*
X166758914Y-76695775D01*
X166736499Y-76714984D01*
X166707854Y-76733737D01*
X166677303Y-76747802D01*
X166644845Y-76757179D01*
X166610482Y-76761867D01*
X166592585Y-76762453D01*
G37*
G36*
X166178593Y-76004812D02*
G01*
X166148626Y-76003148D01*
X166114554Y-75996759D01*
X166082543Y-75985580D01*
X166052593Y-75969608D01*
X166024703Y-75948846D01*
X166011531Y-75936668D01*
X165991478Y-75914729D01*
X165971900Y-75886702D01*
X165957217Y-75856821D01*
X165947428Y-75825084D01*
X165942534Y-75791493D01*
X165941922Y-75774002D01*
X165943621Y-75744511D01*
X165950147Y-75711057D01*
X165961567Y-75679716D01*
X165977882Y-75650487D01*
X165999091Y-75623370D01*
X166011531Y-75610604D01*
X166033788Y-75591184D01*
X166062434Y-75572224D01*
X166093191Y-75558005D01*
X166126061Y-75548525D01*
X166155066Y-75544246D01*
X166179326Y-75543193D01*
X166938433Y-75543193D01*
X167239584Y-74970199D01*
X167254843Y-74944825D01*
X167274146Y-74918722D01*
X167294531Y-74897358D01*
X167319681Y-74878425D01*
X167346303Y-74865943D01*
X167350226Y-74864686D01*
X167379581Y-74856031D01*
X167408336Y-74849249D01*
X167439643Y-74845076D01*
X167446214Y-74844902D01*
X167476713Y-74846815D01*
X167507213Y-74852553D01*
X167537713Y-74862116D01*
X167554657Y-74869082D01*
X167580471Y-74884324D01*
X167607055Y-74903558D01*
X167628848Y-74923822D01*
X167648218Y-74948767D01*
X167661065Y-74975113D01*
X167662369Y-74978992D01*
X167671024Y-75008118D01*
X167677805Y-75036943D01*
X167681843Y-75066507D01*
X167682152Y-75075712D01*
X167679505Y-75107983D01*
X167672595Y-75137395D01*
X167661395Y-75167154D01*
X167655041Y-75180492D01*
X167467463Y-75540994D01*
X167802320Y-75540994D01*
X167839848Y-75539803D01*
X167876320Y-75536229D01*
X167911735Y-75530272D01*
X167946095Y-75521932D01*
X167979398Y-75511209D01*
X168011645Y-75498104D01*
X168042836Y-75482616D01*
X168072971Y-75464745D01*
X168102050Y-75444491D01*
X168130073Y-75421855D01*
X168148168Y-75405440D01*
X168173178Y-75379828D01*
X168195729Y-75353276D01*
X168215820Y-75325783D01*
X168233450Y-75297351D01*
X168248621Y-75267978D01*
X168261331Y-75237665D01*
X168271581Y-75206412D01*
X168279372Y-75174218D01*
X168284702Y-75141084D01*
X168287572Y-75107010D01*
X168288119Y-75083772D01*
X168288119Y-74395007D01*
X168289800Y-74365515D01*
X168296257Y-74332062D01*
X168307557Y-74300720D01*
X168323700Y-74271491D01*
X168344686Y-74244375D01*
X168356995Y-74231609D01*
X168379006Y-74212188D01*
X168407307Y-74193229D01*
X168437670Y-74179010D01*
X168470093Y-74169530D01*
X168504577Y-74164790D01*
X168522592Y-74164198D01*
X168551926Y-74165843D01*
X168585380Y-74172163D01*
X168616927Y-74183223D01*
X168646568Y-74199022D01*
X168674303Y-74219561D01*
X168687456Y-74231609D01*
X168710614Y-74257669D01*
X168728981Y-74285842D01*
X168742556Y-74316127D01*
X168751341Y-74348525D01*
X168755333Y-74383034D01*
X168755600Y-74395007D01*
X168755600Y-75083772D01*
X168754936Y-75119417D01*
X168752946Y-75154638D01*
X168749630Y-75189433D01*
X168744986Y-75223803D01*
X168739017Y-75257748D01*
X168731720Y-75291269D01*
X168723097Y-75324364D01*
X168713147Y-75357034D01*
X168701871Y-75389279D01*
X168689268Y-75421099D01*
X168680128Y-75442076D01*
X168665462Y-75473053D01*
X168649766Y-75503333D01*
X168633039Y-75532919D01*
X168615282Y-75561809D01*
X168596494Y-75590003D01*
X168576676Y-75617502D01*
X168555828Y-75644305D01*
X168533949Y-75670413D01*
X168511040Y-75695825D01*
X168487100Y-75720542D01*
X168470568Y-75736633D01*
X168445877Y-75759401D01*
X168420439Y-75781266D01*
X168394254Y-75802231D01*
X168367322Y-75822294D01*
X168339643Y-75841455D01*
X168311217Y-75859714D01*
X168282044Y-75877072D01*
X168252123Y-75893528D01*
X168221456Y-75909083D01*
X168190042Y-75923736D01*
X168168684Y-75933004D01*
X168136048Y-75945837D01*
X168102987Y-75957408D01*
X168069502Y-75967716D01*
X168035591Y-75976762D01*
X168001255Y-75984546D01*
X167966494Y-75991067D01*
X167931308Y-75996327D01*
X167895697Y-76000324D01*
X167859661Y-76003059D01*
X167823200Y-76004531D01*
X167798656Y-76004812D01*
X166178593Y-76004812D01*
G37*
G36*
X168521126Y-73868175D02*
G01*
X167787665Y-73868175D01*
X167751444Y-73867544D01*
X167715597Y-73865651D01*
X167680124Y-73862495D01*
X167645023Y-73858077D01*
X167610297Y-73852397D01*
X167575944Y-73845455D01*
X167541964Y-73837250D01*
X167508358Y-73827784D01*
X167475126Y-73817055D01*
X167442267Y-73805063D01*
X167420568Y-73796368D01*
X167388505Y-73782316D01*
X167357164Y-73767362D01*
X167326544Y-73751507D01*
X167296645Y-73734750D01*
X167267468Y-73717091D01*
X167239012Y-73698531D01*
X167211277Y-73679070D01*
X167184263Y-73658706D01*
X167157971Y-73637442D01*
X167132400Y-73615275D01*
X167115753Y-73599997D01*
X167081504Y-73564388D01*
X167049464Y-73528086D01*
X167019634Y-73491092D01*
X166992013Y-73453405D01*
X166966603Y-73415026D01*
X166943402Y-73375953D01*
X166922410Y-73336189D01*
X166903628Y-73295731D01*
X166887056Y-73254581D01*
X166872693Y-73212738D01*
X166860540Y-73170203D01*
X166850597Y-73126975D01*
X166842863Y-73083054D01*
X166837339Y-73038440D01*
X166834025Y-72993134D01*
X166832920Y-72947135D01*
X166835315Y-72912394D01*
X166842503Y-72879610D01*
X166854481Y-72848784D01*
X166871251Y-72819915D01*
X166892812Y-72793005D01*
X166901064Y-72784470D01*
X166922881Y-72764838D01*
X166951045Y-72745673D01*
X166981373Y-72731299D01*
X167013865Y-72721716D01*
X167048521Y-72716925D01*
X167066660Y-72716326D01*
X167095994Y-72717990D01*
X167129448Y-72724378D01*
X167160995Y-72735558D01*
X167190637Y-72751529D01*
X167218372Y-72772292D01*
X167231524Y-72784470D01*
X167251366Y-72806215D01*
X167270738Y-72834105D01*
X167285267Y-72863952D01*
X167294952Y-72895757D01*
X167299795Y-72929520D01*
X167300401Y-72947135D01*
X167301637Y-72981836D01*
X167305347Y-73015597D01*
X167311529Y-73048417D01*
X167320184Y-73080297D01*
X167331313Y-73111237D01*
X167344914Y-73141237D01*
X167360988Y-73170296D01*
X167379535Y-73198416D01*
X167400555Y-73225594D01*
X167424049Y-73251833D01*
X167441084Y-73268803D01*
X167468278Y-73293028D01*
X167496554Y-73314871D01*
X167525912Y-73334330D01*
X167556352Y-73351407D01*
X167587873Y-73366101D01*
X167620477Y-73378412D01*
X167654163Y-73388340D01*
X167688930Y-73395886D01*
X167724779Y-73401049D01*
X167761710Y-73403829D01*
X167786932Y-73404358D01*
X167833094Y-73404358D01*
X167860205Y-73405824D01*
X167889582Y-73406470D01*
X167910763Y-73406556D01*
X167941052Y-73406556D01*
X167971214Y-73406556D01*
X167995760Y-73406556D01*
X168026350Y-73406556D01*
X168056461Y-73406556D01*
X168089319Y-73406556D01*
X168120324Y-73406556D01*
X168153608Y-73406556D01*
X168184091Y-73406556D01*
X168216376Y-73406556D01*
X168250465Y-73406556D01*
X168280250Y-73406556D01*
X168292515Y-73406556D01*
X168323967Y-73406556D01*
X168356958Y-73406556D01*
X168391487Y-73406556D01*
X168427555Y-73406556D01*
X168457516Y-73406556D01*
X168488463Y-73406556D01*
X168520394Y-73406556D01*
X168549957Y-73408202D01*
X168583685Y-73414522D01*
X168615507Y-73425581D01*
X168645423Y-73441381D01*
X168673433Y-73461920D01*
X168686723Y-73473967D01*
X168710130Y-73500028D01*
X168728695Y-73528201D01*
X168742416Y-73558486D01*
X168751295Y-73590883D01*
X168755330Y-73625393D01*
X168755600Y-73637366D01*
X168753178Y-73671884D01*
X168745914Y-73704548D01*
X168733807Y-73735357D01*
X168716856Y-73764311D01*
X168695064Y-73791410D01*
X168686723Y-73800031D01*
X168664326Y-73819663D01*
X168635750Y-73838828D01*
X168605319Y-73853202D01*
X168573033Y-73862785D01*
X168538892Y-73867576D01*
X168521126Y-73868175D01*
G37*
G36*
X166832920Y-71083074D02*
G01*
X166834797Y-71052803D01*
X166840430Y-71023540D01*
X166849818Y-70995284D01*
X166862962Y-70968036D01*
X166882597Y-70940902D01*
X166904132Y-70917386D01*
X166927568Y-70897488D01*
X166952904Y-70881207D01*
X166980141Y-70868545D01*
X167009278Y-70859500D01*
X167040316Y-70854073D01*
X167073255Y-70852265D01*
X167458670Y-70852265D01*
X167495009Y-70854497D01*
X167528920Y-70861195D01*
X167560405Y-70872357D01*
X167589462Y-70887985D01*
X167616092Y-70908078D01*
X167640295Y-70932636D01*
X167662071Y-70961659D01*
X167681419Y-70995147D01*
X168047784Y-71691239D01*
X168059965Y-71717983D01*
X168069509Y-71748071D01*
X168074649Y-71778159D01*
X168075627Y-71798217D01*
X168073103Y-71828992D01*
X168066238Y-71857568D01*
X168062438Y-71868559D01*
X168049782Y-71899617D01*
X168032694Y-71927944D01*
X168011176Y-71953541D01*
X167985227Y-71976408D01*
X167960218Y-71993377D01*
X167943736Y-72002648D01*
X167915984Y-72014189D01*
X167884982Y-72023231D01*
X167854212Y-72028099D01*
X167833827Y-72029027D01*
X167803585Y-72027092D01*
X167773586Y-72021287D01*
X167759821Y-72017303D01*
X167731375Y-72006802D01*
X167705110Y-71993618D01*
X167676474Y-71974255D01*
X167650980Y-71951028D01*
X167628629Y-71923937D01*
X167615474Y-71903730D01*
X167300401Y-71313884D01*
X167300401Y-71771839D01*
X167301644Y-71806926D01*
X167305372Y-71841022D01*
X167311587Y-71874125D01*
X167320287Y-71906237D01*
X167331474Y-71937358D01*
X167345146Y-71967486D01*
X167361304Y-71996623D01*
X167379947Y-72024768D01*
X167401077Y-72051921D01*
X167424693Y-72078082D01*
X167441817Y-72094972D01*
X167469222Y-72119328D01*
X167497579Y-72141289D01*
X167526890Y-72160853D01*
X167557153Y-72178022D01*
X167588370Y-72192796D01*
X167620540Y-72205173D01*
X167653663Y-72215155D01*
X167687739Y-72222742D01*
X167722769Y-72227932D01*
X167758751Y-72230727D01*
X167783269Y-72231260D01*
X167820415Y-72230049D01*
X167856839Y-72226417D01*
X167892543Y-72220363D01*
X167927525Y-72211888D01*
X167961785Y-72200992D01*
X167995325Y-72187674D01*
X168028143Y-72171934D01*
X168060240Y-72153774D01*
X168091616Y-72133191D01*
X168122270Y-72110188D01*
X168142306Y-72093507D01*
X168168364Y-72067895D01*
X168191859Y-72041343D01*
X168212791Y-72013850D01*
X168231160Y-71985418D01*
X168246966Y-71956045D01*
X168260209Y-71925732D01*
X168270889Y-71894479D01*
X168279005Y-71862285D01*
X168284559Y-71829151D01*
X168287549Y-71795077D01*
X168288119Y-71771839D01*
X168290540Y-71737097D01*
X168297804Y-71704313D01*
X168309912Y-71673487D01*
X168326862Y-71644619D01*
X168348655Y-71617708D01*
X168356995Y-71609173D01*
X168379006Y-71589542D01*
X168407307Y-71570376D01*
X168437670Y-71556002D01*
X168470093Y-71546420D01*
X168504577Y-71541628D01*
X168522592Y-71541029D01*
X168551926Y-71542693D01*
X168585380Y-71549082D01*
X168616927Y-71560261D01*
X168646568Y-71576233D01*
X168674303Y-71596995D01*
X168687456Y-71609173D01*
X168710614Y-71635431D01*
X168728981Y-71663647D01*
X168742556Y-71693820D01*
X168751341Y-71725952D01*
X168755333Y-71760041D01*
X168755600Y-71771839D01*
X168754469Y-71818095D01*
X168751077Y-71863625D01*
X168745424Y-71908427D01*
X168737510Y-71952502D01*
X168727335Y-71995851D01*
X168714899Y-72038472D01*
X168700201Y-72080366D01*
X168683243Y-72121534D01*
X168664023Y-72161974D01*
X168642542Y-72201687D01*
X168618800Y-72240673D01*
X168592796Y-72278933D01*
X168564532Y-72316465D01*
X168534006Y-72353270D01*
X168501220Y-72389349D01*
X168466172Y-72424700D01*
X168441056Y-72447847D01*
X168415167Y-72470029D01*
X168388505Y-72491244D01*
X168361071Y-72511494D01*
X168332864Y-72530777D01*
X168303884Y-72549095D01*
X168274131Y-72566446D01*
X168243605Y-72582832D01*
X168212307Y-72598251D01*
X168180236Y-72612705D01*
X168158426Y-72621804D01*
X168125240Y-72634506D01*
X168091630Y-72645958D01*
X168057595Y-72656161D01*
X168023134Y-72665115D01*
X167988249Y-72672819D01*
X167952938Y-72679274D01*
X167917203Y-72684480D01*
X167881042Y-72688436D01*
X167844457Y-72691143D01*
X167807446Y-72692601D01*
X167782536Y-72692879D01*
X167735524Y-72691825D01*
X167689193Y-72688665D01*
X167643544Y-72683399D01*
X167598575Y-72676026D01*
X167554288Y-72666546D01*
X167510682Y-72654960D01*
X167467758Y-72641267D01*
X167425514Y-72625468D01*
X167383952Y-72607562D01*
X167343071Y-72587549D01*
X167302871Y-72565430D01*
X167263352Y-72541204D01*
X167224515Y-72514871D01*
X167186358Y-72486432D01*
X167148883Y-72455887D01*
X167112089Y-72423235D01*
X167087875Y-72399243D01*
X167064691Y-72374531D01*
X167042537Y-72349097D01*
X167021414Y-72322942D01*
X167001321Y-72296066D01*
X166982259Y-72268469D01*
X166964227Y-72240150D01*
X166947225Y-72211110D01*
X166931254Y-72181348D01*
X166916313Y-72150866D01*
X166906925Y-72130143D01*
X166893700Y-72098606D01*
X166881775Y-72066645D01*
X166871151Y-72034258D01*
X166861828Y-72001446D01*
X166853806Y-71968209D01*
X166847085Y-71934548D01*
X166841665Y-71900461D01*
X166837545Y-71865949D01*
X166834727Y-71831012D01*
X166833209Y-71795650D01*
X166832920Y-71771839D01*
X166832920Y-71083074D01*
G37*
G36*
X168755600Y-70410429D02*
G01*
X168753954Y-70439939D01*
X168747634Y-70473461D01*
X168736574Y-70504923D01*
X168720775Y-70534323D01*
X168700236Y-70561663D01*
X168688188Y-70574560D01*
X168661724Y-70597221D01*
X168632890Y-70615193D01*
X168601686Y-70628476D01*
X168568113Y-70637071D01*
X168538324Y-70640653D01*
X168519661Y-70641239D01*
X167598621Y-70641239D01*
X167562282Y-70639018D01*
X167528371Y-70632354D01*
X167496886Y-70621249D01*
X167467829Y-70605701D01*
X167441199Y-70585712D01*
X167416996Y-70561280D01*
X167395220Y-70532406D01*
X167375872Y-70499089D01*
X167202215Y-70175223D01*
X167190033Y-70148479D01*
X167180489Y-70118391D01*
X167175350Y-70088303D01*
X167174371Y-70068245D01*
X167176896Y-70037611D01*
X167184469Y-70007257D01*
X167187560Y-69998636D01*
X167200492Y-69967355D01*
X167217854Y-69938907D01*
X167239647Y-69913293D01*
X167265871Y-69890513D01*
X167291108Y-69873693D01*
X167307728Y-69864546D01*
X167336167Y-69852685D01*
X167364331Y-69844213D01*
X167395688Y-69838733D01*
X167419835Y-69837436D01*
X167449602Y-69839491D01*
X167479370Y-69845659D01*
X167493108Y-69849892D01*
X167520922Y-69859813D01*
X167551559Y-69875544D01*
X167579208Y-69895448D01*
X167603869Y-69919525D01*
X167622137Y-69942777D01*
X167635258Y-69963465D01*
X167751761Y-70179620D01*
X168288119Y-70179620D01*
X168288119Y-69720199D01*
X168286876Y-69685498D01*
X168283147Y-69651737D01*
X168276932Y-69618917D01*
X168268232Y-69587037D01*
X168257046Y-69556097D01*
X168243374Y-69526097D01*
X168227216Y-69497038D01*
X168208572Y-69468919D01*
X168187442Y-69441740D01*
X168163827Y-69415501D01*
X168146702Y-69398531D01*
X168119671Y-69374175D01*
X168091610Y-69352215D01*
X168062518Y-69332650D01*
X168032396Y-69315481D01*
X168001244Y-69300708D01*
X167969061Y-69288330D01*
X167935848Y-69278348D01*
X167901604Y-69270762D01*
X167866330Y-69265571D01*
X167830026Y-69262776D01*
X167805251Y-69262244D01*
X167768105Y-69263461D01*
X167731680Y-69267112D01*
X167695977Y-69273198D01*
X167660995Y-69281718D01*
X167626734Y-69292673D01*
X167593194Y-69306061D01*
X167560376Y-69321884D01*
X167528279Y-69340142D01*
X167496904Y-69360834D01*
X167466249Y-69383960D01*
X167446214Y-69400729D01*
X167420155Y-69426322D01*
X167396660Y-69452816D01*
X167375728Y-69480212D01*
X167357359Y-69508509D01*
X167341553Y-69537708D01*
X167328310Y-69567809D01*
X167317630Y-69598811D01*
X167309514Y-69630714D01*
X167303961Y-69663520D01*
X167300970Y-69697227D01*
X167300401Y-69720199D01*
X167298737Y-69749726D01*
X167292348Y-69783317D01*
X167281169Y-69814899D01*
X167265197Y-69844472D01*
X167244435Y-69872035D01*
X167232257Y-69885063D01*
X167210071Y-69904694D01*
X167181701Y-69923860D01*
X167151424Y-69938234D01*
X167119241Y-69947816D01*
X167085152Y-69952608D01*
X167067393Y-69953207D01*
X167037654Y-69951543D01*
X167003857Y-69945154D01*
X166972121Y-69933975D01*
X166942446Y-69918003D01*
X166914831Y-69897241D01*
X166901796Y-69885063D01*
X166881954Y-69863070D01*
X166862582Y-69834837D01*
X166848054Y-69804595D01*
X166838368Y-69772344D01*
X166833525Y-69738083D01*
X166832920Y-69720199D01*
X166834050Y-69674206D01*
X166837442Y-69628917D01*
X166843095Y-69584332D01*
X166851009Y-69540451D01*
X166861184Y-69497275D01*
X166873621Y-69454802D01*
X166888318Y-69413034D01*
X166905277Y-69371970D01*
X166924497Y-69331610D01*
X166945978Y-69291953D01*
X166969720Y-69253001D01*
X166995723Y-69214754D01*
X167023987Y-69177210D01*
X167054513Y-69140370D01*
X167087300Y-69104235D01*
X167122348Y-69068803D01*
X167147856Y-69045787D01*
X167174099Y-69023723D01*
X167201077Y-69002613D01*
X167228788Y-68982456D01*
X167257233Y-68963252D01*
X167286413Y-68945001D01*
X167316327Y-68927703D01*
X167346975Y-68911358D01*
X167378357Y-68895967D01*
X167410473Y-68881528D01*
X167432292Y-68872432D01*
X167465327Y-68859599D01*
X167498761Y-68848029D01*
X167532595Y-68837720D01*
X167566828Y-68828674D01*
X167601460Y-68820891D01*
X167636491Y-68814369D01*
X167671922Y-68809110D01*
X167707752Y-68805113D01*
X167743981Y-68802378D01*
X167780610Y-68800905D01*
X167805251Y-68800625D01*
X167852182Y-68801681D01*
X167898456Y-68804849D01*
X167944071Y-68810130D01*
X167989028Y-68817523D01*
X168033327Y-68827029D01*
X168076967Y-68838646D01*
X168119949Y-68852376D01*
X168162273Y-68868219D01*
X168203938Y-68886174D01*
X168244945Y-68906241D01*
X168285294Y-68928420D01*
X168324984Y-68952712D01*
X168364016Y-68979116D01*
X168402390Y-69007632D01*
X168440105Y-69038261D01*
X168477163Y-69071001D01*
X168500997Y-69094862D01*
X168523866Y-69119456D01*
X168545768Y-69144784D01*
X168566704Y-69170847D01*
X168586675Y-69197644D01*
X168605679Y-69225175D01*
X168623718Y-69253440D01*
X168640790Y-69282439D01*
X168656897Y-69312173D01*
X168672037Y-69342641D01*
X168681594Y-69363360D01*
X168694820Y-69394884D01*
X168706744Y-69426807D01*
X168717368Y-69459129D01*
X168726691Y-69491851D01*
X168734713Y-69524972D01*
X168741434Y-69558492D01*
X168746855Y-69592412D01*
X168750974Y-69626730D01*
X168753793Y-69661448D01*
X168755310Y-69696566D01*
X168755600Y-69720199D01*
X168755600Y-70410429D01*
G37*
G36*
X168521126Y-68504602D02*
G01*
X167069591Y-68504602D01*
X167037122Y-68501580D01*
X167006760Y-68495443D01*
X166978504Y-68486192D01*
X166946146Y-68470250D01*
X166917081Y-68449442D01*
X166891306Y-68423767D01*
X166873057Y-68399725D01*
X166868824Y-68393228D01*
X166853116Y-68365155D01*
X166841896Y-68336624D01*
X166835164Y-68307636D01*
X166832920Y-68278189D01*
X166835064Y-68247754D01*
X166841498Y-68216623D01*
X166850817Y-68188367D01*
X166860031Y-68166814D01*
X167172906Y-67575503D01*
X166860031Y-66983458D01*
X166848170Y-66955110D01*
X166838877Y-66923767D01*
X166833873Y-66893003D01*
X166832920Y-66872816D01*
X166836125Y-66841537D01*
X166844190Y-66812140D01*
X166857163Y-66780850D01*
X166872189Y-66752522D01*
X166884211Y-66732865D01*
X166902261Y-66709484D01*
X166924353Y-66689717D01*
X166950489Y-66673563D01*
X166980668Y-66661023D01*
X167014889Y-66652096D01*
X167045177Y-66647557D01*
X167069591Y-66645670D01*
X168521126Y-66645670D01*
X168550672Y-66647334D01*
X168584331Y-66653722D01*
X168616033Y-66664902D01*
X168645778Y-66680873D01*
X168673564Y-66701636D01*
X168686723Y-66713814D01*
X168706565Y-66735753D01*
X168725937Y-66763780D01*
X168740466Y-66793661D01*
X168750151Y-66825397D01*
X168754994Y-66858988D01*
X168755600Y-66876479D01*
X168753918Y-66905989D01*
X168747461Y-66939511D01*
X168736161Y-66970973D01*
X168720018Y-67000374D01*
X168699032Y-67027713D01*
X168686723Y-67040611D01*
X168664519Y-67059820D01*
X168636080Y-67078573D01*
X168605684Y-67092638D01*
X168573329Y-67102015D01*
X168539017Y-67106703D01*
X168521126Y-67107289D01*
X167455006Y-67107289D01*
X167644783Y-67469990D01*
X167656826Y-67499961D01*
X167664927Y-67529701D01*
X167669088Y-67559209D01*
X167669696Y-67575503D01*
X167667478Y-67607345D01*
X167660823Y-67638758D01*
X167651041Y-67666662D01*
X167646981Y-67675886D01*
X167455006Y-68042983D01*
X168521126Y-68042983D01*
X168550672Y-68044629D01*
X168584331Y-68050949D01*
X168616033Y-68062008D01*
X168645778Y-68077808D01*
X168673564Y-68098347D01*
X168686723Y-68110394D01*
X168710130Y-68136455D01*
X168728695Y-68164628D01*
X168742416Y-68194913D01*
X168751295Y-68227310D01*
X168755330Y-68261820D01*
X168755600Y-68273793D01*
X168753178Y-68308311D01*
X168745914Y-68340975D01*
X168733807Y-68371784D01*
X168716856Y-68400738D01*
X168695064Y-68427838D01*
X168686723Y-68436459D01*
X168664519Y-68456090D01*
X168636080Y-68475255D01*
X168605684Y-68489629D01*
X168573329Y-68499212D01*
X168539017Y-68504003D01*
X168521126Y-68504602D01*
G37*
G36*
X166409403Y-65003625D02*
G01*
X166409403Y-65461581D01*
X166410601Y-65496543D01*
X166414194Y-65530540D01*
X166420183Y-65563571D01*
X166428568Y-65595636D01*
X166439349Y-65626734D01*
X166452525Y-65656867D01*
X166468097Y-65686034D01*
X166486064Y-65714235D01*
X166506428Y-65741469D01*
X166529187Y-65767738D01*
X166545690Y-65784714D01*
X166569955Y-65806893D01*
X166595579Y-65827175D01*
X166622562Y-65845561D01*
X166650905Y-65862051D01*
X166680608Y-65876645D01*
X166711670Y-65889342D01*
X166724476Y-65893890D01*
X166751451Y-65906944D01*
X166783290Y-65926493D01*
X166810413Y-65948492D01*
X166832818Y-65972941D01*
X166850507Y-65999841D01*
X166863478Y-66029190D01*
X166871733Y-66060989D01*
X166875271Y-66095238D01*
X166875418Y-66104184D01*
X166874182Y-66135141D01*
X166870472Y-66164267D01*
X166863343Y-66194844D01*
X166855634Y-66217024D01*
X166841782Y-66243473D01*
X166822481Y-66268415D01*
X166800751Y-66289321D01*
X166781629Y-66304218D01*
X166754636Y-66321063D01*
X166726872Y-66333771D01*
X166698336Y-66342341D01*
X166669029Y-66346774D01*
X166651936Y-66347449D01*
X166622522Y-66345394D01*
X166592625Y-66339226D01*
X166578663Y-66334993D01*
X166539866Y-66320834D01*
X166502061Y-66305283D01*
X166465248Y-66288342D01*
X166429427Y-66270009D01*
X166394597Y-66250286D01*
X166360759Y-66229171D01*
X166327913Y-66206665D01*
X166296059Y-66182769D01*
X166265196Y-66157481D01*
X166235325Y-66130802D01*
X166215962Y-66112244D01*
X166192154Y-66088383D01*
X166169363Y-66063789D01*
X166147589Y-66038461D01*
X166126833Y-66012398D01*
X166107094Y-65985601D01*
X166088373Y-65958070D01*
X166070670Y-65929805D01*
X166053984Y-65900806D01*
X166038315Y-65871072D01*
X166023664Y-65840605D01*
X166014462Y-65819885D01*
X166001498Y-65788348D01*
X165989810Y-65756387D01*
X165979396Y-65724000D01*
X165970258Y-65691188D01*
X165962395Y-65657951D01*
X165955807Y-65624289D01*
X165950494Y-65590202D01*
X165946456Y-65555690D01*
X165943693Y-65520753D01*
X165942205Y-65485391D01*
X165941922Y-65461581D01*
X165941922Y-64772816D01*
X165944318Y-64738297D01*
X165951505Y-64705634D01*
X165963483Y-64674825D01*
X165980253Y-64645871D01*
X166001814Y-64618771D01*
X166010066Y-64610150D01*
X166032112Y-64590519D01*
X166060551Y-64571353D01*
X166091154Y-64556979D01*
X166123921Y-64547397D01*
X166158851Y-64542605D01*
X166177128Y-64542006D01*
X166758181Y-64542006D01*
X166790210Y-64544028D01*
X166820807Y-64550092D01*
X166849973Y-64560199D01*
X166877708Y-64574349D01*
X166904012Y-64592542D01*
X166928884Y-64614778D01*
X166938433Y-64624805D01*
X167353890Y-65109138D01*
X167784734Y-64627003D01*
X167807929Y-64602517D01*
X167833091Y-64582180D01*
X167860222Y-64565995D01*
X167889320Y-64553959D01*
X167920386Y-64546074D01*
X167953419Y-64542338D01*
X167967184Y-64542006D01*
X168521126Y-64542006D01*
X168550672Y-64543670D01*
X168584331Y-64550058D01*
X168616033Y-64561238D01*
X168645778Y-64577210D01*
X168673564Y-64597972D01*
X168686723Y-64610150D01*
X168706565Y-64632089D01*
X168725937Y-64660116D01*
X168740466Y-64689997D01*
X168750151Y-64721734D01*
X168754994Y-64755325D01*
X168755600Y-64772816D01*
X168755600Y-65461581D01*
X168754936Y-65497226D01*
X168752946Y-65532446D01*
X168749630Y-65567242D01*
X168744986Y-65601612D01*
X168739017Y-65635557D01*
X168731720Y-65669077D01*
X168723097Y-65702173D01*
X168713147Y-65734843D01*
X168701871Y-65767088D01*
X168689268Y-65798908D01*
X168680128Y-65819885D01*
X168665482Y-65850861D01*
X168649843Y-65881142D01*
X168633213Y-65910728D01*
X168615591Y-65939617D01*
X168596977Y-65967812D01*
X168577372Y-65995310D01*
X168556775Y-66022114D01*
X168535186Y-66048221D01*
X168512605Y-66073634D01*
X168489032Y-66098350D01*
X168472766Y-66114442D01*
X168442176Y-66142297D01*
X168410582Y-66168709D01*
X168377982Y-66193680D01*
X168344379Y-66217207D01*
X168309770Y-66239292D01*
X168274157Y-66259934D01*
X168237539Y-66279134D01*
X168199916Y-66296891D01*
X168161289Y-66313206D01*
X168121658Y-66328078D01*
X168094678Y-66337191D01*
X168064204Y-66343833D01*
X168034698Y-66347089D01*
X168021406Y-66347449D01*
X167990801Y-66345381D01*
X167961179Y-66339175D01*
X167932538Y-66328831D01*
X167904879Y-66314351D01*
X167889514Y-66304218D01*
X167863550Y-66282448D01*
X167841987Y-66258351D01*
X167824825Y-66231930D01*
X167812063Y-66203182D01*
X167803701Y-66172109D01*
X167799741Y-66138711D01*
X167799389Y-66124700D01*
X167800728Y-66095419D01*
X167805677Y-66062952D01*
X167814272Y-66032307D01*
X167826514Y-66003486D01*
X167837491Y-65984016D01*
X167855978Y-65959022D01*
X167878744Y-65937253D01*
X167905787Y-65918710D01*
X167932371Y-65905384D01*
X167956925Y-65896089D01*
X167990363Y-65883463D01*
X168022442Y-65868941D01*
X168053160Y-65852522D01*
X168082520Y-65834207D01*
X168110519Y-65813997D01*
X168137159Y-65791890D01*
X168147435Y-65782516D01*
X168172577Y-65757035D01*
X168195245Y-65730601D01*
X168215441Y-65703214D01*
X168233164Y-65674873D01*
X168248414Y-65645580D01*
X168261191Y-65615333D01*
X168271495Y-65584134D01*
X168279326Y-65551981D01*
X168284684Y-65518875D01*
X168287569Y-65484816D01*
X168288119Y-65461581D01*
X168288119Y-65003625D01*
X168072696Y-65003625D01*
X167527546Y-65616186D01*
X167503937Y-65637506D01*
X167479361Y-65655213D01*
X167448595Y-65671691D01*
X167416438Y-65682965D01*
X167382890Y-65689036D01*
X167359752Y-65690192D01*
X167340701Y-65690192D01*
X167308672Y-65686235D01*
X167278075Y-65678485D01*
X167248909Y-65666944D01*
X167221174Y-65651609D01*
X167194871Y-65632482D01*
X167169998Y-65609563D01*
X167160449Y-65599334D01*
X166648272Y-65003625D01*
X166409403Y-65003625D01*
G37*
G36*
X166591852Y-63781434D02*
G01*
X166621415Y-63783080D01*
X166655144Y-63789400D01*
X166686966Y-63800459D01*
X166716882Y-63816259D01*
X166744891Y-63836798D01*
X166758181Y-63848845D01*
X166781589Y-63874906D01*
X166800153Y-63903078D01*
X166813875Y-63933364D01*
X166822753Y-63965761D01*
X166826789Y-64000271D01*
X166827058Y-64012244D01*
X166824637Y-64046762D01*
X166817372Y-64079426D01*
X166805265Y-64110235D01*
X166788315Y-64139189D01*
X166766522Y-64166288D01*
X166758181Y-64174909D01*
X166735978Y-64194541D01*
X166707539Y-64213706D01*
X166677142Y-64228080D01*
X166644787Y-64237663D01*
X166610475Y-64242454D01*
X166592585Y-64243053D01*
X166176395Y-64243053D01*
X166146445Y-64241389D01*
X166112442Y-64235001D01*
X166080551Y-64223821D01*
X166050773Y-64207850D01*
X166023107Y-64187087D01*
X166010066Y-64174909D01*
X165990434Y-64152970D01*
X165971269Y-64124944D01*
X165956895Y-64095062D01*
X165947312Y-64063326D01*
X165942521Y-64029735D01*
X165941922Y-64012244D01*
X165941922Y-63322013D01*
X165942559Y-63286630D01*
X165944472Y-63251646D01*
X165947660Y-63217061D01*
X165952123Y-63182875D01*
X165957861Y-63149089D01*
X165964874Y-63115702D01*
X165973162Y-63082714D01*
X165982726Y-63050125D01*
X165993564Y-63017936D01*
X166005678Y-62986146D01*
X166014462Y-62965175D01*
X166028566Y-62934217D01*
X166043674Y-62903995D01*
X166059787Y-62874506D01*
X166076904Y-62845751D01*
X166095026Y-62817731D01*
X166114153Y-62790445D01*
X166134285Y-62763892D01*
X166155421Y-62738074D01*
X166177561Y-62712991D01*
X166200707Y-62688641D01*
X166216695Y-62672816D01*
X166241105Y-62649662D01*
X166266249Y-62627461D01*
X166292127Y-62606213D01*
X166318739Y-62585919D01*
X166346085Y-62566577D01*
X166374166Y-62548189D01*
X166402981Y-62530754D01*
X166432529Y-62514272D01*
X166462812Y-62498743D01*
X166493830Y-62484167D01*
X166514916Y-62474979D01*
X166546864Y-62462015D01*
X166579238Y-62450327D01*
X166612037Y-62439913D01*
X166645261Y-62430775D01*
X166678910Y-62422912D01*
X166712984Y-62416324D01*
X166747483Y-62411011D01*
X166782407Y-62406973D01*
X166817756Y-62404210D01*
X166853531Y-62402722D01*
X166877616Y-62402439D01*
X167078384Y-62402439D01*
X167113463Y-62404603D01*
X167146161Y-62411094D01*
X167176478Y-62421914D01*
X167204413Y-62437060D01*
X167229967Y-62456535D01*
X167253140Y-62480337D01*
X167273931Y-62508467D01*
X167292341Y-62540925D01*
X167982571Y-63781434D01*
X168288119Y-63781434D01*
X168288119Y-63322013D01*
X168286882Y-63287705D01*
X168283173Y-63254299D01*
X168276990Y-63221794D01*
X168268335Y-63190191D01*
X168257207Y-63159489D01*
X168243605Y-63129689D01*
X168227531Y-63100791D01*
X168208984Y-63072794D01*
X168187964Y-63045699D01*
X168164471Y-63019505D01*
X168147435Y-63002544D01*
X168119848Y-62977795D01*
X168091218Y-62955480D01*
X168061545Y-62935600D01*
X168030828Y-62918154D01*
X167999068Y-62903142D01*
X167966265Y-62890565D01*
X167932418Y-62880422D01*
X167897529Y-62872713D01*
X167861596Y-62867439D01*
X167824619Y-62864599D01*
X167799389Y-62864058D01*
X167769843Y-62862430D01*
X167736184Y-62856179D01*
X167704482Y-62845240D01*
X167674738Y-62829612D01*
X167646951Y-62809296D01*
X167633792Y-62797380D01*
X167613739Y-62775791D01*
X167594161Y-62747902D01*
X167579478Y-62717849D01*
X167569689Y-62685631D01*
X167564795Y-62651250D01*
X167564183Y-62633248D01*
X167566630Y-62598730D01*
X167573972Y-62566066D01*
X167586208Y-62535257D01*
X167603338Y-62506303D01*
X167625363Y-62479204D01*
X167633792Y-62470583D01*
X167655978Y-62450951D01*
X167684348Y-62431786D01*
X167714625Y-62417412D01*
X167746808Y-62407829D01*
X167780897Y-62403038D01*
X167798656Y-62402439D01*
X167835401Y-62403070D01*
X167871720Y-62404963D01*
X167907614Y-62408119D01*
X167943084Y-62412537D01*
X167978128Y-62418217D01*
X168012747Y-62425159D01*
X168046942Y-62433364D01*
X168080711Y-62442831D01*
X168114055Y-62453560D01*
X168146974Y-62465551D01*
X168168684Y-62474246D01*
X168200616Y-62488049D01*
X168231839Y-62502806D01*
X168262354Y-62518515D01*
X168292160Y-62535177D01*
X168321258Y-62552793D01*
X168349648Y-62571362D01*
X168377329Y-62590883D01*
X168404302Y-62611358D01*
X168430566Y-62632786D01*
X168456122Y-62655167D01*
X168472766Y-62670618D01*
X168497000Y-62694871D01*
X168520242Y-62719819D01*
X168542492Y-62745463D01*
X168563751Y-62771803D01*
X168584017Y-62798838D01*
X168603292Y-62826569D01*
X168621575Y-62854995D01*
X168638867Y-62884116D01*
X168655166Y-62913934D01*
X168670474Y-62944446D01*
X168680128Y-62965175D01*
X168693616Y-62996698D01*
X168705777Y-63028621D01*
X168716611Y-63060944D01*
X168726119Y-63093665D01*
X168734300Y-63126786D01*
X168741154Y-63160306D01*
X168746682Y-63194226D01*
X168750883Y-63228545D01*
X168753757Y-63263263D01*
X168755305Y-63298380D01*
X168755600Y-63322013D01*
X168755600Y-64012244D01*
X168753178Y-64046762D01*
X168745914Y-64079426D01*
X168733807Y-64110235D01*
X168716856Y-64139189D01*
X168695064Y-64166288D01*
X168686723Y-64174909D01*
X168664519Y-64194541D01*
X168636080Y-64213706D01*
X168605684Y-64228080D01*
X168573329Y-64237663D01*
X168539017Y-64242454D01*
X168521126Y-64243053D01*
X167843352Y-64243053D01*
X167808410Y-64240901D01*
X167775758Y-64234444D01*
X167745396Y-64223682D01*
X167717323Y-64208615D01*
X167691540Y-64189243D01*
X167668047Y-64165567D01*
X167646844Y-64137586D01*
X167627930Y-64105300D01*
X166942096Y-62864058D01*
X166878349Y-62864058D01*
X166842817Y-62865256D01*
X166808213Y-62868849D01*
X166774536Y-62874839D01*
X166741787Y-62883223D01*
X166709965Y-62894004D01*
X166679070Y-62907180D01*
X166649102Y-62922752D01*
X166620062Y-62940720D01*
X166591949Y-62961083D01*
X166564764Y-62983842D01*
X166547156Y-63000345D01*
X166522538Y-63025957D01*
X166500341Y-63052509D01*
X166480566Y-63080002D01*
X166463212Y-63108434D01*
X166448280Y-63137807D01*
X166435769Y-63168120D01*
X166425680Y-63199374D01*
X166418012Y-63231567D01*
X166412766Y-63264701D01*
X166409941Y-63298775D01*
X166409403Y-63322013D01*
X166409403Y-63781434D01*
X166591852Y-63781434D01*
G37*
X130516666Y-122654819D02*
X130516666Y-123369104D01*
X130516666Y-123369104D02*
X130469047Y-123511961D01*
X130469047Y-123511961D02*
X130373809Y-123607200D01*
X130373809Y-123607200D02*
X130230952Y-123654819D01*
X130230952Y-123654819D02*
X130135714Y-123654819D01*
X131421428Y-122988152D02*
X131421428Y-123654819D01*
X131183333Y-122607200D02*
X130945238Y-123321485D01*
X130945238Y-123321485D02*
X131564285Y-123321485D01*
X174109142Y-100996819D02*
X173775809Y-100520628D01*
X173537714Y-100996819D02*
X173537714Y-99996819D01*
X173537714Y-99996819D02*
X173918666Y-99996819D01*
X173918666Y-99996819D02*
X174013904Y-100044438D01*
X174013904Y-100044438D02*
X174061523Y-100092057D01*
X174061523Y-100092057D02*
X174109142Y-100187295D01*
X174109142Y-100187295D02*
X174109142Y-100330152D01*
X174109142Y-100330152D02*
X174061523Y-100425390D01*
X174061523Y-100425390D02*
X174013904Y-100473009D01*
X174013904Y-100473009D02*
X173918666Y-100520628D01*
X173918666Y-100520628D02*
X173537714Y-100520628D01*
X175061523Y-100996819D02*
X174490095Y-100996819D01*
X174775809Y-100996819D02*
X174775809Y-99996819D01*
X174775809Y-99996819D02*
X174680571Y-100139676D01*
X174680571Y-100139676D02*
X174585333Y-100234914D01*
X174585333Y-100234914D02*
X174490095Y-100282533D01*
X175394857Y-99996819D02*
X176013904Y-99996819D01*
X176013904Y-99996819D02*
X175680571Y-100377771D01*
X175680571Y-100377771D02*
X175823428Y-100377771D01*
X175823428Y-100377771D02*
X175918666Y-100425390D01*
X175918666Y-100425390D02*
X175966285Y-100473009D01*
X175966285Y-100473009D02*
X176013904Y-100568247D01*
X176013904Y-100568247D02*
X176013904Y-100806342D01*
X176013904Y-100806342D02*
X175966285Y-100901580D01*
X175966285Y-100901580D02*
X175918666Y-100949200D01*
X175918666Y-100949200D02*
X175823428Y-100996819D01*
X175823428Y-100996819D02*
X175537714Y-100996819D01*
X175537714Y-100996819D02*
X175442476Y-100949200D01*
X175442476Y-100949200D02*
X175394857Y-100901580D01*
X190658819Y-86272666D02*
X190182628Y-86605999D01*
X190658819Y-86844094D02*
X189658819Y-86844094D01*
X189658819Y-86844094D02*
X189658819Y-86463142D01*
X189658819Y-86463142D02*
X189706438Y-86367904D01*
X189706438Y-86367904D02*
X189754057Y-86320285D01*
X189754057Y-86320285D02*
X189849295Y-86272666D01*
X189849295Y-86272666D02*
X189992152Y-86272666D01*
X189992152Y-86272666D02*
X190087390Y-86320285D01*
X190087390Y-86320285D02*
X190135009Y-86367904D01*
X190135009Y-86367904D02*
X190182628Y-86463142D01*
X190182628Y-86463142D02*
X190182628Y-86844094D01*
X190658819Y-85320285D02*
X190658819Y-85891713D01*
X190658819Y-85605999D02*
X189658819Y-85605999D01*
X189658819Y-85605999D02*
X189801676Y-85701237D01*
X189801676Y-85701237D02*
X189896914Y-85796475D01*
X189896914Y-85796475D02*
X189944533Y-85891713D01*
X137826819Y-112750166D02*
X137350628Y-113083499D01*
X137826819Y-113321594D02*
X136826819Y-113321594D01*
X136826819Y-113321594D02*
X136826819Y-112940642D01*
X136826819Y-112940642D02*
X136874438Y-112845404D01*
X136874438Y-112845404D02*
X136922057Y-112797785D01*
X136922057Y-112797785D02*
X137017295Y-112750166D01*
X137017295Y-112750166D02*
X137160152Y-112750166D01*
X137160152Y-112750166D02*
X137255390Y-112797785D01*
X137255390Y-112797785D02*
X137303009Y-112845404D01*
X137303009Y-112845404D02*
X137350628Y-112940642D01*
X137350628Y-112940642D02*
X137350628Y-113321594D01*
X136826819Y-112416832D02*
X136826819Y-111750166D01*
X136826819Y-111750166D02*
X137826819Y-112178737D01*
X149082666Y-59838819D02*
X149082666Y-60553104D01*
X149082666Y-60553104D02*
X149035047Y-60695961D01*
X149035047Y-60695961D02*
X148939809Y-60791200D01*
X148939809Y-60791200D02*
X148796952Y-60838819D01*
X148796952Y-60838819D02*
X148701714Y-60838819D01*
X149511238Y-59934057D02*
X149558857Y-59886438D01*
X149558857Y-59886438D02*
X149654095Y-59838819D01*
X149654095Y-59838819D02*
X149892190Y-59838819D01*
X149892190Y-59838819D02*
X149987428Y-59886438D01*
X149987428Y-59886438D02*
X150035047Y-59934057D01*
X150035047Y-59934057D02*
X150082666Y-60029295D01*
X150082666Y-60029295D02*
X150082666Y-60124533D01*
X150082666Y-60124533D02*
X150035047Y-60267390D01*
X150035047Y-60267390D02*
X149463619Y-60838819D01*
X149463619Y-60838819D02*
X150082666Y-60838819D01*
X190658819Y-69762666D02*
X190182628Y-70095999D01*
X190658819Y-70334094D02*
X189658819Y-70334094D01*
X189658819Y-70334094D02*
X189658819Y-69953142D01*
X189658819Y-69953142D02*
X189706438Y-69857904D01*
X189706438Y-69857904D02*
X189754057Y-69810285D01*
X189754057Y-69810285D02*
X189849295Y-69762666D01*
X189849295Y-69762666D02*
X189992152Y-69762666D01*
X189992152Y-69762666D02*
X190087390Y-69810285D01*
X190087390Y-69810285D02*
X190135009Y-69857904D01*
X190135009Y-69857904D02*
X190182628Y-69953142D01*
X190182628Y-69953142D02*
X190182628Y-70334094D01*
X189754057Y-69381713D02*
X189706438Y-69334094D01*
X189706438Y-69334094D02*
X189658819Y-69238856D01*
X189658819Y-69238856D02*
X189658819Y-69000761D01*
X189658819Y-69000761D02*
X189706438Y-68905523D01*
X189706438Y-68905523D02*
X189754057Y-68857904D01*
X189754057Y-68857904D02*
X189849295Y-68810285D01*
X189849295Y-68810285D02*
X189944533Y-68810285D01*
X189944533Y-68810285D02*
X190087390Y-68857904D01*
X190087390Y-68857904D02*
X190658819Y-69429332D01*
X190658819Y-69429332D02*
X190658819Y-68810285D01*
X180835467Y-94158600D02*
X180978324Y-94206219D01*
X180978324Y-94206219D02*
X181216419Y-94206219D01*
X181216419Y-94206219D02*
X181311657Y-94158600D01*
X181311657Y-94158600D02*
X181359276Y-94110980D01*
X181359276Y-94110980D02*
X181406895Y-94015742D01*
X181406895Y-94015742D02*
X181406895Y-93920504D01*
X181406895Y-93920504D02*
X181359276Y-93825266D01*
X181359276Y-93825266D02*
X181311657Y-93777647D01*
X181311657Y-93777647D02*
X181216419Y-93730028D01*
X181216419Y-93730028D02*
X181025943Y-93682409D01*
X181025943Y-93682409D02*
X180930705Y-93634790D01*
X180930705Y-93634790D02*
X180883086Y-93587171D01*
X180883086Y-93587171D02*
X180835467Y-93491933D01*
X180835467Y-93491933D02*
X180835467Y-93396695D01*
X180835467Y-93396695D02*
X180883086Y-93301457D01*
X180883086Y-93301457D02*
X180930705Y-93253838D01*
X180930705Y-93253838D02*
X181025943Y-93206219D01*
X181025943Y-93206219D02*
X181264038Y-93206219D01*
X181264038Y-93206219D02*
X181406895Y-93253838D01*
X181740229Y-93206219D02*
X181978324Y-94206219D01*
X181978324Y-94206219D02*
X182168800Y-93491933D01*
X182168800Y-93491933D02*
X182359276Y-94206219D01*
X182359276Y-94206219D02*
X182597372Y-93206219D01*
X182883086Y-93206219D02*
X183502133Y-93206219D01*
X183502133Y-93206219D02*
X183168800Y-93587171D01*
X183168800Y-93587171D02*
X183311657Y-93587171D01*
X183311657Y-93587171D02*
X183406895Y-93634790D01*
X183406895Y-93634790D02*
X183454514Y-93682409D01*
X183454514Y-93682409D02*
X183502133Y-93777647D01*
X183502133Y-93777647D02*
X183502133Y-94015742D01*
X183502133Y-94015742D02*
X183454514Y-94110980D01*
X183454514Y-94110980D02*
X183406895Y-94158600D01*
X183406895Y-94158600D02*
X183311657Y-94206219D01*
X183311657Y-94206219D02*
X183025943Y-94206219D01*
X183025943Y-94206219D02*
X182930705Y-94158600D01*
X182930705Y-94158600D02*
X182883086Y-94110980D01*
X162393333Y-102311580D02*
X162345714Y-102359200D01*
X162345714Y-102359200D02*
X162202857Y-102406819D01*
X162202857Y-102406819D02*
X162107619Y-102406819D01*
X162107619Y-102406819D02*
X161964762Y-102359200D01*
X161964762Y-102359200D02*
X161869524Y-102263961D01*
X161869524Y-102263961D02*
X161821905Y-102168723D01*
X161821905Y-102168723D02*
X161774286Y-101978247D01*
X161774286Y-101978247D02*
X161774286Y-101835390D01*
X161774286Y-101835390D02*
X161821905Y-101644914D01*
X161821905Y-101644914D02*
X161869524Y-101549676D01*
X161869524Y-101549676D02*
X161964762Y-101454438D01*
X161964762Y-101454438D02*
X162107619Y-101406819D01*
X162107619Y-101406819D02*
X162202857Y-101406819D01*
X162202857Y-101406819D02*
X162345714Y-101454438D01*
X162345714Y-101454438D02*
X162393333Y-101502057D01*
X163250476Y-101740152D02*
X163250476Y-102406819D01*
X163012381Y-101359200D02*
X162774286Y-102073485D01*
X162774286Y-102073485D02*
X163393333Y-102073485D01*
D11*
X115935409Y-61186914D02*
X115983028Y-61044057D01*
X115983028Y-61044057D02*
X116030647Y-60996438D01*
X116030647Y-60996438D02*
X116125885Y-60948819D01*
X116125885Y-60948819D02*
X116268742Y-60948819D01*
X116268742Y-60948819D02*
X116363980Y-60996438D01*
X116363980Y-60996438D02*
X116411600Y-61044057D01*
X116411600Y-61044057D02*
X116459219Y-61139295D01*
X116459219Y-61139295D02*
X116459219Y-61520247D01*
X116459219Y-61520247D02*
X115459219Y-61520247D01*
X115459219Y-61520247D02*
X115459219Y-61186914D01*
X115459219Y-61186914D02*
X115506838Y-61091676D01*
X115506838Y-61091676D02*
X115554457Y-61044057D01*
X115554457Y-61044057D02*
X115649695Y-60996438D01*
X115649695Y-60996438D02*
X115744933Y-60996438D01*
X115744933Y-60996438D02*
X115840171Y-61044057D01*
X115840171Y-61044057D02*
X115887790Y-61091676D01*
X115887790Y-61091676D02*
X115935409Y-61186914D01*
X115935409Y-61186914D02*
X115935409Y-61520247D01*
X115459219Y-60663104D02*
X115459219Y-60091676D01*
X116459219Y-60377390D02*
X115459219Y-60377390D01*
X116459219Y-59234533D02*
X116459219Y-59805961D01*
X116459219Y-59520247D02*
X115459219Y-59520247D01*
X115459219Y-59520247D02*
X115602076Y-59615485D01*
X115602076Y-59615485D02*
X115697314Y-59710723D01*
X115697314Y-59710723D02*
X115744933Y-59805961D01*
D10*
X143414819Y-112750166D02*
X142938628Y-113083499D01*
X143414819Y-113321594D02*
X142414819Y-113321594D01*
X142414819Y-113321594D02*
X142414819Y-112940642D01*
X142414819Y-112940642D02*
X142462438Y-112845404D01*
X142462438Y-112845404D02*
X142510057Y-112797785D01*
X142510057Y-112797785D02*
X142605295Y-112750166D01*
X142605295Y-112750166D02*
X142748152Y-112750166D01*
X142748152Y-112750166D02*
X142843390Y-112797785D01*
X142843390Y-112797785D02*
X142891009Y-112845404D01*
X142891009Y-112845404D02*
X142938628Y-112940642D01*
X142938628Y-112940642D02*
X142938628Y-113321594D01*
X142843390Y-112178737D02*
X142795771Y-112273975D01*
X142795771Y-112273975D02*
X142748152Y-112321594D01*
X142748152Y-112321594D02*
X142652914Y-112369213D01*
X142652914Y-112369213D02*
X142605295Y-112369213D01*
X142605295Y-112369213D02*
X142510057Y-112321594D01*
X142510057Y-112321594D02*
X142462438Y-112273975D01*
X142462438Y-112273975D02*
X142414819Y-112178737D01*
X142414819Y-112178737D02*
X142414819Y-111988261D01*
X142414819Y-111988261D02*
X142462438Y-111893023D01*
X142462438Y-111893023D02*
X142510057Y-111845404D01*
X142510057Y-111845404D02*
X142605295Y-111797785D01*
X142605295Y-111797785D02*
X142652914Y-111797785D01*
X142652914Y-111797785D02*
X142748152Y-111845404D01*
X142748152Y-111845404D02*
X142795771Y-111893023D01*
X142795771Y-111893023D02*
X142843390Y-111988261D01*
X142843390Y-111988261D02*
X142843390Y-112178737D01*
X142843390Y-112178737D02*
X142891009Y-112273975D01*
X142891009Y-112273975D02*
X142938628Y-112321594D01*
X142938628Y-112321594D02*
X143033866Y-112369213D01*
X143033866Y-112369213D02*
X143224342Y-112369213D01*
X143224342Y-112369213D02*
X143319580Y-112321594D01*
X143319580Y-112321594D02*
X143367200Y-112273975D01*
X143367200Y-112273975D02*
X143414819Y-112178737D01*
X143414819Y-112178737D02*
X143414819Y-111988261D01*
X143414819Y-111988261D02*
X143367200Y-111893023D01*
X143367200Y-111893023D02*
X143319580Y-111845404D01*
X143319580Y-111845404D02*
X143224342Y-111797785D01*
X143224342Y-111797785D02*
X143033866Y-111797785D01*
X143033866Y-111797785D02*
X142938628Y-111845404D01*
X142938628Y-111845404D02*
X142891009Y-111893023D01*
X142891009Y-111893023D02*
X142843390Y-111988261D01*
X135215333Y-120149580D02*
X135167714Y-120197200D01*
X135167714Y-120197200D02*
X135024857Y-120244819D01*
X135024857Y-120244819D02*
X134929619Y-120244819D01*
X134929619Y-120244819D02*
X134786762Y-120197200D01*
X134786762Y-120197200D02*
X134691524Y-120101961D01*
X134691524Y-120101961D02*
X134643905Y-120006723D01*
X134643905Y-120006723D02*
X134596286Y-119816247D01*
X134596286Y-119816247D02*
X134596286Y-119673390D01*
X134596286Y-119673390D02*
X134643905Y-119482914D01*
X134643905Y-119482914D02*
X134691524Y-119387676D01*
X134691524Y-119387676D02*
X134786762Y-119292438D01*
X134786762Y-119292438D02*
X134929619Y-119244819D01*
X134929619Y-119244819D02*
X135024857Y-119244819D01*
X135024857Y-119244819D02*
X135167714Y-119292438D01*
X135167714Y-119292438D02*
X135215333Y-119340057D01*
X135596286Y-119340057D02*
X135643905Y-119292438D01*
X135643905Y-119292438D02*
X135739143Y-119244819D01*
X135739143Y-119244819D02*
X135977238Y-119244819D01*
X135977238Y-119244819D02*
X136072476Y-119292438D01*
X136072476Y-119292438D02*
X136120095Y-119340057D01*
X136120095Y-119340057D02*
X136167714Y-119435295D01*
X136167714Y-119435295D02*
X136167714Y-119530533D01*
X136167714Y-119530533D02*
X136120095Y-119673390D01*
X136120095Y-119673390D02*
X135548667Y-120244819D01*
X135548667Y-120244819D02*
X136167714Y-120244819D01*
X105762466Y-119952419D02*
X105762466Y-120666704D01*
X105762466Y-120666704D02*
X105714847Y-120809561D01*
X105714847Y-120809561D02*
X105619609Y-120904800D01*
X105619609Y-120904800D02*
X105476752Y-120952419D01*
X105476752Y-120952419D02*
X105381514Y-120952419D01*
X106762466Y-120952419D02*
X106191038Y-120952419D01*
X106476752Y-120952419D02*
X106476752Y-119952419D01*
X106476752Y-119952419D02*
X106381514Y-120095276D01*
X106381514Y-120095276D02*
X106286276Y-120190514D01*
X106286276Y-120190514D02*
X106191038Y-120238133D01*
X148709142Y-115686819D02*
X148375809Y-115210628D01*
X148137714Y-115686819D02*
X148137714Y-114686819D01*
X148137714Y-114686819D02*
X148518666Y-114686819D01*
X148518666Y-114686819D02*
X148613904Y-114734438D01*
X148613904Y-114734438D02*
X148661523Y-114782057D01*
X148661523Y-114782057D02*
X148709142Y-114877295D01*
X148709142Y-114877295D02*
X148709142Y-115020152D01*
X148709142Y-115020152D02*
X148661523Y-115115390D01*
X148661523Y-115115390D02*
X148613904Y-115163009D01*
X148613904Y-115163009D02*
X148518666Y-115210628D01*
X148518666Y-115210628D02*
X148137714Y-115210628D01*
X149661523Y-115686819D02*
X149090095Y-115686819D01*
X149375809Y-115686819D02*
X149375809Y-114686819D01*
X149375809Y-114686819D02*
X149280571Y-114829676D01*
X149280571Y-114829676D02*
X149185333Y-114924914D01*
X149185333Y-114924914D02*
X149090095Y-114972533D01*
X150042476Y-114782057D02*
X150090095Y-114734438D01*
X150090095Y-114734438D02*
X150185333Y-114686819D01*
X150185333Y-114686819D02*
X150423428Y-114686819D01*
X150423428Y-114686819D02*
X150518666Y-114734438D01*
X150518666Y-114734438D02*
X150566285Y-114782057D01*
X150566285Y-114782057D02*
X150613904Y-114877295D01*
X150613904Y-114877295D02*
X150613904Y-114972533D01*
X150613904Y-114972533D02*
X150566285Y-115115390D01*
X150566285Y-115115390D02*
X149994857Y-115686819D01*
X149994857Y-115686819D02*
X150613904Y-115686819D01*
X177063495Y-114288219D02*
X177063495Y-115097742D01*
X177063495Y-115097742D02*
X177111114Y-115192980D01*
X177111114Y-115192980D02*
X177158733Y-115240600D01*
X177158733Y-115240600D02*
X177253971Y-115288219D01*
X177253971Y-115288219D02*
X177444447Y-115288219D01*
X177444447Y-115288219D02*
X177539685Y-115240600D01*
X177539685Y-115240600D02*
X177587304Y-115192980D01*
X177587304Y-115192980D02*
X177634923Y-115097742D01*
X177634923Y-115097742D02*
X177634923Y-114288219D01*
X178539685Y-114621552D02*
X178539685Y-115288219D01*
X178301590Y-114240600D02*
X178063495Y-114954885D01*
X178063495Y-114954885D02*
X178682542Y-114954885D01*
X191769642Y-128667319D02*
X191293452Y-128667319D01*
X191293452Y-128667319D02*
X191245833Y-129143509D01*
X191245833Y-129143509D02*
X191293452Y-129095890D01*
X191293452Y-129095890D02*
X191388690Y-129048271D01*
X191388690Y-129048271D02*
X191626785Y-129048271D01*
X191626785Y-129048271D02*
X191722023Y-129095890D01*
X191722023Y-129095890D02*
X191769642Y-129143509D01*
X191769642Y-129143509D02*
X191817261Y-129238747D01*
X191817261Y-129238747D02*
X191817261Y-129476842D01*
X191817261Y-129476842D02*
X191769642Y-129572080D01*
X191769642Y-129572080D02*
X191722023Y-129619700D01*
X191722023Y-129619700D02*
X191626785Y-129667319D01*
X191626785Y-129667319D02*
X191388690Y-129667319D01*
X191388690Y-129667319D02*
X191293452Y-129619700D01*
X191293452Y-129619700D02*
X191245833Y-129572080D01*
X192150595Y-129000652D02*
X192388690Y-129667319D01*
X192388690Y-129667319D02*
X192626785Y-129000652D01*
X171364881Y-120543509D02*
X171507738Y-120591128D01*
X171507738Y-120591128D02*
X171555357Y-120638747D01*
X171555357Y-120638747D02*
X171602976Y-120733985D01*
X171602976Y-120733985D02*
X171602976Y-120876842D01*
X171602976Y-120876842D02*
X171555357Y-120972080D01*
X171555357Y-120972080D02*
X171507738Y-121019700D01*
X171507738Y-121019700D02*
X171412500Y-121067319D01*
X171412500Y-121067319D02*
X171031548Y-121067319D01*
X171031548Y-121067319D02*
X171031548Y-120067319D01*
X171031548Y-120067319D02*
X171364881Y-120067319D01*
X171364881Y-120067319D02*
X171460119Y-120114938D01*
X171460119Y-120114938D02*
X171507738Y-120162557D01*
X171507738Y-120162557D02*
X171555357Y-120257795D01*
X171555357Y-120257795D02*
X171555357Y-120353033D01*
X171555357Y-120353033D02*
X171507738Y-120448271D01*
X171507738Y-120448271D02*
X171460119Y-120495890D01*
X171460119Y-120495890D02*
X171364881Y-120543509D01*
X171364881Y-120543509D02*
X171031548Y-120543509D01*
X172031548Y-120686366D02*
X172793453Y-120686366D01*
X191467319Y-125474404D02*
X192276842Y-125474404D01*
X192276842Y-125474404D02*
X192372080Y-125426785D01*
X192372080Y-125426785D02*
X192419700Y-125379166D01*
X192419700Y-125379166D02*
X192467319Y-125283928D01*
X192467319Y-125283928D02*
X192467319Y-125093452D01*
X192467319Y-125093452D02*
X192419700Y-124998214D01*
X192419700Y-124998214D02*
X192372080Y-124950595D01*
X192372080Y-124950595D02*
X192276842Y-124902976D01*
X192276842Y-124902976D02*
X191467319Y-124902976D01*
X192419700Y-124474404D02*
X192467319Y-124331547D01*
X192467319Y-124331547D02*
X192467319Y-124093452D01*
X192467319Y-124093452D02*
X192419700Y-123998214D01*
X192419700Y-123998214D02*
X192372080Y-123950595D01*
X192372080Y-123950595D02*
X192276842Y-123902976D01*
X192276842Y-123902976D02*
X192181604Y-123902976D01*
X192181604Y-123902976D02*
X192086366Y-123950595D01*
X192086366Y-123950595D02*
X192038747Y-123998214D01*
X192038747Y-123998214D02*
X191991128Y-124093452D01*
X191991128Y-124093452D02*
X191943509Y-124283928D01*
X191943509Y-124283928D02*
X191895890Y-124379166D01*
X191895890Y-124379166D02*
X191848271Y-124426785D01*
X191848271Y-124426785D02*
X191753033Y-124474404D01*
X191753033Y-124474404D02*
X191657795Y-124474404D01*
X191657795Y-124474404D02*
X191562557Y-124426785D01*
X191562557Y-124426785D02*
X191514938Y-124379166D01*
X191514938Y-124379166D02*
X191467319Y-124283928D01*
X191467319Y-124283928D02*
X191467319Y-124045833D01*
X191467319Y-124045833D02*
X191514938Y-123902976D01*
X191943509Y-123141071D02*
X191991128Y-122998214D01*
X191991128Y-122998214D02*
X192038747Y-122950595D01*
X192038747Y-122950595D02*
X192133985Y-122902976D01*
X192133985Y-122902976D02*
X192276842Y-122902976D01*
X192276842Y-122902976D02*
X192372080Y-122950595D01*
X192372080Y-122950595D02*
X192419700Y-122998214D01*
X192419700Y-122998214D02*
X192467319Y-123093452D01*
X192467319Y-123093452D02*
X192467319Y-123474404D01*
X192467319Y-123474404D02*
X191467319Y-123474404D01*
X191467319Y-123474404D02*
X191467319Y-123141071D01*
X191467319Y-123141071D02*
X191514938Y-123045833D01*
X191514938Y-123045833D02*
X191562557Y-122998214D01*
X191562557Y-122998214D02*
X191657795Y-122950595D01*
X191657795Y-122950595D02*
X191753033Y-122950595D01*
X191753033Y-122950595D02*
X191848271Y-122998214D01*
X191848271Y-122998214D02*
X191895890Y-123045833D01*
X191895890Y-123045833D02*
X191943509Y-123141071D01*
X191943509Y-123141071D02*
X191943509Y-123474404D01*
X191050595Y-119114938D02*
X190955357Y-119067319D01*
X190955357Y-119067319D02*
X190812500Y-119067319D01*
X190812500Y-119067319D02*
X190669643Y-119114938D01*
X190669643Y-119114938D02*
X190574405Y-119210176D01*
X190574405Y-119210176D02*
X190526786Y-119305414D01*
X190526786Y-119305414D02*
X190479167Y-119495890D01*
X190479167Y-119495890D02*
X190479167Y-119638747D01*
X190479167Y-119638747D02*
X190526786Y-119829223D01*
X190526786Y-119829223D02*
X190574405Y-119924461D01*
X190574405Y-119924461D02*
X190669643Y-120019700D01*
X190669643Y-120019700D02*
X190812500Y-120067319D01*
X190812500Y-120067319D02*
X190907738Y-120067319D01*
X190907738Y-120067319D02*
X191050595Y-120019700D01*
X191050595Y-120019700D02*
X191098214Y-119972080D01*
X191098214Y-119972080D02*
X191098214Y-119638747D01*
X191098214Y-119638747D02*
X190907738Y-119638747D01*
X191526786Y-120067319D02*
X191526786Y-119067319D01*
X191526786Y-119067319D02*
X192098214Y-120067319D01*
X192098214Y-120067319D02*
X192098214Y-119067319D01*
X192574405Y-120067319D02*
X192574405Y-119067319D01*
X192574405Y-119067319D02*
X192812500Y-119067319D01*
X192812500Y-119067319D02*
X192955357Y-119114938D01*
X192955357Y-119114938D02*
X193050595Y-119210176D01*
X193050595Y-119210176D02*
X193098214Y-119305414D01*
X193098214Y-119305414D02*
X193145833Y-119495890D01*
X193145833Y-119495890D02*
X193145833Y-119638747D01*
X193145833Y-119638747D02*
X193098214Y-119829223D01*
X193098214Y-119829223D02*
X193050595Y-119924461D01*
X193050595Y-119924461D02*
X192955357Y-120019700D01*
X192955357Y-120019700D02*
X192812500Y-120067319D01*
X192812500Y-120067319D02*
X192574405Y-120067319D01*
X174269641Y-124343509D02*
X174412498Y-124391128D01*
X174412498Y-124391128D02*
X174460117Y-124438747D01*
X174460117Y-124438747D02*
X174507736Y-124533985D01*
X174507736Y-124533985D02*
X174507736Y-124676842D01*
X174507736Y-124676842D02*
X174460117Y-124772080D01*
X174460117Y-124772080D02*
X174412498Y-124819700D01*
X174412498Y-124819700D02*
X174317260Y-124867319D01*
X174317260Y-124867319D02*
X173936308Y-124867319D01*
X173936308Y-124867319D02*
X173936308Y-123867319D01*
X173936308Y-123867319D02*
X174269641Y-123867319D01*
X174269641Y-123867319D02*
X174364879Y-123914938D01*
X174364879Y-123914938D02*
X174412498Y-123962557D01*
X174412498Y-123962557D02*
X174460117Y-124057795D01*
X174460117Y-124057795D02*
X174460117Y-124153033D01*
X174460117Y-124153033D02*
X174412498Y-124248271D01*
X174412498Y-124248271D02*
X174364879Y-124295890D01*
X174364879Y-124295890D02*
X174269641Y-124343509D01*
X174269641Y-124343509D02*
X173936308Y-124343509D01*
X175364879Y-124867319D02*
X175364879Y-124343509D01*
X175364879Y-124343509D02*
X175317260Y-124248271D01*
X175317260Y-124248271D02*
X175222022Y-124200652D01*
X175222022Y-124200652D02*
X175031546Y-124200652D01*
X175031546Y-124200652D02*
X174936308Y-124248271D01*
X175364879Y-124819700D02*
X175269641Y-124867319D01*
X175269641Y-124867319D02*
X175031546Y-124867319D01*
X175031546Y-124867319D02*
X174936308Y-124819700D01*
X174936308Y-124819700D02*
X174888689Y-124724461D01*
X174888689Y-124724461D02*
X174888689Y-124629223D01*
X174888689Y-124629223D02*
X174936308Y-124533985D01*
X174936308Y-124533985D02*
X175031546Y-124486366D01*
X175031546Y-124486366D02*
X175269641Y-124486366D01*
X175269641Y-124486366D02*
X175364879Y-124438747D01*
X175698213Y-124200652D02*
X176079165Y-124200652D01*
X175841070Y-123867319D02*
X175841070Y-124724461D01*
X175841070Y-124724461D02*
X175888689Y-124819700D01*
X175888689Y-124819700D02*
X175983927Y-124867319D01*
X175983927Y-124867319D02*
X176079165Y-124867319D01*
X176269642Y-124200652D02*
X176650594Y-124200652D01*
X176412499Y-123867319D02*
X176412499Y-124724461D01*
X176412499Y-124724461D02*
X176460118Y-124819700D01*
X176460118Y-124819700D02*
X176555356Y-124867319D01*
X176555356Y-124867319D02*
X176650594Y-124867319D01*
X177364880Y-124819700D02*
X177269642Y-124867319D01*
X177269642Y-124867319D02*
X177079166Y-124867319D01*
X177079166Y-124867319D02*
X176983928Y-124819700D01*
X176983928Y-124819700D02*
X176936309Y-124724461D01*
X176936309Y-124724461D02*
X176936309Y-124343509D01*
X176936309Y-124343509D02*
X176983928Y-124248271D01*
X176983928Y-124248271D02*
X177079166Y-124200652D01*
X177079166Y-124200652D02*
X177269642Y-124200652D01*
X177269642Y-124200652D02*
X177364880Y-124248271D01*
X177364880Y-124248271D02*
X177412499Y-124343509D01*
X177412499Y-124343509D02*
X177412499Y-124438747D01*
X177412499Y-124438747D02*
X176936309Y-124533985D01*
X177841071Y-124867319D02*
X177841071Y-124200652D01*
X177841071Y-124391128D02*
X177888690Y-124295890D01*
X177888690Y-124295890D02*
X177936309Y-124248271D01*
X177936309Y-124248271D02*
X178031547Y-124200652D01*
X178031547Y-124200652D02*
X178126785Y-124200652D01*
X178364881Y-124200652D02*
X178602976Y-124867319D01*
X178841071Y-124200652D02*
X178602976Y-124867319D01*
X178602976Y-124867319D02*
X178507738Y-125105414D01*
X178507738Y-125105414D02*
X178460119Y-125153033D01*
X178460119Y-125153033D02*
X178364881Y-125200652D01*
X180555357Y-124772080D02*
X180507738Y-124819700D01*
X180507738Y-124819700D02*
X180364881Y-124867319D01*
X180364881Y-124867319D02*
X180269643Y-124867319D01*
X180269643Y-124867319D02*
X180126786Y-124819700D01*
X180126786Y-124819700D02*
X180031548Y-124724461D01*
X180031548Y-124724461D02*
X179983929Y-124629223D01*
X179983929Y-124629223D02*
X179936310Y-124438747D01*
X179936310Y-124438747D02*
X179936310Y-124295890D01*
X179936310Y-124295890D02*
X179983929Y-124105414D01*
X179983929Y-124105414D02*
X180031548Y-124010176D01*
X180031548Y-124010176D02*
X180126786Y-123914938D01*
X180126786Y-123914938D02*
X180269643Y-123867319D01*
X180269643Y-123867319D02*
X180364881Y-123867319D01*
X180364881Y-123867319D02*
X180507738Y-123914938D01*
X180507738Y-123914938D02*
X180555357Y-123962557D01*
X180983929Y-124867319D02*
X180983929Y-123867319D01*
X181412500Y-124867319D02*
X181412500Y-124343509D01*
X181412500Y-124343509D02*
X181364881Y-124248271D01*
X181364881Y-124248271D02*
X181269643Y-124200652D01*
X181269643Y-124200652D02*
X181126786Y-124200652D01*
X181126786Y-124200652D02*
X181031548Y-124248271D01*
X181031548Y-124248271D02*
X180983929Y-124295890D01*
X182317262Y-124867319D02*
X182317262Y-124343509D01*
X182317262Y-124343509D02*
X182269643Y-124248271D01*
X182269643Y-124248271D02*
X182174405Y-124200652D01*
X182174405Y-124200652D02*
X181983929Y-124200652D01*
X181983929Y-124200652D02*
X181888691Y-124248271D01*
X182317262Y-124819700D02*
X182222024Y-124867319D01*
X182222024Y-124867319D02*
X181983929Y-124867319D01*
X181983929Y-124867319D02*
X181888691Y-124819700D01*
X181888691Y-124819700D02*
X181841072Y-124724461D01*
X181841072Y-124724461D02*
X181841072Y-124629223D01*
X181841072Y-124629223D02*
X181888691Y-124533985D01*
X181888691Y-124533985D02*
X181983929Y-124486366D01*
X181983929Y-124486366D02*
X182222024Y-124486366D01*
X182222024Y-124486366D02*
X182317262Y-124438747D01*
X182793453Y-124867319D02*
X182793453Y-124200652D01*
X182793453Y-124391128D02*
X182841072Y-124295890D01*
X182841072Y-124295890D02*
X182888691Y-124248271D01*
X182888691Y-124248271D02*
X182983929Y-124200652D01*
X182983929Y-124200652D02*
X183079167Y-124200652D01*
X183841072Y-124200652D02*
X183841072Y-125010176D01*
X183841072Y-125010176D02*
X183793453Y-125105414D01*
X183793453Y-125105414D02*
X183745834Y-125153033D01*
X183745834Y-125153033D02*
X183650596Y-125200652D01*
X183650596Y-125200652D02*
X183507739Y-125200652D01*
X183507739Y-125200652D02*
X183412501Y-125153033D01*
X183841072Y-124819700D02*
X183745834Y-124867319D01*
X183745834Y-124867319D02*
X183555358Y-124867319D01*
X183555358Y-124867319D02*
X183460120Y-124819700D01*
X183460120Y-124819700D02*
X183412501Y-124772080D01*
X183412501Y-124772080D02*
X183364882Y-124676842D01*
X183364882Y-124676842D02*
X183364882Y-124391128D01*
X183364882Y-124391128D02*
X183412501Y-124295890D01*
X183412501Y-124295890D02*
X183460120Y-124248271D01*
X183460120Y-124248271D02*
X183555358Y-124200652D01*
X183555358Y-124200652D02*
X183745834Y-124200652D01*
X183745834Y-124200652D02*
X183841072Y-124248271D01*
X184698215Y-124819700D02*
X184602977Y-124867319D01*
X184602977Y-124867319D02*
X184412501Y-124867319D01*
X184412501Y-124867319D02*
X184317263Y-124819700D01*
X184317263Y-124819700D02*
X184269644Y-124724461D01*
X184269644Y-124724461D02*
X184269644Y-124343509D01*
X184269644Y-124343509D02*
X184317263Y-124248271D01*
X184317263Y-124248271D02*
X184412501Y-124200652D01*
X184412501Y-124200652D02*
X184602977Y-124200652D01*
X184602977Y-124200652D02*
X184698215Y-124248271D01*
X184698215Y-124248271D02*
X184745834Y-124343509D01*
X184745834Y-124343509D02*
X184745834Y-124438747D01*
X184745834Y-124438747D02*
X184269644Y-124533985D01*
X185174406Y-124867319D02*
X185174406Y-124200652D01*
X185174406Y-124391128D02*
X185222025Y-124295890D01*
X185222025Y-124295890D02*
X185269644Y-124248271D01*
X185269644Y-124248271D02*
X185364882Y-124200652D01*
X185364882Y-124200652D02*
X185460120Y-124200652D01*
X187079168Y-124867319D02*
X186507740Y-124867319D01*
X186793454Y-124867319D02*
X186793454Y-123867319D01*
X186793454Y-123867319D02*
X186698216Y-124010176D01*
X186698216Y-124010176D02*
X186602978Y-124105414D01*
X186602978Y-124105414D02*
X186507740Y-124153033D01*
X187460121Y-124581604D02*
X187936311Y-124581604D01*
X187364883Y-124867319D02*
X187698216Y-123867319D01*
X187698216Y-123867319D02*
X188031549Y-124867319D01*
X171260119Y-131167319D02*
X171450595Y-131167319D01*
X171450595Y-131167319D02*
X171545833Y-131214938D01*
X171545833Y-131214938D02*
X171641071Y-131310176D01*
X171641071Y-131310176D02*
X171688690Y-131500652D01*
X171688690Y-131500652D02*
X171688690Y-131833985D01*
X171688690Y-131833985D02*
X171641071Y-132024461D01*
X171641071Y-132024461D02*
X171545833Y-132119700D01*
X171545833Y-132119700D02*
X171450595Y-132167319D01*
X171450595Y-132167319D02*
X171260119Y-132167319D01*
X171260119Y-132167319D02*
X171164881Y-132119700D01*
X171164881Y-132119700D02*
X171069643Y-132024461D01*
X171069643Y-132024461D02*
X171022024Y-131833985D01*
X171022024Y-131833985D02*
X171022024Y-131500652D01*
X171022024Y-131500652D02*
X171069643Y-131310176D01*
X171069643Y-131310176D02*
X171164881Y-131214938D01*
X171164881Y-131214938D02*
X171260119Y-131167319D01*
X172545833Y-131500652D02*
X172545833Y-132167319D01*
X172117262Y-131500652D02*
X172117262Y-132024461D01*
X172117262Y-132024461D02*
X172164881Y-132119700D01*
X172164881Y-132119700D02*
X172260119Y-132167319D01*
X172260119Y-132167319D02*
X172402976Y-132167319D01*
X172402976Y-132167319D02*
X172498214Y-132119700D01*
X172498214Y-132119700D02*
X172545833Y-132072080D01*
X172879167Y-131500652D02*
X173260119Y-131500652D01*
X173022024Y-131167319D02*
X173022024Y-132024461D01*
X173022024Y-132024461D02*
X173069643Y-132119700D01*
X173069643Y-132119700D02*
X173164881Y-132167319D01*
X173164881Y-132167319D02*
X173260119Y-132167319D01*
X173593453Y-131786366D02*
X174355358Y-131786366D01*
X173974405Y-132167319D02*
X173974405Y-131405414D01*
X171364881Y-128143509D02*
X171507738Y-128191128D01*
X171507738Y-128191128D02*
X171555357Y-128238747D01*
X171555357Y-128238747D02*
X171602976Y-128333985D01*
X171602976Y-128333985D02*
X171602976Y-128476842D01*
X171602976Y-128476842D02*
X171555357Y-128572080D01*
X171555357Y-128572080D02*
X171507738Y-128619700D01*
X171507738Y-128619700D02*
X171412500Y-128667319D01*
X171412500Y-128667319D02*
X171031548Y-128667319D01*
X171031548Y-128667319D02*
X171031548Y-127667319D01*
X171031548Y-127667319D02*
X171364881Y-127667319D01*
X171364881Y-127667319D02*
X171460119Y-127714938D01*
X171460119Y-127714938D02*
X171507738Y-127762557D01*
X171507738Y-127762557D02*
X171555357Y-127857795D01*
X171555357Y-127857795D02*
X171555357Y-127953033D01*
X171555357Y-127953033D02*
X171507738Y-128048271D01*
X171507738Y-128048271D02*
X171460119Y-128095890D01*
X171460119Y-128095890D02*
X171364881Y-128143509D01*
X171364881Y-128143509D02*
X171031548Y-128143509D01*
X172031548Y-128286366D02*
X172793453Y-128286366D01*
X172412500Y-128667319D02*
X172412500Y-127905414D01*
X189231548Y-116586366D02*
X189993453Y-116586366D01*
X189331548Y-131786366D02*
X190093453Y-131786366D01*
X189712500Y-132167319D02*
X189712500Y-131405414D01*
X171260119Y-116567319D02*
X171450595Y-116567319D01*
X171450595Y-116567319D02*
X171545833Y-116614938D01*
X171545833Y-116614938D02*
X171641071Y-116710176D01*
X171641071Y-116710176D02*
X171688690Y-116900652D01*
X171688690Y-116900652D02*
X171688690Y-117233985D01*
X171688690Y-117233985D02*
X171641071Y-117424461D01*
X171641071Y-117424461D02*
X171545833Y-117519700D01*
X171545833Y-117519700D02*
X171450595Y-117567319D01*
X171450595Y-117567319D02*
X171260119Y-117567319D01*
X171260119Y-117567319D02*
X171164881Y-117519700D01*
X171164881Y-117519700D02*
X171069643Y-117424461D01*
X171069643Y-117424461D02*
X171022024Y-117233985D01*
X171022024Y-117233985D02*
X171022024Y-116900652D01*
X171022024Y-116900652D02*
X171069643Y-116710176D01*
X171069643Y-116710176D02*
X171164881Y-116614938D01*
X171164881Y-116614938D02*
X171260119Y-116567319D01*
X172545833Y-116900652D02*
X172545833Y-117567319D01*
X172117262Y-116900652D02*
X172117262Y-117424461D01*
X172117262Y-117424461D02*
X172164881Y-117519700D01*
X172164881Y-117519700D02*
X172260119Y-117567319D01*
X172260119Y-117567319D02*
X172402976Y-117567319D01*
X172402976Y-117567319D02*
X172498214Y-117519700D01*
X172498214Y-117519700D02*
X172545833Y-117472080D01*
X172879167Y-116900652D02*
X173260119Y-116900652D01*
X173022024Y-116567319D02*
X173022024Y-117424461D01*
X173022024Y-117424461D02*
X173069643Y-117519700D01*
X173069643Y-117519700D02*
X173164881Y-117567319D01*
X173164881Y-117567319D02*
X173260119Y-117567319D01*
X173593453Y-117186366D02*
X174355358Y-117186366D01*
X166022819Y-113791904D02*
X166832342Y-113791904D01*
X166832342Y-113791904D02*
X166927580Y-113744285D01*
X166927580Y-113744285D02*
X166975200Y-113696666D01*
X166975200Y-113696666D02*
X167022819Y-113601428D01*
X167022819Y-113601428D02*
X167022819Y-113410952D01*
X167022819Y-113410952D02*
X166975200Y-113315714D01*
X166975200Y-113315714D02*
X166927580Y-113268095D01*
X166927580Y-113268095D02*
X166832342Y-113220476D01*
X166832342Y-113220476D02*
X166022819Y-113220476D01*
X166022819Y-112315714D02*
X166022819Y-112506190D01*
X166022819Y-112506190D02*
X166070438Y-112601428D01*
X166070438Y-112601428D02*
X166118057Y-112649047D01*
X166118057Y-112649047D02*
X166260914Y-112744285D01*
X166260914Y-112744285D02*
X166451390Y-112791904D01*
X166451390Y-112791904D02*
X166832342Y-112791904D01*
X166832342Y-112791904D02*
X166927580Y-112744285D01*
X166927580Y-112744285D02*
X166975200Y-112696666D01*
X166975200Y-112696666D02*
X167022819Y-112601428D01*
X167022819Y-112601428D02*
X167022819Y-112410952D01*
X167022819Y-112410952D02*
X166975200Y-112315714D01*
X166975200Y-112315714D02*
X166927580Y-112268095D01*
X166927580Y-112268095D02*
X166832342Y-112220476D01*
X166832342Y-112220476D02*
X166594247Y-112220476D01*
X166594247Y-112220476D02*
X166499009Y-112268095D01*
X166499009Y-112268095D02*
X166451390Y-112315714D01*
X166451390Y-112315714D02*
X166403771Y-112410952D01*
X166403771Y-112410952D02*
X166403771Y-112601428D01*
X166403771Y-112601428D02*
X166451390Y-112696666D01*
X166451390Y-112696666D02*
X166499009Y-112744285D01*
X166499009Y-112744285D02*
X166594247Y-112791904D01*
X164802819Y-53399333D02*
X165517104Y-53399333D01*
X165517104Y-53399333D02*
X165659961Y-53446952D01*
X165659961Y-53446952D02*
X165755200Y-53542190D01*
X165755200Y-53542190D02*
X165802819Y-53685047D01*
X165802819Y-53685047D02*
X165802819Y-53780285D01*
X164802819Y-52446952D02*
X164802819Y-52923142D01*
X164802819Y-52923142D02*
X165279009Y-52970761D01*
X165279009Y-52970761D02*
X165231390Y-52923142D01*
X165231390Y-52923142D02*
X165183771Y-52827904D01*
X165183771Y-52827904D02*
X165183771Y-52589809D01*
X165183771Y-52589809D02*
X165231390Y-52494571D01*
X165231390Y-52494571D02*
X165279009Y-52446952D01*
X165279009Y-52446952D02*
X165374247Y-52399333D01*
X165374247Y-52399333D02*
X165612342Y-52399333D01*
X165612342Y-52399333D02*
X165707580Y-52446952D01*
X165707580Y-52446952D02*
X165755200Y-52494571D01*
X165755200Y-52494571D02*
X165802819Y-52589809D01*
X165802819Y-52589809D02*
X165802819Y-52827904D01*
X165802819Y-52827904D02*
X165755200Y-52923142D01*
X165755200Y-52923142D02*
X165707580Y-52970761D01*
X130643333Y-120599580D02*
X130595714Y-120647200D01*
X130595714Y-120647200D02*
X130452857Y-120694819D01*
X130452857Y-120694819D02*
X130357619Y-120694819D01*
X130357619Y-120694819D02*
X130214762Y-120647200D01*
X130214762Y-120647200D02*
X130119524Y-120551961D01*
X130119524Y-120551961D02*
X130071905Y-120456723D01*
X130071905Y-120456723D02*
X130024286Y-120266247D01*
X130024286Y-120266247D02*
X130024286Y-120123390D01*
X130024286Y-120123390D02*
X130071905Y-119932914D01*
X130071905Y-119932914D02*
X130119524Y-119837676D01*
X130119524Y-119837676D02*
X130214762Y-119742438D01*
X130214762Y-119742438D02*
X130357619Y-119694819D01*
X130357619Y-119694819D02*
X130452857Y-119694819D01*
X130452857Y-119694819D02*
X130595714Y-119742438D01*
X130595714Y-119742438D02*
X130643333Y-119790057D01*
X131548095Y-119694819D02*
X131071905Y-119694819D01*
X131071905Y-119694819D02*
X131024286Y-120171009D01*
X131024286Y-120171009D02*
X131071905Y-120123390D01*
X131071905Y-120123390D02*
X131167143Y-120075771D01*
X131167143Y-120075771D02*
X131405238Y-120075771D01*
X131405238Y-120075771D02*
X131500476Y-120123390D01*
X131500476Y-120123390D02*
X131548095Y-120171009D01*
X131548095Y-120171009D02*
X131595714Y-120266247D01*
X131595714Y-120266247D02*
X131595714Y-120504342D01*
X131595714Y-120504342D02*
X131548095Y-120599580D01*
X131548095Y-120599580D02*
X131500476Y-120647200D01*
X131500476Y-120647200D02*
X131405238Y-120694819D01*
X131405238Y-120694819D02*
X131167143Y-120694819D01*
X131167143Y-120694819D02*
X131071905Y-120647200D01*
X131071905Y-120647200D02*
X131024286Y-120599580D01*
X133356819Y-74421904D02*
X134166342Y-74421904D01*
X134166342Y-74421904D02*
X134261580Y-74374285D01*
X134261580Y-74374285D02*
X134309200Y-74326666D01*
X134309200Y-74326666D02*
X134356819Y-74231428D01*
X134356819Y-74231428D02*
X134356819Y-74040952D01*
X134356819Y-74040952D02*
X134309200Y-73945714D01*
X134309200Y-73945714D02*
X134261580Y-73898095D01*
X134261580Y-73898095D02*
X134166342Y-73850476D01*
X134166342Y-73850476D02*
X133356819Y-73850476D01*
X133452057Y-73421904D02*
X133404438Y-73374285D01*
X133404438Y-73374285D02*
X133356819Y-73279047D01*
X133356819Y-73279047D02*
X133356819Y-73040952D01*
X133356819Y-73040952D02*
X133404438Y-72945714D01*
X133404438Y-72945714D02*
X133452057Y-72898095D01*
X133452057Y-72898095D02*
X133547295Y-72850476D01*
X133547295Y-72850476D02*
X133642533Y-72850476D01*
X133642533Y-72850476D02*
X133785390Y-72898095D01*
X133785390Y-72898095D02*
X134356819Y-73469523D01*
X134356819Y-73469523D02*
X134356819Y-72850476D01*
X128242819Y-116721904D02*
X129052342Y-116721904D01*
X129052342Y-116721904D02*
X129147580Y-116674285D01*
X129147580Y-116674285D02*
X129195200Y-116626666D01*
X129195200Y-116626666D02*
X129242819Y-116531428D01*
X129242819Y-116531428D02*
X129242819Y-116340952D01*
X129242819Y-116340952D02*
X129195200Y-116245714D01*
X129195200Y-116245714D02*
X129147580Y-116198095D01*
X129147580Y-116198095D02*
X129052342Y-116150476D01*
X129052342Y-116150476D02*
X128242819Y-116150476D01*
X128242819Y-115769523D02*
X128242819Y-115150476D01*
X128242819Y-115150476D02*
X128623771Y-115483809D01*
X128623771Y-115483809D02*
X128623771Y-115340952D01*
X128623771Y-115340952D02*
X128671390Y-115245714D01*
X128671390Y-115245714D02*
X128719009Y-115198095D01*
X128719009Y-115198095D02*
X128814247Y-115150476D01*
X128814247Y-115150476D02*
X129052342Y-115150476D01*
X129052342Y-115150476D02*
X129147580Y-115198095D01*
X129147580Y-115198095D02*
X129195200Y-115245714D01*
X129195200Y-115245714D02*
X129242819Y-115340952D01*
X129242819Y-115340952D02*
X129242819Y-115626666D01*
X129242819Y-115626666D02*
X129195200Y-115721904D01*
X129195200Y-115721904D02*
X129147580Y-115769523D01*
X174109142Y-104552819D02*
X173775809Y-104076628D01*
X173537714Y-104552819D02*
X173537714Y-103552819D01*
X173537714Y-103552819D02*
X173918666Y-103552819D01*
X173918666Y-103552819D02*
X174013904Y-103600438D01*
X174013904Y-103600438D02*
X174061523Y-103648057D01*
X174061523Y-103648057D02*
X174109142Y-103743295D01*
X174109142Y-103743295D02*
X174109142Y-103886152D01*
X174109142Y-103886152D02*
X174061523Y-103981390D01*
X174061523Y-103981390D02*
X174013904Y-104029009D01*
X174013904Y-104029009D02*
X173918666Y-104076628D01*
X173918666Y-104076628D02*
X173537714Y-104076628D01*
X175061523Y-104552819D02*
X174490095Y-104552819D01*
X174775809Y-104552819D02*
X174775809Y-103552819D01*
X174775809Y-103552819D02*
X174680571Y-103695676D01*
X174680571Y-103695676D02*
X174585333Y-103790914D01*
X174585333Y-103790914D02*
X174490095Y-103838533D01*
X175918666Y-103886152D02*
X175918666Y-104552819D01*
X175680571Y-103505200D02*
X175442476Y-104219485D01*
X175442476Y-104219485D02*
X176061523Y-104219485D01*
X131984819Y-112750166D02*
X131508628Y-113083499D01*
X131984819Y-113321594D02*
X130984819Y-113321594D01*
X130984819Y-113321594D02*
X130984819Y-112940642D01*
X130984819Y-112940642D02*
X131032438Y-112845404D01*
X131032438Y-112845404D02*
X131080057Y-112797785D01*
X131080057Y-112797785D02*
X131175295Y-112750166D01*
X131175295Y-112750166D02*
X131318152Y-112750166D01*
X131318152Y-112750166D02*
X131413390Y-112797785D01*
X131413390Y-112797785D02*
X131461009Y-112845404D01*
X131461009Y-112845404D02*
X131508628Y-112940642D01*
X131508628Y-112940642D02*
X131508628Y-113321594D01*
X130984819Y-111893023D02*
X130984819Y-112083499D01*
X130984819Y-112083499D02*
X131032438Y-112178737D01*
X131032438Y-112178737D02*
X131080057Y-112226356D01*
X131080057Y-112226356D02*
X131222914Y-112321594D01*
X131222914Y-112321594D02*
X131413390Y-112369213D01*
X131413390Y-112369213D02*
X131794342Y-112369213D01*
X131794342Y-112369213D02*
X131889580Y-112321594D01*
X131889580Y-112321594D02*
X131937200Y-112273975D01*
X131937200Y-112273975D02*
X131984819Y-112178737D01*
X131984819Y-112178737D02*
X131984819Y-111988261D01*
X131984819Y-111988261D02*
X131937200Y-111893023D01*
X131937200Y-111893023D02*
X131889580Y-111845404D01*
X131889580Y-111845404D02*
X131794342Y-111797785D01*
X131794342Y-111797785D02*
X131556247Y-111797785D01*
X131556247Y-111797785D02*
X131461009Y-111845404D01*
X131461009Y-111845404D02*
X131413390Y-111893023D01*
X131413390Y-111893023D02*
X131365771Y-111988261D01*
X131365771Y-111988261D02*
X131365771Y-112178737D01*
X131365771Y-112178737D02*
X131413390Y-112273975D01*
X131413390Y-112273975D02*
X131461009Y-112321594D01*
X131461009Y-112321594D02*
X131556247Y-112369213D01*
X140611266Y-122721019D02*
X140611266Y-123435304D01*
X140611266Y-123435304D02*
X140563647Y-123578161D01*
X140563647Y-123578161D02*
X140468409Y-123673400D01*
X140468409Y-123673400D02*
X140325552Y-123721019D01*
X140325552Y-123721019D02*
X140230314Y-123721019D01*
X141516028Y-122721019D02*
X141325552Y-122721019D01*
X141325552Y-122721019D02*
X141230314Y-122768638D01*
X141230314Y-122768638D02*
X141182695Y-122816257D01*
X141182695Y-122816257D02*
X141087457Y-122959114D01*
X141087457Y-122959114D02*
X141039838Y-123149590D01*
X141039838Y-123149590D02*
X141039838Y-123530542D01*
X141039838Y-123530542D02*
X141087457Y-123625780D01*
X141087457Y-123625780D02*
X141135076Y-123673400D01*
X141135076Y-123673400D02*
X141230314Y-123721019D01*
X141230314Y-123721019D02*
X141420790Y-123721019D01*
X141420790Y-123721019D02*
X141516028Y-123673400D01*
X141516028Y-123673400D02*
X141563647Y-123625780D01*
X141563647Y-123625780D02*
X141611266Y-123530542D01*
X141611266Y-123530542D02*
X141611266Y-123292447D01*
X141611266Y-123292447D02*
X141563647Y-123197209D01*
X141563647Y-123197209D02*
X141516028Y-123149590D01*
X141516028Y-123149590D02*
X141420790Y-123101971D01*
X141420790Y-123101971D02*
X141230314Y-123101971D01*
X141230314Y-123101971D02*
X141135076Y-123149590D01*
X141135076Y-123149590D02*
X141087457Y-123197209D01*
X141087457Y-123197209D02*
X141039838Y-123292447D01*
X174771009Y-96648952D02*
X174818628Y-96506095D01*
X174818628Y-96506095D02*
X174866247Y-96458476D01*
X174866247Y-96458476D02*
X174961485Y-96410857D01*
X174961485Y-96410857D02*
X175104342Y-96410857D01*
X175104342Y-96410857D02*
X175199580Y-96458476D01*
X175199580Y-96458476D02*
X175247200Y-96506095D01*
X175247200Y-96506095D02*
X175294819Y-96601333D01*
X175294819Y-96601333D02*
X175294819Y-96982285D01*
X175294819Y-96982285D02*
X174294819Y-96982285D01*
X174294819Y-96982285D02*
X174294819Y-96648952D01*
X174294819Y-96648952D02*
X174342438Y-96553714D01*
X174342438Y-96553714D02*
X174390057Y-96506095D01*
X174390057Y-96506095D02*
X174485295Y-96458476D01*
X174485295Y-96458476D02*
X174580533Y-96458476D01*
X174580533Y-96458476D02*
X174675771Y-96506095D01*
X174675771Y-96506095D02*
X174723390Y-96553714D01*
X174723390Y-96553714D02*
X174771009Y-96648952D01*
X174771009Y-96648952D02*
X174771009Y-96982285D01*
X174294819Y-96077523D02*
X174294819Y-95410857D01*
X174294819Y-95410857D02*
X175294819Y-96077523D01*
X175294819Y-96077523D02*
X175294819Y-95410857D01*
X175294819Y-94506095D02*
X175294819Y-95077523D01*
X175294819Y-94791809D02*
X174294819Y-94791809D01*
X174294819Y-94791809D02*
X174437676Y-94887047D01*
X174437676Y-94887047D02*
X174532914Y-94982285D01*
X174532914Y-94982285D02*
X174580533Y-95077523D01*
X170253866Y-92338951D02*
X170253866Y-91577047D01*
X170634819Y-91957999D02*
X169872914Y-91957999D01*
X180505267Y-61443400D02*
X180648124Y-61491019D01*
X180648124Y-61491019D02*
X180886219Y-61491019D01*
X180886219Y-61491019D02*
X180981457Y-61443400D01*
X180981457Y-61443400D02*
X181029076Y-61395780D01*
X181029076Y-61395780D02*
X181076695Y-61300542D01*
X181076695Y-61300542D02*
X181076695Y-61205304D01*
X181076695Y-61205304D02*
X181029076Y-61110066D01*
X181029076Y-61110066D02*
X180981457Y-61062447D01*
X180981457Y-61062447D02*
X180886219Y-61014828D01*
X180886219Y-61014828D02*
X180695743Y-60967209D01*
X180695743Y-60967209D02*
X180600505Y-60919590D01*
X180600505Y-60919590D02*
X180552886Y-60871971D01*
X180552886Y-60871971D02*
X180505267Y-60776733D01*
X180505267Y-60776733D02*
X180505267Y-60681495D01*
X180505267Y-60681495D02*
X180552886Y-60586257D01*
X180552886Y-60586257D02*
X180600505Y-60538638D01*
X180600505Y-60538638D02*
X180695743Y-60491019D01*
X180695743Y-60491019D02*
X180933838Y-60491019D01*
X180933838Y-60491019D02*
X181076695Y-60538638D01*
X181410029Y-60491019D02*
X181648124Y-61491019D01*
X181648124Y-61491019D02*
X181838600Y-60776733D01*
X181838600Y-60776733D02*
X182029076Y-61491019D01*
X182029076Y-61491019D02*
X182267172Y-60491019D01*
X183171933Y-61491019D02*
X182600505Y-61491019D01*
X182886219Y-61491019D02*
X182886219Y-60491019D01*
X182886219Y-60491019D02*
X182790981Y-60633876D01*
X182790981Y-60633876D02*
X182695743Y-60729114D01*
X182695743Y-60729114D02*
X182600505Y-60776733D01*
X158585067Y-131064800D02*
X158727924Y-131112419D01*
X158727924Y-131112419D02*
X158966019Y-131112419D01*
X158966019Y-131112419D02*
X159061257Y-131064800D01*
X159061257Y-131064800D02*
X159108876Y-131017180D01*
X159108876Y-131017180D02*
X159156495Y-130921942D01*
X159156495Y-130921942D02*
X159156495Y-130826704D01*
X159156495Y-130826704D02*
X159108876Y-130731466D01*
X159108876Y-130731466D02*
X159061257Y-130683847D01*
X159061257Y-130683847D02*
X158966019Y-130636228D01*
X158966019Y-130636228D02*
X158775543Y-130588609D01*
X158775543Y-130588609D02*
X158680305Y-130540990D01*
X158680305Y-130540990D02*
X158632686Y-130493371D01*
X158632686Y-130493371D02*
X158585067Y-130398133D01*
X158585067Y-130398133D02*
X158585067Y-130302895D01*
X158585067Y-130302895D02*
X158632686Y-130207657D01*
X158632686Y-130207657D02*
X158680305Y-130160038D01*
X158680305Y-130160038D02*
X158775543Y-130112419D01*
X158775543Y-130112419D02*
X159013638Y-130112419D01*
X159013638Y-130112419D02*
X159156495Y-130160038D01*
X159489829Y-130112419D02*
X159727924Y-131112419D01*
X159727924Y-131112419D02*
X159918400Y-130398133D01*
X159918400Y-130398133D02*
X160108876Y-131112419D01*
X160108876Y-131112419D02*
X160346972Y-130112419D01*
X161156495Y-130445752D02*
X161156495Y-131112419D01*
X160918400Y-130064800D02*
X160680305Y-130779085D01*
X160680305Y-130779085D02*
X161299352Y-130779085D01*
X186070267Y-94999876D02*
X186070267Y-95457019D01*
X186070267Y-95457019D02*
X186039790Y-95548447D01*
X186039790Y-95548447D02*
X185978838Y-95609400D01*
X185978838Y-95609400D02*
X185887409Y-95639876D01*
X185887409Y-95639876D02*
X185826457Y-95639876D01*
X186314076Y-94999876D02*
X186710267Y-94999876D01*
X186710267Y-94999876D02*
X186496933Y-95243685D01*
X186496933Y-95243685D02*
X186588362Y-95243685D01*
X186588362Y-95243685D02*
X186649314Y-95274161D01*
X186649314Y-95274161D02*
X186679790Y-95304638D01*
X186679790Y-95304638D02*
X186710267Y-95365590D01*
X186710267Y-95365590D02*
X186710267Y-95517971D01*
X186710267Y-95517971D02*
X186679790Y-95578923D01*
X186679790Y-95578923D02*
X186649314Y-95609400D01*
X186649314Y-95609400D02*
X186588362Y-95639876D01*
X186588362Y-95639876D02*
X186405505Y-95639876D01*
X186405505Y-95639876D02*
X186344552Y-95609400D01*
X186344552Y-95609400D02*
X186314076Y-95578923D01*
X185829333Y-115039580D02*
X185781714Y-115087200D01*
X185781714Y-115087200D02*
X185638857Y-115134819D01*
X185638857Y-115134819D02*
X185543619Y-115134819D01*
X185543619Y-115134819D02*
X185400762Y-115087200D01*
X185400762Y-115087200D02*
X185305524Y-114991961D01*
X185305524Y-114991961D02*
X185257905Y-114896723D01*
X185257905Y-114896723D02*
X185210286Y-114706247D01*
X185210286Y-114706247D02*
X185210286Y-114563390D01*
X185210286Y-114563390D02*
X185257905Y-114372914D01*
X185257905Y-114372914D02*
X185305524Y-114277676D01*
X185305524Y-114277676D02*
X185400762Y-114182438D01*
X185400762Y-114182438D02*
X185543619Y-114134819D01*
X185543619Y-114134819D02*
X185638857Y-114134819D01*
X185638857Y-114134819D02*
X185781714Y-114182438D01*
X185781714Y-114182438D02*
X185829333Y-114230057D01*
X186781714Y-115134819D02*
X186210286Y-115134819D01*
X186496000Y-115134819D02*
X186496000Y-114134819D01*
X186496000Y-114134819D02*
X186400762Y-114277676D01*
X186400762Y-114277676D02*
X186305524Y-114372914D01*
X186305524Y-114372914D02*
X186210286Y-114420533D01*
X190658819Y-53506666D02*
X190182628Y-53839999D01*
X190658819Y-54078094D02*
X189658819Y-54078094D01*
X189658819Y-54078094D02*
X189658819Y-53697142D01*
X189658819Y-53697142D02*
X189706438Y-53601904D01*
X189706438Y-53601904D02*
X189754057Y-53554285D01*
X189754057Y-53554285D02*
X189849295Y-53506666D01*
X189849295Y-53506666D02*
X189992152Y-53506666D01*
X189992152Y-53506666D02*
X190087390Y-53554285D01*
X190087390Y-53554285D02*
X190135009Y-53601904D01*
X190135009Y-53601904D02*
X190182628Y-53697142D01*
X190182628Y-53697142D02*
X190182628Y-54078094D01*
X189658819Y-53173332D02*
X189658819Y-52554285D01*
X189658819Y-52554285D02*
X190039771Y-52887618D01*
X190039771Y-52887618D02*
X190039771Y-52744761D01*
X190039771Y-52744761D02*
X190087390Y-52649523D01*
X190087390Y-52649523D02*
X190135009Y-52601904D01*
X190135009Y-52601904D02*
X190230247Y-52554285D01*
X190230247Y-52554285D02*
X190468342Y-52554285D01*
X190468342Y-52554285D02*
X190563580Y-52601904D01*
X190563580Y-52601904D02*
X190611200Y-52649523D01*
X190611200Y-52649523D02*
X190658819Y-52744761D01*
X190658819Y-52744761D02*
X190658819Y-53030475D01*
X190658819Y-53030475D02*
X190611200Y-53125713D01*
X190611200Y-53125713D02*
X190563580Y-53173332D01*
X180505267Y-77801000D02*
X180648124Y-77848619D01*
X180648124Y-77848619D02*
X180886219Y-77848619D01*
X180886219Y-77848619D02*
X180981457Y-77801000D01*
X180981457Y-77801000D02*
X181029076Y-77753380D01*
X181029076Y-77753380D02*
X181076695Y-77658142D01*
X181076695Y-77658142D02*
X181076695Y-77562904D01*
X181076695Y-77562904D02*
X181029076Y-77467666D01*
X181029076Y-77467666D02*
X180981457Y-77420047D01*
X180981457Y-77420047D02*
X180886219Y-77372428D01*
X180886219Y-77372428D02*
X180695743Y-77324809D01*
X180695743Y-77324809D02*
X180600505Y-77277190D01*
X180600505Y-77277190D02*
X180552886Y-77229571D01*
X180552886Y-77229571D02*
X180505267Y-77134333D01*
X180505267Y-77134333D02*
X180505267Y-77039095D01*
X180505267Y-77039095D02*
X180552886Y-76943857D01*
X180552886Y-76943857D02*
X180600505Y-76896238D01*
X180600505Y-76896238D02*
X180695743Y-76848619D01*
X180695743Y-76848619D02*
X180933838Y-76848619D01*
X180933838Y-76848619D02*
X181076695Y-76896238D01*
X181410029Y-76848619D02*
X181648124Y-77848619D01*
X181648124Y-77848619D02*
X181838600Y-77134333D01*
X181838600Y-77134333D02*
X182029076Y-77848619D01*
X182029076Y-77848619D02*
X182267172Y-76848619D01*
X182600505Y-76943857D02*
X182648124Y-76896238D01*
X182648124Y-76896238D02*
X182743362Y-76848619D01*
X182743362Y-76848619D02*
X182981457Y-76848619D01*
X182981457Y-76848619D02*
X183076695Y-76896238D01*
X183076695Y-76896238D02*
X183124314Y-76943857D01*
X183124314Y-76943857D02*
X183171933Y-77039095D01*
X183171933Y-77039095D02*
X183171933Y-77134333D01*
X183171933Y-77134333D02*
X183124314Y-77277190D01*
X183124314Y-77277190D02*
X182552886Y-77848619D01*
X182552886Y-77848619D02*
X183171933Y-77848619D01*
X114079905Y-74038619D02*
X114079905Y-73038619D01*
X114079905Y-73038619D02*
X114318000Y-73038619D01*
X114318000Y-73038619D02*
X114460857Y-73086238D01*
X114460857Y-73086238D02*
X114556095Y-73181476D01*
X114556095Y-73181476D02*
X114603714Y-73276714D01*
X114603714Y-73276714D02*
X114651333Y-73467190D01*
X114651333Y-73467190D02*
X114651333Y-73610047D01*
X114651333Y-73610047D02*
X114603714Y-73800523D01*
X114603714Y-73800523D02*
X114556095Y-73895761D01*
X114556095Y-73895761D02*
X114460857Y-73991000D01*
X114460857Y-73991000D02*
X114318000Y-74038619D01*
X114318000Y-74038619D02*
X114079905Y-74038619D01*
X114984667Y-73038619D02*
X115603714Y-73038619D01*
X115603714Y-73038619D02*
X115270381Y-73419571D01*
X115270381Y-73419571D02*
X115413238Y-73419571D01*
X115413238Y-73419571D02*
X115508476Y-73467190D01*
X115508476Y-73467190D02*
X115556095Y-73514809D01*
X115556095Y-73514809D02*
X115603714Y-73610047D01*
X115603714Y-73610047D02*
X115603714Y-73848142D01*
X115603714Y-73848142D02*
X115556095Y-73943380D01*
X115556095Y-73943380D02*
X115508476Y-73991000D01*
X115508476Y-73991000D02*
X115413238Y-74038619D01*
X115413238Y-74038619D02*
X115127524Y-74038619D01*
X115127524Y-74038619D02*
X115032286Y-73991000D01*
X115032286Y-73991000D02*
X114984667Y-73943380D01*
X113523733Y-112926019D02*
X113190400Y-112449828D01*
X112952305Y-112926019D02*
X112952305Y-111926019D01*
X112952305Y-111926019D02*
X113333257Y-111926019D01*
X113333257Y-111926019D02*
X113428495Y-111973638D01*
X113428495Y-111973638D02*
X113476114Y-112021257D01*
X113476114Y-112021257D02*
X113523733Y-112116495D01*
X113523733Y-112116495D02*
X113523733Y-112259352D01*
X113523733Y-112259352D02*
X113476114Y-112354590D01*
X113476114Y-112354590D02*
X113428495Y-112402209D01*
X113428495Y-112402209D02*
X113333257Y-112449828D01*
X113333257Y-112449828D02*
X112952305Y-112449828D01*
X114428495Y-111926019D02*
X113952305Y-111926019D01*
X113952305Y-111926019D02*
X113904686Y-112402209D01*
X113904686Y-112402209D02*
X113952305Y-112354590D01*
X113952305Y-112354590D02*
X114047543Y-112306971D01*
X114047543Y-112306971D02*
X114285638Y-112306971D01*
X114285638Y-112306971D02*
X114380876Y-112354590D01*
X114380876Y-112354590D02*
X114428495Y-112402209D01*
X114428495Y-112402209D02*
X114476114Y-112497447D01*
X114476114Y-112497447D02*
X114476114Y-112735542D01*
X114476114Y-112735542D02*
X114428495Y-112830780D01*
X114428495Y-112830780D02*
X114380876Y-112878400D01*
X114380876Y-112878400D02*
X114285638Y-112926019D01*
X114285638Y-112926019D02*
X114047543Y-112926019D01*
X114047543Y-112926019D02*
X113952305Y-112878400D01*
X113952305Y-112878400D02*
X113904686Y-112830780D01*
X140662066Y-120308019D02*
X140662066Y-121022304D01*
X140662066Y-121022304D02*
X140614447Y-121165161D01*
X140614447Y-121165161D02*
X140519209Y-121260400D01*
X140519209Y-121260400D02*
X140376352Y-121308019D01*
X140376352Y-121308019D02*
X140281114Y-121308019D01*
X141043019Y-120308019D02*
X141709685Y-120308019D01*
X141709685Y-120308019D02*
X141281114Y-121308019D01*
X159918495Y-87694419D02*
X159918495Y-88503942D01*
X159918495Y-88503942D02*
X159966114Y-88599180D01*
X159966114Y-88599180D02*
X160013733Y-88646800D01*
X160013733Y-88646800D02*
X160108971Y-88694419D01*
X160108971Y-88694419D02*
X160299447Y-88694419D01*
X160299447Y-88694419D02*
X160394685Y-88646800D01*
X160394685Y-88646800D02*
X160442304Y-88599180D01*
X160442304Y-88599180D02*
X160489923Y-88503942D01*
X160489923Y-88503942D02*
X160489923Y-87694419D01*
X161489923Y-88694419D02*
X160918495Y-88694419D01*
X161204209Y-88694419D02*
X161204209Y-87694419D01*
X161204209Y-87694419D02*
X161108971Y-87837276D01*
X161108971Y-87837276D02*
X161013733Y-87932514D01*
X161013733Y-87932514D02*
X160918495Y-87980133D01*
X159377142Y-119750819D02*
X159043809Y-119274628D01*
X158805714Y-119750819D02*
X158805714Y-118750819D01*
X158805714Y-118750819D02*
X159186666Y-118750819D01*
X159186666Y-118750819D02*
X159281904Y-118798438D01*
X159281904Y-118798438D02*
X159329523Y-118846057D01*
X159329523Y-118846057D02*
X159377142Y-118941295D01*
X159377142Y-118941295D02*
X159377142Y-119084152D01*
X159377142Y-119084152D02*
X159329523Y-119179390D01*
X159329523Y-119179390D02*
X159281904Y-119227009D01*
X159281904Y-119227009D02*
X159186666Y-119274628D01*
X159186666Y-119274628D02*
X158805714Y-119274628D01*
X160329523Y-119750819D02*
X159758095Y-119750819D01*
X160043809Y-119750819D02*
X160043809Y-118750819D01*
X160043809Y-118750819D02*
X159948571Y-118893676D01*
X159948571Y-118893676D02*
X159853333Y-118988914D01*
X159853333Y-118988914D02*
X159758095Y-119036533D01*
X161281904Y-119750819D02*
X160710476Y-119750819D01*
X160996190Y-119750819D02*
X160996190Y-118750819D01*
X160996190Y-118750819D02*
X160900952Y-118893676D01*
X160900952Y-118893676D02*
X160805714Y-118988914D01*
X160805714Y-118988914D02*
X160710476Y-119036533D01*
X163917333Y-105867580D02*
X163869714Y-105915200D01*
X163869714Y-105915200D02*
X163726857Y-105962819D01*
X163726857Y-105962819D02*
X163631619Y-105962819D01*
X163631619Y-105962819D02*
X163488762Y-105915200D01*
X163488762Y-105915200D02*
X163393524Y-105819961D01*
X163393524Y-105819961D02*
X163345905Y-105724723D01*
X163345905Y-105724723D02*
X163298286Y-105534247D01*
X163298286Y-105534247D02*
X163298286Y-105391390D01*
X163298286Y-105391390D02*
X163345905Y-105200914D01*
X163345905Y-105200914D02*
X163393524Y-105105676D01*
X163393524Y-105105676D02*
X163488762Y-105010438D01*
X163488762Y-105010438D02*
X163631619Y-104962819D01*
X163631619Y-104962819D02*
X163726857Y-104962819D01*
X163726857Y-104962819D02*
X163869714Y-105010438D01*
X163869714Y-105010438D02*
X163917333Y-105058057D01*
X164250667Y-104962819D02*
X164869714Y-104962819D01*
X164869714Y-104962819D02*
X164536381Y-105343771D01*
X164536381Y-105343771D02*
X164679238Y-105343771D01*
X164679238Y-105343771D02*
X164774476Y-105391390D01*
X164774476Y-105391390D02*
X164822095Y-105439009D01*
X164822095Y-105439009D02*
X164869714Y-105534247D01*
X164869714Y-105534247D02*
X164869714Y-105772342D01*
X164869714Y-105772342D02*
X164822095Y-105867580D01*
X164822095Y-105867580D02*
X164774476Y-105915200D01*
X164774476Y-105915200D02*
X164679238Y-105962819D01*
X164679238Y-105962819D02*
X164393524Y-105962819D01*
X164393524Y-105962819D02*
X164298286Y-105915200D01*
X164298286Y-105915200D02*
X164250667Y-105867580D01*
X133996628Y-64012190D02*
X134472819Y-64012190D01*
X133472819Y-64345523D02*
X133996628Y-64012190D01*
X133996628Y-64012190D02*
X133472819Y-63678857D01*
X134472819Y-62821714D02*
X134472819Y-63393142D01*
X134472819Y-63107428D02*
X133472819Y-63107428D01*
X133472819Y-63107428D02*
X133615676Y-63202666D01*
X133615676Y-63202666D02*
X133710914Y-63297904D01*
X133710914Y-63297904D02*
X133758533Y-63393142D01*
X174109142Y-108108819D02*
X173775809Y-107632628D01*
X173537714Y-108108819D02*
X173537714Y-107108819D01*
X173537714Y-107108819D02*
X173918666Y-107108819D01*
X173918666Y-107108819D02*
X174013904Y-107156438D01*
X174013904Y-107156438D02*
X174061523Y-107204057D01*
X174061523Y-107204057D02*
X174109142Y-107299295D01*
X174109142Y-107299295D02*
X174109142Y-107442152D01*
X174109142Y-107442152D02*
X174061523Y-107537390D01*
X174061523Y-107537390D02*
X174013904Y-107585009D01*
X174013904Y-107585009D02*
X173918666Y-107632628D01*
X173918666Y-107632628D02*
X173537714Y-107632628D01*
X175061523Y-108108819D02*
X174490095Y-108108819D01*
X174775809Y-108108819D02*
X174775809Y-107108819D01*
X174775809Y-107108819D02*
X174680571Y-107251676D01*
X174680571Y-107251676D02*
X174585333Y-107346914D01*
X174585333Y-107346914D02*
X174490095Y-107394533D01*
X175966285Y-107108819D02*
X175490095Y-107108819D01*
X175490095Y-107108819D02*
X175442476Y-107585009D01*
X175442476Y-107585009D02*
X175490095Y-107537390D01*
X175490095Y-107537390D02*
X175585333Y-107489771D01*
X175585333Y-107489771D02*
X175823428Y-107489771D01*
X175823428Y-107489771D02*
X175918666Y-107537390D01*
X175918666Y-107537390D02*
X175966285Y-107585009D01*
X175966285Y-107585009D02*
X176013904Y-107680247D01*
X176013904Y-107680247D02*
X176013904Y-107918342D01*
X176013904Y-107918342D02*
X175966285Y-108013580D01*
X175966285Y-108013580D02*
X175918666Y-108061200D01*
X175918666Y-108061200D02*
X175823428Y-108108819D01*
X175823428Y-108108819D02*
X175585333Y-108108819D01*
X175585333Y-108108819D02*
X175490095Y-108061200D01*
X175490095Y-108061200D02*
X175442476Y-108013580D01*
X113625333Y-117269419D02*
X113292000Y-116793228D01*
X113053905Y-117269419D02*
X113053905Y-116269419D01*
X113053905Y-116269419D02*
X113434857Y-116269419D01*
X113434857Y-116269419D02*
X113530095Y-116317038D01*
X113530095Y-116317038D02*
X113577714Y-116364657D01*
X113577714Y-116364657D02*
X113625333Y-116459895D01*
X113625333Y-116459895D02*
X113625333Y-116602752D01*
X113625333Y-116602752D02*
X113577714Y-116697990D01*
X113577714Y-116697990D02*
X113530095Y-116745609D01*
X113530095Y-116745609D02*
X113434857Y-116793228D01*
X113434857Y-116793228D02*
X113053905Y-116793228D01*
X114482476Y-116602752D02*
X114482476Y-117269419D01*
X114244381Y-116221800D02*
X114006286Y-116936085D01*
X114006286Y-116936085D02*
X114625333Y-116936085D01*
X159402542Y-125753019D02*
X159069209Y-125276828D01*
X158831114Y-125753019D02*
X158831114Y-124753019D01*
X158831114Y-124753019D02*
X159212066Y-124753019D01*
X159212066Y-124753019D02*
X159307304Y-124800638D01*
X159307304Y-124800638D02*
X159354923Y-124848257D01*
X159354923Y-124848257D02*
X159402542Y-124943495D01*
X159402542Y-124943495D02*
X159402542Y-125086352D01*
X159402542Y-125086352D02*
X159354923Y-125181590D01*
X159354923Y-125181590D02*
X159307304Y-125229209D01*
X159307304Y-125229209D02*
X159212066Y-125276828D01*
X159212066Y-125276828D02*
X158831114Y-125276828D01*
X160354923Y-125753019D02*
X159783495Y-125753019D01*
X160069209Y-125753019D02*
X160069209Y-124753019D01*
X160069209Y-124753019D02*
X159973971Y-124895876D01*
X159973971Y-124895876D02*
X159878733Y-124991114D01*
X159878733Y-124991114D02*
X159783495Y-125038733D01*
X160973971Y-124753019D02*
X161069209Y-124753019D01*
X161069209Y-124753019D02*
X161164447Y-124800638D01*
X161164447Y-124800638D02*
X161212066Y-124848257D01*
X161212066Y-124848257D02*
X161259685Y-124943495D01*
X161259685Y-124943495D02*
X161307304Y-125133971D01*
X161307304Y-125133971D02*
X161307304Y-125372066D01*
X161307304Y-125372066D02*
X161259685Y-125562542D01*
X161259685Y-125562542D02*
X161212066Y-125657780D01*
X161212066Y-125657780D02*
X161164447Y-125705400D01*
X161164447Y-125705400D02*
X161069209Y-125753019D01*
X161069209Y-125753019D02*
X160973971Y-125753019D01*
X160973971Y-125753019D02*
X160878733Y-125705400D01*
X160878733Y-125705400D02*
X160831114Y-125657780D01*
X160831114Y-125657780D02*
X160783495Y-125562542D01*
X160783495Y-125562542D02*
X160735876Y-125372066D01*
X160735876Y-125372066D02*
X160735876Y-125133971D01*
X160735876Y-125133971D02*
X160783495Y-124943495D01*
X160783495Y-124943495D02*
X160831114Y-124848257D01*
X160831114Y-124848257D02*
X160878733Y-124800638D01*
X160878733Y-124800638D02*
X160973971Y-124753019D01*
D12*
%TO.C,J4*%
X124850000Y-124300000D02*
X136850000Y-124300000D01*
X124850000Y-135300000D02*
X124850000Y-124300000D01*
X126350000Y-135300000D02*
X124850000Y-135300000D01*
X126350000Y-136500000D02*
X126350000Y-135300000D01*
X127850000Y-136500000D02*
X126350000Y-136500000D01*
X127850000Y-138300000D02*
X127850000Y-136500000D01*
X128850000Y-135300000D02*
X128850000Y-138300000D01*
X132850000Y-135300000D02*
X128850000Y-135300000D01*
X132850000Y-138300000D02*
X132850000Y-135300000D01*
X133850000Y-136500000D02*
X133850000Y-138300000D01*
X133850000Y-138300000D02*
X127850000Y-138300000D01*
X135350000Y-135300000D02*
X135350000Y-136500000D01*
X135350000Y-136500000D02*
X133850000Y-136500000D01*
X136850000Y-124300000D02*
X136850000Y-135300000D01*
X136850000Y-135300000D02*
X135350000Y-135300000D01*
%TO.C,R13*%
X174024936Y-101452000D02*
X175479064Y-101452000D01*
X174024936Y-103272000D02*
X175479064Y-103272000D01*
%TO.C,R1*%
X191114000Y-86833064D02*
X191114000Y-85378936D01*
X192934000Y-86833064D02*
X192934000Y-85378936D01*
%TO.C,R7*%
X138282000Y-113310564D02*
X138282000Y-111856436D01*
X140102000Y-113310564D02*
X140102000Y-111856436D01*
%TO.C,J2*%
X136016000Y-47830000D02*
X163416000Y-47830000D01*
X136016000Y-75130000D02*
X136016000Y-47830000D01*
X136438000Y-51125000D02*
X159538000Y-51125000D01*
X136438000Y-67725000D02*
X136438000Y-51125000D01*
X144717000Y-48319000D02*
X144717000Y-50732000D01*
X144717000Y-48319000D02*
X154496000Y-48319000D01*
X154496000Y-48319000D02*
X154496000Y-50732000D01*
X154496000Y-50732000D02*
X144717000Y-50732000D01*
X159538000Y-51125000D02*
X162624000Y-51125000D01*
X159538000Y-67725000D02*
X136438000Y-67725000D01*
X159538000Y-67725000D02*
X162878000Y-67750000D01*
X162878000Y-51113000D02*
X162624000Y-51125000D01*
X162878000Y-67750000D02*
X162878000Y-51113000D01*
X163416000Y-47830000D02*
X163416000Y-75130000D01*
X163416000Y-75130000D02*
X136016000Y-75130000D01*
%TO.C,R2*%
X191114000Y-70323064D02*
X191114000Y-68868936D01*
X192934000Y-70323064D02*
X192934000Y-68868936D01*
%TO.C,SW3*%
X175814000Y-80096000D02*
X188114000Y-80096000D01*
X175814000Y-82816000D02*
X175814000Y-80096000D01*
X175814000Y-87816000D02*
X175814000Y-84676000D01*
X175814000Y-92396000D02*
X175814000Y-89676000D01*
X188114000Y-80096000D02*
X188114000Y-82816000D01*
X188114000Y-84676000D02*
X188114000Y-87816000D01*
X188114000Y-89676000D02*
X188114000Y-92396000D01*
X188114000Y-92396000D02*
X175814000Y-92396000D01*
X186643050Y-86286000D02*
G75*
G03*
X186643050Y-86286000I-4579050J0D01*
G01*
%TO.C,C4*%
X162298748Y-102897000D02*
X162821252Y-102897000D01*
X162298748Y-104367000D02*
X162821252Y-104367000D01*
D11*
%TO.C,BT1*%
X119888000Y-72136000D02*
X112014000Y-72136000D01*
X112014000Y-72136000D02*
X112014000Y-69088000D01*
X112014000Y-69088000D02*
X119888000Y-69088000D01*
X119888000Y-69088000D02*
X119888000Y-72136000D01*
X127219310Y-58674000D02*
G75*
G03*
X127219310Y-58674000I-11141310J0D01*
G01*
D12*
%TO.C,R8*%
X143870000Y-113310564D02*
X143870000Y-111856436D01*
X145690000Y-113310564D02*
X145690000Y-111856436D01*
%TO.C,C2*%
X135643252Y-118845000D02*
X135120748Y-118845000D01*
X135643252Y-117375000D02*
X135120748Y-117375000D01*
%TO.C,J1*%
X119323000Y-132056000D02*
X119323000Y-126406000D01*
X116418000Y-123501000D02*
X110768000Y-123501000D01*
X113593000Y-134531000D02*
X114093000Y-133831000D01*
X113593000Y-134531000D02*
X113093000Y-133831000D01*
X110768000Y-134731000D02*
X116418000Y-134731000D01*
X107863000Y-126406000D02*
X107863000Y-132056000D01*
%TO.C,R12*%
X145312000Y-117602000D02*
X146082000Y-117602000D01*
X146082000Y-116232000D02*
X146082000Y-118972000D01*
X146082000Y-118972000D02*
X152622000Y-118972000D01*
X152622000Y-116232000D02*
X146082000Y-116232000D01*
X152622000Y-118972000D02*
X152622000Y-116232000D01*
X153392000Y-117602000D02*
X152622000Y-117602000D01*
D10*
%TO.C,U4*%
X193612500Y-133312500D02*
X167312500Y-133312500D01*
X193612500Y-115512500D02*
X193612500Y-133312500D01*
X193212500Y-126112500D02*
X190712500Y-126112500D01*
X193212500Y-122312500D02*
X193212500Y-126012500D01*
X190712500Y-126112500D02*
X190712500Y-122312500D01*
X190712500Y-122312500D02*
X193212500Y-122312500D01*
X167512500Y-130812500D02*
X167512500Y-117912500D01*
X167512500Y-117912500D02*
X167212500Y-117912500D01*
X167312500Y-133312500D02*
X165212500Y-133312500D01*
X167312500Y-117912500D02*
X165212500Y-117912500D01*
X165212500Y-133312500D02*
X165212500Y-130812500D01*
X165212500Y-130812500D02*
X167512500Y-130812500D01*
X165212500Y-117912500D02*
X165212500Y-117612500D01*
X165212500Y-117612500D02*
X165212500Y-115512500D01*
X165212500Y-115512500D02*
X193612500Y-115512500D01*
D12*
%TO.C,U6*%
X165198000Y-110530000D02*
X165198000Y-111670000D01*
X165428000Y-111670000D02*
X165198000Y-111670000D01*
X165428000Y-111670000D02*
X165428000Y-114390000D01*
X160708000Y-111670000D02*
X160938000Y-111670000D01*
X165428000Y-114390000D02*
X164118000Y-114390000D01*
X162018000Y-114390000D02*
X160708000Y-114390000D01*
X160708000Y-114390000D02*
X160708000Y-111670000D01*
%TO.C,J5*%
X168258000Y-57226000D02*
X170758000Y-57226000D01*
X170758000Y-57226000D02*
X170758000Y-54726000D01*
X166438000Y-56926000D02*
X170458000Y-56926000D01*
X168148000Y-56926000D02*
X168148000Y-56426000D01*
X168958000Y-56926000D02*
X168958000Y-55926000D01*
X170458000Y-56926000D02*
X170458000Y-49206000D01*
X166938000Y-56426000D02*
X166938000Y-49706000D01*
X168148000Y-56426000D02*
X166938000Y-56426000D01*
X168958000Y-55926000D02*
X170458000Y-55926000D01*
X168958000Y-50206000D02*
X170458000Y-50206000D01*
X166938000Y-49706000D02*
X168148000Y-49706000D01*
X168148000Y-49706000D02*
X168148000Y-49206000D01*
X166438000Y-49206000D02*
X166438000Y-56926000D01*
X168958000Y-49206000D02*
X168958000Y-50206000D01*
X170458000Y-49206000D02*
X166438000Y-49206000D01*
%TO.C,C5*%
X130548748Y-121185000D02*
X131071252Y-121185000D01*
X130548748Y-122655000D02*
X131071252Y-122655000D01*
%TO.C,U2*%
X132902000Y-71010000D02*
X122622000Y-71010000D01*
X122622000Y-71010000D02*
X122622000Y-76310000D01*
X132902000Y-72660000D02*
X132902000Y-71010000D01*
X132902000Y-76310000D02*
X132902000Y-74660000D01*
X122622000Y-76310000D02*
X132902000Y-76310000D01*
X132902000Y-72660000D02*
G75*
G03*
X132902000Y-74660000I0J-1000000D01*
G01*
D10*
%TO.C,U3*%
X127863000Y-114335000D02*
X127688000Y-114335000D01*
X127863000Y-114335000D02*
X127863000Y-117585000D01*
X127688000Y-114335000D02*
X127688000Y-113260000D01*
X124613000Y-114335000D02*
X124888000Y-114335000D01*
X124613000Y-114335000D02*
X124613000Y-117585000D01*
X127863000Y-117585000D02*
X127588000Y-117585000D01*
X124613000Y-117585000D02*
X124888000Y-117585000D01*
D12*
%TO.C,R14*%
X174024936Y-105008000D02*
X175479064Y-105008000D01*
X174024936Y-106828000D02*
X175479064Y-106828000D01*
%TO.C,R6*%
X132440000Y-113310564D02*
X132440000Y-111856436D01*
X134260000Y-113310564D02*
X134260000Y-111856436D01*
%TO.C,J6*%
X140150000Y-124300000D02*
X140150000Y-136900000D01*
X140150000Y-136900000D02*
X150500000Y-136900000D01*
X150500000Y-129100000D02*
X151000000Y-129400000D01*
X150500000Y-134500000D02*
X150500000Y-129100000D01*
X150500000Y-135950000D02*
X151000000Y-136200000D01*
X150500000Y-136900000D02*
X150500000Y-135950000D01*
X151000000Y-124300000D02*
X140150000Y-124300000D01*
X151000000Y-129400000D02*
X151000000Y-124300000D01*
X151000000Y-134250000D02*
X150500000Y-134500000D01*
X151000000Y-134300000D02*
X151000000Y-134250000D01*
X151000000Y-136200000D02*
X151000000Y-134300000D01*
%TO.C,BZ1*%
X173740000Y-95768000D02*
G75*
G03*
X173740000Y-95768000I-6100000J0D01*
G01*
%TO.C,SW1*%
X175814000Y-47230000D02*
X188114000Y-47230000D01*
X175814000Y-49950000D02*
X175814000Y-47230000D01*
X175814000Y-54950000D02*
X175814000Y-51810000D01*
X175814000Y-59530000D02*
X175814000Y-56810000D01*
X188114000Y-47230000D02*
X188114000Y-49950000D01*
X188114000Y-51810000D02*
X188114000Y-54950000D01*
X188114000Y-56810000D02*
X188114000Y-59530000D01*
X188114000Y-59530000D02*
X175814000Y-59530000D01*
X186643050Y-53420000D02*
G75*
G03*
X186643050Y-53420000I-4579050J0D01*
G01*
%TO.C,SW4*%
X154866000Y-131584000D02*
X154866000Y-132784000D01*
X155166000Y-131884000D02*
X155166000Y-136084000D01*
X155166000Y-136084000D02*
X156366000Y-136084000D01*
X156066000Y-131584000D02*
X154866000Y-131584000D01*
X156366000Y-131884000D02*
X155166000Y-131884000D01*
X163166000Y-131884000D02*
X164366000Y-131884000D01*
X164366000Y-131884000D02*
X164366000Y-136084000D01*
X164366000Y-136084000D02*
X163166000Y-136084000D01*
D10*
%TO.C,J3*%
X194314600Y-96288232D02*
X191814600Y-96288232D01*
X191814600Y-96288232D02*
X191336455Y-96288232D01*
X188586455Y-96288232D02*
X181336455Y-96288232D01*
X191814600Y-97688232D02*
X191814600Y-96288232D01*
X179836455Y-97788232D02*
X179836455Y-100538232D01*
X194314600Y-99088232D02*
X194314600Y-96288232D01*
X194314600Y-104523200D02*
X194314600Y-99023200D01*
X193114600Y-104523200D02*
X194314600Y-104523200D01*
X191814600Y-109773200D02*
X191814600Y-111038232D01*
X194314600Y-110023200D02*
X194314600Y-104523200D01*
X194314600Y-111038232D02*
X194314600Y-110023200D01*
X194314600Y-111038232D02*
X191814600Y-111038232D01*
X191825528Y-111038232D02*
X191347383Y-111038232D01*
X188586455Y-111038232D02*
X181336455Y-111038232D01*
D12*
%TO.C,C1*%
X186189252Y-113735000D02*
X185666748Y-113735000D01*
X186189252Y-112265000D02*
X185666748Y-112265000D01*
%TO.C,R3*%
X191114000Y-54067064D02*
X191114000Y-52612936D01*
X192934000Y-54067064D02*
X192934000Y-52612936D01*
%TO.C,SW2*%
X175814000Y-63666000D02*
X188114000Y-63666000D01*
X175814000Y-66386000D02*
X175814000Y-63666000D01*
X175814000Y-71386000D02*
X175814000Y-68246000D01*
X175814000Y-75966000D02*
X175814000Y-73246000D01*
X188114000Y-63666000D02*
X188114000Y-66386000D01*
X188114000Y-68246000D02*
X188114000Y-71386000D01*
X188114000Y-73246000D02*
X188114000Y-75966000D01*
X188114000Y-75966000D02*
X175814000Y-75966000D01*
X186643050Y-69856000D02*
G75*
G03*
X186643050Y-69856000I-4579050J0D01*
G01*
%TO.C,D3*%
X116378000Y-77944000D02*
X116378000Y-77788000D01*
X116378000Y-75628000D02*
X116378000Y-75472000D01*
X113145666Y-77786608D02*
G75*
G03*
X116377999Y-77943515I1672334J1078608D01*
G01*
X113776871Y-77787836D02*
G75*
G03*
X115858960Y-77787999I1041129J1079836D01*
G01*
X115858960Y-75628001D02*
G75*
G03*
X113776871Y-75628164I-1040960J-1079999D01*
G01*
X116377999Y-75472485D02*
G75*
G03*
X113145666Y-75629392I-1559999J-1235515D01*
G01*
%TO.C,R5*%
X109752000Y-114554000D02*
X110522000Y-114554000D01*
X110522000Y-113184000D02*
X110522000Y-115924000D01*
X110522000Y-115924000D02*
X117062000Y-115924000D01*
X117062000Y-113184000D02*
X110522000Y-113184000D01*
X117062000Y-115924000D02*
X117062000Y-113184000D01*
X117832000Y-114554000D02*
X117062000Y-114554000D01*
%TO.C,J7*%
X142937000Y-123250000D02*
X142937000Y-121920000D01*
X144267000Y-123250000D02*
X142937000Y-123250000D01*
X145537000Y-123250000D02*
X148137000Y-123250000D01*
X145537000Y-123250000D02*
X145537000Y-120590000D01*
X148137000Y-123250000D02*
X148137000Y-120590000D01*
X145537000Y-120590000D02*
X148137000Y-120590000D01*
D13*
%TO.C,U1*%
X152888000Y-80030000D02*
X104688000Y-80030000D01*
X104688000Y-80030000D02*
X104688000Y-89910000D01*
X159088000Y-84980000D02*
X159088000Y-102980000D01*
X152888000Y-84980000D02*
X152888000Y-80030000D01*
X152888000Y-84980000D02*
X159088000Y-84980000D01*
X104688000Y-89910000D02*
X103788000Y-89910000D01*
X103788000Y-89910000D02*
X103788000Y-98040000D01*
X104688000Y-98040000D02*
X104688000Y-107930000D01*
X103788000Y-98040000D02*
X104688000Y-98040000D01*
X159088000Y-102980000D02*
X152888000Y-102980000D01*
X152888000Y-107930000D02*
X152888000Y-102980000D01*
X104688000Y-107930000D02*
X152888000Y-107930000D01*
D14*
X151858000Y-79410000D02*
G75*
G03*
X151858000Y-79410000I-100000J0D01*
G01*
D12*
%TO.C,R11*%
X155980000Y-121666000D02*
X156750000Y-121666000D01*
X156750000Y-120296000D02*
X156750000Y-123036000D01*
X156750000Y-123036000D02*
X163290000Y-123036000D01*
X163290000Y-120296000D02*
X156750000Y-120296000D01*
X163290000Y-123036000D02*
X163290000Y-120296000D01*
X164060000Y-121666000D02*
X163290000Y-121666000D01*
%TO.C,C3*%
X163822748Y-106453000D02*
X164345252Y-106453000D01*
X163822748Y-107923000D02*
X164345252Y-107923000D01*
%TO.C,Y1*%
X132698000Y-63486000D02*
X132698000Y-55086000D01*
X132698000Y-55086000D02*
X129298000Y-55086000D01*
X131948000Y-64636000D02*
X131948000Y-65086000D01*
X131543000Y-63486000D02*
X131948000Y-64636000D01*
X130453000Y-63486000D02*
X130048000Y-64636000D01*
X130048000Y-64636000D02*
X130048000Y-65086000D01*
X129298000Y-63486000D02*
X132698000Y-63486000D01*
X129298000Y-55086000D02*
X129298000Y-63486000D01*
%TO.C,R15*%
X174024936Y-108564000D02*
X175479064Y-108564000D01*
X174024936Y-110384000D02*
X175479064Y-110384000D01*
%TO.C,R4*%
X109752000Y-118872000D02*
X110522000Y-118872000D01*
X110522000Y-117502000D02*
X110522000Y-120242000D01*
X110522000Y-120242000D02*
X117062000Y-120242000D01*
X117062000Y-117502000D02*
X110522000Y-117502000D01*
X117062000Y-120242000D02*
X117062000Y-117502000D01*
X117832000Y-118872000D02*
X117062000Y-118872000D01*
%TO.C,R10*%
X164060000Y-127762000D02*
X163290000Y-127762000D01*
X163290000Y-129132000D02*
X163290000Y-126392000D01*
X163290000Y-126392000D02*
X156750000Y-126392000D01*
X156750000Y-129132000D02*
X163290000Y-129132000D01*
X156750000Y-126392000D02*
X156750000Y-129132000D01*
X155980000Y-127762000D02*
X156750000Y-127762000D01*
%TD*%
M02*
