%TF.GenerationSoftware,KiCad,Pcbnew,7.0.9*%
%TF.CreationDate,2024-02-28T20:27:22+01:00*%
%TF.ProjectId,logger_pcb_kicad,6c6f6767-6572-45f7-9063-625f6b696361,rev?*%
%TF.SameCoordinates,Original*%
%TF.FileFunction,AssemblyDrawing,Top*%
%FSLAX46Y46*%
G04 Gerber Fmt 4.6, Leading zero omitted, Abs format (unit mm)*
G04 Created by KiCad (PCBNEW 7.0.9) date 2024-02-28 20:27:22*
%MOMM*%
%LPD*%
G01*
G04 APERTURE LIST*
%ADD10C,0.150000*%
%ADD11C,0.120000*%
%ADD12C,0.080000*%
%ADD13C,0.100000*%
%ADD14C,0.105000*%
%ADD15C,0.127000*%
%ADD16C,0.200000*%
G04 APERTURE END LIST*
D10*
X126873809Y-122169104D02*
X127349999Y-122169104D01*
X126778571Y-122454819D02*
X127111904Y-121454819D01*
X127111904Y-121454819D02*
X127445237Y-122454819D01*
X128207142Y-121788152D02*
X128207142Y-122454819D01*
X127778571Y-121788152D02*
X127778571Y-122311961D01*
X127778571Y-122311961D02*
X127826190Y-122407200D01*
X127826190Y-122407200D02*
X127921428Y-122454819D01*
X127921428Y-122454819D02*
X128064285Y-122454819D01*
X128064285Y-122454819D02*
X128159523Y-122407200D01*
X128159523Y-122407200D02*
X128207142Y-122359580D01*
X129111904Y-122454819D02*
X129111904Y-121454819D01*
X129111904Y-122407200D02*
X129016666Y-122454819D01*
X129016666Y-122454819D02*
X128826190Y-122454819D01*
X128826190Y-122454819D02*
X128730952Y-122407200D01*
X128730952Y-122407200D02*
X128683333Y-122359580D01*
X128683333Y-122359580D02*
X128635714Y-122264342D01*
X128635714Y-122264342D02*
X128635714Y-121978628D01*
X128635714Y-121978628D02*
X128683333Y-121883390D01*
X128683333Y-121883390D02*
X128730952Y-121835771D01*
X128730952Y-121835771D02*
X128826190Y-121788152D01*
X128826190Y-121788152D02*
X129016666Y-121788152D01*
X129016666Y-121788152D02*
X129111904Y-121835771D01*
X129588095Y-122454819D02*
X129588095Y-121788152D01*
X129588095Y-121454819D02*
X129540476Y-121502438D01*
X129540476Y-121502438D02*
X129588095Y-121550057D01*
X129588095Y-121550057D02*
X129635714Y-121502438D01*
X129635714Y-121502438D02*
X129588095Y-121454819D01*
X129588095Y-121454819D02*
X129588095Y-121550057D01*
X130207142Y-122454819D02*
X130111904Y-122407200D01*
X130111904Y-122407200D02*
X130064285Y-122359580D01*
X130064285Y-122359580D02*
X130016666Y-122264342D01*
X130016666Y-122264342D02*
X130016666Y-121978628D01*
X130016666Y-121978628D02*
X130064285Y-121883390D01*
X130064285Y-121883390D02*
X130111904Y-121835771D01*
X130111904Y-121835771D02*
X130207142Y-121788152D01*
X130207142Y-121788152D02*
X130349999Y-121788152D01*
X130349999Y-121788152D02*
X130445237Y-121835771D01*
X130445237Y-121835771D02*
X130492856Y-121883390D01*
X130492856Y-121883390D02*
X130540475Y-121978628D01*
X130540475Y-121978628D02*
X130540475Y-122264342D01*
X130540475Y-122264342D02*
X130492856Y-122359580D01*
X130492856Y-122359580D02*
X130445237Y-122407200D01*
X130445237Y-122407200D02*
X130349999Y-122454819D01*
X130349999Y-122454819D02*
X130207142Y-122454819D01*
X131254761Y-121454819D02*
X131254761Y-122169104D01*
X131254761Y-122169104D02*
X131207142Y-122311961D01*
X131207142Y-122311961D02*
X131111904Y-122407200D01*
X131111904Y-122407200D02*
X130969047Y-122454819D01*
X130969047Y-122454819D02*
X130873809Y-122454819D01*
X132159523Y-122454819D02*
X132159523Y-121931009D01*
X132159523Y-121931009D02*
X132111904Y-121835771D01*
X132111904Y-121835771D02*
X132016666Y-121788152D01*
X132016666Y-121788152D02*
X131826190Y-121788152D01*
X131826190Y-121788152D02*
X131730952Y-121835771D01*
X132159523Y-122407200D02*
X132064285Y-122454819D01*
X132064285Y-122454819D02*
X131826190Y-122454819D01*
X131826190Y-122454819D02*
X131730952Y-122407200D01*
X131730952Y-122407200D02*
X131683333Y-122311961D01*
X131683333Y-122311961D02*
X131683333Y-122216723D01*
X131683333Y-122216723D02*
X131730952Y-122121485D01*
X131730952Y-122121485D02*
X131826190Y-122073866D01*
X131826190Y-122073866D02*
X132064285Y-122073866D01*
X132064285Y-122073866D02*
X132159523Y-122026247D01*
X133064285Y-122407200D02*
X132969047Y-122454819D01*
X132969047Y-122454819D02*
X132778571Y-122454819D01*
X132778571Y-122454819D02*
X132683333Y-122407200D01*
X132683333Y-122407200D02*
X132635714Y-122359580D01*
X132635714Y-122359580D02*
X132588095Y-122264342D01*
X132588095Y-122264342D02*
X132588095Y-121978628D01*
X132588095Y-121978628D02*
X132635714Y-121883390D01*
X132635714Y-121883390D02*
X132683333Y-121835771D01*
X132683333Y-121835771D02*
X132778571Y-121788152D01*
X132778571Y-121788152D02*
X132969047Y-121788152D01*
X132969047Y-121788152D02*
X133064285Y-121835771D01*
X133492857Y-122454819D02*
X133492857Y-121454819D01*
X133588095Y-122073866D02*
X133873809Y-122454819D01*
X133873809Y-121788152D02*
X133492857Y-122169104D01*
X134207143Y-121454819D02*
X134826190Y-121454819D01*
X134826190Y-121454819D02*
X134492857Y-121835771D01*
X134492857Y-121835771D02*
X134635714Y-121835771D01*
X134635714Y-121835771D02*
X134730952Y-121883390D01*
X134730952Y-121883390D02*
X134778571Y-121931009D01*
X134778571Y-121931009D02*
X134826190Y-122026247D01*
X134826190Y-122026247D02*
X134826190Y-122264342D01*
X134826190Y-122264342D02*
X134778571Y-122359580D01*
X134778571Y-122359580D02*
X134730952Y-122407200D01*
X134730952Y-122407200D02*
X134635714Y-122454819D01*
X134635714Y-122454819D02*
X134350000Y-122454819D01*
X134350000Y-122454819D02*
X134254762Y-122407200D01*
X134254762Y-122407200D02*
X134207143Y-122359580D01*
X130516666Y-129954819D02*
X130516666Y-130669104D01*
X130516666Y-130669104D02*
X130469047Y-130811961D01*
X130469047Y-130811961D02*
X130373809Y-130907200D01*
X130373809Y-130907200D02*
X130230952Y-130954819D01*
X130230952Y-130954819D02*
X130135714Y-130954819D01*
X131421428Y-130288152D02*
X131421428Y-130954819D01*
X131183333Y-129907200D02*
X130945238Y-130621485D01*
X130945238Y-130621485D02*
X131564285Y-130621485D01*
X173585333Y-104636819D02*
X173013905Y-104636819D01*
X173299619Y-104636819D02*
X173299619Y-103636819D01*
X173299619Y-103636819D02*
X173204381Y-103779676D01*
X173204381Y-103779676D02*
X173109143Y-103874914D01*
X173109143Y-103874914D02*
X173013905Y-103922533D01*
X174204381Y-103636819D02*
X174299619Y-103636819D01*
X174299619Y-103636819D02*
X174394857Y-103684438D01*
X174394857Y-103684438D02*
X174442476Y-103732057D01*
X174442476Y-103732057D02*
X174490095Y-103827295D01*
X174490095Y-103827295D02*
X174537714Y-104017771D01*
X174537714Y-104017771D02*
X174537714Y-104255866D01*
X174537714Y-104255866D02*
X174490095Y-104446342D01*
X174490095Y-104446342D02*
X174442476Y-104541580D01*
X174442476Y-104541580D02*
X174394857Y-104589200D01*
X174394857Y-104589200D02*
X174299619Y-104636819D01*
X174299619Y-104636819D02*
X174204381Y-104636819D01*
X174204381Y-104636819D02*
X174109143Y-104589200D01*
X174109143Y-104589200D02*
X174061524Y-104541580D01*
X174061524Y-104541580D02*
X174013905Y-104446342D01*
X174013905Y-104446342D02*
X173966286Y-104255866D01*
X173966286Y-104255866D02*
X173966286Y-104017771D01*
X173966286Y-104017771D02*
X174013905Y-103827295D01*
X174013905Y-103827295D02*
X174061524Y-103732057D01*
X174061524Y-103732057D02*
X174109143Y-103684438D01*
X174109143Y-103684438D02*
X174204381Y-103636819D01*
X174966286Y-104636819D02*
X174966286Y-103636819D01*
X175061524Y-104255866D02*
X175347238Y-104636819D01*
X175347238Y-103970152D02*
X174966286Y-104351104D01*
X175728191Y-104636819D02*
X175966286Y-104636819D01*
X175966286Y-104636819D02*
X175966286Y-104446342D01*
X175966286Y-104446342D02*
X175871048Y-104398723D01*
X175871048Y-104398723D02*
X175775810Y-104303485D01*
X175775810Y-104303485D02*
X175728191Y-104160628D01*
X175728191Y-104160628D02*
X175728191Y-103922533D01*
X175728191Y-103922533D02*
X175775810Y-103779676D01*
X175775810Y-103779676D02*
X175871048Y-103684438D01*
X175871048Y-103684438D02*
X176013905Y-103636819D01*
X176013905Y-103636819D02*
X176204381Y-103636819D01*
X176204381Y-103636819D02*
X176347238Y-103684438D01*
X176347238Y-103684438D02*
X176442476Y-103779676D01*
X176442476Y-103779676D02*
X176490095Y-103922533D01*
X176490095Y-103922533D02*
X176490095Y-104160628D01*
X176490095Y-104160628D02*
X176442476Y-104303485D01*
X176442476Y-104303485D02*
X176347238Y-104398723D01*
X176347238Y-104398723D02*
X176252000Y-104446342D01*
X176252000Y-104446342D02*
X176252000Y-104636819D01*
X176252000Y-104636819D02*
X176490095Y-104636819D01*
D11*
X174237714Y-102725855D02*
X173971047Y-102344902D01*
X173780571Y-102725855D02*
X173780571Y-101925855D01*
X173780571Y-101925855D02*
X174085333Y-101925855D01*
X174085333Y-101925855D02*
X174161523Y-101963950D01*
X174161523Y-101963950D02*
X174199618Y-102002045D01*
X174199618Y-102002045D02*
X174237714Y-102078236D01*
X174237714Y-102078236D02*
X174237714Y-102192521D01*
X174237714Y-102192521D02*
X174199618Y-102268712D01*
X174199618Y-102268712D02*
X174161523Y-102306807D01*
X174161523Y-102306807D02*
X174085333Y-102344902D01*
X174085333Y-102344902D02*
X173780571Y-102344902D01*
X174999618Y-102725855D02*
X174542475Y-102725855D01*
X174771047Y-102725855D02*
X174771047Y-101925855D01*
X174771047Y-101925855D02*
X174694856Y-102040140D01*
X174694856Y-102040140D02*
X174618666Y-102116331D01*
X174618666Y-102116331D02*
X174542475Y-102154426D01*
X175266285Y-101925855D02*
X175761523Y-101925855D01*
X175761523Y-101925855D02*
X175494857Y-102230617D01*
X175494857Y-102230617D02*
X175609142Y-102230617D01*
X175609142Y-102230617D02*
X175685333Y-102268712D01*
X175685333Y-102268712D02*
X175723428Y-102306807D01*
X175723428Y-102306807D02*
X175761523Y-102382998D01*
X175761523Y-102382998D02*
X175761523Y-102573474D01*
X175761523Y-102573474D02*
X175723428Y-102649664D01*
X175723428Y-102649664D02*
X175685333Y-102687760D01*
X175685333Y-102687760D02*
X175609142Y-102725855D01*
X175609142Y-102725855D02*
X175380571Y-102725855D01*
X175380571Y-102725855D02*
X175304380Y-102687760D01*
X175304380Y-102687760D02*
X175266285Y-102649664D01*
D10*
X194298819Y-87272666D02*
X194298819Y-87844094D01*
X194298819Y-87558380D02*
X193298819Y-87558380D01*
X193298819Y-87558380D02*
X193441676Y-87653618D01*
X193441676Y-87653618D02*
X193536914Y-87748856D01*
X193536914Y-87748856D02*
X193584533Y-87844094D01*
X193298819Y-86653618D02*
X193298819Y-86558380D01*
X193298819Y-86558380D02*
X193346438Y-86463142D01*
X193346438Y-86463142D02*
X193394057Y-86415523D01*
X193394057Y-86415523D02*
X193489295Y-86367904D01*
X193489295Y-86367904D02*
X193679771Y-86320285D01*
X193679771Y-86320285D02*
X193917866Y-86320285D01*
X193917866Y-86320285D02*
X194108342Y-86367904D01*
X194108342Y-86367904D02*
X194203580Y-86415523D01*
X194203580Y-86415523D02*
X194251200Y-86463142D01*
X194251200Y-86463142D02*
X194298819Y-86558380D01*
X194298819Y-86558380D02*
X194298819Y-86653618D01*
X194298819Y-86653618D02*
X194251200Y-86748856D01*
X194251200Y-86748856D02*
X194203580Y-86796475D01*
X194203580Y-86796475D02*
X194108342Y-86844094D01*
X194108342Y-86844094D02*
X193917866Y-86891713D01*
X193917866Y-86891713D02*
X193679771Y-86891713D01*
X193679771Y-86891713D02*
X193489295Y-86844094D01*
X193489295Y-86844094D02*
X193394057Y-86796475D01*
X193394057Y-86796475D02*
X193346438Y-86748856D01*
X193346438Y-86748856D02*
X193298819Y-86653618D01*
X194298819Y-85891713D02*
X193298819Y-85891713D01*
X193917866Y-85796475D02*
X194298819Y-85510761D01*
X193632152Y-85510761D02*
X194013104Y-85891713D01*
X194298819Y-85129808D02*
X194298819Y-84891713D01*
X194298819Y-84891713D02*
X194108342Y-84891713D01*
X194108342Y-84891713D02*
X194060723Y-84986951D01*
X194060723Y-84986951D02*
X193965485Y-85082189D01*
X193965485Y-85082189D02*
X193822628Y-85129808D01*
X193822628Y-85129808D02*
X193584533Y-85129808D01*
X193584533Y-85129808D02*
X193441676Y-85082189D01*
X193441676Y-85082189D02*
X193346438Y-84986951D01*
X193346438Y-84986951D02*
X193298819Y-84844094D01*
X193298819Y-84844094D02*
X193298819Y-84653618D01*
X193298819Y-84653618D02*
X193346438Y-84510761D01*
X193346438Y-84510761D02*
X193441676Y-84415523D01*
X193441676Y-84415523D02*
X193584533Y-84367904D01*
X193584533Y-84367904D02*
X193822628Y-84367904D01*
X193822628Y-84367904D02*
X193965485Y-84415523D01*
X193965485Y-84415523D02*
X194060723Y-84510761D01*
X194060723Y-84510761D02*
X194108342Y-84605999D01*
X194108342Y-84605999D02*
X194298819Y-84605999D01*
X194298819Y-84605999D02*
X194298819Y-84367904D01*
D11*
X192387855Y-86239332D02*
X192006902Y-86505999D01*
X192387855Y-86696475D02*
X191587855Y-86696475D01*
X191587855Y-86696475D02*
X191587855Y-86391713D01*
X191587855Y-86391713D02*
X191625950Y-86315523D01*
X191625950Y-86315523D02*
X191664045Y-86277428D01*
X191664045Y-86277428D02*
X191740236Y-86239332D01*
X191740236Y-86239332D02*
X191854521Y-86239332D01*
X191854521Y-86239332D02*
X191930712Y-86277428D01*
X191930712Y-86277428D02*
X191968807Y-86315523D01*
X191968807Y-86315523D02*
X192006902Y-86391713D01*
X192006902Y-86391713D02*
X192006902Y-86696475D01*
X192387855Y-85477428D02*
X192387855Y-85934571D01*
X192387855Y-85705999D02*
X191587855Y-85705999D01*
X191587855Y-85705999D02*
X191702140Y-85782190D01*
X191702140Y-85782190D02*
X191778331Y-85858380D01*
X191778331Y-85858380D02*
X191816426Y-85934571D01*
D10*
X141466819Y-113750166D02*
X141466819Y-114321594D01*
X141466819Y-114035880D02*
X140466819Y-114035880D01*
X140466819Y-114035880D02*
X140609676Y-114131118D01*
X140609676Y-114131118D02*
X140704914Y-114226356D01*
X140704914Y-114226356D02*
X140752533Y-114321594D01*
X140466819Y-113131118D02*
X140466819Y-113035880D01*
X140466819Y-113035880D02*
X140514438Y-112940642D01*
X140514438Y-112940642D02*
X140562057Y-112893023D01*
X140562057Y-112893023D02*
X140657295Y-112845404D01*
X140657295Y-112845404D02*
X140847771Y-112797785D01*
X140847771Y-112797785D02*
X141085866Y-112797785D01*
X141085866Y-112797785D02*
X141276342Y-112845404D01*
X141276342Y-112845404D02*
X141371580Y-112893023D01*
X141371580Y-112893023D02*
X141419200Y-112940642D01*
X141419200Y-112940642D02*
X141466819Y-113035880D01*
X141466819Y-113035880D02*
X141466819Y-113131118D01*
X141466819Y-113131118D02*
X141419200Y-113226356D01*
X141419200Y-113226356D02*
X141371580Y-113273975D01*
X141371580Y-113273975D02*
X141276342Y-113321594D01*
X141276342Y-113321594D02*
X141085866Y-113369213D01*
X141085866Y-113369213D02*
X140847771Y-113369213D01*
X140847771Y-113369213D02*
X140657295Y-113321594D01*
X140657295Y-113321594D02*
X140562057Y-113273975D01*
X140562057Y-113273975D02*
X140514438Y-113226356D01*
X140514438Y-113226356D02*
X140466819Y-113131118D01*
X141466819Y-112369213D02*
X140466819Y-112369213D01*
X141085866Y-112273975D02*
X141466819Y-111988261D01*
X140800152Y-111988261D02*
X141181104Y-112369213D01*
X141466819Y-111607308D02*
X141466819Y-111369213D01*
X141466819Y-111369213D02*
X141276342Y-111369213D01*
X141276342Y-111369213D02*
X141228723Y-111464451D01*
X141228723Y-111464451D02*
X141133485Y-111559689D01*
X141133485Y-111559689D02*
X140990628Y-111607308D01*
X140990628Y-111607308D02*
X140752533Y-111607308D01*
X140752533Y-111607308D02*
X140609676Y-111559689D01*
X140609676Y-111559689D02*
X140514438Y-111464451D01*
X140514438Y-111464451D02*
X140466819Y-111321594D01*
X140466819Y-111321594D02*
X140466819Y-111131118D01*
X140466819Y-111131118D02*
X140514438Y-110988261D01*
X140514438Y-110988261D02*
X140609676Y-110893023D01*
X140609676Y-110893023D02*
X140752533Y-110845404D01*
X140752533Y-110845404D02*
X140990628Y-110845404D01*
X140990628Y-110845404D02*
X141133485Y-110893023D01*
X141133485Y-110893023D02*
X141228723Y-110988261D01*
X141228723Y-110988261D02*
X141276342Y-111083499D01*
X141276342Y-111083499D02*
X141466819Y-111083499D01*
X141466819Y-111083499D02*
X141466819Y-110845404D01*
D11*
X139555855Y-112716832D02*
X139174902Y-112983499D01*
X139555855Y-113173975D02*
X138755855Y-113173975D01*
X138755855Y-113173975D02*
X138755855Y-112869213D01*
X138755855Y-112869213D02*
X138793950Y-112793023D01*
X138793950Y-112793023D02*
X138832045Y-112754928D01*
X138832045Y-112754928D02*
X138908236Y-112716832D01*
X138908236Y-112716832D02*
X139022521Y-112716832D01*
X139022521Y-112716832D02*
X139098712Y-112754928D01*
X139098712Y-112754928D02*
X139136807Y-112793023D01*
X139136807Y-112793023D02*
X139174902Y-112869213D01*
X139174902Y-112869213D02*
X139174902Y-113173975D01*
X138755855Y-112450166D02*
X138755855Y-111916832D01*
X138755855Y-111916832D02*
X139555855Y-112259690D01*
D10*
X137930904Y-52869580D02*
X137883285Y-52917200D01*
X137883285Y-52917200D02*
X137740428Y-52964819D01*
X137740428Y-52964819D02*
X137645190Y-52964819D01*
X137645190Y-52964819D02*
X137502333Y-52917200D01*
X137502333Y-52917200D02*
X137407095Y-52821961D01*
X137407095Y-52821961D02*
X137359476Y-52726723D01*
X137359476Y-52726723D02*
X137311857Y-52536247D01*
X137311857Y-52536247D02*
X137311857Y-52393390D01*
X137311857Y-52393390D02*
X137359476Y-52202914D01*
X137359476Y-52202914D02*
X137407095Y-52107676D01*
X137407095Y-52107676D02*
X137502333Y-52012438D01*
X137502333Y-52012438D02*
X137645190Y-51964819D01*
X137645190Y-51964819D02*
X137740428Y-51964819D01*
X137740428Y-51964819D02*
X137883285Y-52012438D01*
X137883285Y-52012438D02*
X137930904Y-52060057D01*
X138502333Y-52964819D02*
X138407095Y-52917200D01*
X138407095Y-52917200D02*
X138359476Y-52869580D01*
X138359476Y-52869580D02*
X138311857Y-52774342D01*
X138311857Y-52774342D02*
X138311857Y-52488628D01*
X138311857Y-52488628D02*
X138359476Y-52393390D01*
X138359476Y-52393390D02*
X138407095Y-52345771D01*
X138407095Y-52345771D02*
X138502333Y-52298152D01*
X138502333Y-52298152D02*
X138645190Y-52298152D01*
X138645190Y-52298152D02*
X138740428Y-52345771D01*
X138740428Y-52345771D02*
X138788047Y-52393390D01*
X138788047Y-52393390D02*
X138835666Y-52488628D01*
X138835666Y-52488628D02*
X138835666Y-52774342D01*
X138835666Y-52774342D02*
X138788047Y-52869580D01*
X138788047Y-52869580D02*
X138740428Y-52917200D01*
X138740428Y-52917200D02*
X138645190Y-52964819D01*
X138645190Y-52964819D02*
X138502333Y-52964819D01*
X139264238Y-52298152D02*
X139264238Y-52964819D01*
X139264238Y-52393390D02*
X139311857Y-52345771D01*
X139311857Y-52345771D02*
X139407095Y-52298152D01*
X139407095Y-52298152D02*
X139549952Y-52298152D01*
X139549952Y-52298152D02*
X139645190Y-52345771D01*
X139645190Y-52345771D02*
X139692809Y-52441009D01*
X139692809Y-52441009D02*
X139692809Y-52964819D01*
X140169000Y-52298152D02*
X140169000Y-52964819D01*
X140169000Y-52393390D02*
X140216619Y-52345771D01*
X140216619Y-52345771D02*
X140311857Y-52298152D01*
X140311857Y-52298152D02*
X140454714Y-52298152D01*
X140454714Y-52298152D02*
X140549952Y-52345771D01*
X140549952Y-52345771D02*
X140597571Y-52441009D01*
X140597571Y-52441009D02*
X140597571Y-52964819D01*
X140835667Y-53060057D02*
X141597571Y-53060057D01*
X142026143Y-51964819D02*
X142121381Y-51964819D01*
X142121381Y-51964819D02*
X142216619Y-52012438D01*
X142216619Y-52012438D02*
X142264238Y-52060057D01*
X142264238Y-52060057D02*
X142311857Y-52155295D01*
X142311857Y-52155295D02*
X142359476Y-52345771D01*
X142359476Y-52345771D02*
X142359476Y-52583866D01*
X142359476Y-52583866D02*
X142311857Y-52774342D01*
X142311857Y-52774342D02*
X142264238Y-52869580D01*
X142264238Y-52869580D02*
X142216619Y-52917200D01*
X142216619Y-52917200D02*
X142121381Y-52964819D01*
X142121381Y-52964819D02*
X142026143Y-52964819D01*
X142026143Y-52964819D02*
X141930905Y-52917200D01*
X141930905Y-52917200D02*
X141883286Y-52869580D01*
X141883286Y-52869580D02*
X141835667Y-52774342D01*
X141835667Y-52774342D02*
X141788048Y-52583866D01*
X141788048Y-52583866D02*
X141788048Y-52345771D01*
X141788048Y-52345771D02*
X141835667Y-52155295D01*
X141835667Y-52155295D02*
X141883286Y-52060057D01*
X141883286Y-52060057D02*
X141930905Y-52012438D01*
X141930905Y-52012438D02*
X142026143Y-51964819D01*
X143311857Y-52964819D02*
X142740429Y-52964819D01*
X143026143Y-52964819D02*
X143026143Y-51964819D01*
X143026143Y-51964819D02*
X142930905Y-52107676D01*
X142930905Y-52107676D02*
X142835667Y-52202914D01*
X142835667Y-52202914D02*
X142740429Y-52250533D01*
X143645191Y-52964819D02*
X144169000Y-52298152D01*
X143645191Y-52298152D02*
X144169000Y-52964819D01*
X144740429Y-51964819D02*
X144835667Y-51964819D01*
X144835667Y-51964819D02*
X144930905Y-52012438D01*
X144930905Y-52012438D02*
X144978524Y-52060057D01*
X144978524Y-52060057D02*
X145026143Y-52155295D01*
X145026143Y-52155295D02*
X145073762Y-52345771D01*
X145073762Y-52345771D02*
X145073762Y-52583866D01*
X145073762Y-52583866D02*
X145026143Y-52774342D01*
X145026143Y-52774342D02*
X144978524Y-52869580D01*
X144978524Y-52869580D02*
X144930905Y-52917200D01*
X144930905Y-52917200D02*
X144835667Y-52964819D01*
X144835667Y-52964819D02*
X144740429Y-52964819D01*
X144740429Y-52964819D02*
X144645191Y-52917200D01*
X144645191Y-52917200D02*
X144597572Y-52869580D01*
X144597572Y-52869580D02*
X144549953Y-52774342D01*
X144549953Y-52774342D02*
X144502334Y-52583866D01*
X144502334Y-52583866D02*
X144502334Y-52345771D01*
X144502334Y-52345771D02*
X144549953Y-52155295D01*
X144549953Y-52155295D02*
X144597572Y-52060057D01*
X144597572Y-52060057D02*
X144645191Y-52012438D01*
X144645191Y-52012438D02*
X144740429Y-51964819D01*
X145930905Y-52298152D02*
X145930905Y-52964819D01*
X145692810Y-51917200D02*
X145454715Y-52631485D01*
X145454715Y-52631485D02*
X146073762Y-52631485D01*
X194298819Y-70762666D02*
X194298819Y-71334094D01*
X194298819Y-71048380D02*
X193298819Y-71048380D01*
X193298819Y-71048380D02*
X193441676Y-71143618D01*
X193441676Y-71143618D02*
X193536914Y-71238856D01*
X193536914Y-71238856D02*
X193584533Y-71334094D01*
X193298819Y-70143618D02*
X193298819Y-70048380D01*
X193298819Y-70048380D02*
X193346438Y-69953142D01*
X193346438Y-69953142D02*
X193394057Y-69905523D01*
X193394057Y-69905523D02*
X193489295Y-69857904D01*
X193489295Y-69857904D02*
X193679771Y-69810285D01*
X193679771Y-69810285D02*
X193917866Y-69810285D01*
X193917866Y-69810285D02*
X194108342Y-69857904D01*
X194108342Y-69857904D02*
X194203580Y-69905523D01*
X194203580Y-69905523D02*
X194251200Y-69953142D01*
X194251200Y-69953142D02*
X194298819Y-70048380D01*
X194298819Y-70048380D02*
X194298819Y-70143618D01*
X194298819Y-70143618D02*
X194251200Y-70238856D01*
X194251200Y-70238856D02*
X194203580Y-70286475D01*
X194203580Y-70286475D02*
X194108342Y-70334094D01*
X194108342Y-70334094D02*
X193917866Y-70381713D01*
X193917866Y-70381713D02*
X193679771Y-70381713D01*
X193679771Y-70381713D02*
X193489295Y-70334094D01*
X193489295Y-70334094D02*
X193394057Y-70286475D01*
X193394057Y-70286475D02*
X193346438Y-70238856D01*
X193346438Y-70238856D02*
X193298819Y-70143618D01*
X194298819Y-69381713D02*
X193298819Y-69381713D01*
X193917866Y-69286475D02*
X194298819Y-69000761D01*
X193632152Y-69000761D02*
X194013104Y-69381713D01*
X194298819Y-68619808D02*
X194298819Y-68381713D01*
X194298819Y-68381713D02*
X194108342Y-68381713D01*
X194108342Y-68381713D02*
X194060723Y-68476951D01*
X194060723Y-68476951D02*
X193965485Y-68572189D01*
X193965485Y-68572189D02*
X193822628Y-68619808D01*
X193822628Y-68619808D02*
X193584533Y-68619808D01*
X193584533Y-68619808D02*
X193441676Y-68572189D01*
X193441676Y-68572189D02*
X193346438Y-68476951D01*
X193346438Y-68476951D02*
X193298819Y-68334094D01*
X193298819Y-68334094D02*
X193298819Y-68143618D01*
X193298819Y-68143618D02*
X193346438Y-68000761D01*
X193346438Y-68000761D02*
X193441676Y-67905523D01*
X193441676Y-67905523D02*
X193584533Y-67857904D01*
X193584533Y-67857904D02*
X193822628Y-67857904D01*
X193822628Y-67857904D02*
X193965485Y-67905523D01*
X193965485Y-67905523D02*
X194060723Y-68000761D01*
X194060723Y-68000761D02*
X194108342Y-68095999D01*
X194108342Y-68095999D02*
X194298819Y-68095999D01*
X194298819Y-68095999D02*
X194298819Y-67857904D01*
D11*
X192387855Y-69729332D02*
X192006902Y-69995999D01*
X192387855Y-70186475D02*
X191587855Y-70186475D01*
X191587855Y-70186475D02*
X191587855Y-69881713D01*
X191587855Y-69881713D02*
X191625950Y-69805523D01*
X191625950Y-69805523D02*
X191664045Y-69767428D01*
X191664045Y-69767428D02*
X191740236Y-69729332D01*
X191740236Y-69729332D02*
X191854521Y-69729332D01*
X191854521Y-69729332D02*
X191930712Y-69767428D01*
X191930712Y-69767428D02*
X191968807Y-69805523D01*
X191968807Y-69805523D02*
X192006902Y-69881713D01*
X192006902Y-69881713D02*
X192006902Y-70186475D01*
X191664045Y-69424571D02*
X191625950Y-69386475D01*
X191625950Y-69386475D02*
X191587855Y-69310285D01*
X191587855Y-69310285D02*
X191587855Y-69119809D01*
X191587855Y-69119809D02*
X191625950Y-69043618D01*
X191625950Y-69043618D02*
X191664045Y-69005523D01*
X191664045Y-69005523D02*
X191740236Y-68967428D01*
X191740236Y-68967428D02*
X191816426Y-68967428D01*
X191816426Y-68967428D02*
X191930712Y-69005523D01*
X191930712Y-69005523D02*
X192387855Y-69462666D01*
X192387855Y-69462666D02*
X192387855Y-68967428D01*
D10*
X179286381Y-94083200D02*
X179429238Y-94130819D01*
X179429238Y-94130819D02*
X179667333Y-94130819D01*
X179667333Y-94130819D02*
X179762571Y-94083200D01*
X179762571Y-94083200D02*
X179810190Y-94035580D01*
X179810190Y-94035580D02*
X179857809Y-93940342D01*
X179857809Y-93940342D02*
X179857809Y-93845104D01*
X179857809Y-93845104D02*
X179810190Y-93749866D01*
X179810190Y-93749866D02*
X179762571Y-93702247D01*
X179762571Y-93702247D02*
X179667333Y-93654628D01*
X179667333Y-93654628D02*
X179476857Y-93607009D01*
X179476857Y-93607009D02*
X179381619Y-93559390D01*
X179381619Y-93559390D02*
X179334000Y-93511771D01*
X179334000Y-93511771D02*
X179286381Y-93416533D01*
X179286381Y-93416533D02*
X179286381Y-93321295D01*
X179286381Y-93321295D02*
X179334000Y-93226057D01*
X179334000Y-93226057D02*
X179381619Y-93178438D01*
X179381619Y-93178438D02*
X179476857Y-93130819D01*
X179476857Y-93130819D02*
X179714952Y-93130819D01*
X179714952Y-93130819D02*
X179857809Y-93178438D01*
X180191143Y-93130819D02*
X180429238Y-94130819D01*
X180429238Y-94130819D02*
X180619714Y-93416533D01*
X180619714Y-93416533D02*
X180810190Y-94130819D01*
X180810190Y-94130819D02*
X181048286Y-93130819D01*
X181191143Y-94226057D02*
X181953047Y-94226057D01*
X182191143Y-94130819D02*
X182191143Y-93130819D01*
X182191143Y-93130819D02*
X182572095Y-93130819D01*
X182572095Y-93130819D02*
X182667333Y-93178438D01*
X182667333Y-93178438D02*
X182714952Y-93226057D01*
X182714952Y-93226057D02*
X182762571Y-93321295D01*
X182762571Y-93321295D02*
X182762571Y-93464152D01*
X182762571Y-93464152D02*
X182714952Y-93559390D01*
X182714952Y-93559390D02*
X182667333Y-93607009D01*
X182667333Y-93607009D02*
X182572095Y-93654628D01*
X182572095Y-93654628D02*
X182191143Y-93654628D01*
X183619714Y-93464152D02*
X183619714Y-94130819D01*
X183191143Y-93464152D02*
X183191143Y-93987961D01*
X183191143Y-93987961D02*
X183238762Y-94083200D01*
X183238762Y-94083200D02*
X183334000Y-94130819D01*
X183334000Y-94130819D02*
X183476857Y-94130819D01*
X183476857Y-94130819D02*
X183572095Y-94083200D01*
X183572095Y-94083200D02*
X183619714Y-94035580D01*
X184048286Y-94083200D02*
X184143524Y-94130819D01*
X184143524Y-94130819D02*
X184334000Y-94130819D01*
X184334000Y-94130819D02*
X184429238Y-94083200D01*
X184429238Y-94083200D02*
X184476857Y-93987961D01*
X184476857Y-93987961D02*
X184476857Y-93940342D01*
X184476857Y-93940342D02*
X184429238Y-93845104D01*
X184429238Y-93845104D02*
X184334000Y-93797485D01*
X184334000Y-93797485D02*
X184191143Y-93797485D01*
X184191143Y-93797485D02*
X184095905Y-93749866D01*
X184095905Y-93749866D02*
X184048286Y-93654628D01*
X184048286Y-93654628D02*
X184048286Y-93607009D01*
X184048286Y-93607009D02*
X184095905Y-93511771D01*
X184095905Y-93511771D02*
X184191143Y-93464152D01*
X184191143Y-93464152D02*
X184334000Y-93464152D01*
X184334000Y-93464152D02*
X184429238Y-93511771D01*
X184905429Y-94130819D02*
X184905429Y-93130819D01*
X185334000Y-94130819D02*
X185334000Y-93607009D01*
X185334000Y-93607009D02*
X185286381Y-93511771D01*
X185286381Y-93511771D02*
X185191143Y-93464152D01*
X185191143Y-93464152D02*
X185048286Y-93464152D01*
X185048286Y-93464152D02*
X184953048Y-93511771D01*
X184953048Y-93511771D02*
X184905429Y-93559390D01*
X180730667Y-86693200D02*
X180873524Y-86740819D01*
X180873524Y-86740819D02*
X181111619Y-86740819D01*
X181111619Y-86740819D02*
X181206857Y-86693200D01*
X181206857Y-86693200D02*
X181254476Y-86645580D01*
X181254476Y-86645580D02*
X181302095Y-86550342D01*
X181302095Y-86550342D02*
X181302095Y-86455104D01*
X181302095Y-86455104D02*
X181254476Y-86359866D01*
X181254476Y-86359866D02*
X181206857Y-86312247D01*
X181206857Y-86312247D02*
X181111619Y-86264628D01*
X181111619Y-86264628D02*
X180921143Y-86217009D01*
X180921143Y-86217009D02*
X180825905Y-86169390D01*
X180825905Y-86169390D02*
X180778286Y-86121771D01*
X180778286Y-86121771D02*
X180730667Y-86026533D01*
X180730667Y-86026533D02*
X180730667Y-85931295D01*
X180730667Y-85931295D02*
X180778286Y-85836057D01*
X180778286Y-85836057D02*
X180825905Y-85788438D01*
X180825905Y-85788438D02*
X180921143Y-85740819D01*
X180921143Y-85740819D02*
X181159238Y-85740819D01*
X181159238Y-85740819D02*
X181302095Y-85788438D01*
X181635429Y-85740819D02*
X181873524Y-86740819D01*
X181873524Y-86740819D02*
X182064000Y-86026533D01*
X182064000Y-86026533D02*
X182254476Y-86740819D01*
X182254476Y-86740819D02*
X182492572Y-85740819D01*
X182778286Y-85740819D02*
X183397333Y-85740819D01*
X183397333Y-85740819D02*
X183064000Y-86121771D01*
X183064000Y-86121771D02*
X183206857Y-86121771D01*
X183206857Y-86121771D02*
X183302095Y-86169390D01*
X183302095Y-86169390D02*
X183349714Y-86217009D01*
X183349714Y-86217009D02*
X183397333Y-86312247D01*
X183397333Y-86312247D02*
X183397333Y-86550342D01*
X183397333Y-86550342D02*
X183349714Y-86645580D01*
X183349714Y-86645580D02*
X183302095Y-86693200D01*
X183302095Y-86693200D02*
X183206857Y-86740819D01*
X183206857Y-86740819D02*
X182921143Y-86740819D01*
X182921143Y-86740819D02*
X182825905Y-86693200D01*
X182825905Y-86693200D02*
X182778286Y-86645580D01*
X161488571Y-105766819D02*
X160917143Y-105766819D01*
X161202857Y-105766819D02*
X161202857Y-104766819D01*
X161202857Y-104766819D02*
X161107619Y-104909676D01*
X161107619Y-104909676D02*
X161012381Y-105004914D01*
X161012381Y-105004914D02*
X160917143Y-105052533D01*
X162107619Y-104766819D02*
X162202857Y-104766819D01*
X162202857Y-104766819D02*
X162298095Y-104814438D01*
X162298095Y-104814438D02*
X162345714Y-104862057D01*
X162345714Y-104862057D02*
X162393333Y-104957295D01*
X162393333Y-104957295D02*
X162440952Y-105147771D01*
X162440952Y-105147771D02*
X162440952Y-105385866D01*
X162440952Y-105385866D02*
X162393333Y-105576342D01*
X162393333Y-105576342D02*
X162345714Y-105671580D01*
X162345714Y-105671580D02*
X162298095Y-105719200D01*
X162298095Y-105719200D02*
X162202857Y-105766819D01*
X162202857Y-105766819D02*
X162107619Y-105766819D01*
X162107619Y-105766819D02*
X162012381Y-105719200D01*
X162012381Y-105719200D02*
X161964762Y-105671580D01*
X161964762Y-105671580D02*
X161917143Y-105576342D01*
X161917143Y-105576342D02*
X161869524Y-105385866D01*
X161869524Y-105385866D02*
X161869524Y-105147771D01*
X161869524Y-105147771D02*
X161917143Y-104957295D01*
X161917143Y-104957295D02*
X161964762Y-104862057D01*
X161964762Y-104862057D02*
X162012381Y-104814438D01*
X162012381Y-104814438D02*
X162107619Y-104766819D01*
X163298095Y-105100152D02*
X163298095Y-105766819D01*
X162869524Y-105100152D02*
X162869524Y-105623961D01*
X162869524Y-105623961D02*
X162917143Y-105719200D01*
X162917143Y-105719200D02*
X163012381Y-105766819D01*
X163012381Y-105766819D02*
X163155238Y-105766819D01*
X163155238Y-105766819D02*
X163250476Y-105719200D01*
X163250476Y-105719200D02*
X163298095Y-105671580D01*
X164107619Y-105243009D02*
X163774286Y-105243009D01*
X163774286Y-105766819D02*
X163774286Y-104766819D01*
X163774286Y-104766819D02*
X164250476Y-104766819D01*
D12*
X162476666Y-103811530D02*
X162452857Y-103835340D01*
X162452857Y-103835340D02*
X162381428Y-103859149D01*
X162381428Y-103859149D02*
X162333809Y-103859149D01*
X162333809Y-103859149D02*
X162262381Y-103835340D01*
X162262381Y-103835340D02*
X162214762Y-103787720D01*
X162214762Y-103787720D02*
X162190952Y-103740101D01*
X162190952Y-103740101D02*
X162167143Y-103644863D01*
X162167143Y-103644863D02*
X162167143Y-103573435D01*
X162167143Y-103573435D02*
X162190952Y-103478197D01*
X162190952Y-103478197D02*
X162214762Y-103430578D01*
X162214762Y-103430578D02*
X162262381Y-103382959D01*
X162262381Y-103382959D02*
X162333809Y-103359149D01*
X162333809Y-103359149D02*
X162381428Y-103359149D01*
X162381428Y-103359149D02*
X162452857Y-103382959D01*
X162452857Y-103382959D02*
X162476666Y-103406768D01*
X162905238Y-103525816D02*
X162905238Y-103859149D01*
X162786190Y-103335340D02*
X162667143Y-103692482D01*
X162667143Y-103692482D02*
X162976666Y-103692482D01*
D10*
X117009009Y-62578763D02*
X117056628Y-62435906D01*
X117056628Y-62435906D02*
X117104247Y-62388287D01*
X117104247Y-62388287D02*
X117199485Y-62340668D01*
X117199485Y-62340668D02*
X117342342Y-62340668D01*
X117342342Y-62340668D02*
X117437580Y-62388287D01*
X117437580Y-62388287D02*
X117485200Y-62435906D01*
X117485200Y-62435906D02*
X117532819Y-62531144D01*
X117532819Y-62531144D02*
X117532819Y-62912096D01*
X117532819Y-62912096D02*
X116532819Y-62912096D01*
X116532819Y-62912096D02*
X116532819Y-62578763D01*
X116532819Y-62578763D02*
X116580438Y-62483525D01*
X116580438Y-62483525D02*
X116628057Y-62435906D01*
X116628057Y-62435906D02*
X116723295Y-62388287D01*
X116723295Y-62388287D02*
X116818533Y-62388287D01*
X116818533Y-62388287D02*
X116913771Y-62435906D01*
X116913771Y-62435906D02*
X116961390Y-62483525D01*
X116961390Y-62483525D02*
X117009009Y-62578763D01*
X117009009Y-62578763D02*
X117009009Y-62912096D01*
X117532819Y-61483525D02*
X117009009Y-61483525D01*
X117009009Y-61483525D02*
X116913771Y-61531144D01*
X116913771Y-61531144D02*
X116866152Y-61626382D01*
X116866152Y-61626382D02*
X116866152Y-61816858D01*
X116866152Y-61816858D02*
X116913771Y-61912096D01*
X117485200Y-61483525D02*
X117532819Y-61578763D01*
X117532819Y-61578763D02*
X117532819Y-61816858D01*
X117532819Y-61816858D02*
X117485200Y-61912096D01*
X117485200Y-61912096D02*
X117389961Y-61959715D01*
X117389961Y-61959715D02*
X117294723Y-61959715D01*
X117294723Y-61959715D02*
X117199485Y-61912096D01*
X117199485Y-61912096D02*
X117151866Y-61816858D01*
X117151866Y-61816858D02*
X117151866Y-61578763D01*
X117151866Y-61578763D02*
X117104247Y-61483525D01*
X116866152Y-61150191D02*
X116866152Y-60769239D01*
X116532819Y-61007334D02*
X117389961Y-61007334D01*
X117389961Y-61007334D02*
X117485200Y-60959715D01*
X117485200Y-60959715D02*
X117532819Y-60864477D01*
X117532819Y-60864477D02*
X117532819Y-60769239D01*
X116866152Y-60578762D02*
X116866152Y-60197810D01*
X116532819Y-60435905D02*
X117389961Y-60435905D01*
X117389961Y-60435905D02*
X117485200Y-60388286D01*
X117485200Y-60388286D02*
X117532819Y-60293048D01*
X117532819Y-60293048D02*
X117532819Y-60197810D01*
X117485200Y-59483524D02*
X117532819Y-59578762D01*
X117532819Y-59578762D02*
X117532819Y-59769238D01*
X117532819Y-59769238D02*
X117485200Y-59864476D01*
X117485200Y-59864476D02*
X117389961Y-59912095D01*
X117389961Y-59912095D02*
X117009009Y-59912095D01*
X117009009Y-59912095D02*
X116913771Y-59864476D01*
X116913771Y-59864476D02*
X116866152Y-59769238D01*
X116866152Y-59769238D02*
X116866152Y-59578762D01*
X116866152Y-59578762D02*
X116913771Y-59483524D01*
X116913771Y-59483524D02*
X117009009Y-59435905D01*
X117009009Y-59435905D02*
X117104247Y-59435905D01*
X117104247Y-59435905D02*
X117199485Y-59912095D01*
X117532819Y-59007333D02*
X116866152Y-59007333D01*
X117056628Y-59007333D02*
X116961390Y-58959714D01*
X116961390Y-58959714D02*
X116913771Y-58912095D01*
X116913771Y-58912095D02*
X116866152Y-58816857D01*
X116866152Y-58816857D02*
X116866152Y-58721619D01*
X116866152Y-58483523D02*
X117532819Y-58245428D01*
X116866152Y-58007333D02*
X117532819Y-58245428D01*
X117532819Y-58245428D02*
X117770914Y-58340666D01*
X117770914Y-58340666D02*
X117818533Y-58388285D01*
X117818533Y-58388285D02*
X117866152Y-58483523D01*
X117628057Y-57864476D02*
X117628057Y-57102571D01*
X117437580Y-56293047D02*
X117485200Y-56340666D01*
X117485200Y-56340666D02*
X117532819Y-56483523D01*
X117532819Y-56483523D02*
X117532819Y-56578761D01*
X117532819Y-56578761D02*
X117485200Y-56721618D01*
X117485200Y-56721618D02*
X117389961Y-56816856D01*
X117389961Y-56816856D02*
X117294723Y-56864475D01*
X117294723Y-56864475D02*
X117104247Y-56912094D01*
X117104247Y-56912094D02*
X116961390Y-56912094D01*
X116961390Y-56912094D02*
X116770914Y-56864475D01*
X116770914Y-56864475D02*
X116675676Y-56816856D01*
X116675676Y-56816856D02*
X116580438Y-56721618D01*
X116580438Y-56721618D02*
X116532819Y-56578761D01*
X116532819Y-56578761D02*
X116532819Y-56483523D01*
X116532819Y-56483523D02*
X116580438Y-56340666D01*
X116580438Y-56340666D02*
X116628057Y-56293047D01*
X117485200Y-55483523D02*
X117532819Y-55578761D01*
X117532819Y-55578761D02*
X117532819Y-55769237D01*
X117532819Y-55769237D02*
X117485200Y-55864475D01*
X117485200Y-55864475D02*
X117389961Y-55912094D01*
X117389961Y-55912094D02*
X117009009Y-55912094D01*
X117009009Y-55912094D02*
X116913771Y-55864475D01*
X116913771Y-55864475D02*
X116866152Y-55769237D01*
X116866152Y-55769237D02*
X116866152Y-55578761D01*
X116866152Y-55578761D02*
X116913771Y-55483523D01*
X116913771Y-55483523D02*
X117009009Y-55435904D01*
X117009009Y-55435904D02*
X117104247Y-55435904D01*
X117104247Y-55435904D02*
X117199485Y-55912094D01*
X117532819Y-54864475D02*
X117485200Y-54959713D01*
X117485200Y-54959713D02*
X117389961Y-55007332D01*
X117389961Y-55007332D02*
X116532819Y-55007332D01*
X117532819Y-54340665D02*
X117485200Y-54435903D01*
X117485200Y-54435903D02*
X117389961Y-54483522D01*
X117389961Y-54483522D02*
X116532819Y-54483522D01*
X118509009Y-59459714D02*
X118556628Y-59316857D01*
X118556628Y-59316857D02*
X118604247Y-59269238D01*
X118604247Y-59269238D02*
X118699485Y-59221619D01*
X118699485Y-59221619D02*
X118842342Y-59221619D01*
X118842342Y-59221619D02*
X118937580Y-59269238D01*
X118937580Y-59269238D02*
X118985200Y-59316857D01*
X118985200Y-59316857D02*
X119032819Y-59412095D01*
X119032819Y-59412095D02*
X119032819Y-59793047D01*
X119032819Y-59793047D02*
X118032819Y-59793047D01*
X118032819Y-59793047D02*
X118032819Y-59459714D01*
X118032819Y-59459714D02*
X118080438Y-59364476D01*
X118080438Y-59364476D02*
X118128057Y-59316857D01*
X118128057Y-59316857D02*
X118223295Y-59269238D01*
X118223295Y-59269238D02*
X118318533Y-59269238D01*
X118318533Y-59269238D02*
X118413771Y-59316857D01*
X118413771Y-59316857D02*
X118461390Y-59364476D01*
X118461390Y-59364476D02*
X118509009Y-59459714D01*
X118509009Y-59459714D02*
X118509009Y-59793047D01*
X118032819Y-58935904D02*
X118032819Y-58364476D01*
X119032819Y-58650190D02*
X118032819Y-58650190D01*
X119032819Y-57507333D02*
X119032819Y-58078761D01*
X119032819Y-57793047D02*
X118032819Y-57793047D01*
X118032819Y-57793047D02*
X118175676Y-57888285D01*
X118175676Y-57888285D02*
X118270914Y-57983523D01*
X118270914Y-57983523D02*
X118318533Y-58078761D01*
X147054819Y-113750166D02*
X147054819Y-114321594D01*
X147054819Y-114035880D02*
X146054819Y-114035880D01*
X146054819Y-114035880D02*
X146197676Y-114131118D01*
X146197676Y-114131118D02*
X146292914Y-114226356D01*
X146292914Y-114226356D02*
X146340533Y-114321594D01*
X146054819Y-113131118D02*
X146054819Y-113035880D01*
X146054819Y-113035880D02*
X146102438Y-112940642D01*
X146102438Y-112940642D02*
X146150057Y-112893023D01*
X146150057Y-112893023D02*
X146245295Y-112845404D01*
X146245295Y-112845404D02*
X146435771Y-112797785D01*
X146435771Y-112797785D02*
X146673866Y-112797785D01*
X146673866Y-112797785D02*
X146864342Y-112845404D01*
X146864342Y-112845404D02*
X146959580Y-112893023D01*
X146959580Y-112893023D02*
X147007200Y-112940642D01*
X147007200Y-112940642D02*
X147054819Y-113035880D01*
X147054819Y-113035880D02*
X147054819Y-113131118D01*
X147054819Y-113131118D02*
X147007200Y-113226356D01*
X147007200Y-113226356D02*
X146959580Y-113273975D01*
X146959580Y-113273975D02*
X146864342Y-113321594D01*
X146864342Y-113321594D02*
X146673866Y-113369213D01*
X146673866Y-113369213D02*
X146435771Y-113369213D01*
X146435771Y-113369213D02*
X146245295Y-113321594D01*
X146245295Y-113321594D02*
X146150057Y-113273975D01*
X146150057Y-113273975D02*
X146102438Y-113226356D01*
X146102438Y-113226356D02*
X146054819Y-113131118D01*
X147054819Y-112369213D02*
X146054819Y-112369213D01*
X146673866Y-112273975D02*
X147054819Y-111988261D01*
X146388152Y-111988261D02*
X146769104Y-112369213D01*
X147054819Y-111607308D02*
X147054819Y-111369213D01*
X147054819Y-111369213D02*
X146864342Y-111369213D01*
X146864342Y-111369213D02*
X146816723Y-111464451D01*
X146816723Y-111464451D02*
X146721485Y-111559689D01*
X146721485Y-111559689D02*
X146578628Y-111607308D01*
X146578628Y-111607308D02*
X146340533Y-111607308D01*
X146340533Y-111607308D02*
X146197676Y-111559689D01*
X146197676Y-111559689D02*
X146102438Y-111464451D01*
X146102438Y-111464451D02*
X146054819Y-111321594D01*
X146054819Y-111321594D02*
X146054819Y-111131118D01*
X146054819Y-111131118D02*
X146102438Y-110988261D01*
X146102438Y-110988261D02*
X146197676Y-110893023D01*
X146197676Y-110893023D02*
X146340533Y-110845404D01*
X146340533Y-110845404D02*
X146578628Y-110845404D01*
X146578628Y-110845404D02*
X146721485Y-110893023D01*
X146721485Y-110893023D02*
X146816723Y-110988261D01*
X146816723Y-110988261D02*
X146864342Y-111083499D01*
X146864342Y-111083499D02*
X147054819Y-111083499D01*
X147054819Y-111083499D02*
X147054819Y-110845404D01*
D11*
X145143855Y-112716832D02*
X144762902Y-112983499D01*
X145143855Y-113173975D02*
X144343855Y-113173975D01*
X144343855Y-113173975D02*
X144343855Y-112869213D01*
X144343855Y-112869213D02*
X144381950Y-112793023D01*
X144381950Y-112793023D02*
X144420045Y-112754928D01*
X144420045Y-112754928D02*
X144496236Y-112716832D01*
X144496236Y-112716832D02*
X144610521Y-112716832D01*
X144610521Y-112716832D02*
X144686712Y-112754928D01*
X144686712Y-112754928D02*
X144724807Y-112793023D01*
X144724807Y-112793023D02*
X144762902Y-112869213D01*
X144762902Y-112869213D02*
X144762902Y-113173975D01*
X144686712Y-112259690D02*
X144648617Y-112335880D01*
X144648617Y-112335880D02*
X144610521Y-112373975D01*
X144610521Y-112373975D02*
X144534331Y-112412071D01*
X144534331Y-112412071D02*
X144496236Y-112412071D01*
X144496236Y-112412071D02*
X144420045Y-112373975D01*
X144420045Y-112373975D02*
X144381950Y-112335880D01*
X144381950Y-112335880D02*
X144343855Y-112259690D01*
X144343855Y-112259690D02*
X144343855Y-112107309D01*
X144343855Y-112107309D02*
X144381950Y-112031118D01*
X144381950Y-112031118D02*
X144420045Y-111993023D01*
X144420045Y-111993023D02*
X144496236Y-111954928D01*
X144496236Y-111954928D02*
X144534331Y-111954928D01*
X144534331Y-111954928D02*
X144610521Y-111993023D01*
X144610521Y-111993023D02*
X144648617Y-112031118D01*
X144648617Y-112031118D02*
X144686712Y-112107309D01*
X144686712Y-112107309D02*
X144686712Y-112259690D01*
X144686712Y-112259690D02*
X144724807Y-112335880D01*
X144724807Y-112335880D02*
X144762902Y-112373975D01*
X144762902Y-112373975D02*
X144839093Y-112412071D01*
X144839093Y-112412071D02*
X144991474Y-112412071D01*
X144991474Y-112412071D02*
X145067664Y-112373975D01*
X145067664Y-112373975D02*
X145105760Y-112335880D01*
X145105760Y-112335880D02*
X145143855Y-112259690D01*
X145143855Y-112259690D02*
X145143855Y-112107309D01*
X145143855Y-112107309D02*
X145105760Y-112031118D01*
X145105760Y-112031118D02*
X145067664Y-111993023D01*
X145067664Y-111993023D02*
X144991474Y-111954928D01*
X144991474Y-111954928D02*
X144839093Y-111954928D01*
X144839093Y-111954928D02*
X144762902Y-111993023D01*
X144762902Y-111993023D02*
X144724807Y-112031118D01*
X144724807Y-112031118D02*
X144686712Y-112107309D01*
D10*
X134310571Y-116884819D02*
X133739143Y-116884819D01*
X134024857Y-116884819D02*
X134024857Y-115884819D01*
X134024857Y-115884819D02*
X133929619Y-116027676D01*
X133929619Y-116027676D02*
X133834381Y-116122914D01*
X133834381Y-116122914D02*
X133739143Y-116170533D01*
X134929619Y-115884819D02*
X135024857Y-115884819D01*
X135024857Y-115884819D02*
X135120095Y-115932438D01*
X135120095Y-115932438D02*
X135167714Y-115980057D01*
X135167714Y-115980057D02*
X135215333Y-116075295D01*
X135215333Y-116075295D02*
X135262952Y-116265771D01*
X135262952Y-116265771D02*
X135262952Y-116503866D01*
X135262952Y-116503866D02*
X135215333Y-116694342D01*
X135215333Y-116694342D02*
X135167714Y-116789580D01*
X135167714Y-116789580D02*
X135120095Y-116837200D01*
X135120095Y-116837200D02*
X135024857Y-116884819D01*
X135024857Y-116884819D02*
X134929619Y-116884819D01*
X134929619Y-116884819D02*
X134834381Y-116837200D01*
X134834381Y-116837200D02*
X134786762Y-116789580D01*
X134786762Y-116789580D02*
X134739143Y-116694342D01*
X134739143Y-116694342D02*
X134691524Y-116503866D01*
X134691524Y-116503866D02*
X134691524Y-116265771D01*
X134691524Y-116265771D02*
X134739143Y-116075295D01*
X134739143Y-116075295D02*
X134786762Y-115980057D01*
X134786762Y-115980057D02*
X134834381Y-115932438D01*
X134834381Y-115932438D02*
X134929619Y-115884819D01*
X136120095Y-116218152D02*
X136120095Y-116884819D01*
X135691524Y-116218152D02*
X135691524Y-116741961D01*
X135691524Y-116741961D02*
X135739143Y-116837200D01*
X135739143Y-116837200D02*
X135834381Y-116884819D01*
X135834381Y-116884819D02*
X135977238Y-116884819D01*
X135977238Y-116884819D02*
X136072476Y-116837200D01*
X136072476Y-116837200D02*
X136120095Y-116789580D01*
X136929619Y-116361009D02*
X136596286Y-116361009D01*
X136596286Y-116884819D02*
X136596286Y-115884819D01*
X136596286Y-115884819D02*
X137072476Y-115884819D01*
D12*
X135298666Y-118289530D02*
X135274857Y-118313340D01*
X135274857Y-118313340D02*
X135203428Y-118337149D01*
X135203428Y-118337149D02*
X135155809Y-118337149D01*
X135155809Y-118337149D02*
X135084381Y-118313340D01*
X135084381Y-118313340D02*
X135036762Y-118265720D01*
X135036762Y-118265720D02*
X135012952Y-118218101D01*
X135012952Y-118218101D02*
X134989143Y-118122863D01*
X134989143Y-118122863D02*
X134989143Y-118051435D01*
X134989143Y-118051435D02*
X135012952Y-117956197D01*
X135012952Y-117956197D02*
X135036762Y-117908578D01*
X135036762Y-117908578D02*
X135084381Y-117860959D01*
X135084381Y-117860959D02*
X135155809Y-117837149D01*
X135155809Y-117837149D02*
X135203428Y-117837149D01*
X135203428Y-117837149D02*
X135274857Y-117860959D01*
X135274857Y-117860959D02*
X135298666Y-117884768D01*
X135489143Y-117884768D02*
X135512952Y-117860959D01*
X135512952Y-117860959D02*
X135560571Y-117837149D01*
X135560571Y-117837149D02*
X135679619Y-117837149D01*
X135679619Y-117837149D02*
X135727238Y-117860959D01*
X135727238Y-117860959D02*
X135751047Y-117884768D01*
X135751047Y-117884768D02*
X135774857Y-117932387D01*
X135774857Y-117932387D02*
X135774857Y-117980006D01*
X135774857Y-117980006D02*
X135751047Y-118051435D01*
X135751047Y-118051435D02*
X135465333Y-118337149D01*
X135465333Y-118337149D02*
X135774857Y-118337149D01*
D10*
X109402523Y-119790580D02*
X109354904Y-119838200D01*
X109354904Y-119838200D02*
X109212047Y-119885819D01*
X109212047Y-119885819D02*
X109116809Y-119885819D01*
X109116809Y-119885819D02*
X108973952Y-119838200D01*
X108973952Y-119838200D02*
X108878714Y-119742961D01*
X108878714Y-119742961D02*
X108831095Y-119647723D01*
X108831095Y-119647723D02*
X108783476Y-119457247D01*
X108783476Y-119457247D02*
X108783476Y-119314390D01*
X108783476Y-119314390D02*
X108831095Y-119123914D01*
X108831095Y-119123914D02*
X108878714Y-119028676D01*
X108878714Y-119028676D02*
X108973952Y-118933438D01*
X108973952Y-118933438D02*
X109116809Y-118885819D01*
X109116809Y-118885819D02*
X109212047Y-118885819D01*
X109212047Y-118885819D02*
X109354904Y-118933438D01*
X109354904Y-118933438D02*
X109402523Y-118981057D01*
X109973952Y-119885819D02*
X109878714Y-119838200D01*
X109878714Y-119838200D02*
X109831095Y-119790580D01*
X109831095Y-119790580D02*
X109783476Y-119695342D01*
X109783476Y-119695342D02*
X109783476Y-119409628D01*
X109783476Y-119409628D02*
X109831095Y-119314390D01*
X109831095Y-119314390D02*
X109878714Y-119266771D01*
X109878714Y-119266771D02*
X109973952Y-119219152D01*
X109973952Y-119219152D02*
X110116809Y-119219152D01*
X110116809Y-119219152D02*
X110212047Y-119266771D01*
X110212047Y-119266771D02*
X110259666Y-119314390D01*
X110259666Y-119314390D02*
X110307285Y-119409628D01*
X110307285Y-119409628D02*
X110307285Y-119695342D01*
X110307285Y-119695342D02*
X110259666Y-119790580D01*
X110259666Y-119790580D02*
X110212047Y-119838200D01*
X110212047Y-119838200D02*
X110116809Y-119885819D01*
X110116809Y-119885819D02*
X109973952Y-119885819D01*
X110735857Y-119219152D02*
X110735857Y-119885819D01*
X110735857Y-119314390D02*
X110783476Y-119266771D01*
X110783476Y-119266771D02*
X110878714Y-119219152D01*
X110878714Y-119219152D02*
X111021571Y-119219152D01*
X111021571Y-119219152D02*
X111116809Y-119266771D01*
X111116809Y-119266771D02*
X111164428Y-119362009D01*
X111164428Y-119362009D02*
X111164428Y-119885819D01*
X111640619Y-119219152D02*
X111640619Y-119885819D01*
X111640619Y-119314390D02*
X111688238Y-119266771D01*
X111688238Y-119266771D02*
X111783476Y-119219152D01*
X111783476Y-119219152D02*
X111926333Y-119219152D01*
X111926333Y-119219152D02*
X112021571Y-119266771D01*
X112021571Y-119266771D02*
X112069190Y-119362009D01*
X112069190Y-119362009D02*
X112069190Y-119885819D01*
X112307286Y-119981057D02*
X113069190Y-119981057D01*
X113878714Y-119790580D02*
X113831095Y-119838200D01*
X113831095Y-119838200D02*
X113688238Y-119885819D01*
X113688238Y-119885819D02*
X113593000Y-119885819D01*
X113593000Y-119885819D02*
X113450143Y-119838200D01*
X113450143Y-119838200D02*
X113354905Y-119742961D01*
X113354905Y-119742961D02*
X113307286Y-119647723D01*
X113307286Y-119647723D02*
X113259667Y-119457247D01*
X113259667Y-119457247D02*
X113259667Y-119314390D01*
X113259667Y-119314390D02*
X113307286Y-119123914D01*
X113307286Y-119123914D02*
X113354905Y-119028676D01*
X113354905Y-119028676D02*
X113450143Y-118933438D01*
X113450143Y-118933438D02*
X113593000Y-118885819D01*
X113593000Y-118885819D02*
X113688238Y-118885819D01*
X113688238Y-118885819D02*
X113831095Y-118933438D01*
X113831095Y-118933438D02*
X113878714Y-118981057D01*
X114450143Y-119885819D02*
X114354905Y-119838200D01*
X114354905Y-119838200D02*
X114307286Y-119790580D01*
X114307286Y-119790580D02*
X114259667Y-119695342D01*
X114259667Y-119695342D02*
X114259667Y-119409628D01*
X114259667Y-119409628D02*
X114307286Y-119314390D01*
X114307286Y-119314390D02*
X114354905Y-119266771D01*
X114354905Y-119266771D02*
X114450143Y-119219152D01*
X114450143Y-119219152D02*
X114593000Y-119219152D01*
X114593000Y-119219152D02*
X114688238Y-119266771D01*
X114688238Y-119266771D02*
X114735857Y-119314390D01*
X114735857Y-119314390D02*
X114783476Y-119409628D01*
X114783476Y-119409628D02*
X114783476Y-119695342D01*
X114783476Y-119695342D02*
X114735857Y-119790580D01*
X114735857Y-119790580D02*
X114688238Y-119838200D01*
X114688238Y-119838200D02*
X114593000Y-119885819D01*
X114593000Y-119885819D02*
X114450143Y-119885819D01*
X115640619Y-119885819D02*
X115640619Y-119362009D01*
X115640619Y-119362009D02*
X115593000Y-119266771D01*
X115593000Y-119266771D02*
X115497762Y-119219152D01*
X115497762Y-119219152D02*
X115307286Y-119219152D01*
X115307286Y-119219152D02*
X115212048Y-119266771D01*
X115640619Y-119838200D02*
X115545381Y-119885819D01*
X115545381Y-119885819D02*
X115307286Y-119885819D01*
X115307286Y-119885819D02*
X115212048Y-119838200D01*
X115212048Y-119838200D02*
X115164429Y-119742961D01*
X115164429Y-119742961D02*
X115164429Y-119647723D01*
X115164429Y-119647723D02*
X115212048Y-119552485D01*
X115212048Y-119552485D02*
X115307286Y-119504866D01*
X115307286Y-119504866D02*
X115545381Y-119504866D01*
X115545381Y-119504866D02*
X115640619Y-119457247D01*
X116021572Y-119885819D02*
X116545381Y-119219152D01*
X116021572Y-119219152D02*
X116545381Y-119885819D01*
X116926334Y-119885819D02*
X116926334Y-119219152D01*
X116926334Y-118885819D02*
X116878715Y-118933438D01*
X116878715Y-118933438D02*
X116926334Y-118981057D01*
X116926334Y-118981057D02*
X116973953Y-118933438D01*
X116973953Y-118933438D02*
X116926334Y-118885819D01*
X116926334Y-118885819D02*
X116926334Y-118981057D01*
X117831095Y-119885819D02*
X117831095Y-119362009D01*
X117831095Y-119362009D02*
X117783476Y-119266771D01*
X117783476Y-119266771D02*
X117688238Y-119219152D01*
X117688238Y-119219152D02*
X117497762Y-119219152D01*
X117497762Y-119219152D02*
X117402524Y-119266771D01*
X117831095Y-119838200D02*
X117735857Y-119885819D01*
X117735857Y-119885819D02*
X117497762Y-119885819D01*
X117497762Y-119885819D02*
X117402524Y-119838200D01*
X117402524Y-119838200D02*
X117354905Y-119742961D01*
X117354905Y-119742961D02*
X117354905Y-119647723D01*
X117354905Y-119647723D02*
X117402524Y-119552485D01*
X117402524Y-119552485D02*
X117497762Y-119504866D01*
X117497762Y-119504866D02*
X117735857Y-119504866D01*
X117735857Y-119504866D02*
X117831095Y-119457247D01*
X118450143Y-119885819D02*
X118354905Y-119838200D01*
X118354905Y-119838200D02*
X118307286Y-119742961D01*
X118307286Y-119742961D02*
X118307286Y-118885819D01*
X113259666Y-128685819D02*
X113259666Y-129400104D01*
X113259666Y-129400104D02*
X113212047Y-129542961D01*
X113212047Y-129542961D02*
X113116809Y-129638200D01*
X113116809Y-129638200D02*
X112973952Y-129685819D01*
X112973952Y-129685819D02*
X112878714Y-129685819D01*
X114259666Y-129685819D02*
X113688238Y-129685819D01*
X113973952Y-129685819D02*
X113973952Y-128685819D01*
X113973952Y-128685819D02*
X113878714Y-128828676D01*
X113878714Y-128828676D02*
X113783476Y-128923914D01*
X113783476Y-128923914D02*
X113688238Y-128971533D01*
X148661523Y-120426819D02*
X148090095Y-120426819D01*
X148375809Y-120426819D02*
X148375809Y-119426819D01*
X148375809Y-119426819D02*
X148280571Y-119569676D01*
X148280571Y-119569676D02*
X148185333Y-119664914D01*
X148185333Y-119664914D02*
X148090095Y-119712533D01*
X149090095Y-120426819D02*
X149090095Y-119426819D01*
X149185333Y-120045866D02*
X149471047Y-120426819D01*
X149471047Y-119760152D02*
X149090095Y-120141104D01*
X149852000Y-120426819D02*
X150090095Y-120426819D01*
X150090095Y-120426819D02*
X150090095Y-120236342D01*
X150090095Y-120236342D02*
X149994857Y-120188723D01*
X149994857Y-120188723D02*
X149899619Y-120093485D01*
X149899619Y-120093485D02*
X149852000Y-119950628D01*
X149852000Y-119950628D02*
X149852000Y-119712533D01*
X149852000Y-119712533D02*
X149899619Y-119569676D01*
X149899619Y-119569676D02*
X149994857Y-119474438D01*
X149994857Y-119474438D02*
X150137714Y-119426819D01*
X150137714Y-119426819D02*
X150328190Y-119426819D01*
X150328190Y-119426819D02*
X150471047Y-119474438D01*
X150471047Y-119474438D02*
X150566285Y-119569676D01*
X150566285Y-119569676D02*
X150613904Y-119712533D01*
X150613904Y-119712533D02*
X150613904Y-119950628D01*
X150613904Y-119950628D02*
X150566285Y-120093485D01*
X150566285Y-120093485D02*
X150471047Y-120188723D01*
X150471047Y-120188723D02*
X150375809Y-120236342D01*
X150375809Y-120236342D02*
X150375809Y-120426819D01*
X150375809Y-120426819D02*
X150613904Y-120426819D01*
X148709142Y-118056819D02*
X148375809Y-117580628D01*
X148137714Y-118056819D02*
X148137714Y-117056819D01*
X148137714Y-117056819D02*
X148518666Y-117056819D01*
X148518666Y-117056819D02*
X148613904Y-117104438D01*
X148613904Y-117104438D02*
X148661523Y-117152057D01*
X148661523Y-117152057D02*
X148709142Y-117247295D01*
X148709142Y-117247295D02*
X148709142Y-117390152D01*
X148709142Y-117390152D02*
X148661523Y-117485390D01*
X148661523Y-117485390D02*
X148613904Y-117533009D01*
X148613904Y-117533009D02*
X148518666Y-117580628D01*
X148518666Y-117580628D02*
X148137714Y-117580628D01*
X149661523Y-118056819D02*
X149090095Y-118056819D01*
X149375809Y-118056819D02*
X149375809Y-117056819D01*
X149375809Y-117056819D02*
X149280571Y-117199676D01*
X149280571Y-117199676D02*
X149185333Y-117294914D01*
X149185333Y-117294914D02*
X149090095Y-117342533D01*
X150042476Y-117152057D02*
X150090095Y-117104438D01*
X150090095Y-117104438D02*
X150185333Y-117056819D01*
X150185333Y-117056819D02*
X150423428Y-117056819D01*
X150423428Y-117056819D02*
X150518666Y-117104438D01*
X150518666Y-117104438D02*
X150566285Y-117152057D01*
X150566285Y-117152057D02*
X150613904Y-117247295D01*
X150613904Y-117247295D02*
X150613904Y-117342533D01*
X150613904Y-117342533D02*
X150566285Y-117485390D01*
X150566285Y-117485390D02*
X149994857Y-118056819D01*
X149994857Y-118056819D02*
X150613904Y-118056819D01*
X175302976Y-134367319D02*
X175874404Y-134367319D01*
X175588690Y-135367319D02*
X175588690Y-134367319D01*
X176207738Y-135367319D02*
X176207738Y-134367319D01*
X176207738Y-134367319D02*
X176588690Y-134367319D01*
X176588690Y-134367319D02*
X176683928Y-134414938D01*
X176683928Y-134414938D02*
X176731547Y-134462557D01*
X176731547Y-134462557D02*
X176779166Y-134557795D01*
X176779166Y-134557795D02*
X176779166Y-134700652D01*
X176779166Y-134700652D02*
X176731547Y-134795890D01*
X176731547Y-134795890D02*
X176683928Y-134843509D01*
X176683928Y-134843509D02*
X176588690Y-134891128D01*
X176588690Y-134891128D02*
X176207738Y-134891128D01*
X177636309Y-134700652D02*
X177636309Y-135367319D01*
X177398214Y-134319700D02*
X177160119Y-135033985D01*
X177160119Y-135033985D02*
X177779166Y-135033985D01*
X178350595Y-134367319D02*
X178445833Y-134367319D01*
X178445833Y-134367319D02*
X178541071Y-134414938D01*
X178541071Y-134414938D02*
X178588690Y-134462557D01*
X178588690Y-134462557D02*
X178636309Y-134557795D01*
X178636309Y-134557795D02*
X178683928Y-134748271D01*
X178683928Y-134748271D02*
X178683928Y-134986366D01*
X178683928Y-134986366D02*
X178636309Y-135176842D01*
X178636309Y-135176842D02*
X178588690Y-135272080D01*
X178588690Y-135272080D02*
X178541071Y-135319700D01*
X178541071Y-135319700D02*
X178445833Y-135367319D01*
X178445833Y-135367319D02*
X178350595Y-135367319D01*
X178350595Y-135367319D02*
X178255357Y-135319700D01*
X178255357Y-135319700D02*
X178207738Y-135272080D01*
X178207738Y-135272080D02*
X178160119Y-135176842D01*
X178160119Y-135176842D02*
X178112500Y-134986366D01*
X178112500Y-134986366D02*
X178112500Y-134748271D01*
X178112500Y-134748271D02*
X178160119Y-134557795D01*
X178160119Y-134557795D02*
X178207738Y-134462557D01*
X178207738Y-134462557D02*
X178255357Y-134414938D01*
X178255357Y-134414938D02*
X178350595Y-134367319D01*
X179588690Y-134367319D02*
X179112500Y-134367319D01*
X179112500Y-134367319D02*
X179064881Y-134843509D01*
X179064881Y-134843509D02*
X179112500Y-134795890D01*
X179112500Y-134795890D02*
X179207738Y-134748271D01*
X179207738Y-134748271D02*
X179445833Y-134748271D01*
X179445833Y-134748271D02*
X179541071Y-134795890D01*
X179541071Y-134795890D02*
X179588690Y-134843509D01*
X179588690Y-134843509D02*
X179636309Y-134938747D01*
X179636309Y-134938747D02*
X179636309Y-135176842D01*
X179636309Y-135176842D02*
X179588690Y-135272080D01*
X179588690Y-135272080D02*
X179541071Y-135319700D01*
X179541071Y-135319700D02*
X179445833Y-135367319D01*
X179445833Y-135367319D02*
X179207738Y-135367319D01*
X179207738Y-135367319D02*
X179112500Y-135319700D01*
X179112500Y-135319700D02*
X179064881Y-135272080D01*
X180493452Y-134367319D02*
X180302976Y-134367319D01*
X180302976Y-134367319D02*
X180207738Y-134414938D01*
X180207738Y-134414938D02*
X180160119Y-134462557D01*
X180160119Y-134462557D02*
X180064881Y-134605414D01*
X180064881Y-134605414D02*
X180017262Y-134795890D01*
X180017262Y-134795890D02*
X180017262Y-135176842D01*
X180017262Y-135176842D02*
X180064881Y-135272080D01*
X180064881Y-135272080D02*
X180112500Y-135319700D01*
X180112500Y-135319700D02*
X180207738Y-135367319D01*
X180207738Y-135367319D02*
X180398214Y-135367319D01*
X180398214Y-135367319D02*
X180493452Y-135319700D01*
X180493452Y-135319700D02*
X180541071Y-135272080D01*
X180541071Y-135272080D02*
X180588690Y-135176842D01*
X180588690Y-135176842D02*
X180588690Y-134938747D01*
X180588690Y-134938747D02*
X180541071Y-134843509D01*
X180541071Y-134843509D02*
X180493452Y-134795890D01*
X180493452Y-134795890D02*
X180398214Y-134748271D01*
X180398214Y-134748271D02*
X180207738Y-134748271D01*
X180207738Y-134748271D02*
X180112500Y-134795890D01*
X180112500Y-134795890D02*
X180064881Y-134843509D01*
X180064881Y-134843509D02*
X180017262Y-134938747D01*
X181017262Y-135367319D02*
X181017262Y-134367319D01*
X181017262Y-134367319D02*
X181350595Y-135081604D01*
X181350595Y-135081604D02*
X181683928Y-134367319D01*
X181683928Y-134367319D02*
X181683928Y-135367319D01*
X182302976Y-135367319D02*
X182207738Y-135319700D01*
X182207738Y-135319700D02*
X182160119Y-135272080D01*
X182160119Y-135272080D02*
X182112500Y-135176842D01*
X182112500Y-135176842D02*
X182112500Y-134891128D01*
X182112500Y-134891128D02*
X182160119Y-134795890D01*
X182160119Y-134795890D02*
X182207738Y-134748271D01*
X182207738Y-134748271D02*
X182302976Y-134700652D01*
X182302976Y-134700652D02*
X182445833Y-134700652D01*
X182445833Y-134700652D02*
X182541071Y-134748271D01*
X182541071Y-134748271D02*
X182588690Y-134795890D01*
X182588690Y-134795890D02*
X182636309Y-134891128D01*
X182636309Y-134891128D02*
X182636309Y-135176842D01*
X182636309Y-135176842D02*
X182588690Y-135272080D01*
X182588690Y-135272080D02*
X182541071Y-135319700D01*
X182541071Y-135319700D02*
X182445833Y-135367319D01*
X182445833Y-135367319D02*
X182302976Y-135367319D01*
X183493452Y-135367319D02*
X183493452Y-134367319D01*
X183493452Y-135319700D02*
X183398214Y-135367319D01*
X183398214Y-135367319D02*
X183207738Y-135367319D01*
X183207738Y-135367319D02*
X183112500Y-135319700D01*
X183112500Y-135319700D02*
X183064881Y-135272080D01*
X183064881Y-135272080D02*
X183017262Y-135176842D01*
X183017262Y-135176842D02*
X183017262Y-134891128D01*
X183017262Y-134891128D02*
X183064881Y-134795890D01*
X183064881Y-134795890D02*
X183112500Y-134748271D01*
X183112500Y-134748271D02*
X183207738Y-134700652D01*
X183207738Y-134700652D02*
X183398214Y-134700652D01*
X183398214Y-134700652D02*
X183493452Y-134748271D01*
X184398214Y-134700652D02*
X184398214Y-135367319D01*
X183969643Y-134700652D02*
X183969643Y-135224461D01*
X183969643Y-135224461D02*
X184017262Y-135319700D01*
X184017262Y-135319700D02*
X184112500Y-135367319D01*
X184112500Y-135367319D02*
X184255357Y-135367319D01*
X184255357Y-135367319D02*
X184350595Y-135319700D01*
X184350595Y-135319700D02*
X184398214Y-135272080D01*
X185017262Y-135367319D02*
X184922024Y-135319700D01*
X184922024Y-135319700D02*
X184874405Y-135224461D01*
X184874405Y-135224461D02*
X184874405Y-134367319D01*
X185779167Y-135319700D02*
X185683929Y-135367319D01*
X185683929Y-135367319D02*
X185493453Y-135367319D01*
X185493453Y-135367319D02*
X185398215Y-135319700D01*
X185398215Y-135319700D02*
X185350596Y-135224461D01*
X185350596Y-135224461D02*
X185350596Y-134843509D01*
X185350596Y-134843509D02*
X185398215Y-134748271D01*
X185398215Y-134748271D02*
X185493453Y-134700652D01*
X185493453Y-134700652D02*
X185683929Y-134700652D01*
X185683929Y-134700652D02*
X185779167Y-134748271D01*
X185779167Y-134748271D02*
X185826786Y-134843509D01*
X185826786Y-134843509D02*
X185826786Y-134938747D01*
X185826786Y-134938747D02*
X185350596Y-135033985D01*
X159712819Y-115633047D02*
X158712819Y-115633047D01*
X159189009Y-115633047D02*
X159189009Y-115061619D01*
X159712819Y-115061619D02*
X158712819Y-115061619D01*
X158712819Y-114728285D02*
X158712819Y-114156857D01*
X159712819Y-114442571D02*
X158712819Y-114442571D01*
X158712819Y-113918761D02*
X158712819Y-113252095D01*
X158712819Y-113252095D02*
X159712819Y-113680666D01*
X158712819Y-112966380D02*
X158712819Y-112347333D01*
X158712819Y-112347333D02*
X159093771Y-112680666D01*
X159093771Y-112680666D02*
X159093771Y-112537809D01*
X159093771Y-112537809D02*
X159141390Y-112442571D01*
X159141390Y-112442571D02*
X159189009Y-112394952D01*
X159189009Y-112394952D02*
X159284247Y-112347333D01*
X159284247Y-112347333D02*
X159522342Y-112347333D01*
X159522342Y-112347333D02*
X159617580Y-112394952D01*
X159617580Y-112394952D02*
X159665200Y-112442571D01*
X159665200Y-112442571D02*
X159712819Y-112537809D01*
X159712819Y-112537809D02*
X159712819Y-112823523D01*
X159712819Y-112823523D02*
X159665200Y-112918761D01*
X159665200Y-112918761D02*
X159617580Y-112966380D01*
X158712819Y-112013999D02*
X158712819Y-111394952D01*
X158712819Y-111394952D02*
X159093771Y-111728285D01*
X159093771Y-111728285D02*
X159093771Y-111585428D01*
X159093771Y-111585428D02*
X159141390Y-111490190D01*
X159141390Y-111490190D02*
X159189009Y-111442571D01*
X159189009Y-111442571D02*
X159284247Y-111394952D01*
X159284247Y-111394952D02*
X159522342Y-111394952D01*
X159522342Y-111394952D02*
X159617580Y-111442571D01*
X159617580Y-111442571D02*
X159665200Y-111490190D01*
X159665200Y-111490190D02*
X159712819Y-111585428D01*
X159712819Y-111585428D02*
X159712819Y-111871142D01*
X159712819Y-111871142D02*
X159665200Y-111966380D01*
X159665200Y-111966380D02*
X159617580Y-112013999D01*
X158712819Y-111061618D02*
X158712819Y-110442571D01*
X158712819Y-110442571D02*
X159093771Y-110775904D01*
X159093771Y-110775904D02*
X159093771Y-110633047D01*
X159093771Y-110633047D02*
X159141390Y-110537809D01*
X159141390Y-110537809D02*
X159189009Y-110490190D01*
X159189009Y-110490190D02*
X159284247Y-110442571D01*
X159284247Y-110442571D02*
X159522342Y-110442571D01*
X159522342Y-110442571D02*
X159617580Y-110490190D01*
X159617580Y-110490190D02*
X159665200Y-110537809D01*
X159665200Y-110537809D02*
X159712819Y-110633047D01*
X159712819Y-110633047D02*
X159712819Y-110918761D01*
X159712819Y-110918761D02*
X159665200Y-111013999D01*
X159665200Y-111013999D02*
X159617580Y-111061618D01*
X159331866Y-110013999D02*
X159331866Y-109252095D01*
X159427104Y-108823523D02*
X159427104Y-108347333D01*
X159712819Y-108918761D02*
X158712819Y-108585428D01*
X158712819Y-108585428D02*
X159712819Y-108252095D01*
X162306095Y-112684819D02*
X162306095Y-113494342D01*
X162306095Y-113494342D02*
X162353714Y-113589580D01*
X162353714Y-113589580D02*
X162401333Y-113637200D01*
X162401333Y-113637200D02*
X162496571Y-113684819D01*
X162496571Y-113684819D02*
X162687047Y-113684819D01*
X162687047Y-113684819D02*
X162782285Y-113637200D01*
X162782285Y-113637200D02*
X162829904Y-113589580D01*
X162829904Y-113589580D02*
X162877523Y-113494342D01*
X162877523Y-113494342D02*
X162877523Y-112684819D01*
X163782285Y-112684819D02*
X163591809Y-112684819D01*
X163591809Y-112684819D02*
X163496571Y-112732438D01*
X163496571Y-112732438D02*
X163448952Y-112780057D01*
X163448952Y-112780057D02*
X163353714Y-112922914D01*
X163353714Y-112922914D02*
X163306095Y-113113390D01*
X163306095Y-113113390D02*
X163306095Y-113494342D01*
X163306095Y-113494342D02*
X163353714Y-113589580D01*
X163353714Y-113589580D02*
X163401333Y-113637200D01*
X163401333Y-113637200D02*
X163496571Y-113684819D01*
X163496571Y-113684819D02*
X163687047Y-113684819D01*
X163687047Y-113684819D02*
X163782285Y-113637200D01*
X163782285Y-113637200D02*
X163829904Y-113589580D01*
X163829904Y-113589580D02*
X163877523Y-113494342D01*
X163877523Y-113494342D02*
X163877523Y-113256247D01*
X163877523Y-113256247D02*
X163829904Y-113161009D01*
X163829904Y-113161009D02*
X163782285Y-113113390D01*
X163782285Y-113113390D02*
X163687047Y-113065771D01*
X163687047Y-113065771D02*
X163496571Y-113065771D01*
X163496571Y-113065771D02*
X163401333Y-113113390D01*
X163401333Y-113113390D02*
X163353714Y-113161009D01*
X163353714Y-113161009D02*
X163306095Y-113256247D01*
X171907580Y-59661239D02*
X171955200Y-59708858D01*
X171955200Y-59708858D02*
X172002819Y-59851715D01*
X172002819Y-59851715D02*
X172002819Y-59946953D01*
X172002819Y-59946953D02*
X171955200Y-60089810D01*
X171955200Y-60089810D02*
X171859961Y-60185048D01*
X171859961Y-60185048D02*
X171764723Y-60232667D01*
X171764723Y-60232667D02*
X171574247Y-60280286D01*
X171574247Y-60280286D02*
X171431390Y-60280286D01*
X171431390Y-60280286D02*
X171240914Y-60232667D01*
X171240914Y-60232667D02*
X171145676Y-60185048D01*
X171145676Y-60185048D02*
X171050438Y-60089810D01*
X171050438Y-60089810D02*
X171002819Y-59946953D01*
X171002819Y-59946953D02*
X171002819Y-59851715D01*
X171002819Y-59851715D02*
X171050438Y-59708858D01*
X171050438Y-59708858D02*
X171098057Y-59661239D01*
X172002819Y-59089810D02*
X171955200Y-59185048D01*
X171955200Y-59185048D02*
X171907580Y-59232667D01*
X171907580Y-59232667D02*
X171812342Y-59280286D01*
X171812342Y-59280286D02*
X171526628Y-59280286D01*
X171526628Y-59280286D02*
X171431390Y-59232667D01*
X171431390Y-59232667D02*
X171383771Y-59185048D01*
X171383771Y-59185048D02*
X171336152Y-59089810D01*
X171336152Y-59089810D02*
X171336152Y-58946953D01*
X171336152Y-58946953D02*
X171383771Y-58851715D01*
X171383771Y-58851715D02*
X171431390Y-58804096D01*
X171431390Y-58804096D02*
X171526628Y-58756477D01*
X171526628Y-58756477D02*
X171812342Y-58756477D01*
X171812342Y-58756477D02*
X171907580Y-58804096D01*
X171907580Y-58804096D02*
X171955200Y-58851715D01*
X171955200Y-58851715D02*
X172002819Y-58946953D01*
X172002819Y-58946953D02*
X172002819Y-59089810D01*
X171336152Y-58327905D02*
X172002819Y-58327905D01*
X171431390Y-58327905D02*
X171383771Y-58280286D01*
X171383771Y-58280286D02*
X171336152Y-58185048D01*
X171336152Y-58185048D02*
X171336152Y-58042191D01*
X171336152Y-58042191D02*
X171383771Y-57946953D01*
X171383771Y-57946953D02*
X171479009Y-57899334D01*
X171479009Y-57899334D02*
X172002819Y-57899334D01*
X171336152Y-57423143D02*
X172002819Y-57423143D01*
X171431390Y-57423143D02*
X171383771Y-57375524D01*
X171383771Y-57375524D02*
X171336152Y-57280286D01*
X171336152Y-57280286D02*
X171336152Y-57137429D01*
X171336152Y-57137429D02*
X171383771Y-57042191D01*
X171383771Y-57042191D02*
X171479009Y-56994572D01*
X171479009Y-56994572D02*
X172002819Y-56994572D01*
X172098057Y-56756477D02*
X172098057Y-55994572D01*
X171002819Y-55566000D02*
X171002819Y-55470762D01*
X171002819Y-55470762D02*
X171050438Y-55375524D01*
X171050438Y-55375524D02*
X171098057Y-55327905D01*
X171098057Y-55327905D02*
X171193295Y-55280286D01*
X171193295Y-55280286D02*
X171383771Y-55232667D01*
X171383771Y-55232667D02*
X171621866Y-55232667D01*
X171621866Y-55232667D02*
X171812342Y-55280286D01*
X171812342Y-55280286D02*
X171907580Y-55327905D01*
X171907580Y-55327905D02*
X171955200Y-55375524D01*
X171955200Y-55375524D02*
X172002819Y-55470762D01*
X172002819Y-55470762D02*
X172002819Y-55566000D01*
X172002819Y-55566000D02*
X171955200Y-55661238D01*
X171955200Y-55661238D02*
X171907580Y-55708857D01*
X171907580Y-55708857D02*
X171812342Y-55756476D01*
X171812342Y-55756476D02*
X171621866Y-55804095D01*
X171621866Y-55804095D02*
X171383771Y-55804095D01*
X171383771Y-55804095D02*
X171193295Y-55756476D01*
X171193295Y-55756476D02*
X171098057Y-55708857D01*
X171098057Y-55708857D02*
X171050438Y-55661238D01*
X171050438Y-55661238D02*
X171002819Y-55566000D01*
X172002819Y-54280286D02*
X172002819Y-54851714D01*
X172002819Y-54566000D02*
X171002819Y-54566000D01*
X171002819Y-54566000D02*
X171145676Y-54661238D01*
X171145676Y-54661238D02*
X171240914Y-54756476D01*
X171240914Y-54756476D02*
X171288533Y-54851714D01*
X172002819Y-53946952D02*
X171336152Y-53423143D01*
X171336152Y-53946952D02*
X172002819Y-53423143D01*
X171002819Y-52851714D02*
X171002819Y-52756476D01*
X171002819Y-52756476D02*
X171050438Y-52661238D01*
X171050438Y-52661238D02*
X171098057Y-52613619D01*
X171098057Y-52613619D02*
X171193295Y-52566000D01*
X171193295Y-52566000D02*
X171383771Y-52518381D01*
X171383771Y-52518381D02*
X171621866Y-52518381D01*
X171621866Y-52518381D02*
X171812342Y-52566000D01*
X171812342Y-52566000D02*
X171907580Y-52613619D01*
X171907580Y-52613619D02*
X171955200Y-52661238D01*
X171955200Y-52661238D02*
X172002819Y-52756476D01*
X172002819Y-52756476D02*
X172002819Y-52851714D01*
X172002819Y-52851714D02*
X171955200Y-52946952D01*
X171955200Y-52946952D02*
X171907580Y-52994571D01*
X171907580Y-52994571D02*
X171812342Y-53042190D01*
X171812342Y-53042190D02*
X171621866Y-53089809D01*
X171621866Y-53089809D02*
X171383771Y-53089809D01*
X171383771Y-53089809D02*
X171193295Y-53042190D01*
X171193295Y-53042190D02*
X171098057Y-52994571D01*
X171098057Y-52994571D02*
X171050438Y-52946952D01*
X171050438Y-52946952D02*
X171002819Y-52851714D01*
X171098057Y-52137428D02*
X171050438Y-52089809D01*
X171050438Y-52089809D02*
X171002819Y-51994571D01*
X171002819Y-51994571D02*
X171002819Y-51756476D01*
X171002819Y-51756476D02*
X171050438Y-51661238D01*
X171050438Y-51661238D02*
X171098057Y-51613619D01*
X171098057Y-51613619D02*
X171193295Y-51566000D01*
X171193295Y-51566000D02*
X171288533Y-51566000D01*
X171288533Y-51566000D02*
X171431390Y-51613619D01*
X171431390Y-51613619D02*
X172002819Y-52185047D01*
X172002819Y-52185047D02*
X172002819Y-51566000D01*
X172098057Y-51375524D02*
X172098057Y-50613619D01*
X171955200Y-50423142D02*
X172002819Y-50280285D01*
X172002819Y-50280285D02*
X172002819Y-50042190D01*
X172002819Y-50042190D02*
X171955200Y-49946952D01*
X171955200Y-49946952D02*
X171907580Y-49899333D01*
X171907580Y-49899333D02*
X171812342Y-49851714D01*
X171812342Y-49851714D02*
X171717104Y-49851714D01*
X171717104Y-49851714D02*
X171621866Y-49899333D01*
X171621866Y-49899333D02*
X171574247Y-49946952D01*
X171574247Y-49946952D02*
X171526628Y-50042190D01*
X171526628Y-50042190D02*
X171479009Y-50232666D01*
X171479009Y-50232666D02*
X171431390Y-50327904D01*
X171431390Y-50327904D02*
X171383771Y-50375523D01*
X171383771Y-50375523D02*
X171288533Y-50423142D01*
X171288533Y-50423142D02*
X171193295Y-50423142D01*
X171193295Y-50423142D02*
X171098057Y-50375523D01*
X171098057Y-50375523D02*
X171050438Y-50327904D01*
X171050438Y-50327904D02*
X171002819Y-50232666D01*
X171002819Y-50232666D02*
X171002819Y-49994571D01*
X171002819Y-49994571D02*
X171050438Y-49851714D01*
X172002819Y-49280285D02*
X171955200Y-49375523D01*
X171955200Y-49375523D02*
X171907580Y-49423142D01*
X171907580Y-49423142D02*
X171812342Y-49470761D01*
X171812342Y-49470761D02*
X171526628Y-49470761D01*
X171526628Y-49470761D02*
X171431390Y-49423142D01*
X171431390Y-49423142D02*
X171383771Y-49375523D01*
X171383771Y-49375523D02*
X171336152Y-49280285D01*
X171336152Y-49280285D02*
X171336152Y-49137428D01*
X171336152Y-49137428D02*
X171383771Y-49042190D01*
X171383771Y-49042190D02*
X171431390Y-48994571D01*
X171431390Y-48994571D02*
X171526628Y-48946952D01*
X171526628Y-48946952D02*
X171812342Y-48946952D01*
X171812342Y-48946952D02*
X171907580Y-48994571D01*
X171907580Y-48994571D02*
X171955200Y-49042190D01*
X171955200Y-49042190D02*
X172002819Y-49137428D01*
X172002819Y-49137428D02*
X172002819Y-49280285D01*
X171955200Y-48089809D02*
X172002819Y-48185047D01*
X172002819Y-48185047D02*
X172002819Y-48375523D01*
X172002819Y-48375523D02*
X171955200Y-48470761D01*
X171955200Y-48470761D02*
X171907580Y-48518380D01*
X171907580Y-48518380D02*
X171812342Y-48565999D01*
X171812342Y-48565999D02*
X171526628Y-48565999D01*
X171526628Y-48565999D02*
X171431390Y-48518380D01*
X171431390Y-48518380D02*
X171383771Y-48470761D01*
X171383771Y-48470761D02*
X171336152Y-48375523D01*
X171336152Y-48375523D02*
X171336152Y-48185047D01*
X171336152Y-48185047D02*
X171383771Y-48089809D01*
X172002819Y-47661237D02*
X171002819Y-47661237D01*
X171621866Y-47565999D02*
X172002819Y-47280285D01*
X171336152Y-47280285D02*
X171717104Y-47661237D01*
X171955200Y-46470761D02*
X172002819Y-46565999D01*
X172002819Y-46565999D02*
X172002819Y-46756475D01*
X172002819Y-46756475D02*
X171955200Y-46851713D01*
X171955200Y-46851713D02*
X171859961Y-46899332D01*
X171859961Y-46899332D02*
X171479009Y-46899332D01*
X171479009Y-46899332D02*
X171383771Y-46851713D01*
X171383771Y-46851713D02*
X171336152Y-46756475D01*
X171336152Y-46756475D02*
X171336152Y-46565999D01*
X171336152Y-46565999D02*
X171383771Y-46470761D01*
X171383771Y-46470761D02*
X171479009Y-46423142D01*
X171479009Y-46423142D02*
X171574247Y-46423142D01*
X171574247Y-46423142D02*
X171669485Y-46899332D01*
X171336152Y-46137427D02*
X171336152Y-45756475D01*
X171002819Y-45994570D02*
X171859961Y-45994570D01*
X171859961Y-45994570D02*
X171955200Y-45946951D01*
X171955200Y-45946951D02*
X172002819Y-45851713D01*
X172002819Y-45851713D02*
X172002819Y-45756475D01*
X169102819Y-53399333D02*
X169817104Y-53399333D01*
X169817104Y-53399333D02*
X169959961Y-53446952D01*
X169959961Y-53446952D02*
X170055200Y-53542190D01*
X170055200Y-53542190D02*
X170102819Y-53685047D01*
X170102819Y-53685047D02*
X170102819Y-53780285D01*
X169102819Y-52446952D02*
X169102819Y-52923142D01*
X169102819Y-52923142D02*
X169579009Y-52970761D01*
X169579009Y-52970761D02*
X169531390Y-52923142D01*
X169531390Y-52923142D02*
X169483771Y-52827904D01*
X169483771Y-52827904D02*
X169483771Y-52589809D01*
X169483771Y-52589809D02*
X169531390Y-52494571D01*
X169531390Y-52494571D02*
X169579009Y-52446952D01*
X169579009Y-52446952D02*
X169674247Y-52399333D01*
X169674247Y-52399333D02*
X169912342Y-52399333D01*
X169912342Y-52399333D02*
X170007580Y-52446952D01*
X170007580Y-52446952D02*
X170055200Y-52494571D01*
X170055200Y-52494571D02*
X170102819Y-52589809D01*
X170102819Y-52589809D02*
X170102819Y-52827904D01*
X170102819Y-52827904D02*
X170055200Y-52923142D01*
X170055200Y-52923142D02*
X170007580Y-52970761D01*
X129310000Y-123150057D02*
X129357619Y-123102438D01*
X129357619Y-123102438D02*
X129452857Y-123054819D01*
X129452857Y-123054819D02*
X129690952Y-123054819D01*
X129690952Y-123054819D02*
X129786190Y-123102438D01*
X129786190Y-123102438D02*
X129833809Y-123150057D01*
X129833809Y-123150057D02*
X129881428Y-123245295D01*
X129881428Y-123245295D02*
X129881428Y-123340533D01*
X129881428Y-123340533D02*
X129833809Y-123483390D01*
X129833809Y-123483390D02*
X129262381Y-124054819D01*
X129262381Y-124054819D02*
X129881428Y-124054819D01*
X130262381Y-123150057D02*
X130310000Y-123102438D01*
X130310000Y-123102438D02*
X130405238Y-123054819D01*
X130405238Y-123054819D02*
X130643333Y-123054819D01*
X130643333Y-123054819D02*
X130738571Y-123102438D01*
X130738571Y-123102438D02*
X130786190Y-123150057D01*
X130786190Y-123150057D02*
X130833809Y-123245295D01*
X130833809Y-123245295D02*
X130833809Y-123340533D01*
X130833809Y-123340533D02*
X130786190Y-123483390D01*
X130786190Y-123483390D02*
X130214762Y-124054819D01*
X130214762Y-124054819D02*
X130833809Y-124054819D01*
X131690952Y-123388152D02*
X131690952Y-124054819D01*
X131262381Y-123388152D02*
X131262381Y-123911961D01*
X131262381Y-123911961D02*
X131310000Y-124007200D01*
X131310000Y-124007200D02*
X131405238Y-124054819D01*
X131405238Y-124054819D02*
X131548095Y-124054819D01*
X131548095Y-124054819D02*
X131643333Y-124007200D01*
X131643333Y-124007200D02*
X131690952Y-123959580D01*
X132024286Y-123388152D02*
X132405238Y-123388152D01*
X132167143Y-124054819D02*
X132167143Y-123197676D01*
X132167143Y-123197676D02*
X132214762Y-123102438D01*
X132214762Y-123102438D02*
X132310000Y-123054819D01*
X132310000Y-123054819D02*
X132405238Y-123054819D01*
D12*
X130726666Y-122099530D02*
X130702857Y-122123340D01*
X130702857Y-122123340D02*
X130631428Y-122147149D01*
X130631428Y-122147149D02*
X130583809Y-122147149D01*
X130583809Y-122147149D02*
X130512381Y-122123340D01*
X130512381Y-122123340D02*
X130464762Y-122075720D01*
X130464762Y-122075720D02*
X130440952Y-122028101D01*
X130440952Y-122028101D02*
X130417143Y-121932863D01*
X130417143Y-121932863D02*
X130417143Y-121861435D01*
X130417143Y-121861435D02*
X130440952Y-121766197D01*
X130440952Y-121766197D02*
X130464762Y-121718578D01*
X130464762Y-121718578D02*
X130512381Y-121670959D01*
X130512381Y-121670959D02*
X130583809Y-121647149D01*
X130583809Y-121647149D02*
X130631428Y-121647149D01*
X130631428Y-121647149D02*
X130702857Y-121670959D01*
X130702857Y-121670959D02*
X130726666Y-121694768D01*
X131179047Y-121647149D02*
X130940952Y-121647149D01*
X130940952Y-121647149D02*
X130917143Y-121885244D01*
X130917143Y-121885244D02*
X130940952Y-121861435D01*
X130940952Y-121861435D02*
X130988571Y-121837625D01*
X130988571Y-121837625D02*
X131107619Y-121837625D01*
X131107619Y-121837625D02*
X131155238Y-121861435D01*
X131155238Y-121861435D02*
X131179047Y-121885244D01*
X131179047Y-121885244D02*
X131202857Y-121932863D01*
X131202857Y-121932863D02*
X131202857Y-122051911D01*
X131202857Y-122051911D02*
X131179047Y-122099530D01*
X131179047Y-122099530D02*
X131155238Y-122123340D01*
X131155238Y-122123340D02*
X131107619Y-122147149D01*
X131107619Y-122147149D02*
X130988571Y-122147149D01*
X130988571Y-122147149D02*
X130940952Y-122123340D01*
X130940952Y-122123340D02*
X130917143Y-122099530D01*
D10*
X122076819Y-76921904D02*
X121076819Y-76921904D01*
X121076819Y-76921904D02*
X121076819Y-76683809D01*
X121076819Y-76683809D02*
X121124438Y-76540952D01*
X121124438Y-76540952D02*
X121219676Y-76445714D01*
X121219676Y-76445714D02*
X121314914Y-76398095D01*
X121314914Y-76398095D02*
X121505390Y-76350476D01*
X121505390Y-76350476D02*
X121648247Y-76350476D01*
X121648247Y-76350476D02*
X121838723Y-76398095D01*
X121838723Y-76398095D02*
X121933961Y-76445714D01*
X121933961Y-76445714D02*
X122029200Y-76540952D01*
X122029200Y-76540952D02*
X122076819Y-76683809D01*
X122076819Y-76683809D02*
X122076819Y-76921904D01*
X122029200Y-75969523D02*
X122076819Y-75826666D01*
X122076819Y-75826666D02*
X122076819Y-75588571D01*
X122076819Y-75588571D02*
X122029200Y-75493333D01*
X122029200Y-75493333D02*
X121981580Y-75445714D01*
X121981580Y-75445714D02*
X121886342Y-75398095D01*
X121886342Y-75398095D02*
X121791104Y-75398095D01*
X121791104Y-75398095D02*
X121695866Y-75445714D01*
X121695866Y-75445714D02*
X121648247Y-75493333D01*
X121648247Y-75493333D02*
X121600628Y-75588571D01*
X121600628Y-75588571D02*
X121553009Y-75779047D01*
X121553009Y-75779047D02*
X121505390Y-75874285D01*
X121505390Y-75874285D02*
X121457771Y-75921904D01*
X121457771Y-75921904D02*
X121362533Y-75969523D01*
X121362533Y-75969523D02*
X121267295Y-75969523D01*
X121267295Y-75969523D02*
X121172057Y-75921904D01*
X121172057Y-75921904D02*
X121124438Y-75874285D01*
X121124438Y-75874285D02*
X121076819Y-75779047D01*
X121076819Y-75779047D02*
X121076819Y-75540952D01*
X121076819Y-75540952D02*
X121124438Y-75398095D01*
X122076819Y-74445714D02*
X122076819Y-75017142D01*
X122076819Y-74731428D02*
X121076819Y-74731428D01*
X121076819Y-74731428D02*
X121219676Y-74826666D01*
X121219676Y-74826666D02*
X121314914Y-74921904D01*
X121314914Y-74921904D02*
X121362533Y-75017142D01*
X121076819Y-74112380D02*
X121076819Y-73493333D01*
X121076819Y-73493333D02*
X121457771Y-73826666D01*
X121457771Y-73826666D02*
X121457771Y-73683809D01*
X121457771Y-73683809D02*
X121505390Y-73588571D01*
X121505390Y-73588571D02*
X121553009Y-73540952D01*
X121553009Y-73540952D02*
X121648247Y-73493333D01*
X121648247Y-73493333D02*
X121886342Y-73493333D01*
X121886342Y-73493333D02*
X121981580Y-73540952D01*
X121981580Y-73540952D02*
X122029200Y-73588571D01*
X122029200Y-73588571D02*
X122076819Y-73683809D01*
X122076819Y-73683809D02*
X122076819Y-73969523D01*
X122076819Y-73969523D02*
X122029200Y-74064761D01*
X122029200Y-74064761D02*
X121981580Y-74112380D01*
X121076819Y-72874285D02*
X121076819Y-72779047D01*
X121076819Y-72779047D02*
X121124438Y-72683809D01*
X121124438Y-72683809D02*
X121172057Y-72636190D01*
X121172057Y-72636190D02*
X121267295Y-72588571D01*
X121267295Y-72588571D02*
X121457771Y-72540952D01*
X121457771Y-72540952D02*
X121695866Y-72540952D01*
X121695866Y-72540952D02*
X121886342Y-72588571D01*
X121886342Y-72588571D02*
X121981580Y-72636190D01*
X121981580Y-72636190D02*
X122029200Y-72683809D01*
X122029200Y-72683809D02*
X122076819Y-72779047D01*
X122076819Y-72779047D02*
X122076819Y-72874285D01*
X122076819Y-72874285D02*
X122029200Y-72969523D01*
X122029200Y-72969523D02*
X121981580Y-73017142D01*
X121981580Y-73017142D02*
X121886342Y-73064761D01*
X121886342Y-73064761D02*
X121695866Y-73112380D01*
X121695866Y-73112380D02*
X121457771Y-73112380D01*
X121457771Y-73112380D02*
X121267295Y-73064761D01*
X121267295Y-73064761D02*
X121172057Y-73017142D01*
X121172057Y-73017142D02*
X121124438Y-72969523D01*
X121124438Y-72969523D02*
X121076819Y-72874285D01*
X121172057Y-72159999D02*
X121124438Y-72112380D01*
X121124438Y-72112380D02*
X121076819Y-72017142D01*
X121076819Y-72017142D02*
X121076819Y-71779047D01*
X121076819Y-71779047D02*
X121124438Y-71683809D01*
X121124438Y-71683809D02*
X121172057Y-71636190D01*
X121172057Y-71636190D02*
X121267295Y-71588571D01*
X121267295Y-71588571D02*
X121362533Y-71588571D01*
X121362533Y-71588571D02*
X121505390Y-71636190D01*
X121505390Y-71636190D02*
X122076819Y-72207618D01*
X122076819Y-72207618D02*
X122076819Y-71588571D01*
X121695866Y-71159999D02*
X121695866Y-70398095D01*
X122076819Y-70779047D02*
X121314914Y-70779047D01*
X127216819Y-74421904D02*
X128026342Y-74421904D01*
X128026342Y-74421904D02*
X128121580Y-74374285D01*
X128121580Y-74374285D02*
X128169200Y-74326666D01*
X128169200Y-74326666D02*
X128216819Y-74231428D01*
X128216819Y-74231428D02*
X128216819Y-74040952D01*
X128216819Y-74040952D02*
X128169200Y-73945714D01*
X128169200Y-73945714D02*
X128121580Y-73898095D01*
X128121580Y-73898095D02*
X128026342Y-73850476D01*
X128026342Y-73850476D02*
X127216819Y-73850476D01*
X127312057Y-73421904D02*
X127264438Y-73374285D01*
X127264438Y-73374285D02*
X127216819Y-73279047D01*
X127216819Y-73279047D02*
X127216819Y-73040952D01*
X127216819Y-73040952D02*
X127264438Y-72945714D01*
X127264438Y-72945714D02*
X127312057Y-72898095D01*
X127312057Y-72898095D02*
X127407295Y-72850476D01*
X127407295Y-72850476D02*
X127502533Y-72850476D01*
X127502533Y-72850476D02*
X127645390Y-72898095D01*
X127645390Y-72898095D02*
X128216819Y-73469523D01*
X128216819Y-73469523D02*
X128216819Y-72850476D01*
X123857104Y-120793332D02*
X123857104Y-120317142D01*
X124142819Y-120888570D02*
X123142819Y-120555237D01*
X123142819Y-120555237D02*
X124142819Y-120221904D01*
X124142819Y-119888570D02*
X123142819Y-119888570D01*
X123142819Y-119888570D02*
X123142819Y-119650475D01*
X123142819Y-119650475D02*
X123190438Y-119507618D01*
X123190438Y-119507618D02*
X123285676Y-119412380D01*
X123285676Y-119412380D02*
X123380914Y-119364761D01*
X123380914Y-119364761D02*
X123571390Y-119317142D01*
X123571390Y-119317142D02*
X123714247Y-119317142D01*
X123714247Y-119317142D02*
X123904723Y-119364761D01*
X123904723Y-119364761D02*
X123999961Y-119412380D01*
X123999961Y-119412380D02*
X124095200Y-119507618D01*
X124095200Y-119507618D02*
X124142819Y-119650475D01*
X124142819Y-119650475D02*
X124142819Y-119888570D01*
X124095200Y-118936189D02*
X124142819Y-118793332D01*
X124142819Y-118793332D02*
X124142819Y-118555237D01*
X124142819Y-118555237D02*
X124095200Y-118459999D01*
X124095200Y-118459999D02*
X124047580Y-118412380D01*
X124047580Y-118412380D02*
X123952342Y-118364761D01*
X123952342Y-118364761D02*
X123857104Y-118364761D01*
X123857104Y-118364761D02*
X123761866Y-118412380D01*
X123761866Y-118412380D02*
X123714247Y-118459999D01*
X123714247Y-118459999D02*
X123666628Y-118555237D01*
X123666628Y-118555237D02*
X123619009Y-118745713D01*
X123619009Y-118745713D02*
X123571390Y-118840951D01*
X123571390Y-118840951D02*
X123523771Y-118888570D01*
X123523771Y-118888570D02*
X123428533Y-118936189D01*
X123428533Y-118936189D02*
X123333295Y-118936189D01*
X123333295Y-118936189D02*
X123238057Y-118888570D01*
X123238057Y-118888570D02*
X123190438Y-118840951D01*
X123190438Y-118840951D02*
X123142819Y-118745713D01*
X123142819Y-118745713D02*
X123142819Y-118507618D01*
X123142819Y-118507618D02*
X123190438Y-118364761D01*
X124142819Y-117412380D02*
X124142819Y-117983808D01*
X124142819Y-117698094D02*
X123142819Y-117698094D01*
X123142819Y-117698094D02*
X123285676Y-117793332D01*
X123285676Y-117793332D02*
X123380914Y-117888570D01*
X123380914Y-117888570D02*
X123428533Y-117983808D01*
X124142819Y-116459999D02*
X124142819Y-117031427D01*
X124142819Y-116745713D02*
X123142819Y-116745713D01*
X123142819Y-116745713D02*
X123285676Y-116840951D01*
X123285676Y-116840951D02*
X123380914Y-116936189D01*
X123380914Y-116936189D02*
X123428533Y-117031427D01*
X124142819Y-115507618D02*
X124142819Y-116079046D01*
X124142819Y-115793332D02*
X123142819Y-115793332D01*
X123142819Y-115793332D02*
X123285676Y-115888570D01*
X123285676Y-115888570D02*
X123380914Y-115983808D01*
X123380914Y-115983808D02*
X123428533Y-116079046D01*
X123142819Y-114602856D02*
X123142819Y-115079046D01*
X123142819Y-115079046D02*
X123619009Y-115126665D01*
X123619009Y-115126665D02*
X123571390Y-115079046D01*
X123571390Y-115079046D02*
X123523771Y-114983808D01*
X123523771Y-114983808D02*
X123523771Y-114745713D01*
X123523771Y-114745713D02*
X123571390Y-114650475D01*
X123571390Y-114650475D02*
X123619009Y-114602856D01*
X123619009Y-114602856D02*
X123714247Y-114555237D01*
X123714247Y-114555237D02*
X123952342Y-114555237D01*
X123952342Y-114555237D02*
X124047580Y-114602856D01*
X124047580Y-114602856D02*
X124095200Y-114650475D01*
X124095200Y-114650475D02*
X124142819Y-114745713D01*
X124142819Y-114745713D02*
X124142819Y-114983808D01*
X124142819Y-114983808D02*
X124095200Y-115079046D01*
X124095200Y-115079046D02*
X124047580Y-115126665D01*
X124142819Y-114126665D02*
X123142819Y-114126665D01*
X124142819Y-113650475D02*
X123142819Y-113650475D01*
X123142819Y-113650475D02*
X123142819Y-113412380D01*
X123142819Y-113412380D02*
X123190438Y-113269523D01*
X123190438Y-113269523D02*
X123285676Y-113174285D01*
X123285676Y-113174285D02*
X123380914Y-113126666D01*
X123380914Y-113126666D02*
X123571390Y-113079047D01*
X123571390Y-113079047D02*
X123714247Y-113079047D01*
X123714247Y-113079047D02*
X123904723Y-113126666D01*
X123904723Y-113126666D02*
X123999961Y-113174285D01*
X123999961Y-113174285D02*
X124095200Y-113269523D01*
X124095200Y-113269523D02*
X124142819Y-113412380D01*
X124142819Y-113412380D02*
X124142819Y-113650475D01*
X123190438Y-112126666D02*
X123142819Y-112221904D01*
X123142819Y-112221904D02*
X123142819Y-112364761D01*
X123142819Y-112364761D02*
X123190438Y-112507618D01*
X123190438Y-112507618D02*
X123285676Y-112602856D01*
X123285676Y-112602856D02*
X123380914Y-112650475D01*
X123380914Y-112650475D02*
X123571390Y-112698094D01*
X123571390Y-112698094D02*
X123714247Y-112698094D01*
X123714247Y-112698094D02*
X123904723Y-112650475D01*
X123904723Y-112650475D02*
X123999961Y-112602856D01*
X123999961Y-112602856D02*
X124095200Y-112507618D01*
X124095200Y-112507618D02*
X124142819Y-112364761D01*
X124142819Y-112364761D02*
X124142819Y-112269523D01*
X124142819Y-112269523D02*
X124095200Y-112126666D01*
X124095200Y-112126666D02*
X124047580Y-112079047D01*
X124047580Y-112079047D02*
X123714247Y-112079047D01*
X123714247Y-112079047D02*
X123714247Y-112269523D01*
X124095200Y-111698094D02*
X124142819Y-111555237D01*
X124142819Y-111555237D02*
X124142819Y-111317142D01*
X124142819Y-111317142D02*
X124095200Y-111221904D01*
X124095200Y-111221904D02*
X124047580Y-111174285D01*
X124047580Y-111174285D02*
X123952342Y-111126666D01*
X123952342Y-111126666D02*
X123857104Y-111126666D01*
X123857104Y-111126666D02*
X123761866Y-111174285D01*
X123761866Y-111174285D02*
X123714247Y-111221904D01*
X123714247Y-111221904D02*
X123666628Y-111317142D01*
X123666628Y-111317142D02*
X123619009Y-111507618D01*
X123619009Y-111507618D02*
X123571390Y-111602856D01*
X123571390Y-111602856D02*
X123523771Y-111650475D01*
X123523771Y-111650475D02*
X123428533Y-111698094D01*
X123428533Y-111698094D02*
X123333295Y-111698094D01*
X123333295Y-111698094D02*
X123238057Y-111650475D01*
X123238057Y-111650475D02*
X123190438Y-111602856D01*
X123190438Y-111602856D02*
X123142819Y-111507618D01*
X123142819Y-111507618D02*
X123142819Y-111269523D01*
X123142819Y-111269523D02*
X123190438Y-111126666D01*
D13*
X125910371Y-116417142D02*
X126396085Y-116417142D01*
X126396085Y-116417142D02*
X126453228Y-116388571D01*
X126453228Y-116388571D02*
X126481800Y-116360000D01*
X126481800Y-116360000D02*
X126510371Y-116302857D01*
X126510371Y-116302857D02*
X126510371Y-116188571D01*
X126510371Y-116188571D02*
X126481800Y-116131428D01*
X126481800Y-116131428D02*
X126453228Y-116102857D01*
X126453228Y-116102857D02*
X126396085Y-116074285D01*
X126396085Y-116074285D02*
X125910371Y-116074285D01*
X125910371Y-115845714D02*
X125910371Y-115474286D01*
X125910371Y-115474286D02*
X126138942Y-115674286D01*
X126138942Y-115674286D02*
X126138942Y-115588571D01*
X126138942Y-115588571D02*
X126167514Y-115531429D01*
X126167514Y-115531429D02*
X126196085Y-115502857D01*
X126196085Y-115502857D02*
X126253228Y-115474286D01*
X126253228Y-115474286D02*
X126396085Y-115474286D01*
X126396085Y-115474286D02*
X126453228Y-115502857D01*
X126453228Y-115502857D02*
X126481800Y-115531429D01*
X126481800Y-115531429D02*
X126510371Y-115588571D01*
X126510371Y-115588571D02*
X126510371Y-115760000D01*
X126510371Y-115760000D02*
X126481800Y-115817143D01*
X126481800Y-115817143D02*
X126453228Y-115845714D01*
D10*
X173585333Y-108192819D02*
X173013905Y-108192819D01*
X173299619Y-108192819D02*
X173299619Y-107192819D01*
X173299619Y-107192819D02*
X173204381Y-107335676D01*
X173204381Y-107335676D02*
X173109143Y-107430914D01*
X173109143Y-107430914D02*
X173013905Y-107478533D01*
X174204381Y-107192819D02*
X174299619Y-107192819D01*
X174299619Y-107192819D02*
X174394857Y-107240438D01*
X174394857Y-107240438D02*
X174442476Y-107288057D01*
X174442476Y-107288057D02*
X174490095Y-107383295D01*
X174490095Y-107383295D02*
X174537714Y-107573771D01*
X174537714Y-107573771D02*
X174537714Y-107811866D01*
X174537714Y-107811866D02*
X174490095Y-108002342D01*
X174490095Y-108002342D02*
X174442476Y-108097580D01*
X174442476Y-108097580D02*
X174394857Y-108145200D01*
X174394857Y-108145200D02*
X174299619Y-108192819D01*
X174299619Y-108192819D02*
X174204381Y-108192819D01*
X174204381Y-108192819D02*
X174109143Y-108145200D01*
X174109143Y-108145200D02*
X174061524Y-108097580D01*
X174061524Y-108097580D02*
X174013905Y-108002342D01*
X174013905Y-108002342D02*
X173966286Y-107811866D01*
X173966286Y-107811866D02*
X173966286Y-107573771D01*
X173966286Y-107573771D02*
X174013905Y-107383295D01*
X174013905Y-107383295D02*
X174061524Y-107288057D01*
X174061524Y-107288057D02*
X174109143Y-107240438D01*
X174109143Y-107240438D02*
X174204381Y-107192819D01*
X174966286Y-108192819D02*
X174966286Y-107192819D01*
X175061524Y-107811866D02*
X175347238Y-108192819D01*
X175347238Y-107526152D02*
X174966286Y-107907104D01*
X175728191Y-108192819D02*
X175966286Y-108192819D01*
X175966286Y-108192819D02*
X175966286Y-108002342D01*
X175966286Y-108002342D02*
X175871048Y-107954723D01*
X175871048Y-107954723D02*
X175775810Y-107859485D01*
X175775810Y-107859485D02*
X175728191Y-107716628D01*
X175728191Y-107716628D02*
X175728191Y-107478533D01*
X175728191Y-107478533D02*
X175775810Y-107335676D01*
X175775810Y-107335676D02*
X175871048Y-107240438D01*
X175871048Y-107240438D02*
X176013905Y-107192819D01*
X176013905Y-107192819D02*
X176204381Y-107192819D01*
X176204381Y-107192819D02*
X176347238Y-107240438D01*
X176347238Y-107240438D02*
X176442476Y-107335676D01*
X176442476Y-107335676D02*
X176490095Y-107478533D01*
X176490095Y-107478533D02*
X176490095Y-107716628D01*
X176490095Y-107716628D02*
X176442476Y-107859485D01*
X176442476Y-107859485D02*
X176347238Y-107954723D01*
X176347238Y-107954723D02*
X176252000Y-108002342D01*
X176252000Y-108002342D02*
X176252000Y-108192819D01*
X176252000Y-108192819D02*
X176490095Y-108192819D01*
D11*
X174237714Y-106281855D02*
X173971047Y-105900902D01*
X173780571Y-106281855D02*
X173780571Y-105481855D01*
X173780571Y-105481855D02*
X174085333Y-105481855D01*
X174085333Y-105481855D02*
X174161523Y-105519950D01*
X174161523Y-105519950D02*
X174199618Y-105558045D01*
X174199618Y-105558045D02*
X174237714Y-105634236D01*
X174237714Y-105634236D02*
X174237714Y-105748521D01*
X174237714Y-105748521D02*
X174199618Y-105824712D01*
X174199618Y-105824712D02*
X174161523Y-105862807D01*
X174161523Y-105862807D02*
X174085333Y-105900902D01*
X174085333Y-105900902D02*
X173780571Y-105900902D01*
X174999618Y-106281855D02*
X174542475Y-106281855D01*
X174771047Y-106281855D02*
X174771047Y-105481855D01*
X174771047Y-105481855D02*
X174694856Y-105596140D01*
X174694856Y-105596140D02*
X174618666Y-105672331D01*
X174618666Y-105672331D02*
X174542475Y-105710426D01*
X175685333Y-105748521D02*
X175685333Y-106281855D01*
X175494857Y-105443760D02*
X175304380Y-106015188D01*
X175304380Y-106015188D02*
X175799619Y-106015188D01*
D10*
X135624819Y-113750166D02*
X135624819Y-114321594D01*
X135624819Y-114035880D02*
X134624819Y-114035880D01*
X134624819Y-114035880D02*
X134767676Y-114131118D01*
X134767676Y-114131118D02*
X134862914Y-114226356D01*
X134862914Y-114226356D02*
X134910533Y-114321594D01*
X134624819Y-113131118D02*
X134624819Y-113035880D01*
X134624819Y-113035880D02*
X134672438Y-112940642D01*
X134672438Y-112940642D02*
X134720057Y-112893023D01*
X134720057Y-112893023D02*
X134815295Y-112845404D01*
X134815295Y-112845404D02*
X135005771Y-112797785D01*
X135005771Y-112797785D02*
X135243866Y-112797785D01*
X135243866Y-112797785D02*
X135434342Y-112845404D01*
X135434342Y-112845404D02*
X135529580Y-112893023D01*
X135529580Y-112893023D02*
X135577200Y-112940642D01*
X135577200Y-112940642D02*
X135624819Y-113035880D01*
X135624819Y-113035880D02*
X135624819Y-113131118D01*
X135624819Y-113131118D02*
X135577200Y-113226356D01*
X135577200Y-113226356D02*
X135529580Y-113273975D01*
X135529580Y-113273975D02*
X135434342Y-113321594D01*
X135434342Y-113321594D02*
X135243866Y-113369213D01*
X135243866Y-113369213D02*
X135005771Y-113369213D01*
X135005771Y-113369213D02*
X134815295Y-113321594D01*
X134815295Y-113321594D02*
X134720057Y-113273975D01*
X134720057Y-113273975D02*
X134672438Y-113226356D01*
X134672438Y-113226356D02*
X134624819Y-113131118D01*
X135624819Y-112369213D02*
X134624819Y-112369213D01*
X135243866Y-112273975D02*
X135624819Y-111988261D01*
X134958152Y-111988261D02*
X135339104Y-112369213D01*
X135624819Y-111607308D02*
X135624819Y-111369213D01*
X135624819Y-111369213D02*
X135434342Y-111369213D01*
X135434342Y-111369213D02*
X135386723Y-111464451D01*
X135386723Y-111464451D02*
X135291485Y-111559689D01*
X135291485Y-111559689D02*
X135148628Y-111607308D01*
X135148628Y-111607308D02*
X134910533Y-111607308D01*
X134910533Y-111607308D02*
X134767676Y-111559689D01*
X134767676Y-111559689D02*
X134672438Y-111464451D01*
X134672438Y-111464451D02*
X134624819Y-111321594D01*
X134624819Y-111321594D02*
X134624819Y-111131118D01*
X134624819Y-111131118D02*
X134672438Y-110988261D01*
X134672438Y-110988261D02*
X134767676Y-110893023D01*
X134767676Y-110893023D02*
X134910533Y-110845404D01*
X134910533Y-110845404D02*
X135148628Y-110845404D01*
X135148628Y-110845404D02*
X135291485Y-110893023D01*
X135291485Y-110893023D02*
X135386723Y-110988261D01*
X135386723Y-110988261D02*
X135434342Y-111083499D01*
X135434342Y-111083499D02*
X135624819Y-111083499D01*
X135624819Y-111083499D02*
X135624819Y-110845404D01*
D11*
X133713855Y-112716832D02*
X133332902Y-112983499D01*
X133713855Y-113173975D02*
X132913855Y-113173975D01*
X132913855Y-113173975D02*
X132913855Y-112869213D01*
X132913855Y-112869213D02*
X132951950Y-112793023D01*
X132951950Y-112793023D02*
X132990045Y-112754928D01*
X132990045Y-112754928D02*
X133066236Y-112716832D01*
X133066236Y-112716832D02*
X133180521Y-112716832D01*
X133180521Y-112716832D02*
X133256712Y-112754928D01*
X133256712Y-112754928D02*
X133294807Y-112793023D01*
X133294807Y-112793023D02*
X133332902Y-112869213D01*
X133332902Y-112869213D02*
X133332902Y-113173975D01*
X132913855Y-112031118D02*
X132913855Y-112183499D01*
X132913855Y-112183499D02*
X132951950Y-112259690D01*
X132951950Y-112259690D02*
X132990045Y-112297785D01*
X132990045Y-112297785D02*
X133104331Y-112373975D01*
X133104331Y-112373975D02*
X133256712Y-112412071D01*
X133256712Y-112412071D02*
X133561474Y-112412071D01*
X133561474Y-112412071D02*
X133637664Y-112373975D01*
X133637664Y-112373975D02*
X133675760Y-112335880D01*
X133675760Y-112335880D02*
X133713855Y-112259690D01*
X133713855Y-112259690D02*
X133713855Y-112107309D01*
X133713855Y-112107309D02*
X133675760Y-112031118D01*
X133675760Y-112031118D02*
X133637664Y-111993023D01*
X133637664Y-111993023D02*
X133561474Y-111954928D01*
X133561474Y-111954928D02*
X133370998Y-111954928D01*
X133370998Y-111954928D02*
X133294807Y-111993023D01*
X133294807Y-111993023D02*
X133256712Y-112031118D01*
X133256712Y-112031118D02*
X133218617Y-112107309D01*
X133218617Y-112107309D02*
X133218617Y-112259690D01*
X133218617Y-112259690D02*
X133256712Y-112335880D01*
X133256712Y-112335880D02*
X133294807Y-112373975D01*
X133294807Y-112373975D02*
X133370998Y-112412071D01*
D10*
X137341904Y-138757200D02*
X137484761Y-138804819D01*
X137484761Y-138804819D02*
X137722856Y-138804819D01*
X137722856Y-138804819D02*
X137818094Y-138757200D01*
X137818094Y-138757200D02*
X137865713Y-138709580D01*
X137865713Y-138709580D02*
X137913332Y-138614342D01*
X137913332Y-138614342D02*
X137913332Y-138519104D01*
X137913332Y-138519104D02*
X137865713Y-138423866D01*
X137865713Y-138423866D02*
X137818094Y-138376247D01*
X137818094Y-138376247D02*
X137722856Y-138328628D01*
X137722856Y-138328628D02*
X137532380Y-138281009D01*
X137532380Y-138281009D02*
X137437142Y-138233390D01*
X137437142Y-138233390D02*
X137389523Y-138185771D01*
X137389523Y-138185771D02*
X137341904Y-138090533D01*
X137341904Y-138090533D02*
X137341904Y-137995295D01*
X137341904Y-137995295D02*
X137389523Y-137900057D01*
X137389523Y-137900057D02*
X137437142Y-137852438D01*
X137437142Y-137852438D02*
X137532380Y-137804819D01*
X137532380Y-137804819D02*
X137770475Y-137804819D01*
X137770475Y-137804819D02*
X137913332Y-137852438D01*
X138770475Y-138757200D02*
X138675237Y-138804819D01*
X138675237Y-138804819D02*
X138484761Y-138804819D01*
X138484761Y-138804819D02*
X138389523Y-138757200D01*
X138389523Y-138757200D02*
X138341904Y-138709580D01*
X138341904Y-138709580D02*
X138294285Y-138614342D01*
X138294285Y-138614342D02*
X138294285Y-138328628D01*
X138294285Y-138328628D02*
X138341904Y-138233390D01*
X138341904Y-138233390D02*
X138389523Y-138185771D01*
X138389523Y-138185771D02*
X138484761Y-138138152D01*
X138484761Y-138138152D02*
X138675237Y-138138152D01*
X138675237Y-138138152D02*
X138770475Y-138185771D01*
X139199047Y-138804819D02*
X139199047Y-138138152D01*
X139199047Y-138328628D02*
X139246666Y-138233390D01*
X139246666Y-138233390D02*
X139294285Y-138185771D01*
X139294285Y-138185771D02*
X139389523Y-138138152D01*
X139389523Y-138138152D02*
X139484761Y-138138152D01*
X140199047Y-138757200D02*
X140103809Y-138804819D01*
X140103809Y-138804819D02*
X139913333Y-138804819D01*
X139913333Y-138804819D02*
X139818095Y-138757200D01*
X139818095Y-138757200D02*
X139770476Y-138661961D01*
X139770476Y-138661961D02*
X139770476Y-138281009D01*
X139770476Y-138281009D02*
X139818095Y-138185771D01*
X139818095Y-138185771D02*
X139913333Y-138138152D01*
X139913333Y-138138152D02*
X140103809Y-138138152D01*
X140103809Y-138138152D02*
X140199047Y-138185771D01*
X140199047Y-138185771D02*
X140246666Y-138281009D01*
X140246666Y-138281009D02*
X140246666Y-138376247D01*
X140246666Y-138376247D02*
X139770476Y-138471485D01*
X140580000Y-138138152D02*
X140770476Y-138804819D01*
X140770476Y-138804819D02*
X140960952Y-138328628D01*
X140960952Y-138328628D02*
X141151428Y-138804819D01*
X141151428Y-138804819D02*
X141341904Y-138138152D01*
X141484762Y-138900057D02*
X142246666Y-138900057D01*
X142341905Y-137804819D02*
X142913333Y-137804819D01*
X142627619Y-138804819D02*
X142627619Y-137804819D01*
X143627619Y-138757200D02*
X143532381Y-138804819D01*
X143532381Y-138804819D02*
X143341905Y-138804819D01*
X143341905Y-138804819D02*
X143246667Y-138757200D01*
X143246667Y-138757200D02*
X143199048Y-138661961D01*
X143199048Y-138661961D02*
X143199048Y-138281009D01*
X143199048Y-138281009D02*
X143246667Y-138185771D01*
X143246667Y-138185771D02*
X143341905Y-138138152D01*
X143341905Y-138138152D02*
X143532381Y-138138152D01*
X143532381Y-138138152D02*
X143627619Y-138185771D01*
X143627619Y-138185771D02*
X143675238Y-138281009D01*
X143675238Y-138281009D02*
X143675238Y-138376247D01*
X143675238Y-138376247D02*
X143199048Y-138471485D01*
X144103810Y-138804819D02*
X144103810Y-138138152D01*
X144103810Y-138328628D02*
X144151429Y-138233390D01*
X144151429Y-138233390D02*
X144199048Y-138185771D01*
X144199048Y-138185771D02*
X144294286Y-138138152D01*
X144294286Y-138138152D02*
X144389524Y-138138152D01*
X144722858Y-138804819D02*
X144722858Y-138138152D01*
X144722858Y-138233390D02*
X144770477Y-138185771D01*
X144770477Y-138185771D02*
X144865715Y-138138152D01*
X144865715Y-138138152D02*
X145008572Y-138138152D01*
X145008572Y-138138152D02*
X145103810Y-138185771D01*
X145103810Y-138185771D02*
X145151429Y-138281009D01*
X145151429Y-138281009D02*
X145151429Y-138804819D01*
X145151429Y-138281009D02*
X145199048Y-138185771D01*
X145199048Y-138185771D02*
X145294286Y-138138152D01*
X145294286Y-138138152D02*
X145437143Y-138138152D01*
X145437143Y-138138152D02*
X145532382Y-138185771D01*
X145532382Y-138185771D02*
X145580001Y-138281009D01*
X145580001Y-138281009D02*
X145580001Y-138804819D01*
X146056191Y-138804819D02*
X146056191Y-138138152D01*
X146056191Y-137804819D02*
X146008572Y-137852438D01*
X146008572Y-137852438D02*
X146056191Y-137900057D01*
X146056191Y-137900057D02*
X146103810Y-137852438D01*
X146103810Y-137852438D02*
X146056191Y-137804819D01*
X146056191Y-137804819D02*
X146056191Y-137900057D01*
X146532381Y-138138152D02*
X146532381Y-138804819D01*
X146532381Y-138233390D02*
X146580000Y-138185771D01*
X146580000Y-138185771D02*
X146675238Y-138138152D01*
X146675238Y-138138152D02*
X146818095Y-138138152D01*
X146818095Y-138138152D02*
X146913333Y-138185771D01*
X146913333Y-138185771D02*
X146960952Y-138281009D01*
X146960952Y-138281009D02*
X146960952Y-138804819D01*
X147865714Y-138804819D02*
X147865714Y-138281009D01*
X147865714Y-138281009D02*
X147818095Y-138185771D01*
X147818095Y-138185771D02*
X147722857Y-138138152D01*
X147722857Y-138138152D02*
X147532381Y-138138152D01*
X147532381Y-138138152D02*
X147437143Y-138185771D01*
X147865714Y-138757200D02*
X147770476Y-138804819D01*
X147770476Y-138804819D02*
X147532381Y-138804819D01*
X147532381Y-138804819D02*
X147437143Y-138757200D01*
X147437143Y-138757200D02*
X147389524Y-138661961D01*
X147389524Y-138661961D02*
X147389524Y-138566723D01*
X147389524Y-138566723D02*
X147437143Y-138471485D01*
X147437143Y-138471485D02*
X147532381Y-138423866D01*
X147532381Y-138423866D02*
X147770476Y-138423866D01*
X147770476Y-138423866D02*
X147865714Y-138376247D01*
X148484762Y-138804819D02*
X148389524Y-138757200D01*
X148389524Y-138757200D02*
X148341905Y-138661961D01*
X148341905Y-138661961D02*
X148341905Y-137804819D01*
X148627620Y-138900057D02*
X149389524Y-138900057D01*
X149818096Y-137804819D02*
X149913334Y-137804819D01*
X149913334Y-137804819D02*
X150008572Y-137852438D01*
X150008572Y-137852438D02*
X150056191Y-137900057D01*
X150056191Y-137900057D02*
X150103810Y-137995295D01*
X150103810Y-137995295D02*
X150151429Y-138185771D01*
X150151429Y-138185771D02*
X150151429Y-138423866D01*
X150151429Y-138423866D02*
X150103810Y-138614342D01*
X150103810Y-138614342D02*
X150056191Y-138709580D01*
X150056191Y-138709580D02*
X150008572Y-138757200D01*
X150008572Y-138757200D02*
X149913334Y-138804819D01*
X149913334Y-138804819D02*
X149818096Y-138804819D01*
X149818096Y-138804819D02*
X149722858Y-138757200D01*
X149722858Y-138757200D02*
X149675239Y-138709580D01*
X149675239Y-138709580D02*
X149627620Y-138614342D01*
X149627620Y-138614342D02*
X149580001Y-138423866D01*
X149580001Y-138423866D02*
X149580001Y-138185771D01*
X149580001Y-138185771D02*
X149627620Y-137995295D01*
X149627620Y-137995295D02*
X149675239Y-137900057D01*
X149675239Y-137900057D02*
X149722858Y-137852438D01*
X149722858Y-137852438D02*
X149818096Y-137804819D01*
X151103810Y-138804819D02*
X150532382Y-138804819D01*
X150818096Y-138804819D02*
X150818096Y-137804819D01*
X150818096Y-137804819D02*
X150722858Y-137947676D01*
X150722858Y-137947676D02*
X150627620Y-138042914D01*
X150627620Y-138042914D02*
X150532382Y-138090533D01*
X151437144Y-138804819D02*
X151960953Y-138138152D01*
X151437144Y-138138152D02*
X151960953Y-138804819D01*
X152532382Y-137804819D02*
X152627620Y-137804819D01*
X152627620Y-137804819D02*
X152722858Y-137852438D01*
X152722858Y-137852438D02*
X152770477Y-137900057D01*
X152770477Y-137900057D02*
X152818096Y-137995295D01*
X152818096Y-137995295D02*
X152865715Y-138185771D01*
X152865715Y-138185771D02*
X152865715Y-138423866D01*
X152865715Y-138423866D02*
X152818096Y-138614342D01*
X152818096Y-138614342D02*
X152770477Y-138709580D01*
X152770477Y-138709580D02*
X152722858Y-138757200D01*
X152722858Y-138757200D02*
X152627620Y-138804819D01*
X152627620Y-138804819D02*
X152532382Y-138804819D01*
X152532382Y-138804819D02*
X152437144Y-138757200D01*
X152437144Y-138757200D02*
X152389525Y-138709580D01*
X152389525Y-138709580D02*
X152341906Y-138614342D01*
X152341906Y-138614342D02*
X152294287Y-138423866D01*
X152294287Y-138423866D02*
X152294287Y-138185771D01*
X152294287Y-138185771D02*
X152341906Y-137995295D01*
X152341906Y-137995295D02*
X152389525Y-137900057D01*
X152389525Y-137900057D02*
X152437144Y-137852438D01*
X152437144Y-137852438D02*
X152532382Y-137804819D01*
X153246668Y-137900057D02*
X153294287Y-137852438D01*
X153294287Y-137852438D02*
X153389525Y-137804819D01*
X153389525Y-137804819D02*
X153627620Y-137804819D01*
X153627620Y-137804819D02*
X153722858Y-137852438D01*
X153722858Y-137852438D02*
X153770477Y-137900057D01*
X153770477Y-137900057D02*
X153818096Y-137995295D01*
X153818096Y-137995295D02*
X153818096Y-138090533D01*
X153818096Y-138090533D02*
X153770477Y-138233390D01*
X153770477Y-138233390D02*
X153199049Y-138804819D01*
X153199049Y-138804819D02*
X153818096Y-138804819D01*
X144966666Y-128054819D02*
X144966666Y-128769104D01*
X144966666Y-128769104D02*
X144919047Y-128911961D01*
X144919047Y-128911961D02*
X144823809Y-129007200D01*
X144823809Y-129007200D02*
X144680952Y-129054819D01*
X144680952Y-129054819D02*
X144585714Y-129054819D01*
X145871428Y-128054819D02*
X145680952Y-128054819D01*
X145680952Y-128054819D02*
X145585714Y-128102438D01*
X145585714Y-128102438D02*
X145538095Y-128150057D01*
X145538095Y-128150057D02*
X145442857Y-128292914D01*
X145442857Y-128292914D02*
X145395238Y-128483390D01*
X145395238Y-128483390D02*
X145395238Y-128864342D01*
X145395238Y-128864342D02*
X145442857Y-128959580D01*
X145442857Y-128959580D02*
X145490476Y-129007200D01*
X145490476Y-129007200D02*
X145585714Y-129054819D01*
X145585714Y-129054819D02*
X145776190Y-129054819D01*
X145776190Y-129054819D02*
X145871428Y-129007200D01*
X145871428Y-129007200D02*
X145919047Y-128959580D01*
X145919047Y-128959580D02*
X145966666Y-128864342D01*
X145966666Y-128864342D02*
X145966666Y-128626247D01*
X145966666Y-128626247D02*
X145919047Y-128531009D01*
X145919047Y-128531009D02*
X145871428Y-128483390D01*
X145871428Y-128483390D02*
X145776190Y-128435771D01*
X145776190Y-128435771D02*
X145585714Y-128435771D01*
X145585714Y-128435771D02*
X145490476Y-128483390D01*
X145490476Y-128483390D02*
X145442857Y-128531009D01*
X145442857Y-128531009D02*
X145395238Y-128626247D01*
X160171009Y-97696571D02*
X160218628Y-97553714D01*
X160218628Y-97553714D02*
X160266247Y-97506095D01*
X160266247Y-97506095D02*
X160361485Y-97458476D01*
X160361485Y-97458476D02*
X160504342Y-97458476D01*
X160504342Y-97458476D02*
X160599580Y-97506095D01*
X160599580Y-97506095D02*
X160647200Y-97553714D01*
X160647200Y-97553714D02*
X160694819Y-97648952D01*
X160694819Y-97648952D02*
X160694819Y-98029904D01*
X160694819Y-98029904D02*
X159694819Y-98029904D01*
X159694819Y-98029904D02*
X159694819Y-97696571D01*
X159694819Y-97696571D02*
X159742438Y-97601333D01*
X159742438Y-97601333D02*
X159790057Y-97553714D01*
X159790057Y-97553714D02*
X159885295Y-97506095D01*
X159885295Y-97506095D02*
X159980533Y-97506095D01*
X159980533Y-97506095D02*
X160075771Y-97553714D01*
X160075771Y-97553714D02*
X160123390Y-97601333D01*
X160123390Y-97601333D02*
X160171009Y-97696571D01*
X160171009Y-97696571D02*
X160171009Y-98029904D01*
X160028152Y-96601333D02*
X160694819Y-96601333D01*
X160028152Y-97029904D02*
X160551961Y-97029904D01*
X160551961Y-97029904D02*
X160647200Y-96982285D01*
X160647200Y-96982285D02*
X160694819Y-96887047D01*
X160694819Y-96887047D02*
X160694819Y-96744190D01*
X160694819Y-96744190D02*
X160647200Y-96648952D01*
X160647200Y-96648952D02*
X160599580Y-96601333D01*
X160028152Y-96220380D02*
X160028152Y-95696571D01*
X160028152Y-95696571D02*
X160694819Y-96220380D01*
X160694819Y-96220380D02*
X160694819Y-95696571D01*
X160028152Y-95410856D02*
X160028152Y-94887047D01*
X160028152Y-94887047D02*
X160694819Y-95410856D01*
X160694819Y-95410856D02*
X160694819Y-94887047D01*
X160647200Y-94125142D02*
X160694819Y-94220380D01*
X160694819Y-94220380D02*
X160694819Y-94410856D01*
X160694819Y-94410856D02*
X160647200Y-94506094D01*
X160647200Y-94506094D02*
X160551961Y-94553713D01*
X160551961Y-94553713D02*
X160171009Y-94553713D01*
X160171009Y-94553713D02*
X160075771Y-94506094D01*
X160075771Y-94506094D02*
X160028152Y-94410856D01*
X160028152Y-94410856D02*
X160028152Y-94220380D01*
X160028152Y-94220380D02*
X160075771Y-94125142D01*
X160075771Y-94125142D02*
X160171009Y-94077523D01*
X160171009Y-94077523D02*
X160266247Y-94077523D01*
X160266247Y-94077523D02*
X160361485Y-94553713D01*
X160694819Y-93648951D02*
X160028152Y-93648951D01*
X160218628Y-93648951D02*
X160123390Y-93601332D01*
X160123390Y-93601332D02*
X160075771Y-93553713D01*
X160075771Y-93553713D02*
X160028152Y-93458475D01*
X160028152Y-93458475D02*
X160028152Y-93363237D01*
X170253866Y-92338951D02*
X170253866Y-91577047D01*
X170634819Y-91957999D02*
X169872914Y-91957999D01*
X171571009Y-96648952D02*
X171618628Y-96506095D01*
X171618628Y-96506095D02*
X171666247Y-96458476D01*
X171666247Y-96458476D02*
X171761485Y-96410857D01*
X171761485Y-96410857D02*
X171904342Y-96410857D01*
X171904342Y-96410857D02*
X171999580Y-96458476D01*
X171999580Y-96458476D02*
X172047200Y-96506095D01*
X172047200Y-96506095D02*
X172094819Y-96601333D01*
X172094819Y-96601333D02*
X172094819Y-96982285D01*
X172094819Y-96982285D02*
X171094819Y-96982285D01*
X171094819Y-96982285D02*
X171094819Y-96648952D01*
X171094819Y-96648952D02*
X171142438Y-96553714D01*
X171142438Y-96553714D02*
X171190057Y-96506095D01*
X171190057Y-96506095D02*
X171285295Y-96458476D01*
X171285295Y-96458476D02*
X171380533Y-96458476D01*
X171380533Y-96458476D02*
X171475771Y-96506095D01*
X171475771Y-96506095D02*
X171523390Y-96553714D01*
X171523390Y-96553714D02*
X171571009Y-96648952D01*
X171571009Y-96648952D02*
X171571009Y-96982285D01*
X171094819Y-96077523D02*
X171094819Y-95410857D01*
X171094819Y-95410857D02*
X172094819Y-96077523D01*
X172094819Y-96077523D02*
X172094819Y-95410857D01*
X172094819Y-94506095D02*
X172094819Y-95077523D01*
X172094819Y-94791809D02*
X171094819Y-94791809D01*
X171094819Y-94791809D02*
X171237676Y-94887047D01*
X171237676Y-94887047D02*
X171332914Y-94982285D01*
X171332914Y-94982285D02*
X171380533Y-95077523D01*
X179286381Y-61217200D02*
X179429238Y-61264819D01*
X179429238Y-61264819D02*
X179667333Y-61264819D01*
X179667333Y-61264819D02*
X179762571Y-61217200D01*
X179762571Y-61217200D02*
X179810190Y-61169580D01*
X179810190Y-61169580D02*
X179857809Y-61074342D01*
X179857809Y-61074342D02*
X179857809Y-60979104D01*
X179857809Y-60979104D02*
X179810190Y-60883866D01*
X179810190Y-60883866D02*
X179762571Y-60836247D01*
X179762571Y-60836247D02*
X179667333Y-60788628D01*
X179667333Y-60788628D02*
X179476857Y-60741009D01*
X179476857Y-60741009D02*
X179381619Y-60693390D01*
X179381619Y-60693390D02*
X179334000Y-60645771D01*
X179334000Y-60645771D02*
X179286381Y-60550533D01*
X179286381Y-60550533D02*
X179286381Y-60455295D01*
X179286381Y-60455295D02*
X179334000Y-60360057D01*
X179334000Y-60360057D02*
X179381619Y-60312438D01*
X179381619Y-60312438D02*
X179476857Y-60264819D01*
X179476857Y-60264819D02*
X179714952Y-60264819D01*
X179714952Y-60264819D02*
X179857809Y-60312438D01*
X180191143Y-60264819D02*
X180429238Y-61264819D01*
X180429238Y-61264819D02*
X180619714Y-60550533D01*
X180619714Y-60550533D02*
X180810190Y-61264819D01*
X180810190Y-61264819D02*
X181048286Y-60264819D01*
X181191143Y-61360057D02*
X181953047Y-61360057D01*
X182191143Y-61264819D02*
X182191143Y-60264819D01*
X182191143Y-60264819D02*
X182572095Y-60264819D01*
X182572095Y-60264819D02*
X182667333Y-60312438D01*
X182667333Y-60312438D02*
X182714952Y-60360057D01*
X182714952Y-60360057D02*
X182762571Y-60455295D01*
X182762571Y-60455295D02*
X182762571Y-60598152D01*
X182762571Y-60598152D02*
X182714952Y-60693390D01*
X182714952Y-60693390D02*
X182667333Y-60741009D01*
X182667333Y-60741009D02*
X182572095Y-60788628D01*
X182572095Y-60788628D02*
X182191143Y-60788628D01*
X183619714Y-60598152D02*
X183619714Y-61264819D01*
X183191143Y-60598152D02*
X183191143Y-61121961D01*
X183191143Y-61121961D02*
X183238762Y-61217200D01*
X183238762Y-61217200D02*
X183334000Y-61264819D01*
X183334000Y-61264819D02*
X183476857Y-61264819D01*
X183476857Y-61264819D02*
X183572095Y-61217200D01*
X183572095Y-61217200D02*
X183619714Y-61169580D01*
X184048286Y-61217200D02*
X184143524Y-61264819D01*
X184143524Y-61264819D02*
X184334000Y-61264819D01*
X184334000Y-61264819D02*
X184429238Y-61217200D01*
X184429238Y-61217200D02*
X184476857Y-61121961D01*
X184476857Y-61121961D02*
X184476857Y-61074342D01*
X184476857Y-61074342D02*
X184429238Y-60979104D01*
X184429238Y-60979104D02*
X184334000Y-60931485D01*
X184334000Y-60931485D02*
X184191143Y-60931485D01*
X184191143Y-60931485D02*
X184095905Y-60883866D01*
X184095905Y-60883866D02*
X184048286Y-60788628D01*
X184048286Y-60788628D02*
X184048286Y-60741009D01*
X184048286Y-60741009D02*
X184095905Y-60645771D01*
X184095905Y-60645771D02*
X184191143Y-60598152D01*
X184191143Y-60598152D02*
X184334000Y-60598152D01*
X184334000Y-60598152D02*
X184429238Y-60645771D01*
X184905429Y-61264819D02*
X184905429Y-60264819D01*
X185334000Y-61264819D02*
X185334000Y-60741009D01*
X185334000Y-60741009D02*
X185286381Y-60645771D01*
X185286381Y-60645771D02*
X185191143Y-60598152D01*
X185191143Y-60598152D02*
X185048286Y-60598152D01*
X185048286Y-60598152D02*
X184953048Y-60645771D01*
X184953048Y-60645771D02*
X184905429Y-60693390D01*
X180730667Y-53827200D02*
X180873524Y-53874819D01*
X180873524Y-53874819D02*
X181111619Y-53874819D01*
X181111619Y-53874819D02*
X181206857Y-53827200D01*
X181206857Y-53827200D02*
X181254476Y-53779580D01*
X181254476Y-53779580D02*
X181302095Y-53684342D01*
X181302095Y-53684342D02*
X181302095Y-53589104D01*
X181302095Y-53589104D02*
X181254476Y-53493866D01*
X181254476Y-53493866D02*
X181206857Y-53446247D01*
X181206857Y-53446247D02*
X181111619Y-53398628D01*
X181111619Y-53398628D02*
X180921143Y-53351009D01*
X180921143Y-53351009D02*
X180825905Y-53303390D01*
X180825905Y-53303390D02*
X180778286Y-53255771D01*
X180778286Y-53255771D02*
X180730667Y-53160533D01*
X180730667Y-53160533D02*
X180730667Y-53065295D01*
X180730667Y-53065295D02*
X180778286Y-52970057D01*
X180778286Y-52970057D02*
X180825905Y-52922438D01*
X180825905Y-52922438D02*
X180921143Y-52874819D01*
X180921143Y-52874819D02*
X181159238Y-52874819D01*
X181159238Y-52874819D02*
X181302095Y-52922438D01*
X181635429Y-52874819D02*
X181873524Y-53874819D01*
X181873524Y-53874819D02*
X182064000Y-53160533D01*
X182064000Y-53160533D02*
X182254476Y-53874819D01*
X182254476Y-53874819D02*
X182492572Y-52874819D01*
X183397333Y-53874819D02*
X182825905Y-53874819D01*
X183111619Y-53874819D02*
X183111619Y-52874819D01*
X183111619Y-52874819D02*
X183016381Y-53017676D01*
X183016381Y-53017676D02*
X182921143Y-53112914D01*
X182921143Y-53112914D02*
X182825905Y-53160533D01*
X155301714Y-139491200D02*
X155444571Y-139538819D01*
X155444571Y-139538819D02*
X155682666Y-139538819D01*
X155682666Y-139538819D02*
X155777904Y-139491200D01*
X155777904Y-139491200D02*
X155825523Y-139443580D01*
X155825523Y-139443580D02*
X155873142Y-139348342D01*
X155873142Y-139348342D02*
X155873142Y-139253104D01*
X155873142Y-139253104D02*
X155825523Y-139157866D01*
X155825523Y-139157866D02*
X155777904Y-139110247D01*
X155777904Y-139110247D02*
X155682666Y-139062628D01*
X155682666Y-139062628D02*
X155492190Y-139015009D01*
X155492190Y-139015009D02*
X155396952Y-138967390D01*
X155396952Y-138967390D02*
X155349333Y-138919771D01*
X155349333Y-138919771D02*
X155301714Y-138824533D01*
X155301714Y-138824533D02*
X155301714Y-138729295D01*
X155301714Y-138729295D02*
X155349333Y-138634057D01*
X155349333Y-138634057D02*
X155396952Y-138586438D01*
X155396952Y-138586438D02*
X155492190Y-138538819D01*
X155492190Y-138538819D02*
X155730285Y-138538819D01*
X155730285Y-138538819D02*
X155873142Y-138586438D01*
X156206476Y-138538819D02*
X156444571Y-139538819D01*
X156444571Y-139538819D02*
X156635047Y-138824533D01*
X156635047Y-138824533D02*
X156825523Y-139538819D01*
X156825523Y-139538819D02*
X157063619Y-138538819D01*
X157206476Y-139634057D02*
X157968380Y-139634057D01*
X158206476Y-139538819D02*
X158206476Y-138538819D01*
X158206476Y-138538819D02*
X158444571Y-138538819D01*
X158444571Y-138538819D02*
X158587428Y-138586438D01*
X158587428Y-138586438D02*
X158682666Y-138681676D01*
X158682666Y-138681676D02*
X158730285Y-138776914D01*
X158730285Y-138776914D02*
X158777904Y-138967390D01*
X158777904Y-138967390D02*
X158777904Y-139110247D01*
X158777904Y-139110247D02*
X158730285Y-139300723D01*
X158730285Y-139300723D02*
X158682666Y-139395961D01*
X158682666Y-139395961D02*
X158587428Y-139491200D01*
X158587428Y-139491200D02*
X158444571Y-139538819D01*
X158444571Y-139538819D02*
X158206476Y-139538819D01*
X159206476Y-139538819D02*
X159206476Y-138538819D01*
X159682666Y-139538819D02*
X159682666Y-138538819D01*
X159682666Y-138538819D02*
X160063618Y-138538819D01*
X160063618Y-138538819D02*
X160158856Y-138586438D01*
X160158856Y-138586438D02*
X160206475Y-138634057D01*
X160206475Y-138634057D02*
X160254094Y-138729295D01*
X160254094Y-138729295D02*
X160254094Y-138872152D01*
X160254094Y-138872152D02*
X160206475Y-138967390D01*
X160206475Y-138967390D02*
X160158856Y-139015009D01*
X160158856Y-139015009D02*
X160063618Y-139062628D01*
X160063618Y-139062628D02*
X159682666Y-139062628D01*
X160444571Y-139634057D02*
X161206475Y-139634057D01*
X161349333Y-139538819D02*
X161873142Y-138872152D01*
X161349333Y-138872152D02*
X161873142Y-139538819D01*
X162444571Y-138538819D02*
X162539809Y-138538819D01*
X162539809Y-138538819D02*
X162635047Y-138586438D01*
X162635047Y-138586438D02*
X162682666Y-138634057D01*
X162682666Y-138634057D02*
X162730285Y-138729295D01*
X162730285Y-138729295D02*
X162777904Y-138919771D01*
X162777904Y-138919771D02*
X162777904Y-139157866D01*
X162777904Y-139157866D02*
X162730285Y-139348342D01*
X162730285Y-139348342D02*
X162682666Y-139443580D01*
X162682666Y-139443580D02*
X162635047Y-139491200D01*
X162635047Y-139491200D02*
X162539809Y-139538819D01*
X162539809Y-139538819D02*
X162444571Y-139538819D01*
X162444571Y-139538819D02*
X162349333Y-139491200D01*
X162349333Y-139491200D02*
X162301714Y-139443580D01*
X162301714Y-139443580D02*
X162254095Y-139348342D01*
X162254095Y-139348342D02*
X162206476Y-139157866D01*
X162206476Y-139157866D02*
X162206476Y-138919771D01*
X162206476Y-138919771D02*
X162254095Y-138729295D01*
X162254095Y-138729295D02*
X162301714Y-138634057D01*
X162301714Y-138634057D02*
X162349333Y-138586438D01*
X162349333Y-138586438D02*
X162444571Y-138538819D01*
X163730285Y-139538819D02*
X163158857Y-139538819D01*
X163444571Y-139538819D02*
X163444571Y-138538819D01*
X163444571Y-138538819D02*
X163349333Y-138681676D01*
X163349333Y-138681676D02*
X163254095Y-138776914D01*
X163254095Y-138776914D02*
X163158857Y-138824533D01*
D13*
X186812564Y-104204898D02*
X187169707Y-104204898D01*
X187169707Y-104204898D02*
X187241135Y-104228707D01*
X187241135Y-104228707D02*
X187288755Y-104276326D01*
X187288755Y-104276326D02*
X187312564Y-104347755D01*
X187312564Y-104347755D02*
X187312564Y-104395374D01*
X186812564Y-104014422D02*
X186812564Y-103704898D01*
X186812564Y-103704898D02*
X187003040Y-103871565D01*
X187003040Y-103871565D02*
X187003040Y-103800136D01*
X187003040Y-103800136D02*
X187026850Y-103752517D01*
X187026850Y-103752517D02*
X187050659Y-103728708D01*
X187050659Y-103728708D02*
X187098278Y-103704898D01*
X187098278Y-103704898D02*
X187217326Y-103704898D01*
X187217326Y-103704898D02*
X187264945Y-103728708D01*
X187264945Y-103728708D02*
X187288755Y-103752517D01*
X187288755Y-103752517D02*
X187312564Y-103800136D01*
X187312564Y-103800136D02*
X187312564Y-103942993D01*
X187312564Y-103942993D02*
X187288755Y-103990612D01*
X187288755Y-103990612D02*
X187264945Y-104014422D01*
D10*
X184285143Y-110870057D02*
X184332762Y-110822438D01*
X184332762Y-110822438D02*
X184428000Y-110774819D01*
X184428000Y-110774819D02*
X184666095Y-110774819D01*
X184666095Y-110774819D02*
X184761333Y-110822438D01*
X184761333Y-110822438D02*
X184808952Y-110870057D01*
X184808952Y-110870057D02*
X184856571Y-110965295D01*
X184856571Y-110965295D02*
X184856571Y-111060533D01*
X184856571Y-111060533D02*
X184808952Y-111203390D01*
X184808952Y-111203390D02*
X184237524Y-111774819D01*
X184237524Y-111774819D02*
X184856571Y-111774819D01*
X185237524Y-110870057D02*
X185285143Y-110822438D01*
X185285143Y-110822438D02*
X185380381Y-110774819D01*
X185380381Y-110774819D02*
X185618476Y-110774819D01*
X185618476Y-110774819D02*
X185713714Y-110822438D01*
X185713714Y-110822438D02*
X185761333Y-110870057D01*
X185761333Y-110870057D02*
X185808952Y-110965295D01*
X185808952Y-110965295D02*
X185808952Y-111060533D01*
X185808952Y-111060533D02*
X185761333Y-111203390D01*
X185761333Y-111203390D02*
X185189905Y-111774819D01*
X185189905Y-111774819D02*
X185808952Y-111774819D01*
X186237524Y-111108152D02*
X186237524Y-111774819D01*
X186237524Y-111203390D02*
X186285143Y-111155771D01*
X186285143Y-111155771D02*
X186380381Y-111108152D01*
X186380381Y-111108152D02*
X186523238Y-111108152D01*
X186523238Y-111108152D02*
X186618476Y-111155771D01*
X186618476Y-111155771D02*
X186666095Y-111251009D01*
X186666095Y-111251009D02*
X186666095Y-111774819D01*
X187475619Y-111251009D02*
X187142286Y-111251009D01*
X187142286Y-111774819D02*
X187142286Y-110774819D01*
X187142286Y-110774819D02*
X187618476Y-110774819D01*
D12*
X185844666Y-113179530D02*
X185820857Y-113203340D01*
X185820857Y-113203340D02*
X185749428Y-113227149D01*
X185749428Y-113227149D02*
X185701809Y-113227149D01*
X185701809Y-113227149D02*
X185630381Y-113203340D01*
X185630381Y-113203340D02*
X185582762Y-113155720D01*
X185582762Y-113155720D02*
X185558952Y-113108101D01*
X185558952Y-113108101D02*
X185535143Y-113012863D01*
X185535143Y-113012863D02*
X185535143Y-112941435D01*
X185535143Y-112941435D02*
X185558952Y-112846197D01*
X185558952Y-112846197D02*
X185582762Y-112798578D01*
X185582762Y-112798578D02*
X185630381Y-112750959D01*
X185630381Y-112750959D02*
X185701809Y-112727149D01*
X185701809Y-112727149D02*
X185749428Y-112727149D01*
X185749428Y-112727149D02*
X185820857Y-112750959D01*
X185820857Y-112750959D02*
X185844666Y-112774768D01*
X186320857Y-113227149D02*
X186035143Y-113227149D01*
X186178000Y-113227149D02*
X186178000Y-112727149D01*
X186178000Y-112727149D02*
X186130381Y-112798578D01*
X186130381Y-112798578D02*
X186082762Y-112846197D01*
X186082762Y-112846197D02*
X186035143Y-112870006D01*
D10*
X194298819Y-54506666D02*
X194298819Y-55078094D01*
X194298819Y-54792380D02*
X193298819Y-54792380D01*
X193298819Y-54792380D02*
X193441676Y-54887618D01*
X193441676Y-54887618D02*
X193536914Y-54982856D01*
X193536914Y-54982856D02*
X193584533Y-55078094D01*
X193298819Y-53887618D02*
X193298819Y-53792380D01*
X193298819Y-53792380D02*
X193346438Y-53697142D01*
X193346438Y-53697142D02*
X193394057Y-53649523D01*
X193394057Y-53649523D02*
X193489295Y-53601904D01*
X193489295Y-53601904D02*
X193679771Y-53554285D01*
X193679771Y-53554285D02*
X193917866Y-53554285D01*
X193917866Y-53554285D02*
X194108342Y-53601904D01*
X194108342Y-53601904D02*
X194203580Y-53649523D01*
X194203580Y-53649523D02*
X194251200Y-53697142D01*
X194251200Y-53697142D02*
X194298819Y-53792380D01*
X194298819Y-53792380D02*
X194298819Y-53887618D01*
X194298819Y-53887618D02*
X194251200Y-53982856D01*
X194251200Y-53982856D02*
X194203580Y-54030475D01*
X194203580Y-54030475D02*
X194108342Y-54078094D01*
X194108342Y-54078094D02*
X193917866Y-54125713D01*
X193917866Y-54125713D02*
X193679771Y-54125713D01*
X193679771Y-54125713D02*
X193489295Y-54078094D01*
X193489295Y-54078094D02*
X193394057Y-54030475D01*
X193394057Y-54030475D02*
X193346438Y-53982856D01*
X193346438Y-53982856D02*
X193298819Y-53887618D01*
X194298819Y-53125713D02*
X193298819Y-53125713D01*
X193917866Y-53030475D02*
X194298819Y-52744761D01*
X193632152Y-52744761D02*
X194013104Y-53125713D01*
X194298819Y-52363808D02*
X194298819Y-52125713D01*
X194298819Y-52125713D02*
X194108342Y-52125713D01*
X194108342Y-52125713D02*
X194060723Y-52220951D01*
X194060723Y-52220951D02*
X193965485Y-52316189D01*
X193965485Y-52316189D02*
X193822628Y-52363808D01*
X193822628Y-52363808D02*
X193584533Y-52363808D01*
X193584533Y-52363808D02*
X193441676Y-52316189D01*
X193441676Y-52316189D02*
X193346438Y-52220951D01*
X193346438Y-52220951D02*
X193298819Y-52078094D01*
X193298819Y-52078094D02*
X193298819Y-51887618D01*
X193298819Y-51887618D02*
X193346438Y-51744761D01*
X193346438Y-51744761D02*
X193441676Y-51649523D01*
X193441676Y-51649523D02*
X193584533Y-51601904D01*
X193584533Y-51601904D02*
X193822628Y-51601904D01*
X193822628Y-51601904D02*
X193965485Y-51649523D01*
X193965485Y-51649523D02*
X194060723Y-51744761D01*
X194060723Y-51744761D02*
X194108342Y-51839999D01*
X194108342Y-51839999D02*
X194298819Y-51839999D01*
X194298819Y-51839999D02*
X194298819Y-51601904D01*
D11*
X192387855Y-53473332D02*
X192006902Y-53739999D01*
X192387855Y-53930475D02*
X191587855Y-53930475D01*
X191587855Y-53930475D02*
X191587855Y-53625713D01*
X191587855Y-53625713D02*
X191625950Y-53549523D01*
X191625950Y-53549523D02*
X191664045Y-53511428D01*
X191664045Y-53511428D02*
X191740236Y-53473332D01*
X191740236Y-53473332D02*
X191854521Y-53473332D01*
X191854521Y-53473332D02*
X191930712Y-53511428D01*
X191930712Y-53511428D02*
X191968807Y-53549523D01*
X191968807Y-53549523D02*
X192006902Y-53625713D01*
X192006902Y-53625713D02*
X192006902Y-53930475D01*
X191587855Y-53206666D02*
X191587855Y-52711428D01*
X191587855Y-52711428D02*
X191892617Y-52978094D01*
X191892617Y-52978094D02*
X191892617Y-52863809D01*
X191892617Y-52863809D02*
X191930712Y-52787618D01*
X191930712Y-52787618D02*
X191968807Y-52749523D01*
X191968807Y-52749523D02*
X192044998Y-52711428D01*
X192044998Y-52711428D02*
X192235474Y-52711428D01*
X192235474Y-52711428D02*
X192311664Y-52749523D01*
X192311664Y-52749523D02*
X192349760Y-52787618D01*
X192349760Y-52787618D02*
X192387855Y-52863809D01*
X192387855Y-52863809D02*
X192387855Y-53092380D01*
X192387855Y-53092380D02*
X192349760Y-53168571D01*
X192349760Y-53168571D02*
X192311664Y-53206666D01*
D10*
X179286381Y-77653200D02*
X179429238Y-77700819D01*
X179429238Y-77700819D02*
X179667333Y-77700819D01*
X179667333Y-77700819D02*
X179762571Y-77653200D01*
X179762571Y-77653200D02*
X179810190Y-77605580D01*
X179810190Y-77605580D02*
X179857809Y-77510342D01*
X179857809Y-77510342D02*
X179857809Y-77415104D01*
X179857809Y-77415104D02*
X179810190Y-77319866D01*
X179810190Y-77319866D02*
X179762571Y-77272247D01*
X179762571Y-77272247D02*
X179667333Y-77224628D01*
X179667333Y-77224628D02*
X179476857Y-77177009D01*
X179476857Y-77177009D02*
X179381619Y-77129390D01*
X179381619Y-77129390D02*
X179334000Y-77081771D01*
X179334000Y-77081771D02*
X179286381Y-76986533D01*
X179286381Y-76986533D02*
X179286381Y-76891295D01*
X179286381Y-76891295D02*
X179334000Y-76796057D01*
X179334000Y-76796057D02*
X179381619Y-76748438D01*
X179381619Y-76748438D02*
X179476857Y-76700819D01*
X179476857Y-76700819D02*
X179714952Y-76700819D01*
X179714952Y-76700819D02*
X179857809Y-76748438D01*
X180191143Y-76700819D02*
X180429238Y-77700819D01*
X180429238Y-77700819D02*
X180619714Y-76986533D01*
X180619714Y-76986533D02*
X180810190Y-77700819D01*
X180810190Y-77700819D02*
X181048286Y-76700819D01*
X181191143Y-77796057D02*
X181953047Y-77796057D01*
X182191143Y-77700819D02*
X182191143Y-76700819D01*
X182191143Y-76700819D02*
X182572095Y-76700819D01*
X182572095Y-76700819D02*
X182667333Y-76748438D01*
X182667333Y-76748438D02*
X182714952Y-76796057D01*
X182714952Y-76796057D02*
X182762571Y-76891295D01*
X182762571Y-76891295D02*
X182762571Y-77034152D01*
X182762571Y-77034152D02*
X182714952Y-77129390D01*
X182714952Y-77129390D02*
X182667333Y-77177009D01*
X182667333Y-77177009D02*
X182572095Y-77224628D01*
X182572095Y-77224628D02*
X182191143Y-77224628D01*
X183619714Y-77034152D02*
X183619714Y-77700819D01*
X183191143Y-77034152D02*
X183191143Y-77557961D01*
X183191143Y-77557961D02*
X183238762Y-77653200D01*
X183238762Y-77653200D02*
X183334000Y-77700819D01*
X183334000Y-77700819D02*
X183476857Y-77700819D01*
X183476857Y-77700819D02*
X183572095Y-77653200D01*
X183572095Y-77653200D02*
X183619714Y-77605580D01*
X184048286Y-77653200D02*
X184143524Y-77700819D01*
X184143524Y-77700819D02*
X184334000Y-77700819D01*
X184334000Y-77700819D02*
X184429238Y-77653200D01*
X184429238Y-77653200D02*
X184476857Y-77557961D01*
X184476857Y-77557961D02*
X184476857Y-77510342D01*
X184476857Y-77510342D02*
X184429238Y-77415104D01*
X184429238Y-77415104D02*
X184334000Y-77367485D01*
X184334000Y-77367485D02*
X184191143Y-77367485D01*
X184191143Y-77367485D02*
X184095905Y-77319866D01*
X184095905Y-77319866D02*
X184048286Y-77224628D01*
X184048286Y-77224628D02*
X184048286Y-77177009D01*
X184048286Y-77177009D02*
X184095905Y-77081771D01*
X184095905Y-77081771D02*
X184191143Y-77034152D01*
X184191143Y-77034152D02*
X184334000Y-77034152D01*
X184334000Y-77034152D02*
X184429238Y-77081771D01*
X184905429Y-77700819D02*
X184905429Y-76700819D01*
X185334000Y-77700819D02*
X185334000Y-77177009D01*
X185334000Y-77177009D02*
X185286381Y-77081771D01*
X185286381Y-77081771D02*
X185191143Y-77034152D01*
X185191143Y-77034152D02*
X185048286Y-77034152D01*
X185048286Y-77034152D02*
X184953048Y-77081771D01*
X184953048Y-77081771D02*
X184905429Y-77129390D01*
X180730667Y-70263200D02*
X180873524Y-70310819D01*
X180873524Y-70310819D02*
X181111619Y-70310819D01*
X181111619Y-70310819D02*
X181206857Y-70263200D01*
X181206857Y-70263200D02*
X181254476Y-70215580D01*
X181254476Y-70215580D02*
X181302095Y-70120342D01*
X181302095Y-70120342D02*
X181302095Y-70025104D01*
X181302095Y-70025104D02*
X181254476Y-69929866D01*
X181254476Y-69929866D02*
X181206857Y-69882247D01*
X181206857Y-69882247D02*
X181111619Y-69834628D01*
X181111619Y-69834628D02*
X180921143Y-69787009D01*
X180921143Y-69787009D02*
X180825905Y-69739390D01*
X180825905Y-69739390D02*
X180778286Y-69691771D01*
X180778286Y-69691771D02*
X180730667Y-69596533D01*
X180730667Y-69596533D02*
X180730667Y-69501295D01*
X180730667Y-69501295D02*
X180778286Y-69406057D01*
X180778286Y-69406057D02*
X180825905Y-69358438D01*
X180825905Y-69358438D02*
X180921143Y-69310819D01*
X180921143Y-69310819D02*
X181159238Y-69310819D01*
X181159238Y-69310819D02*
X181302095Y-69358438D01*
X181635429Y-69310819D02*
X181873524Y-70310819D01*
X181873524Y-70310819D02*
X182064000Y-69596533D01*
X182064000Y-69596533D02*
X182254476Y-70310819D01*
X182254476Y-70310819D02*
X182492572Y-69310819D01*
X182825905Y-69406057D02*
X182873524Y-69358438D01*
X182873524Y-69358438D02*
X182968762Y-69310819D01*
X182968762Y-69310819D02*
X183206857Y-69310819D01*
X183206857Y-69310819D02*
X183302095Y-69358438D01*
X183302095Y-69358438D02*
X183349714Y-69406057D01*
X183349714Y-69406057D02*
X183397333Y-69501295D01*
X183397333Y-69501295D02*
X183397333Y-69596533D01*
X183397333Y-69596533D02*
X183349714Y-69739390D01*
X183349714Y-69739390D02*
X182778286Y-70310819D01*
X182778286Y-70310819D02*
X183397333Y-70310819D01*
X110389427Y-74202819D02*
X109913237Y-74202819D01*
X109913237Y-74202819D02*
X109913237Y-73202819D01*
X110722761Y-73679009D02*
X111056094Y-73679009D01*
X111198951Y-74202819D02*
X110722761Y-74202819D01*
X110722761Y-74202819D02*
X110722761Y-73202819D01*
X110722761Y-73202819D02*
X111198951Y-73202819D01*
X111627523Y-74202819D02*
X111627523Y-73202819D01*
X111627523Y-73202819D02*
X111865618Y-73202819D01*
X111865618Y-73202819D02*
X112008475Y-73250438D01*
X112008475Y-73250438D02*
X112103713Y-73345676D01*
X112103713Y-73345676D02*
X112151332Y-73440914D01*
X112151332Y-73440914D02*
X112198951Y-73631390D01*
X112198951Y-73631390D02*
X112198951Y-73774247D01*
X112198951Y-73774247D02*
X112151332Y-73964723D01*
X112151332Y-73964723D02*
X112103713Y-74059961D01*
X112103713Y-74059961D02*
X112008475Y-74155200D01*
X112008475Y-74155200D02*
X111865618Y-74202819D01*
X111865618Y-74202819D02*
X111627523Y-74202819D01*
X112389428Y-74298057D02*
X113151332Y-74298057D01*
X113389428Y-74202819D02*
X113389428Y-73202819D01*
X113389428Y-73202819D02*
X113627523Y-73202819D01*
X113627523Y-73202819D02*
X113770380Y-73250438D01*
X113770380Y-73250438D02*
X113865618Y-73345676D01*
X113865618Y-73345676D02*
X113913237Y-73440914D01*
X113913237Y-73440914D02*
X113960856Y-73631390D01*
X113960856Y-73631390D02*
X113960856Y-73774247D01*
X113960856Y-73774247D02*
X113913237Y-73964723D01*
X113913237Y-73964723D02*
X113865618Y-74059961D01*
X113865618Y-74059961D02*
X113770380Y-74155200D01*
X113770380Y-74155200D02*
X113627523Y-74202819D01*
X113627523Y-74202819D02*
X113389428Y-74202819D01*
X114817999Y-73536152D02*
X114817999Y-74202819D01*
X114389428Y-73536152D02*
X114389428Y-74059961D01*
X114389428Y-74059961D02*
X114437047Y-74155200D01*
X114437047Y-74155200D02*
X114532285Y-74202819D01*
X114532285Y-74202819D02*
X114675142Y-74202819D01*
X114675142Y-74202819D02*
X114770380Y-74155200D01*
X114770380Y-74155200D02*
X114817999Y-74107580D01*
X115722761Y-74202819D02*
X115722761Y-73679009D01*
X115722761Y-73679009D02*
X115675142Y-73583771D01*
X115675142Y-73583771D02*
X115579904Y-73536152D01*
X115579904Y-73536152D02*
X115389428Y-73536152D01*
X115389428Y-73536152D02*
X115294190Y-73583771D01*
X115722761Y-74155200D02*
X115627523Y-74202819D01*
X115627523Y-74202819D02*
X115389428Y-74202819D01*
X115389428Y-74202819D02*
X115294190Y-74155200D01*
X115294190Y-74155200D02*
X115246571Y-74059961D01*
X115246571Y-74059961D02*
X115246571Y-73964723D01*
X115246571Y-73964723D02*
X115294190Y-73869485D01*
X115294190Y-73869485D02*
X115389428Y-73821866D01*
X115389428Y-73821866D02*
X115627523Y-73821866D01*
X115627523Y-73821866D02*
X115722761Y-73774247D01*
X116341809Y-74202819D02*
X116246571Y-74155200D01*
X116246571Y-74155200D02*
X116198952Y-74059961D01*
X116198952Y-74059961D02*
X116198952Y-73202819D01*
X116484667Y-74298057D02*
X117246571Y-74298057D01*
X117437048Y-73917104D02*
X117913238Y-73917104D01*
X117341810Y-74202819D02*
X117675143Y-73202819D01*
X117675143Y-73202819D02*
X118008476Y-74202819D01*
X118341810Y-74202819D02*
X118341810Y-73202819D01*
X118913238Y-74202819D02*
X118484667Y-73631390D01*
X118913238Y-73202819D02*
X118341810Y-73774247D01*
X119294191Y-73917104D02*
X119770381Y-73917104D01*
X119198953Y-74202819D02*
X119532286Y-73202819D01*
X119532286Y-73202819D02*
X119865619Y-74202819D01*
X112625333Y-117378819D02*
X112053905Y-117378819D01*
X112339619Y-117378819D02*
X112339619Y-116378819D01*
X112339619Y-116378819D02*
X112244381Y-116521676D01*
X112244381Y-116521676D02*
X112149143Y-116616914D01*
X112149143Y-116616914D02*
X112053905Y-116664533D01*
X113244381Y-116378819D02*
X113339619Y-116378819D01*
X113339619Y-116378819D02*
X113434857Y-116426438D01*
X113434857Y-116426438D02*
X113482476Y-116474057D01*
X113482476Y-116474057D02*
X113530095Y-116569295D01*
X113530095Y-116569295D02*
X113577714Y-116759771D01*
X113577714Y-116759771D02*
X113577714Y-116997866D01*
X113577714Y-116997866D02*
X113530095Y-117188342D01*
X113530095Y-117188342D02*
X113482476Y-117283580D01*
X113482476Y-117283580D02*
X113434857Y-117331200D01*
X113434857Y-117331200D02*
X113339619Y-117378819D01*
X113339619Y-117378819D02*
X113244381Y-117378819D01*
X113244381Y-117378819D02*
X113149143Y-117331200D01*
X113149143Y-117331200D02*
X113101524Y-117283580D01*
X113101524Y-117283580D02*
X113053905Y-117188342D01*
X113053905Y-117188342D02*
X113006286Y-116997866D01*
X113006286Y-116997866D02*
X113006286Y-116759771D01*
X113006286Y-116759771D02*
X113053905Y-116569295D01*
X113053905Y-116569295D02*
X113101524Y-116474057D01*
X113101524Y-116474057D02*
X113149143Y-116426438D01*
X113149143Y-116426438D02*
X113244381Y-116378819D01*
X114006286Y-117378819D02*
X114006286Y-116378819D01*
X114101524Y-116997866D02*
X114387238Y-117378819D01*
X114387238Y-116712152D02*
X114006286Y-117093104D01*
X114768191Y-117378819D02*
X115006286Y-117378819D01*
X115006286Y-117378819D02*
X115006286Y-117188342D01*
X115006286Y-117188342D02*
X114911048Y-117140723D01*
X114911048Y-117140723D02*
X114815810Y-117045485D01*
X114815810Y-117045485D02*
X114768191Y-116902628D01*
X114768191Y-116902628D02*
X114768191Y-116664533D01*
X114768191Y-116664533D02*
X114815810Y-116521676D01*
X114815810Y-116521676D02*
X114911048Y-116426438D01*
X114911048Y-116426438D02*
X115053905Y-116378819D01*
X115053905Y-116378819D02*
X115244381Y-116378819D01*
X115244381Y-116378819D02*
X115387238Y-116426438D01*
X115387238Y-116426438D02*
X115482476Y-116521676D01*
X115482476Y-116521676D02*
X115530095Y-116664533D01*
X115530095Y-116664533D02*
X115530095Y-116902628D01*
X115530095Y-116902628D02*
X115482476Y-117045485D01*
X115482476Y-117045485D02*
X115387238Y-117140723D01*
X115387238Y-117140723D02*
X115292000Y-117188342D01*
X115292000Y-117188342D02*
X115292000Y-117378819D01*
X115292000Y-117378819D02*
X115530095Y-117378819D01*
X113625333Y-115008819D02*
X113292000Y-114532628D01*
X113053905Y-115008819D02*
X113053905Y-114008819D01*
X113053905Y-114008819D02*
X113434857Y-114008819D01*
X113434857Y-114008819D02*
X113530095Y-114056438D01*
X113530095Y-114056438D02*
X113577714Y-114104057D01*
X113577714Y-114104057D02*
X113625333Y-114199295D01*
X113625333Y-114199295D02*
X113625333Y-114342152D01*
X113625333Y-114342152D02*
X113577714Y-114437390D01*
X113577714Y-114437390D02*
X113530095Y-114485009D01*
X113530095Y-114485009D02*
X113434857Y-114532628D01*
X113434857Y-114532628D02*
X113053905Y-114532628D01*
X114530095Y-114008819D02*
X114053905Y-114008819D01*
X114053905Y-114008819D02*
X114006286Y-114485009D01*
X114006286Y-114485009D02*
X114053905Y-114437390D01*
X114053905Y-114437390D02*
X114149143Y-114389771D01*
X114149143Y-114389771D02*
X114387238Y-114389771D01*
X114387238Y-114389771D02*
X114482476Y-114437390D01*
X114482476Y-114437390D02*
X114530095Y-114485009D01*
X114530095Y-114485009D02*
X114577714Y-114580247D01*
X114577714Y-114580247D02*
X114577714Y-114818342D01*
X114577714Y-114818342D02*
X114530095Y-114913580D01*
X114530095Y-114913580D02*
X114482476Y-114961200D01*
X114482476Y-114961200D02*
X114387238Y-115008819D01*
X114387238Y-115008819D02*
X114149143Y-115008819D01*
X114149143Y-115008819D02*
X114053905Y-114961200D01*
X114053905Y-114961200D02*
X114006286Y-114913580D01*
X149496580Y-125658095D02*
X149544200Y-125705714D01*
X149544200Y-125705714D02*
X149591819Y-125848571D01*
X149591819Y-125848571D02*
X149591819Y-125943809D01*
X149591819Y-125943809D02*
X149544200Y-126086666D01*
X149544200Y-126086666D02*
X149448961Y-126181904D01*
X149448961Y-126181904D02*
X149353723Y-126229523D01*
X149353723Y-126229523D02*
X149163247Y-126277142D01*
X149163247Y-126277142D02*
X149020390Y-126277142D01*
X149020390Y-126277142D02*
X148829914Y-126229523D01*
X148829914Y-126229523D02*
X148734676Y-126181904D01*
X148734676Y-126181904D02*
X148639438Y-126086666D01*
X148639438Y-126086666D02*
X148591819Y-125943809D01*
X148591819Y-125943809D02*
X148591819Y-125848571D01*
X148591819Y-125848571D02*
X148639438Y-125705714D01*
X148639438Y-125705714D02*
X148687057Y-125658095D01*
X149591819Y-125086666D02*
X149544200Y-125181904D01*
X149544200Y-125181904D02*
X149496580Y-125229523D01*
X149496580Y-125229523D02*
X149401342Y-125277142D01*
X149401342Y-125277142D02*
X149115628Y-125277142D01*
X149115628Y-125277142D02*
X149020390Y-125229523D01*
X149020390Y-125229523D02*
X148972771Y-125181904D01*
X148972771Y-125181904D02*
X148925152Y-125086666D01*
X148925152Y-125086666D02*
X148925152Y-124943809D01*
X148925152Y-124943809D02*
X148972771Y-124848571D01*
X148972771Y-124848571D02*
X149020390Y-124800952D01*
X149020390Y-124800952D02*
X149115628Y-124753333D01*
X149115628Y-124753333D02*
X149401342Y-124753333D01*
X149401342Y-124753333D02*
X149496580Y-124800952D01*
X149496580Y-124800952D02*
X149544200Y-124848571D01*
X149544200Y-124848571D02*
X149591819Y-124943809D01*
X149591819Y-124943809D02*
X149591819Y-125086666D01*
X148925152Y-124324761D02*
X149591819Y-124324761D01*
X149020390Y-124324761D02*
X148972771Y-124277142D01*
X148972771Y-124277142D02*
X148925152Y-124181904D01*
X148925152Y-124181904D02*
X148925152Y-124039047D01*
X148925152Y-124039047D02*
X148972771Y-123943809D01*
X148972771Y-123943809D02*
X149068009Y-123896190D01*
X149068009Y-123896190D02*
X149591819Y-123896190D01*
X148925152Y-123419999D02*
X149591819Y-123419999D01*
X149020390Y-123419999D02*
X148972771Y-123372380D01*
X148972771Y-123372380D02*
X148925152Y-123277142D01*
X148925152Y-123277142D02*
X148925152Y-123134285D01*
X148925152Y-123134285D02*
X148972771Y-123039047D01*
X148972771Y-123039047D02*
X149068009Y-122991428D01*
X149068009Y-122991428D02*
X149591819Y-122991428D01*
X149687057Y-122753333D02*
X149687057Y-121991428D01*
X148591819Y-121562856D02*
X148591819Y-121467618D01*
X148591819Y-121467618D02*
X148639438Y-121372380D01*
X148639438Y-121372380D02*
X148687057Y-121324761D01*
X148687057Y-121324761D02*
X148782295Y-121277142D01*
X148782295Y-121277142D02*
X148972771Y-121229523D01*
X148972771Y-121229523D02*
X149210866Y-121229523D01*
X149210866Y-121229523D02*
X149401342Y-121277142D01*
X149401342Y-121277142D02*
X149496580Y-121324761D01*
X149496580Y-121324761D02*
X149544200Y-121372380D01*
X149544200Y-121372380D02*
X149591819Y-121467618D01*
X149591819Y-121467618D02*
X149591819Y-121562856D01*
X149591819Y-121562856D02*
X149544200Y-121658094D01*
X149544200Y-121658094D02*
X149496580Y-121705713D01*
X149496580Y-121705713D02*
X149401342Y-121753332D01*
X149401342Y-121753332D02*
X149210866Y-121800951D01*
X149210866Y-121800951D02*
X148972771Y-121800951D01*
X148972771Y-121800951D02*
X148782295Y-121753332D01*
X148782295Y-121753332D02*
X148687057Y-121705713D01*
X148687057Y-121705713D02*
X148639438Y-121658094D01*
X148639438Y-121658094D02*
X148591819Y-121562856D01*
X149591819Y-120277142D02*
X149591819Y-120848570D01*
X149591819Y-120562856D02*
X148591819Y-120562856D01*
X148591819Y-120562856D02*
X148734676Y-120658094D01*
X148734676Y-120658094D02*
X148829914Y-120753332D01*
X148829914Y-120753332D02*
X148877533Y-120848570D01*
X149591819Y-119943808D02*
X148925152Y-119419999D01*
X148925152Y-119943808D02*
X149591819Y-119419999D01*
X148591819Y-118848570D02*
X148591819Y-118753332D01*
X148591819Y-118753332D02*
X148639438Y-118658094D01*
X148639438Y-118658094D02*
X148687057Y-118610475D01*
X148687057Y-118610475D02*
X148782295Y-118562856D01*
X148782295Y-118562856D02*
X148972771Y-118515237D01*
X148972771Y-118515237D02*
X149210866Y-118515237D01*
X149210866Y-118515237D02*
X149401342Y-118562856D01*
X149401342Y-118562856D02*
X149496580Y-118610475D01*
X149496580Y-118610475D02*
X149544200Y-118658094D01*
X149544200Y-118658094D02*
X149591819Y-118753332D01*
X149591819Y-118753332D02*
X149591819Y-118848570D01*
X149591819Y-118848570D02*
X149544200Y-118943808D01*
X149544200Y-118943808D02*
X149496580Y-118991427D01*
X149496580Y-118991427D02*
X149401342Y-119039046D01*
X149401342Y-119039046D02*
X149210866Y-119086665D01*
X149210866Y-119086665D02*
X148972771Y-119086665D01*
X148972771Y-119086665D02*
X148782295Y-119039046D01*
X148782295Y-119039046D02*
X148687057Y-118991427D01*
X148687057Y-118991427D02*
X148639438Y-118943808D01*
X148639438Y-118943808D02*
X148591819Y-118848570D01*
X148687057Y-118134284D02*
X148639438Y-118086665D01*
X148639438Y-118086665D02*
X148591819Y-117991427D01*
X148591819Y-117991427D02*
X148591819Y-117753332D01*
X148591819Y-117753332D02*
X148639438Y-117658094D01*
X148639438Y-117658094D02*
X148687057Y-117610475D01*
X148687057Y-117610475D02*
X148782295Y-117562856D01*
X148782295Y-117562856D02*
X148877533Y-117562856D01*
X148877533Y-117562856D02*
X149020390Y-117610475D01*
X149020390Y-117610475D02*
X149591819Y-118181903D01*
X149591819Y-118181903D02*
X149591819Y-117562856D01*
X145203666Y-121374819D02*
X145203666Y-122089104D01*
X145203666Y-122089104D02*
X145156047Y-122231961D01*
X145156047Y-122231961D02*
X145060809Y-122327200D01*
X145060809Y-122327200D02*
X144917952Y-122374819D01*
X144917952Y-122374819D02*
X144822714Y-122374819D01*
X145584619Y-121374819D02*
X146251285Y-121374819D01*
X146251285Y-121374819D02*
X145822714Y-122374819D01*
X102684009Y-98471904D02*
X102684009Y-98138571D01*
X103207819Y-97995714D02*
X103207819Y-98471904D01*
X103207819Y-98471904D02*
X102207819Y-98471904D01*
X102207819Y-98471904D02*
X102207819Y-97995714D01*
X103160200Y-97614761D02*
X103207819Y-97471904D01*
X103207819Y-97471904D02*
X103207819Y-97233809D01*
X103207819Y-97233809D02*
X103160200Y-97138571D01*
X103160200Y-97138571D02*
X103112580Y-97090952D01*
X103112580Y-97090952D02*
X103017342Y-97043333D01*
X103017342Y-97043333D02*
X102922104Y-97043333D01*
X102922104Y-97043333D02*
X102826866Y-97090952D01*
X102826866Y-97090952D02*
X102779247Y-97138571D01*
X102779247Y-97138571D02*
X102731628Y-97233809D01*
X102731628Y-97233809D02*
X102684009Y-97424285D01*
X102684009Y-97424285D02*
X102636390Y-97519523D01*
X102636390Y-97519523D02*
X102588771Y-97567142D01*
X102588771Y-97567142D02*
X102493533Y-97614761D01*
X102493533Y-97614761D02*
X102398295Y-97614761D01*
X102398295Y-97614761D02*
X102303057Y-97567142D01*
X102303057Y-97567142D02*
X102255438Y-97519523D01*
X102255438Y-97519523D02*
X102207819Y-97424285D01*
X102207819Y-97424285D02*
X102207819Y-97186190D01*
X102207819Y-97186190D02*
X102255438Y-97043333D01*
X103207819Y-96614761D02*
X102207819Y-96614761D01*
X102207819Y-96614761D02*
X102207819Y-96233809D01*
X102207819Y-96233809D02*
X102255438Y-96138571D01*
X102255438Y-96138571D02*
X102303057Y-96090952D01*
X102303057Y-96090952D02*
X102398295Y-96043333D01*
X102398295Y-96043333D02*
X102541152Y-96043333D01*
X102541152Y-96043333D02*
X102636390Y-96090952D01*
X102636390Y-96090952D02*
X102684009Y-96138571D01*
X102684009Y-96138571D02*
X102731628Y-96233809D01*
X102731628Y-96233809D02*
X102731628Y-96614761D01*
X102207819Y-95709999D02*
X102207819Y-95090952D01*
X102207819Y-95090952D02*
X102588771Y-95424285D01*
X102588771Y-95424285D02*
X102588771Y-95281428D01*
X102588771Y-95281428D02*
X102636390Y-95186190D01*
X102636390Y-95186190D02*
X102684009Y-95138571D01*
X102684009Y-95138571D02*
X102779247Y-95090952D01*
X102779247Y-95090952D02*
X103017342Y-95090952D01*
X103017342Y-95090952D02*
X103112580Y-95138571D01*
X103112580Y-95138571D02*
X103160200Y-95186190D01*
X103160200Y-95186190D02*
X103207819Y-95281428D01*
X103207819Y-95281428D02*
X103207819Y-95567142D01*
X103207819Y-95567142D02*
X103160200Y-95662380D01*
X103160200Y-95662380D02*
X103112580Y-95709999D01*
X102303057Y-94709999D02*
X102255438Y-94662380D01*
X102255438Y-94662380D02*
X102207819Y-94567142D01*
X102207819Y-94567142D02*
X102207819Y-94329047D01*
X102207819Y-94329047D02*
X102255438Y-94233809D01*
X102255438Y-94233809D02*
X102303057Y-94186190D01*
X102303057Y-94186190D02*
X102398295Y-94138571D01*
X102398295Y-94138571D02*
X102493533Y-94138571D01*
X102493533Y-94138571D02*
X102636390Y-94186190D01*
X102636390Y-94186190D02*
X103207819Y-94757618D01*
X103207819Y-94757618D02*
X103207819Y-94138571D01*
X102826866Y-93709999D02*
X102826866Y-92948095D01*
X103207819Y-92471904D02*
X102207819Y-92471904D01*
X102207819Y-92471904D02*
X102207819Y-92233809D01*
X102207819Y-92233809D02*
X102255438Y-92090952D01*
X102255438Y-92090952D02*
X102350676Y-91995714D01*
X102350676Y-91995714D02*
X102445914Y-91948095D01*
X102445914Y-91948095D02*
X102636390Y-91900476D01*
X102636390Y-91900476D02*
X102779247Y-91900476D01*
X102779247Y-91900476D02*
X102969723Y-91948095D01*
X102969723Y-91948095D02*
X103064961Y-91995714D01*
X103064961Y-91995714D02*
X103160200Y-92090952D01*
X103160200Y-92090952D02*
X103207819Y-92233809D01*
X103207819Y-92233809D02*
X103207819Y-92471904D01*
X102684009Y-91471904D02*
X102684009Y-91138571D01*
X103207819Y-90995714D02*
X103207819Y-91471904D01*
X103207819Y-91471904D02*
X102207819Y-91471904D01*
X102207819Y-91471904D02*
X102207819Y-90995714D01*
X102207819Y-90709999D02*
X103207819Y-90376666D01*
X103207819Y-90376666D02*
X102207819Y-90043333D01*
X103207819Y-89709999D02*
X102207819Y-89709999D01*
X103207819Y-89138571D02*
X102636390Y-89567142D01*
X102207819Y-89138571D02*
X102779247Y-89709999D01*
X103207819Y-88709999D02*
X102207819Y-88709999D01*
X102207819Y-88376666D02*
X102207819Y-87805238D01*
X103207819Y-88090952D02*
X102207819Y-88090952D01*
X103112580Y-86900476D02*
X103160200Y-86948095D01*
X103160200Y-86948095D02*
X103207819Y-87090952D01*
X103207819Y-87090952D02*
X103207819Y-87186190D01*
X103207819Y-87186190D02*
X103160200Y-87329047D01*
X103160200Y-87329047D02*
X103064961Y-87424285D01*
X103064961Y-87424285D02*
X102969723Y-87471904D01*
X102969723Y-87471904D02*
X102779247Y-87519523D01*
X102779247Y-87519523D02*
X102636390Y-87519523D01*
X102636390Y-87519523D02*
X102445914Y-87471904D01*
X102445914Y-87471904D02*
X102350676Y-87424285D01*
X102350676Y-87424285D02*
X102255438Y-87329047D01*
X102255438Y-87329047D02*
X102207819Y-87186190D01*
X102207819Y-87186190D02*
X102207819Y-87090952D01*
X102207819Y-87090952D02*
X102255438Y-86948095D01*
X102255438Y-86948095D02*
X102303057Y-86900476D01*
X158281905Y-123586057D02*
X158329524Y-123538438D01*
X158329524Y-123538438D02*
X158424762Y-123490819D01*
X158424762Y-123490819D02*
X158662857Y-123490819D01*
X158662857Y-123490819D02*
X158758095Y-123538438D01*
X158758095Y-123538438D02*
X158805714Y-123586057D01*
X158805714Y-123586057D02*
X158853333Y-123681295D01*
X158853333Y-123681295D02*
X158853333Y-123776533D01*
X158853333Y-123776533D02*
X158805714Y-123919390D01*
X158805714Y-123919390D02*
X158234286Y-124490819D01*
X158234286Y-124490819D02*
X158853333Y-124490819D01*
X159186667Y-123490819D02*
X159853333Y-123490819D01*
X159853333Y-123490819D02*
X159424762Y-124490819D01*
X160234286Y-124490819D02*
X160234286Y-123490819D01*
X160329524Y-124109866D02*
X160615238Y-124490819D01*
X160615238Y-123824152D02*
X160234286Y-124205104D01*
X160996191Y-124490819D02*
X161234286Y-124490819D01*
X161234286Y-124490819D02*
X161234286Y-124300342D01*
X161234286Y-124300342D02*
X161139048Y-124252723D01*
X161139048Y-124252723D02*
X161043810Y-124157485D01*
X161043810Y-124157485D02*
X160996191Y-124014628D01*
X160996191Y-124014628D02*
X160996191Y-123776533D01*
X160996191Y-123776533D02*
X161043810Y-123633676D01*
X161043810Y-123633676D02*
X161139048Y-123538438D01*
X161139048Y-123538438D02*
X161281905Y-123490819D01*
X161281905Y-123490819D02*
X161472381Y-123490819D01*
X161472381Y-123490819D02*
X161615238Y-123538438D01*
X161615238Y-123538438D02*
X161710476Y-123633676D01*
X161710476Y-123633676D02*
X161758095Y-123776533D01*
X161758095Y-123776533D02*
X161758095Y-124014628D01*
X161758095Y-124014628D02*
X161710476Y-124157485D01*
X161710476Y-124157485D02*
X161615238Y-124252723D01*
X161615238Y-124252723D02*
X161520000Y-124300342D01*
X161520000Y-124300342D02*
X161520000Y-124490819D01*
X161520000Y-124490819D02*
X161758095Y-124490819D01*
X159377142Y-122120819D02*
X159043809Y-121644628D01*
X158805714Y-122120819D02*
X158805714Y-121120819D01*
X158805714Y-121120819D02*
X159186666Y-121120819D01*
X159186666Y-121120819D02*
X159281904Y-121168438D01*
X159281904Y-121168438D02*
X159329523Y-121216057D01*
X159329523Y-121216057D02*
X159377142Y-121311295D01*
X159377142Y-121311295D02*
X159377142Y-121454152D01*
X159377142Y-121454152D02*
X159329523Y-121549390D01*
X159329523Y-121549390D02*
X159281904Y-121597009D01*
X159281904Y-121597009D02*
X159186666Y-121644628D01*
X159186666Y-121644628D02*
X158805714Y-121644628D01*
X160329523Y-122120819D02*
X159758095Y-122120819D01*
X160043809Y-122120819D02*
X160043809Y-121120819D01*
X160043809Y-121120819D02*
X159948571Y-121263676D01*
X159948571Y-121263676D02*
X159853333Y-121358914D01*
X159853333Y-121358914D02*
X159758095Y-121406533D01*
X161281904Y-122120819D02*
X160710476Y-122120819D01*
X160996190Y-122120819D02*
X160996190Y-121120819D01*
X160996190Y-121120819D02*
X160900952Y-121263676D01*
X160900952Y-121263676D02*
X160805714Y-121358914D01*
X160805714Y-121358914D02*
X160710476Y-121406533D01*
X163012571Y-109322819D02*
X162441143Y-109322819D01*
X162726857Y-109322819D02*
X162726857Y-108322819D01*
X162726857Y-108322819D02*
X162631619Y-108465676D01*
X162631619Y-108465676D02*
X162536381Y-108560914D01*
X162536381Y-108560914D02*
X162441143Y-108608533D01*
X163631619Y-108322819D02*
X163726857Y-108322819D01*
X163726857Y-108322819D02*
X163822095Y-108370438D01*
X163822095Y-108370438D02*
X163869714Y-108418057D01*
X163869714Y-108418057D02*
X163917333Y-108513295D01*
X163917333Y-108513295D02*
X163964952Y-108703771D01*
X163964952Y-108703771D02*
X163964952Y-108941866D01*
X163964952Y-108941866D02*
X163917333Y-109132342D01*
X163917333Y-109132342D02*
X163869714Y-109227580D01*
X163869714Y-109227580D02*
X163822095Y-109275200D01*
X163822095Y-109275200D02*
X163726857Y-109322819D01*
X163726857Y-109322819D02*
X163631619Y-109322819D01*
X163631619Y-109322819D02*
X163536381Y-109275200D01*
X163536381Y-109275200D02*
X163488762Y-109227580D01*
X163488762Y-109227580D02*
X163441143Y-109132342D01*
X163441143Y-109132342D02*
X163393524Y-108941866D01*
X163393524Y-108941866D02*
X163393524Y-108703771D01*
X163393524Y-108703771D02*
X163441143Y-108513295D01*
X163441143Y-108513295D02*
X163488762Y-108418057D01*
X163488762Y-108418057D02*
X163536381Y-108370438D01*
X163536381Y-108370438D02*
X163631619Y-108322819D01*
X164822095Y-108656152D02*
X164822095Y-109322819D01*
X164393524Y-108656152D02*
X164393524Y-109179961D01*
X164393524Y-109179961D02*
X164441143Y-109275200D01*
X164441143Y-109275200D02*
X164536381Y-109322819D01*
X164536381Y-109322819D02*
X164679238Y-109322819D01*
X164679238Y-109322819D02*
X164774476Y-109275200D01*
X164774476Y-109275200D02*
X164822095Y-109227580D01*
X165631619Y-108799009D02*
X165298286Y-108799009D01*
X165298286Y-109322819D02*
X165298286Y-108322819D01*
X165298286Y-108322819D02*
X165774476Y-108322819D01*
D12*
X164000666Y-107367530D02*
X163976857Y-107391340D01*
X163976857Y-107391340D02*
X163905428Y-107415149D01*
X163905428Y-107415149D02*
X163857809Y-107415149D01*
X163857809Y-107415149D02*
X163786381Y-107391340D01*
X163786381Y-107391340D02*
X163738762Y-107343720D01*
X163738762Y-107343720D02*
X163714952Y-107296101D01*
X163714952Y-107296101D02*
X163691143Y-107200863D01*
X163691143Y-107200863D02*
X163691143Y-107129435D01*
X163691143Y-107129435D02*
X163714952Y-107034197D01*
X163714952Y-107034197D02*
X163738762Y-106986578D01*
X163738762Y-106986578D02*
X163786381Y-106938959D01*
X163786381Y-106938959D02*
X163857809Y-106915149D01*
X163857809Y-106915149D02*
X163905428Y-106915149D01*
X163905428Y-106915149D02*
X163976857Y-106938959D01*
X163976857Y-106938959D02*
X164000666Y-106962768D01*
X164167333Y-106915149D02*
X164476857Y-106915149D01*
X164476857Y-106915149D02*
X164310190Y-107105625D01*
X164310190Y-107105625D02*
X164381619Y-107105625D01*
X164381619Y-107105625D02*
X164429238Y-107129435D01*
X164429238Y-107129435D02*
X164453047Y-107153244D01*
X164453047Y-107153244D02*
X164476857Y-107200863D01*
X164476857Y-107200863D02*
X164476857Y-107319911D01*
X164476857Y-107319911D02*
X164453047Y-107367530D01*
X164453047Y-107367530D02*
X164429238Y-107391340D01*
X164429238Y-107391340D02*
X164381619Y-107415149D01*
X164381619Y-107415149D02*
X164238762Y-107415149D01*
X164238762Y-107415149D02*
X164191143Y-107391340D01*
X164191143Y-107391340D02*
X164167333Y-107367530D01*
D10*
X127432819Y-67345523D02*
X127432819Y-66726476D01*
X127432819Y-66726476D02*
X127813771Y-67059809D01*
X127813771Y-67059809D02*
X127813771Y-66916952D01*
X127813771Y-66916952D02*
X127861390Y-66821714D01*
X127861390Y-66821714D02*
X127909009Y-66774095D01*
X127909009Y-66774095D02*
X128004247Y-66726476D01*
X128004247Y-66726476D02*
X128242342Y-66726476D01*
X128242342Y-66726476D02*
X128337580Y-66774095D01*
X128337580Y-66774095D02*
X128385200Y-66821714D01*
X128385200Y-66821714D02*
X128432819Y-66916952D01*
X128432819Y-66916952D02*
X128432819Y-67202666D01*
X128432819Y-67202666D02*
X128385200Y-67297904D01*
X128385200Y-67297904D02*
X128337580Y-67345523D01*
X127528057Y-66345523D02*
X127480438Y-66297904D01*
X127480438Y-66297904D02*
X127432819Y-66202666D01*
X127432819Y-66202666D02*
X127432819Y-65964571D01*
X127432819Y-65964571D02*
X127480438Y-65869333D01*
X127480438Y-65869333D02*
X127528057Y-65821714D01*
X127528057Y-65821714D02*
X127623295Y-65774095D01*
X127623295Y-65774095D02*
X127718533Y-65774095D01*
X127718533Y-65774095D02*
X127861390Y-65821714D01*
X127861390Y-65821714D02*
X128432819Y-66393142D01*
X128432819Y-66393142D02*
X128432819Y-65774095D01*
X128337580Y-65345523D02*
X128385200Y-65297904D01*
X128385200Y-65297904D02*
X128432819Y-65345523D01*
X128432819Y-65345523D02*
X128385200Y-65393142D01*
X128385200Y-65393142D02*
X128337580Y-65345523D01*
X128337580Y-65345523D02*
X128432819Y-65345523D01*
X127432819Y-64964571D02*
X127432819Y-64297905D01*
X127432819Y-64297905D02*
X128432819Y-64726476D01*
X127432819Y-63488381D02*
X127432819Y-63678857D01*
X127432819Y-63678857D02*
X127480438Y-63774095D01*
X127480438Y-63774095D02*
X127528057Y-63821714D01*
X127528057Y-63821714D02*
X127670914Y-63916952D01*
X127670914Y-63916952D02*
X127861390Y-63964571D01*
X127861390Y-63964571D02*
X128242342Y-63964571D01*
X128242342Y-63964571D02*
X128337580Y-63916952D01*
X128337580Y-63916952D02*
X128385200Y-63869333D01*
X128385200Y-63869333D02*
X128432819Y-63774095D01*
X128432819Y-63774095D02*
X128432819Y-63583619D01*
X128432819Y-63583619D02*
X128385200Y-63488381D01*
X128385200Y-63488381D02*
X128337580Y-63440762D01*
X128337580Y-63440762D02*
X128242342Y-63393143D01*
X128242342Y-63393143D02*
X128004247Y-63393143D01*
X128004247Y-63393143D02*
X127909009Y-63440762D01*
X127909009Y-63440762D02*
X127861390Y-63488381D01*
X127861390Y-63488381D02*
X127813771Y-63583619D01*
X127813771Y-63583619D02*
X127813771Y-63774095D01*
X127813771Y-63774095D02*
X127861390Y-63869333D01*
X127861390Y-63869333D02*
X127909009Y-63916952D01*
X127909009Y-63916952D02*
X128004247Y-63964571D01*
X127861390Y-62821714D02*
X127813771Y-62916952D01*
X127813771Y-62916952D02*
X127766152Y-62964571D01*
X127766152Y-62964571D02*
X127670914Y-63012190D01*
X127670914Y-63012190D02*
X127623295Y-63012190D01*
X127623295Y-63012190D02*
X127528057Y-62964571D01*
X127528057Y-62964571D02*
X127480438Y-62916952D01*
X127480438Y-62916952D02*
X127432819Y-62821714D01*
X127432819Y-62821714D02*
X127432819Y-62631238D01*
X127432819Y-62631238D02*
X127480438Y-62536000D01*
X127480438Y-62536000D02*
X127528057Y-62488381D01*
X127528057Y-62488381D02*
X127623295Y-62440762D01*
X127623295Y-62440762D02*
X127670914Y-62440762D01*
X127670914Y-62440762D02*
X127766152Y-62488381D01*
X127766152Y-62488381D02*
X127813771Y-62536000D01*
X127813771Y-62536000D02*
X127861390Y-62631238D01*
X127861390Y-62631238D02*
X127861390Y-62821714D01*
X127861390Y-62821714D02*
X127909009Y-62916952D01*
X127909009Y-62916952D02*
X127956628Y-62964571D01*
X127956628Y-62964571D02*
X128051866Y-63012190D01*
X128051866Y-63012190D02*
X128242342Y-63012190D01*
X128242342Y-63012190D02*
X128337580Y-62964571D01*
X128337580Y-62964571D02*
X128385200Y-62916952D01*
X128385200Y-62916952D02*
X128432819Y-62821714D01*
X128432819Y-62821714D02*
X128432819Y-62631238D01*
X128432819Y-62631238D02*
X128385200Y-62536000D01*
X128385200Y-62536000D02*
X128337580Y-62488381D01*
X128337580Y-62488381D02*
X128242342Y-62440762D01*
X128242342Y-62440762D02*
X128051866Y-62440762D01*
X128051866Y-62440762D02*
X127956628Y-62488381D01*
X127956628Y-62488381D02*
X127909009Y-62536000D01*
X127909009Y-62536000D02*
X127861390Y-62631238D01*
X128432819Y-62012190D02*
X127432819Y-62012190D01*
X128051866Y-61916952D02*
X128432819Y-61631238D01*
X127766152Y-61631238D02*
X128147104Y-62012190D01*
X128432819Y-61202666D02*
X127432819Y-61202666D01*
X127909009Y-61202666D02*
X127909009Y-60631238D01*
X128432819Y-60631238D02*
X127432819Y-60631238D01*
X127766152Y-60250285D02*
X127766152Y-59726476D01*
X127766152Y-59726476D02*
X128432819Y-60250285D01*
X128432819Y-60250285D02*
X128432819Y-59726476D01*
D14*
X130683040Y-59619333D02*
X131016373Y-59619333D01*
X130316373Y-59852666D02*
X130683040Y-59619333D01*
X130683040Y-59619333D02*
X130316373Y-59385999D01*
X131016373Y-58785999D02*
X131016373Y-59185999D01*
X131016373Y-58985999D02*
X130316373Y-58985999D01*
X130316373Y-58985999D02*
X130416373Y-59052666D01*
X130416373Y-59052666D02*
X130483040Y-59119333D01*
X130483040Y-59119333D02*
X130516373Y-59185999D01*
D10*
X173585333Y-111748819D02*
X173013905Y-111748819D01*
X173299619Y-111748819D02*
X173299619Y-110748819D01*
X173299619Y-110748819D02*
X173204381Y-110891676D01*
X173204381Y-110891676D02*
X173109143Y-110986914D01*
X173109143Y-110986914D02*
X173013905Y-111034533D01*
X174204381Y-110748819D02*
X174299619Y-110748819D01*
X174299619Y-110748819D02*
X174394857Y-110796438D01*
X174394857Y-110796438D02*
X174442476Y-110844057D01*
X174442476Y-110844057D02*
X174490095Y-110939295D01*
X174490095Y-110939295D02*
X174537714Y-111129771D01*
X174537714Y-111129771D02*
X174537714Y-111367866D01*
X174537714Y-111367866D02*
X174490095Y-111558342D01*
X174490095Y-111558342D02*
X174442476Y-111653580D01*
X174442476Y-111653580D02*
X174394857Y-111701200D01*
X174394857Y-111701200D02*
X174299619Y-111748819D01*
X174299619Y-111748819D02*
X174204381Y-111748819D01*
X174204381Y-111748819D02*
X174109143Y-111701200D01*
X174109143Y-111701200D02*
X174061524Y-111653580D01*
X174061524Y-111653580D02*
X174013905Y-111558342D01*
X174013905Y-111558342D02*
X173966286Y-111367866D01*
X173966286Y-111367866D02*
X173966286Y-111129771D01*
X173966286Y-111129771D02*
X174013905Y-110939295D01*
X174013905Y-110939295D02*
X174061524Y-110844057D01*
X174061524Y-110844057D02*
X174109143Y-110796438D01*
X174109143Y-110796438D02*
X174204381Y-110748819D01*
X174966286Y-111748819D02*
X174966286Y-110748819D01*
X175061524Y-111367866D02*
X175347238Y-111748819D01*
X175347238Y-111082152D02*
X174966286Y-111463104D01*
X175728191Y-111748819D02*
X175966286Y-111748819D01*
X175966286Y-111748819D02*
X175966286Y-111558342D01*
X175966286Y-111558342D02*
X175871048Y-111510723D01*
X175871048Y-111510723D02*
X175775810Y-111415485D01*
X175775810Y-111415485D02*
X175728191Y-111272628D01*
X175728191Y-111272628D02*
X175728191Y-111034533D01*
X175728191Y-111034533D02*
X175775810Y-110891676D01*
X175775810Y-110891676D02*
X175871048Y-110796438D01*
X175871048Y-110796438D02*
X176013905Y-110748819D01*
X176013905Y-110748819D02*
X176204381Y-110748819D01*
X176204381Y-110748819D02*
X176347238Y-110796438D01*
X176347238Y-110796438D02*
X176442476Y-110891676D01*
X176442476Y-110891676D02*
X176490095Y-111034533D01*
X176490095Y-111034533D02*
X176490095Y-111272628D01*
X176490095Y-111272628D02*
X176442476Y-111415485D01*
X176442476Y-111415485D02*
X176347238Y-111510723D01*
X176347238Y-111510723D02*
X176252000Y-111558342D01*
X176252000Y-111558342D02*
X176252000Y-111748819D01*
X176252000Y-111748819D02*
X176490095Y-111748819D01*
D11*
X174237714Y-109837855D02*
X173971047Y-109456902D01*
X173780571Y-109837855D02*
X173780571Y-109037855D01*
X173780571Y-109037855D02*
X174085333Y-109037855D01*
X174085333Y-109037855D02*
X174161523Y-109075950D01*
X174161523Y-109075950D02*
X174199618Y-109114045D01*
X174199618Y-109114045D02*
X174237714Y-109190236D01*
X174237714Y-109190236D02*
X174237714Y-109304521D01*
X174237714Y-109304521D02*
X174199618Y-109380712D01*
X174199618Y-109380712D02*
X174161523Y-109418807D01*
X174161523Y-109418807D02*
X174085333Y-109456902D01*
X174085333Y-109456902D02*
X173780571Y-109456902D01*
X174999618Y-109837855D02*
X174542475Y-109837855D01*
X174771047Y-109837855D02*
X174771047Y-109037855D01*
X174771047Y-109037855D02*
X174694856Y-109152140D01*
X174694856Y-109152140D02*
X174618666Y-109228331D01*
X174618666Y-109228331D02*
X174542475Y-109266426D01*
X175723428Y-109037855D02*
X175342476Y-109037855D01*
X175342476Y-109037855D02*
X175304380Y-109418807D01*
X175304380Y-109418807D02*
X175342476Y-109380712D01*
X175342476Y-109380712D02*
X175418666Y-109342617D01*
X175418666Y-109342617D02*
X175609142Y-109342617D01*
X175609142Y-109342617D02*
X175685333Y-109380712D01*
X175685333Y-109380712D02*
X175723428Y-109418807D01*
X175723428Y-109418807D02*
X175761523Y-109494998D01*
X175761523Y-109494998D02*
X175761523Y-109685474D01*
X175761523Y-109685474D02*
X175723428Y-109761664D01*
X175723428Y-109761664D02*
X175685333Y-109799760D01*
X175685333Y-109799760D02*
X175609142Y-109837855D01*
X175609142Y-109837855D02*
X175418666Y-109837855D01*
X175418666Y-109837855D02*
X175342476Y-109799760D01*
X175342476Y-109799760D02*
X175304380Y-109761664D01*
D10*
X112006286Y-120696819D02*
X112625333Y-120696819D01*
X112625333Y-120696819D02*
X112292000Y-121077771D01*
X112292000Y-121077771D02*
X112434857Y-121077771D01*
X112434857Y-121077771D02*
X112530095Y-121125390D01*
X112530095Y-121125390D02*
X112577714Y-121173009D01*
X112577714Y-121173009D02*
X112625333Y-121268247D01*
X112625333Y-121268247D02*
X112625333Y-121506342D01*
X112625333Y-121506342D02*
X112577714Y-121601580D01*
X112577714Y-121601580D02*
X112530095Y-121649200D01*
X112530095Y-121649200D02*
X112434857Y-121696819D01*
X112434857Y-121696819D02*
X112149143Y-121696819D01*
X112149143Y-121696819D02*
X112053905Y-121649200D01*
X112053905Y-121649200D02*
X112006286Y-121601580D01*
X112958667Y-120696819D02*
X113577714Y-120696819D01*
X113577714Y-120696819D02*
X113244381Y-121077771D01*
X113244381Y-121077771D02*
X113387238Y-121077771D01*
X113387238Y-121077771D02*
X113482476Y-121125390D01*
X113482476Y-121125390D02*
X113530095Y-121173009D01*
X113530095Y-121173009D02*
X113577714Y-121268247D01*
X113577714Y-121268247D02*
X113577714Y-121506342D01*
X113577714Y-121506342D02*
X113530095Y-121601580D01*
X113530095Y-121601580D02*
X113482476Y-121649200D01*
X113482476Y-121649200D02*
X113387238Y-121696819D01*
X113387238Y-121696819D02*
X113101524Y-121696819D01*
X113101524Y-121696819D02*
X113006286Y-121649200D01*
X113006286Y-121649200D02*
X112958667Y-121601580D01*
X114006286Y-121696819D02*
X114006286Y-120696819D01*
X114101524Y-121315866D02*
X114387238Y-121696819D01*
X114387238Y-121030152D02*
X114006286Y-121411104D01*
X114768191Y-121696819D02*
X115006286Y-121696819D01*
X115006286Y-121696819D02*
X115006286Y-121506342D01*
X115006286Y-121506342D02*
X114911048Y-121458723D01*
X114911048Y-121458723D02*
X114815810Y-121363485D01*
X114815810Y-121363485D02*
X114768191Y-121220628D01*
X114768191Y-121220628D02*
X114768191Y-120982533D01*
X114768191Y-120982533D02*
X114815810Y-120839676D01*
X114815810Y-120839676D02*
X114911048Y-120744438D01*
X114911048Y-120744438D02*
X115053905Y-120696819D01*
X115053905Y-120696819D02*
X115244381Y-120696819D01*
X115244381Y-120696819D02*
X115387238Y-120744438D01*
X115387238Y-120744438D02*
X115482476Y-120839676D01*
X115482476Y-120839676D02*
X115530095Y-120982533D01*
X115530095Y-120982533D02*
X115530095Y-121220628D01*
X115530095Y-121220628D02*
X115482476Y-121363485D01*
X115482476Y-121363485D02*
X115387238Y-121458723D01*
X115387238Y-121458723D02*
X115292000Y-121506342D01*
X115292000Y-121506342D02*
X115292000Y-121696819D01*
X115292000Y-121696819D02*
X115530095Y-121696819D01*
X113625333Y-119326819D02*
X113292000Y-118850628D01*
X113053905Y-119326819D02*
X113053905Y-118326819D01*
X113053905Y-118326819D02*
X113434857Y-118326819D01*
X113434857Y-118326819D02*
X113530095Y-118374438D01*
X113530095Y-118374438D02*
X113577714Y-118422057D01*
X113577714Y-118422057D02*
X113625333Y-118517295D01*
X113625333Y-118517295D02*
X113625333Y-118660152D01*
X113625333Y-118660152D02*
X113577714Y-118755390D01*
X113577714Y-118755390D02*
X113530095Y-118803009D01*
X113530095Y-118803009D02*
X113434857Y-118850628D01*
X113434857Y-118850628D02*
X113053905Y-118850628D01*
X114482476Y-118660152D02*
X114482476Y-119326819D01*
X114244381Y-118279200D02*
X114006286Y-118993485D01*
X114006286Y-118993485D02*
X114625333Y-118993485D01*
X158377142Y-125846819D02*
X157805714Y-125846819D01*
X158091428Y-125846819D02*
X158091428Y-124846819D01*
X158091428Y-124846819D02*
X157996190Y-124989676D01*
X157996190Y-124989676D02*
X157900952Y-125084914D01*
X157900952Y-125084914D02*
X157805714Y-125132533D01*
X158996190Y-124846819D02*
X159091428Y-124846819D01*
X159091428Y-124846819D02*
X159186666Y-124894438D01*
X159186666Y-124894438D02*
X159234285Y-124942057D01*
X159234285Y-124942057D02*
X159281904Y-125037295D01*
X159281904Y-125037295D02*
X159329523Y-125227771D01*
X159329523Y-125227771D02*
X159329523Y-125465866D01*
X159329523Y-125465866D02*
X159281904Y-125656342D01*
X159281904Y-125656342D02*
X159234285Y-125751580D01*
X159234285Y-125751580D02*
X159186666Y-125799200D01*
X159186666Y-125799200D02*
X159091428Y-125846819D01*
X159091428Y-125846819D02*
X158996190Y-125846819D01*
X158996190Y-125846819D02*
X158900952Y-125799200D01*
X158900952Y-125799200D02*
X158853333Y-125751580D01*
X158853333Y-125751580D02*
X158805714Y-125656342D01*
X158805714Y-125656342D02*
X158758095Y-125465866D01*
X158758095Y-125465866D02*
X158758095Y-125227771D01*
X158758095Y-125227771D02*
X158805714Y-125037295D01*
X158805714Y-125037295D02*
X158853333Y-124942057D01*
X158853333Y-124942057D02*
X158900952Y-124894438D01*
X158900952Y-124894438D02*
X158996190Y-124846819D01*
X159948571Y-124846819D02*
X160043809Y-124846819D01*
X160043809Y-124846819D02*
X160139047Y-124894438D01*
X160139047Y-124894438D02*
X160186666Y-124942057D01*
X160186666Y-124942057D02*
X160234285Y-125037295D01*
X160234285Y-125037295D02*
X160281904Y-125227771D01*
X160281904Y-125227771D02*
X160281904Y-125465866D01*
X160281904Y-125465866D02*
X160234285Y-125656342D01*
X160234285Y-125656342D02*
X160186666Y-125751580D01*
X160186666Y-125751580D02*
X160139047Y-125799200D01*
X160139047Y-125799200D02*
X160043809Y-125846819D01*
X160043809Y-125846819D02*
X159948571Y-125846819D01*
X159948571Y-125846819D02*
X159853333Y-125799200D01*
X159853333Y-125799200D02*
X159805714Y-125751580D01*
X159805714Y-125751580D02*
X159758095Y-125656342D01*
X159758095Y-125656342D02*
X159710476Y-125465866D01*
X159710476Y-125465866D02*
X159710476Y-125227771D01*
X159710476Y-125227771D02*
X159758095Y-125037295D01*
X159758095Y-125037295D02*
X159805714Y-124942057D01*
X159805714Y-124942057D02*
X159853333Y-124894438D01*
X159853333Y-124894438D02*
X159948571Y-124846819D01*
X160710476Y-125846819D02*
X160710476Y-124846819D01*
X160805714Y-125465866D02*
X161091428Y-125846819D01*
X161091428Y-125180152D02*
X160710476Y-125561104D01*
X161472381Y-125846819D02*
X161710476Y-125846819D01*
X161710476Y-125846819D02*
X161710476Y-125656342D01*
X161710476Y-125656342D02*
X161615238Y-125608723D01*
X161615238Y-125608723D02*
X161520000Y-125513485D01*
X161520000Y-125513485D02*
X161472381Y-125370628D01*
X161472381Y-125370628D02*
X161472381Y-125132533D01*
X161472381Y-125132533D02*
X161520000Y-124989676D01*
X161520000Y-124989676D02*
X161615238Y-124894438D01*
X161615238Y-124894438D02*
X161758095Y-124846819D01*
X161758095Y-124846819D02*
X161948571Y-124846819D01*
X161948571Y-124846819D02*
X162091428Y-124894438D01*
X162091428Y-124894438D02*
X162186666Y-124989676D01*
X162186666Y-124989676D02*
X162234285Y-125132533D01*
X162234285Y-125132533D02*
X162234285Y-125370628D01*
X162234285Y-125370628D02*
X162186666Y-125513485D01*
X162186666Y-125513485D02*
X162091428Y-125608723D01*
X162091428Y-125608723D02*
X161996190Y-125656342D01*
X161996190Y-125656342D02*
X161996190Y-125846819D01*
X161996190Y-125846819D02*
X162234285Y-125846819D01*
X159377142Y-128216819D02*
X159043809Y-127740628D01*
X158805714Y-128216819D02*
X158805714Y-127216819D01*
X158805714Y-127216819D02*
X159186666Y-127216819D01*
X159186666Y-127216819D02*
X159281904Y-127264438D01*
X159281904Y-127264438D02*
X159329523Y-127312057D01*
X159329523Y-127312057D02*
X159377142Y-127407295D01*
X159377142Y-127407295D02*
X159377142Y-127550152D01*
X159377142Y-127550152D02*
X159329523Y-127645390D01*
X159329523Y-127645390D02*
X159281904Y-127693009D01*
X159281904Y-127693009D02*
X159186666Y-127740628D01*
X159186666Y-127740628D02*
X158805714Y-127740628D01*
X160329523Y-128216819D02*
X159758095Y-128216819D01*
X160043809Y-128216819D02*
X160043809Y-127216819D01*
X160043809Y-127216819D02*
X159948571Y-127359676D01*
X159948571Y-127359676D02*
X159853333Y-127454914D01*
X159853333Y-127454914D02*
X159758095Y-127502533D01*
X160948571Y-127216819D02*
X161043809Y-127216819D01*
X161043809Y-127216819D02*
X161139047Y-127264438D01*
X161139047Y-127264438D02*
X161186666Y-127312057D01*
X161186666Y-127312057D02*
X161234285Y-127407295D01*
X161234285Y-127407295D02*
X161281904Y-127597771D01*
X161281904Y-127597771D02*
X161281904Y-127835866D01*
X161281904Y-127835866D02*
X161234285Y-128026342D01*
X161234285Y-128026342D02*
X161186666Y-128121580D01*
X161186666Y-128121580D02*
X161139047Y-128169200D01*
X161139047Y-128169200D02*
X161043809Y-128216819D01*
X161043809Y-128216819D02*
X160948571Y-128216819D01*
X160948571Y-128216819D02*
X160853333Y-128169200D01*
X160853333Y-128169200D02*
X160805714Y-128121580D01*
X160805714Y-128121580D02*
X160758095Y-128026342D01*
X160758095Y-128026342D02*
X160710476Y-127835866D01*
X160710476Y-127835866D02*
X160710476Y-127597771D01*
X160710476Y-127597771D02*
X160758095Y-127407295D01*
X160758095Y-127407295D02*
X160805714Y-127312057D01*
X160805714Y-127312057D02*
X160853333Y-127264438D01*
X160853333Y-127264438D02*
X160948571Y-127216819D01*
D13*
%TO.C,J4*%
X124850000Y-124300000D02*
X136850000Y-124300000D01*
X124850000Y-135300000D02*
X124850000Y-124300000D01*
X126350000Y-135300000D02*
X124850000Y-135300000D01*
X126350000Y-136500000D02*
X126350000Y-135300000D01*
X126350000Y-136500000D02*
X127850000Y-136500000D01*
X127850000Y-136500000D02*
X127850000Y-138300000D01*
X127850000Y-138300000D02*
X133850000Y-138300000D01*
X133850000Y-136500000D02*
X133850000Y-138300000D01*
X135350000Y-135300000D02*
X136850000Y-135300000D01*
X135350000Y-136500000D02*
X133850000Y-136500000D01*
X135350000Y-136500000D02*
X135350000Y-135300000D01*
X136850000Y-135300000D02*
X136850000Y-124300000D01*
%TO.C,R13*%
X173152000Y-101562000D02*
X176352000Y-101562000D01*
X173152000Y-103162000D02*
X173152000Y-101562000D01*
X176352000Y-101562000D02*
X176352000Y-103162000D01*
X176352000Y-103162000D02*
X173152000Y-103162000D01*
%TO.C,R1*%
X191224000Y-87706000D02*
X191224000Y-84506000D01*
X192824000Y-87706000D02*
X191224000Y-87706000D01*
X191224000Y-84506000D02*
X192824000Y-84506000D01*
X192824000Y-84506000D02*
X192824000Y-87706000D01*
%TO.C,R7*%
X138392000Y-114183500D02*
X138392000Y-110983500D01*
X139992000Y-114183500D02*
X138392000Y-114183500D01*
X138392000Y-110983500D02*
X139992000Y-110983500D01*
X139992000Y-110983500D02*
X139992000Y-114183500D01*
%TO.C,R2*%
X191224000Y-71196000D02*
X191224000Y-67996000D01*
X192824000Y-71196000D02*
X191224000Y-71196000D01*
X191224000Y-67996000D02*
X192824000Y-67996000D01*
X192824000Y-67996000D02*
X192824000Y-71196000D01*
%TO.C,SW3*%
X175964000Y-80246000D02*
X175964000Y-92246000D01*
X175964000Y-80246000D02*
X187964000Y-80246000D01*
X175964000Y-92246000D02*
X187964000Y-92246000D01*
X187964000Y-80246000D02*
X187964000Y-92246000D01*
%TO.C,C4*%
X161560000Y-103007000D02*
X163560000Y-103007000D01*
X161560000Y-104257000D02*
X161560000Y-103007000D01*
X163560000Y-103007000D02*
X163560000Y-104257000D01*
X163560000Y-104257000D02*
X161560000Y-104257000D01*
%TO.C,R8*%
X143980000Y-114183500D02*
X143980000Y-110983500D01*
X145580000Y-114183500D02*
X143980000Y-114183500D01*
X143980000Y-110983500D02*
X145580000Y-110983500D01*
X145580000Y-110983500D02*
X145580000Y-114183500D01*
%TO.C,C2*%
X136382000Y-118735000D02*
X134382000Y-118735000D01*
X136382000Y-117485000D02*
X136382000Y-118735000D01*
X134382000Y-118735000D02*
X134382000Y-117485000D01*
X134382000Y-117485000D02*
X136382000Y-117485000D01*
%TO.C,J1*%
X119093000Y-134731000D02*
X108093000Y-134731000D01*
X119093000Y-123731000D02*
X119093000Y-134731000D01*
X118393000Y-134731000D02*
X118393000Y-146131000D01*
X108793000Y-146131000D02*
X118393000Y-146131000D01*
X108793000Y-134731000D02*
X108793000Y-146131000D01*
X108093000Y-134731000D02*
X108093000Y-123731000D01*
X108093000Y-123731000D02*
X119093000Y-123731000D01*
X114593000Y-141931000D02*
G75*
G03*
X114593000Y-141931000I-1000000J0D01*
G01*
%TO.C,R12*%
X144272000Y-117602000D02*
X146202000Y-117602000D01*
X146202000Y-116352000D02*
X146202000Y-118852000D01*
X146202000Y-118852000D02*
X152502000Y-118852000D01*
X152502000Y-116352000D02*
X146202000Y-116352000D01*
X152502000Y-118852000D02*
X152502000Y-116352000D01*
X154432000Y-117602000D02*
X152502000Y-117602000D01*
%TO.C,U6*%
X164318000Y-111780000D02*
X165318000Y-112780000D01*
X160818000Y-111780000D02*
X164318000Y-111780000D01*
X165318000Y-112780000D02*
X165318000Y-114280000D01*
X165318000Y-114280000D02*
X160818000Y-114280000D01*
X160818000Y-114280000D02*
X160818000Y-111780000D01*
%TO.C,J5*%
X168258000Y-57226000D02*
X170758000Y-57226000D01*
X170758000Y-57226000D02*
X170758000Y-54726000D01*
X166548000Y-56816000D02*
X170348000Y-56816000D01*
X170348000Y-56816000D02*
X170348000Y-49316000D01*
X166548000Y-49316000D02*
X166548000Y-56816000D01*
X170348000Y-49316000D02*
X166548000Y-49316000D01*
%TO.C,C5*%
X129810000Y-121295000D02*
X131810000Y-121295000D01*
X129810000Y-122545000D02*
X129810000Y-121295000D01*
X131810000Y-121295000D02*
X131810000Y-122545000D01*
X131810000Y-122545000D02*
X129810000Y-122545000D01*
%TO.C,U2*%
X131842000Y-70485000D02*
X132842000Y-71485000D01*
X122682000Y-70485000D02*
X131842000Y-70485000D01*
X132842000Y-71485000D02*
X132842000Y-76835000D01*
X132842000Y-76835000D02*
X122682000Y-76835000D01*
X122682000Y-76835000D02*
X122682000Y-70485000D01*
%TO.C,U3*%
X126738000Y-114460000D02*
X127738000Y-115460000D01*
X124738000Y-114460000D02*
X126738000Y-114460000D01*
X127738000Y-115460000D02*
X127738000Y-117460000D01*
X127738000Y-117460000D02*
X124738000Y-117460000D01*
X124738000Y-117460000D02*
X124738000Y-114460000D01*
%TO.C,R14*%
X173152000Y-105118000D02*
X176352000Y-105118000D01*
X173152000Y-106718000D02*
X173152000Y-105118000D01*
X176352000Y-105118000D02*
X176352000Y-106718000D01*
X176352000Y-106718000D02*
X173152000Y-106718000D01*
%TO.C,R6*%
X132550000Y-114183500D02*
X132550000Y-110983500D01*
X134150000Y-114183500D02*
X132550000Y-114183500D01*
X132550000Y-110983500D02*
X134150000Y-110983500D01*
X134150000Y-110983500D02*
X134150000Y-114183500D01*
%TO.C,J6*%
X140220000Y-127430000D02*
X140220000Y-124380000D01*
X140220000Y-127430000D02*
X150410000Y-127430000D01*
X140220000Y-129960000D02*
X140220000Y-127430000D01*
X140220000Y-129960000D02*
X141160000Y-129960000D01*
X140220000Y-136820000D02*
X140220000Y-129960000D01*
X140220000Y-136820000D02*
X140780000Y-136820000D01*
X140780000Y-127170000D02*
X140780000Y-124630000D01*
X140780000Y-130350000D02*
X140780000Y-134920000D01*
X140780000Y-130350000D02*
X141160000Y-130350000D01*
X140780000Y-134920000D02*
X140780000Y-136820000D01*
X140780000Y-136820000D02*
X144840000Y-136820000D01*
X141160000Y-129960000D02*
X144460000Y-129960000D01*
X141160000Y-131110000D02*
X141540000Y-131110000D01*
X141160000Y-134280000D02*
X141160000Y-131110000D01*
X141180000Y-126150000D02*
X144240000Y-125520000D01*
X141310000Y-126280000D02*
X144360000Y-125650000D01*
X141540000Y-130350000D02*
X144080000Y-130350000D01*
X141540000Y-133140000D02*
X141540000Y-130350000D01*
X141540000Y-133140000D02*
X144080000Y-133140000D01*
X144080000Y-133140000D02*
X144080000Y-130350000D01*
X144460000Y-129960000D02*
X146160000Y-129960000D01*
X144460000Y-130350000D02*
X141160000Y-130350000D01*
X144460000Y-131110000D02*
X144080000Y-131110000D01*
X144460000Y-134280000D02*
X141160000Y-134280000D01*
X144460000Y-134280000D02*
X144460000Y-131110000D01*
X144840000Y-124630000D02*
X140780000Y-124630000D01*
X144840000Y-127170000D02*
X140780000Y-127170000D01*
X144840000Y-127170000D02*
X144840000Y-124630000D01*
X144840000Y-130350000D02*
X144460000Y-130350000D01*
X144840000Y-134920000D02*
X140780000Y-134920000D01*
X144840000Y-134920000D02*
X144840000Y-130350000D01*
X144840000Y-136820000D02*
X144840000Y-134920000D01*
X144840000Y-136820000D02*
X145780000Y-136820000D01*
X145780000Y-124630000D02*
X149850000Y-124630000D01*
X145780000Y-127170000D02*
X145780000Y-124630000D01*
X145780000Y-130350000D02*
X146160000Y-130350000D01*
X145780000Y-134920000D02*
X145780000Y-130350000D01*
X145780000Y-134920000D02*
X149850000Y-134920000D01*
X145780000Y-136820000D02*
X145780000Y-134920000D01*
X145780000Y-136820000D02*
X149850000Y-136820000D01*
X146160000Y-130350000D02*
X149470000Y-130350000D01*
X146160000Y-131110000D02*
X146540000Y-131110000D01*
X146160000Y-134280000D02*
X146160000Y-131110000D01*
X146190000Y-126150000D02*
X149240000Y-125520000D01*
X146320000Y-126280000D02*
X149360000Y-125650000D01*
X146540000Y-130350000D02*
X149080000Y-130350000D01*
X146540000Y-133140000D02*
X146540000Y-130350000D01*
X146540000Y-133140000D02*
X149080000Y-133140000D01*
X149080000Y-133140000D02*
X149080000Y-130350000D01*
X149470000Y-129960000D02*
X146160000Y-129960000D01*
X149470000Y-131110000D02*
X149080000Y-131110000D01*
X149470000Y-134280000D02*
X146160000Y-134280000D01*
X149470000Y-134280000D02*
X149470000Y-131110000D01*
X149850000Y-124630000D02*
X149850000Y-127170000D01*
X149850000Y-127170000D02*
X145780000Y-127170000D01*
X149850000Y-130350000D02*
X149470000Y-130350000D01*
X149850000Y-130350000D02*
X149850000Y-134920000D01*
X149850000Y-134920000D02*
X149850000Y-136820000D01*
X149850000Y-136820000D02*
X150410000Y-136820000D01*
X150410000Y-124380000D02*
X140220000Y-124380000D01*
X150410000Y-124380000D02*
X150410000Y-127430000D01*
X150410000Y-124380000D02*
X150910000Y-124380000D01*
X150410000Y-127430000D02*
X150410000Y-128950000D01*
X150410000Y-128950000D02*
X150410000Y-129960000D01*
X150410000Y-129960000D02*
X149470000Y-129960000D01*
X150410000Y-129960000D02*
X150410000Y-134660000D01*
X150410000Y-134660000D02*
X150410000Y-135810000D01*
X150410000Y-135810000D02*
X150410000Y-136820000D01*
X150910000Y-124380000D02*
X150910000Y-129200000D01*
X150910000Y-129200000D02*
X150410000Y-128950000D01*
X150910000Y-134410000D02*
X150410000Y-134660000D01*
X150910000Y-134410000D02*
X150910000Y-136060000D01*
X150910000Y-136060000D02*
X150410000Y-135810000D01*
X144339976Y-125528466D02*
G75*
G03*
X141180000Y-125600000I-1549976J-1361533D01*
G01*
X141237028Y-125541301D02*
G75*
G03*
X141380000Y-126470000I432973J-408699D01*
G01*
X144285619Y-126513995D02*
G75*
G03*
X144330000Y-125550000I-455619J503995D01*
G01*
X141340171Y-126441418D02*
G75*
G03*
X144330000Y-126480000I1519829J1911418D01*
G01*
X149338239Y-125538314D02*
G75*
G03*
X146190000Y-125600000I-1548239J-1351686D01*
G01*
X146237028Y-125541301D02*
G75*
G03*
X146380000Y-126470000I432972J-408699D01*
G01*
X146347668Y-126431736D02*
G75*
G03*
X149330000Y-126479999I1522332J1901736D01*
G01*
X149285532Y-126523995D02*
G75*
G03*
X149340000Y-125550000I-455532J513995D01*
G01*
%TO.C,BZ1*%
X168640000Y-95768000D02*
G75*
G03*
X168640000Y-95768000I-1000000J0D01*
G01*
X173640000Y-95768000D02*
G75*
G03*
X173640000Y-95768000I-6000000J0D01*
G01*
%TO.C,SW1*%
X175964000Y-47380000D02*
X175964000Y-59380000D01*
X175964000Y-47380000D02*
X187964000Y-47380000D01*
X175964000Y-59380000D02*
X187964000Y-59380000D01*
X187964000Y-47380000D02*
X187964000Y-59380000D01*
%TO.C,SW4*%
X155266000Y-135984000D02*
X155266000Y-132984000D01*
X156266000Y-131984000D02*
X155266000Y-132984000D01*
X156266000Y-131984000D02*
X164266000Y-131984000D01*
X158016000Y-135984000D02*
X158016000Y-137984000D01*
X158016000Y-137984000D02*
X159516000Y-137984000D01*
X159516000Y-137984000D02*
X159516000Y-135984000D01*
X164266000Y-131984000D02*
X164266000Y-135984000D01*
X164266000Y-135984000D02*
X155266000Y-135984000D01*
%TO.C,J3*%
X194336455Y-96288232D02*
X179836455Y-96288232D01*
X179836455Y-96288232D02*
X179836455Y-111038232D01*
X179836455Y-111038232D02*
X194336455Y-111038232D01*
X194336455Y-111038232D02*
X194336455Y-96288232D01*
%TO.C,C1*%
X186928000Y-113625000D02*
X184928000Y-113625000D01*
X186928000Y-112375000D02*
X186928000Y-113625000D01*
X184928000Y-113625000D02*
X184928000Y-112375000D01*
X184928000Y-112375000D02*
X186928000Y-112375000D01*
%TO.C,R3*%
X191224000Y-54940000D02*
X191224000Y-51740000D01*
X192824000Y-54940000D02*
X191224000Y-54940000D01*
X191224000Y-51740000D02*
X192824000Y-51740000D01*
X192824000Y-51740000D02*
X192824000Y-54940000D01*
%TO.C,SW2*%
X175964000Y-63816000D02*
X175964000Y-75816000D01*
X175964000Y-63816000D02*
X187964000Y-63816000D01*
X175964000Y-75816000D02*
X187964000Y-75816000D01*
X187964000Y-63816000D02*
X187964000Y-75816000D01*
%TO.C,D3*%
X116318000Y-77874190D02*
X116318000Y-75541810D01*
X116318554Y-75542525D02*
G75*
G03*
X116317999Y-77874190I-1500554J-1165475D01*
G01*
X116318000Y-76708000D02*
G75*
G03*
X116318000Y-76708000I-1500000J0D01*
G01*
%TO.C,R5*%
X108712000Y-114554000D02*
X110642000Y-114554000D01*
X110642000Y-113304000D02*
X110642000Y-115804000D01*
X110642000Y-115804000D02*
X116942000Y-115804000D01*
X116942000Y-113304000D02*
X110642000Y-113304000D01*
X116942000Y-115804000D02*
X116942000Y-113304000D01*
X118872000Y-114554000D02*
X116942000Y-114554000D01*
%TO.C,J7*%
X143632000Y-123190000D02*
X142997000Y-122555000D01*
X148077000Y-123190000D02*
X143632000Y-123190000D01*
X142997000Y-122555000D02*
X142997000Y-120650000D01*
X142997000Y-120650000D02*
X148077000Y-120650000D01*
X148077000Y-120650000D02*
X148077000Y-123190000D01*
D15*
%TO.C,U1*%
X152888000Y-80030000D02*
X104688000Y-80030000D01*
X104688000Y-80030000D02*
X104688000Y-89910000D01*
X159088000Y-84980000D02*
X159088000Y-102980000D01*
X152888000Y-84980000D02*
X152888000Y-80030000D01*
X152888000Y-84980000D02*
X159088000Y-84980000D01*
X104688000Y-89910000D02*
X103788000Y-89910000D01*
X103788000Y-89910000D02*
X103788000Y-98040000D01*
X104688000Y-98040000D02*
X104688000Y-107930000D01*
X103788000Y-98040000D02*
X104688000Y-98040000D01*
X159088000Y-102980000D02*
X152888000Y-102980000D01*
X152888000Y-102980000D02*
X152888000Y-84980000D01*
X152888000Y-107930000D02*
X152888000Y-102980000D01*
X104688000Y-107930000D02*
X152888000Y-107930000D01*
D16*
X151858000Y-79410000D02*
G75*
G03*
X151858000Y-79410000I-100000J0D01*
G01*
D13*
%TO.C,R11*%
X154940000Y-121666000D02*
X156870000Y-121666000D01*
X156870000Y-120416000D02*
X156870000Y-122916000D01*
X156870000Y-122916000D02*
X163170000Y-122916000D01*
X163170000Y-120416000D02*
X156870000Y-120416000D01*
X163170000Y-122916000D02*
X163170000Y-120416000D01*
X165100000Y-121666000D02*
X163170000Y-121666000D01*
%TO.C,C3*%
X163084000Y-106563000D02*
X165084000Y-106563000D01*
X163084000Y-107813000D02*
X163084000Y-106563000D01*
X165084000Y-106563000D02*
X165084000Y-107813000D01*
X165084000Y-107813000D02*
X163084000Y-107813000D01*
%TO.C,Y1*%
X132498000Y-63286000D02*
X132498000Y-55286000D01*
X132498000Y-55286000D02*
X129498000Y-55286000D01*
X131948000Y-64536000D02*
X131948000Y-65786000D01*
X131543000Y-63286000D02*
X131948000Y-64536000D01*
X130453000Y-63286000D02*
X130048000Y-64536000D01*
X130048000Y-64536000D02*
X130048000Y-65786000D01*
X129498000Y-63286000D02*
X132498000Y-63286000D01*
X129498000Y-55286000D02*
X129498000Y-63286000D01*
%TO.C,R15*%
X173152000Y-108674000D02*
X176352000Y-108674000D01*
X173152000Y-110274000D02*
X173152000Y-108674000D01*
X176352000Y-108674000D02*
X176352000Y-110274000D01*
X176352000Y-110274000D02*
X173152000Y-110274000D01*
%TO.C,R4*%
X108712000Y-118872000D02*
X110642000Y-118872000D01*
X110642000Y-117622000D02*
X110642000Y-120122000D01*
X110642000Y-120122000D02*
X116942000Y-120122000D01*
X116942000Y-117622000D02*
X110642000Y-117622000D01*
X116942000Y-120122000D02*
X116942000Y-117622000D01*
X118872000Y-118872000D02*
X116942000Y-118872000D01*
%TO.C,R10*%
X165100000Y-127762000D02*
X163170000Y-127762000D01*
X163170000Y-129012000D02*
X163170000Y-126512000D01*
X163170000Y-126512000D02*
X156870000Y-126512000D01*
X156870000Y-129012000D02*
X163170000Y-129012000D01*
X156870000Y-126512000D02*
X156870000Y-129012000D01*
X154940000Y-127762000D02*
X156870000Y-127762000D01*
%TD*%
M02*
