M48
; DRILL file {KiCad 7.0.9} date Wed Feb 28 20:27:17 2024
; FORMAT={-:-/ absolute / metric / decimal}
; #@! TF.CreationDate,2024-02-28T20:27:17+01:00
; #@! TF.GenerationSoftware,Kicad,Pcbnew,7.0.9
; #@! TF.FileFunction,Plated,1,2,PTH
FMAT,2
METRIC
; #@! TA.AperFunction,Plated,PTH,ViaDrill
T1C0.400
; #@! TA.AperFunction,Plated,PTH,ComponentDrill
T2C0.500
; #@! TA.AperFunction,Plated,PTH,ComponentDrill
T3C0.800
; #@! TA.AperFunction,Plated,PTH,ComponentDrill
T4C0.900
; #@! TA.AperFunction,Plated,PTH,ComponentDrill
T5C1.000
; #@! TA.AperFunction,Plated,PTH,ComponentDrill
T6C1.020
; #@! TA.AperFunction,Plated,PTH,ComponentDrill
T7C1.100
; #@! TA.AperFunction,Plated,PTH,ComponentDrill
T8C1.300
; #@! TA.AperFunction,Plated,PTH,ComponentDrill
T9C1.320
; #@! TA.AperFunction,Plated,PTH,ComponentDrill
T10C1.500
; #@! TA.AperFunction,Plated,PTH,ComponentDrill
T11C1.540
; #@! TA.AperFunction,Plated,PTH,ComponentDrill
T12C1.700
%
G90
G05
T1
X123.5Y-113.25
X129.804Y-103.712
X130.335Y-115.826
X134.417Y-109.499
X169.647Y-95.987
X178.054Y-105.658
T2
X130.048Y-65.786
X131.948Y-65.786
T3
X108.712Y-114.554
X108.712Y-118.872
X118.872Y-114.554
X118.872Y-118.872
X123.952Y-69.85
X123.952Y-77.47
X126.492Y-69.85
X126.492Y-77.47
X129.032Y-69.85
X129.032Y-77.47
X131.572Y-69.85
X131.572Y-77.47
X144.272Y-117.602
X154.432Y-117.602
X154.94Y-121.666
X154.94Y-127.762
X165.1Y-121.666
X165.1Y-127.762
T4
X112.278Y-76.708
X114.818Y-76.708
X117.358Y-76.708
X157.266Y-134.112
X159.766Y-134.112
X162.266Y-134.112
T5
X144.267Y-121.92
X145.796Y-49.53
X146.807Y-121.92
X148.336Y-49.53
X150.876Y-49.53
X153.416Y-49.53
X167.64Y-91.968
X167.64Y-99.568
X168.148Y-51.816
X168.148Y-54.316
T6
X105.918Y-81.28
X105.918Y-106.68
X108.458Y-81.28
X108.458Y-106.68
X110.998Y-81.28
X110.998Y-106.68
X113.538Y-81.28
X113.538Y-106.68
X116.078Y-81.28
X116.078Y-106.68
X118.618Y-81.28
X118.618Y-106.68
X121.158Y-81.28
X121.158Y-106.68
X123.698Y-81.28
X123.698Y-106.68
X126.238Y-81.28
X126.238Y-106.68
X128.778Y-81.28
X128.778Y-106.68
X131.318Y-81.28
X131.318Y-106.68
X133.858Y-81.28
X133.858Y-106.68
X136.398Y-81.28
X136.398Y-106.68
X138.938Y-81.28
X138.938Y-106.68
X141.478Y-81.28
X141.478Y-106.68
X144.018Y-81.28
X144.018Y-106.68
X146.558Y-81.28
X146.558Y-106.68
X149.098Y-81.28
X149.098Y-106.68
X151.638Y-81.28
X151.638Y-106.68
T7
X113.593Y-129.231
T8
X116.078Y-71.374
X175.714Y-50.88
X175.714Y-55.88
X175.714Y-67.316
X175.714Y-72.316
X175.714Y-83.746
X175.714Y-88.746
X188.214Y-50.88
X188.214Y-55.88
X188.214Y-67.316
X188.214Y-72.316
X188.214Y-83.746
X188.214Y-88.746
T9
X142.8Y-130.6
X147.8Y-130.6
T10
X108.568Y-124.206
X108.568Y-134.256
X118.618Y-124.206
X118.618Y-134.256
T11
X169.012Y-117.112
X169.012Y-120.512
X169.012Y-128.112
X169.012Y-131.612
X191.912Y-117.412
X191.912Y-131.612
T12
X116.078Y-50.8
T3
G00X125.77Y-126.67
M15
G01X125.77Y-127.37
M16
G05
G00X128.35Y-126.65
M15
G01X128.35Y-127.35
M16
G05
G00X130.46Y-132.03
M15
G01X131.16Y-132.03
M16
G05
G00X133.35Y-127.35
M15
G01X133.35Y-126.65
M16
G05
G00X135.93Y-127.37
M15
G01X135.93Y-126.67
M16
G05
T0
M30
