%TF.GenerationSoftware,KiCad,Pcbnew,7.0.9*%
%TF.CreationDate,2024-02-28T20:27:22+01:00*%
%TF.ProjectId,logger_pcb_kicad,6c6f6767-6572-45f7-9063-625f6b696361,rev?*%
%TF.SameCoordinates,Original*%
%TF.FileFunction,OtherDrawing,Comment*%
%FSLAX46Y46*%
G04 Gerber Fmt 4.6, Leading zero omitted, Abs format (unit mm)*
G04 Created by KiCad (PCBNEW 7.0.9) date 2024-02-28 20:27:22*
%MOMM*%
%LPD*%
G01*
G04 APERTURE LIST*
%ADD10C,0.150000*%
G04 APERTURE END LIST*
D10*
X127445238Y-136104819D02*
X127445238Y-135104819D01*
X127445238Y-135104819D02*
X127826190Y-135104819D01*
X127826190Y-135104819D02*
X127921428Y-135152438D01*
X127921428Y-135152438D02*
X127969047Y-135200057D01*
X127969047Y-135200057D02*
X128016666Y-135295295D01*
X128016666Y-135295295D02*
X128016666Y-135438152D01*
X128016666Y-135438152D02*
X127969047Y-135533390D01*
X127969047Y-135533390D02*
X127921428Y-135581009D01*
X127921428Y-135581009D02*
X127826190Y-135628628D01*
X127826190Y-135628628D02*
X127445238Y-135628628D01*
X129016666Y-136009580D02*
X128969047Y-136057200D01*
X128969047Y-136057200D02*
X128826190Y-136104819D01*
X128826190Y-136104819D02*
X128730952Y-136104819D01*
X128730952Y-136104819D02*
X128588095Y-136057200D01*
X128588095Y-136057200D02*
X128492857Y-135961961D01*
X128492857Y-135961961D02*
X128445238Y-135866723D01*
X128445238Y-135866723D02*
X128397619Y-135676247D01*
X128397619Y-135676247D02*
X128397619Y-135533390D01*
X128397619Y-135533390D02*
X128445238Y-135342914D01*
X128445238Y-135342914D02*
X128492857Y-135247676D01*
X128492857Y-135247676D02*
X128588095Y-135152438D01*
X128588095Y-135152438D02*
X128730952Y-135104819D01*
X128730952Y-135104819D02*
X128826190Y-135104819D01*
X128826190Y-135104819D02*
X128969047Y-135152438D01*
X128969047Y-135152438D02*
X129016666Y-135200057D01*
X129778571Y-135581009D02*
X129921428Y-135628628D01*
X129921428Y-135628628D02*
X129969047Y-135676247D01*
X129969047Y-135676247D02*
X130016666Y-135771485D01*
X130016666Y-135771485D02*
X130016666Y-135914342D01*
X130016666Y-135914342D02*
X129969047Y-136009580D01*
X129969047Y-136009580D02*
X129921428Y-136057200D01*
X129921428Y-136057200D02*
X129826190Y-136104819D01*
X129826190Y-136104819D02*
X129445238Y-136104819D01*
X129445238Y-136104819D02*
X129445238Y-135104819D01*
X129445238Y-135104819D02*
X129778571Y-135104819D01*
X129778571Y-135104819D02*
X129873809Y-135152438D01*
X129873809Y-135152438D02*
X129921428Y-135200057D01*
X129921428Y-135200057D02*
X129969047Y-135295295D01*
X129969047Y-135295295D02*
X129969047Y-135390533D01*
X129969047Y-135390533D02*
X129921428Y-135485771D01*
X129921428Y-135485771D02*
X129873809Y-135533390D01*
X129873809Y-135533390D02*
X129778571Y-135581009D01*
X129778571Y-135581009D02*
X129445238Y-135581009D01*
X131588095Y-136057200D02*
X131492857Y-136104819D01*
X131492857Y-136104819D02*
X131302381Y-136104819D01*
X131302381Y-136104819D02*
X131207143Y-136057200D01*
X131207143Y-136057200D02*
X131159524Y-135961961D01*
X131159524Y-135961961D02*
X131159524Y-135581009D01*
X131159524Y-135581009D02*
X131207143Y-135485771D01*
X131207143Y-135485771D02*
X131302381Y-135438152D01*
X131302381Y-135438152D02*
X131492857Y-135438152D01*
X131492857Y-135438152D02*
X131588095Y-135485771D01*
X131588095Y-135485771D02*
X131635714Y-135581009D01*
X131635714Y-135581009D02*
X131635714Y-135676247D01*
X131635714Y-135676247D02*
X131159524Y-135771485D01*
X132492857Y-136104819D02*
X132492857Y-135104819D01*
X132492857Y-136057200D02*
X132397619Y-136104819D01*
X132397619Y-136104819D02*
X132207143Y-136104819D01*
X132207143Y-136104819D02*
X132111905Y-136057200D01*
X132111905Y-136057200D02*
X132064286Y-136009580D01*
X132064286Y-136009580D02*
X132016667Y-135914342D01*
X132016667Y-135914342D02*
X132016667Y-135628628D01*
X132016667Y-135628628D02*
X132064286Y-135533390D01*
X132064286Y-135533390D02*
X132111905Y-135485771D01*
X132111905Y-135485771D02*
X132207143Y-135438152D01*
X132207143Y-135438152D02*
X132397619Y-135438152D01*
X132397619Y-135438152D02*
X132492857Y-135485771D01*
X133397619Y-135438152D02*
X133397619Y-136247676D01*
X133397619Y-136247676D02*
X133350000Y-136342914D01*
X133350000Y-136342914D02*
X133302381Y-136390533D01*
X133302381Y-136390533D02*
X133207143Y-136438152D01*
X133207143Y-136438152D02*
X133064286Y-136438152D01*
X133064286Y-136438152D02*
X132969048Y-136390533D01*
X133397619Y-136057200D02*
X133302381Y-136104819D01*
X133302381Y-136104819D02*
X133111905Y-136104819D01*
X133111905Y-136104819D02*
X133016667Y-136057200D01*
X133016667Y-136057200D02*
X132969048Y-136009580D01*
X132969048Y-136009580D02*
X132921429Y-135914342D01*
X132921429Y-135914342D02*
X132921429Y-135628628D01*
X132921429Y-135628628D02*
X132969048Y-135533390D01*
X132969048Y-135533390D02*
X133016667Y-135485771D01*
X133016667Y-135485771D02*
X133111905Y-135438152D01*
X133111905Y-135438152D02*
X133302381Y-135438152D01*
X133302381Y-135438152D02*
X133397619Y-135485771D01*
X134254762Y-136057200D02*
X134159524Y-136104819D01*
X134159524Y-136104819D02*
X133969048Y-136104819D01*
X133969048Y-136104819D02*
X133873810Y-136057200D01*
X133873810Y-136057200D02*
X133826191Y-135961961D01*
X133826191Y-135961961D02*
X133826191Y-135581009D01*
X133826191Y-135581009D02*
X133873810Y-135485771D01*
X133873810Y-135485771D02*
X133969048Y-135438152D01*
X133969048Y-135438152D02*
X134159524Y-135438152D01*
X134159524Y-135438152D02*
X134254762Y-135485771D01*
X134254762Y-135485771D02*
X134302381Y-135581009D01*
X134302381Y-135581009D02*
X134302381Y-135676247D01*
X134302381Y-135676247D02*
X133826191Y-135771485D01*
%TO.C,J3*%
X199814600Y-99023200D02*
X199314600Y-99023200D01*
X196514600Y-99023200D02*
X195614600Y-99023200D01*
X195614600Y-99023200D02*
X194314600Y-99023200D01*
X199814600Y-99523200D02*
X199814600Y-99023200D01*
X195614600Y-99523200D02*
X195614600Y-99023200D01*
X199814600Y-109523200D02*
X199814600Y-110023200D01*
X195614600Y-109523200D02*
X195614600Y-110023200D01*
X199814600Y-110023200D02*
X199314600Y-110023200D01*
X196514600Y-110023200D02*
X196514600Y-99023200D01*
X196514600Y-110023200D02*
X195614600Y-110023200D01*
X195614600Y-110023200D02*
X194314600Y-110023200D01*
%TD*%
M02*
